<?xml version="1.0" standalone="no"?>
<!DOCTYPE svg PUBLIC "-//W3C//DTD SVG 20010904//EN"
 "http://www.w3.org/TR/2001/REC-SVG-20010904/DTD/svg10.dtd">
<svg version="1.0" xmlns="http://www.w3.org/2000/svg"
 width="527.000000pt" height="527.000000pt" viewBox="0 0 527.000000 527.000000"
 preserveAspectRatio="xMidYMid meet">
<metadata>
Created by potrace 1.14, written by Peter Selinger 2001-2017
</metadata>
<g transform="translate(0.000000,527.000000) scale(0.100000,-0.100000)"
fill="#000000" stroke="none">
<path d="M2826 4978 c-38 -78 -128 -262 -199 -408 -71 -146 -151 -310 -177
-365 -26 -55 -103 -212 -170 -350 -67 -137 -154 -315 -192 -395 -39 -80 -118
-242 -175 -360 -58 -118 -143 -292 -189 -386 -45 -94 -139 -286 -207 -427 -69
-141 -128 -264 -131 -274 -6 -17 16 -18 482 -18 l487 0 5 -927 5 -928 54 113
c30 61 97 200 149 307 52 107 107 222 122 255 15 33 69 146 120 250 51 105
112 231 135 280 23 50 82 171 130 270 48 99 114 236 147 305 114 236 190 395
243 505 29 61 94 196 145 300 51 105 107 222 125 260 18 39 56 117 84 174 28
57 51 107 51 111 0 3 -217 6 -482 6 l-483 0 -5 923 -5 923 -69 -144z m197
-1982 c218 0 397 -3 397 -7 0 -10 -46 -110 -143 -309 -118 -243 -229 -473
-299 -620 -127 -264 -235 -488 -285 -590 l-52 -105 0 455 -1 455 -409 0 -409
0 25 49 c14 27 60 121 103 210 123 255 228 471 362 746 68 140 165 338 214
439 l89 184 5 -454 5 -454 398 1z"/>
</g>
</svg>
