<svg width="288" height="110" viewBox="0 0 288 110" fill="none" xmlns="http://www.w3.org/2000/svg">
<g style="mix-blend-mode:luminosity">
<path d="M144.6 48.5957H165.213" stroke="#011911" stroke-width="2.52697" stroke-linecap="round" stroke-linejoin="round"/>
<path d="M134.797 38.1573C136.871 38.1573 138.552 36.4761 138.552 34.4025C138.552 32.3289 136.871 30.6477 134.797 30.6477C132.723 30.6477 131.042 32.3289 131.042 34.4025C131.042 36.4761 132.723 38.1573 134.797 38.1573Z" fill="#011911"/>
<path d="M92.2939 29.7463V63.089" stroke="#011911" stroke-width="2.60512" stroke-linecap="round" stroke-linejoin="round"/>
<path d="M107.463 78.5577C115.841 78.5577 122.632 71.7661 122.632 63.3882C122.632 55.0105 115.841 48.219 107.463 48.219C99.0855 48.219 92.2939 55.0105 92.2939 63.3882C92.2939 71.7661 99.0855 78.5577 107.463 78.5577Z" stroke="#011911" stroke-width="2.57909"/>
<path d="M254.503 29.9712V63.3136" stroke="#011911" stroke-width="2.60512" stroke-linecap="round" stroke-linejoin="round"/>
<path d="M269.674 78.5577C278.05 78.5577 284.842 71.7661 284.842 63.3882C284.842 55.0105 278.05 48.219 269.674 48.219C261.296 48.219 254.503 55.0105 254.503 63.3882C254.503 71.7661 261.296 78.5577 269.674 78.5577Z" stroke="#011911" stroke-width="2.57909"/>
<path d="M134.311 48.9702V78.9709" stroke="#011911" stroke-width="2.60512" stroke-linecap="round" stroke-linejoin="round"/>
<path d="M154.924 29.6714L155.262 79.4597" stroke="#011911" stroke-width="2.44881" stroke-linecap="round" stroke-linejoin="round"/>
<path d="M171.369 79.3085V63.4259C171.369 55.0273 178.178 48.219 186.576 48.219C194.975 48.219 201.783 55.0273 201.783 63.4259V79.3085" stroke="#011911" stroke-width="2.60512" stroke-linecap="round"/>
<path d="M228.514 79.0839C237.099 79.0839 244.059 72.1243 244.059 63.539C244.059 54.9538 237.099 47.9941 228.514 47.9941C219.928 47.9941 212.969 54.9538 212.969 63.539C212.969 72.1243 219.928 79.0839 228.514 79.0839Z" stroke="#011911" stroke-width="2.60512"/>
<path fill-rule="evenodd" clip-rule="evenodd" d="M20.3746 38.6545C30.9467 38.6545 39.5168 30.0844 39.5168 19.5123C39.5168 8.94036 30.9467 0.370117 20.3746 0.370117C9.80267 0.370117 1.23242 8.94036 1.23242 19.5123C1.23242 30.0844 9.80267 38.6545 20.3746 38.6545Z" fill="#23E0A2"/>
<path fill-rule="evenodd" clip-rule="evenodd" d="M20.3764 70.814C24.2066 70.814 27.774 71.9389 30.7666 73.8765C27.774 75.8146 24.2066 76.9395 20.3764 76.9395C16.5462 76.9395 12.9787 75.8146 9.98633 73.877C12.9787 71.9391 16.5462 70.814 20.3764 70.814ZM52.5353 70.814C56.3655 70.814 59.9329 71.9389 62.9255 73.8765C59.9329 75.8146 56.3655 76.9395 52.5353 76.9395C48.7052 76.9395 45.1375 75.8146 42.1452 73.877C45.1375 71.9391 48.7052 70.814 52.5353 70.814Z" fill="#23FDB4"/>
<path fill-rule="evenodd" clip-rule="evenodd" d="M39.5171 57.7964C39.5171 61.6265 38.392 65.194 36.4546 68.1863C34.5165 65.194 33.3916 61.6265 33.3916 57.7964C33.3916 53.966 34.5165 50.3986 36.4539 47.4062C38.392 50.3986 39.5171 53.966 39.5171 57.7964Z" fill="#23FDB4"/>
<path fill-rule="evenodd" clip-rule="evenodd" d="M39.5171 89.9561C39.5171 93.7862 38.392 97.3536 36.4546 100.346C34.5165 97.3536 33.3916 93.7862 33.3916 89.9561C33.3916 86.1257 34.5165 82.5582 36.4539 79.5659C38.392 82.5582 39.5171 86.1257 39.5171 89.9561Z" fill="#23FDB4"/>
<path fill-rule="evenodd" clip-rule="evenodd" d="M20.3746 38.6548C27.1163 38.6548 33.044 42.1399 36.4543 47.4067C34.5162 50.3993 33.3913 53.9667 33.3913 57.7969C33.3913 61.627 34.5162 65.1945 36.4538 68.187C34.9816 70.4615 33.0394 72.4037 30.7647 73.8767C33.0394 75.3489 34.9816 77.2911 36.4543 79.5656C34.5162 82.5582 33.3913 86.1256 33.3913 89.9558C33.3913 93.7859 34.5162 97.3533 36.4538 100.346C33.044 105.613 27.1163 109.098 20.3746 109.098C9.80267 109.098 1.23242 100.528 1.23242 89.9558C1.23242 83.214 4.7176 77.2863 9.98458 73.876C4.7176 70.4664 1.23242 64.5387 1.23242 57.7969C1.23242 47.2249 9.80267 38.6548 20.3746 38.6548ZM52.5334 38.6548C63.1056 38.6548 71.6757 47.2249 71.6757 57.7969C71.6757 64.5387 68.1906 70.4664 62.9235 73.8767C68.1906 77.2863 71.6757 83.214 71.6757 89.9558C71.6757 100.528 63.1056 109.098 52.5334 109.098C45.7918 109.098 39.8641 105.613 36.4538 100.346C38.3919 97.3533 39.5168 93.7859 39.5168 89.9558C39.5168 86.1256 38.3919 82.5582 36.4543 79.5656C37.9265 77.2911 39.8688 75.3489 42.1435 73.876C39.8688 72.4038 37.9265 70.4615 36.4538 68.187C38.3919 65.1945 39.5168 61.627 39.5168 57.7969C39.5168 53.9667 38.3919 50.3993 36.4543 47.4067C39.8641 42.1399 45.7918 38.6548 52.5334 38.6548ZM20.3746 70.8137C16.5444 70.8137 12.9769 71.9386 9.98458 73.876C12.9769 75.8141 16.5444 76.939 20.3746 76.939C24.2048 76.939 27.7723 75.8141 30.7647 73.8767C27.7723 71.9386 24.2048 70.8137 20.3746 70.8137ZM52.5334 70.8137C48.7033 70.8137 45.1358 71.9386 42.1435 73.876C45.1358 75.8141 48.7033 76.939 52.5334 76.939C56.3638 76.939 59.9312 75.8141 62.9235 73.8767C59.9312 71.9386 56.3638 70.8137 52.5334 70.8137Z" fill="#23E0A2"/>
</g>
</svg>
