<svg width="264" height="100" viewBox="0 0 264 100" fill="none" xmlns="http://www.w3.org/2000/svg">
<g style="mix-blend-mode:luminosity" clip-path="url(#clip0_79_40)">
<path d="M54.9884 65.5956C54.9884 62.6306 52.6036 60.208 49.6421 60.208H16.0073C13.065 60.208 10.6611 62.6112 10.6611 65.5956C10.6611 68.5606 13.0458 70.983 16.0073 70.983H49.6421C52.5844 70.9638 54.9884 68.5606 54.9884 65.5956Z" fill="black"/>
<path d="M258.207 79.079H239.928C239.235 79.079 238.83 78.3164 239.177 77.7298L260.48 43.0777C260.634 42.843 260.731 42.5888 260.846 42.3346C260.846 42.3151 260.865 42.2956 260.865 42.2759C260.942 42.0804 261 41.8848 261.039 41.6893C261.077 41.533 261.135 41.3764 261.154 41.2201C261.174 41.1614 261.174 41.083 261.174 41.0243C261.212 40.7898 261.251 40.5551 261.251 40.3009C261.251 37.524 259.016 35.2556 256.281 35.2556H229.989C227.388 35.2556 225.077 37.1917 224.827 39.8119C224.538 42.8235 226.869 45.3461 229.777 45.3461H245.764C246.458 45.3461 246.862 46.1088 246.515 46.6954L225.347 81.113C225.212 81.3475 225.116 81.5822 225 81.8169C224.653 82.5014 224.441 83.264 224.441 84.0854C224.441 86.8622 226.657 89.1306 229.411 89.1306H258.188C260.923 89.1306 263.157 86.8622 263.157 84.0854C263.176 81.3475 260.942 79.079 258.207 79.079Z" fill="black"/>
<path d="M125.855 34.8326C125.836 34.8326 125.817 34.8326 125.817 34.8131C125.759 34.8131 125.72 34.7934 125.662 34.7736C125.623 34.7736 125.565 34.7737 125.526 34.7542C125.487 34.7542 125.468 34.7542 125.429 34.7542C124.248 34.656 121.516 34.656 120.082 34.8326V34.8523C117.389 35.1468 114.445 36.0697 112.391 37.6408C111.5 38.3279 110.686 39.0742 109.95 39.8792C109.873 37.1105 107.664 34.8915 104.913 34.8915C102.123 34.8915 99.876 37.1892 99.876 39.9971V84.5526C99.876 85.2594 100.012 85.9271 100.283 86.5555C101.058 88.4013 102.859 89.6973 104.952 89.6973C107.742 89.6973 110.008 87.4 110.008 84.5721V84.2579V79.4665V60.2621C110.008 55.7458 111.209 52.0147 113.592 49.1871C115.549 46.87 117.719 45.5347 120.179 45.1418C121.4 44.9847 122.639 45.0242 122.639 45.0242H125.119C127.909 45.0242 130.176 42.7265 130.176 39.8989C130.156 37.3068 128.297 35.2058 125.855 34.8326Z" fill="black"/>
<path d="M77.1046 43.5005C79.5812 40.0249 81.0515 35.7641 81.0515 31.1299C81.0515 19.4269 71.707 9.94275 60.1765 9.94275H57.3131V7.64536C57.3131 4.71959 54.9723 2.36328 52.1089 2.36328C49.2262 2.36328 46.9046 4.73923 46.9046 7.64536V9.94275H41.6039V9.96238H38.2568C35.471 9.96238 33.2268 12.2598 33.2268 15.0677C33.2268 17.8953 35.4902 20.1731 38.2568 20.1731H41.6039V20.1927H60.0991C65.8836 20.1927 70.5657 24.9446 70.5657 30.8157V30.8355C70.5657 36.5494 66.116 41.321 60.5246 41.4389C59.4994 41.4584 56.4039 41.4389 56.4039 41.4389C56.3846 41.4389 56.346 41.4389 56.3265 41.4389H56.2878C53.2118 41.5173 50.7546 44.2076 51.0836 47.4278C51.3739 50.2357 53.8502 52.2976 56.636 52.2976H67.1994C68.2828 52.2976 69.3854 52.376 70.4302 52.651C76.0986 54.1628 80.297 59.386 80.297 65.6302C80.297 73.0331 74.3768 79.0415 67.0833 79.0415H35.1999H29.2025C26.3781 79.0415 23.8629 81.1426 23.592 83.9899C23.2825 87.2494 25.8169 89.9986 28.9704 89.9986H46.9046V92.3549C46.9046 95.2805 49.2457 97.6368 52.1089 97.6368C54.9915 97.6368 57.3131 95.261 57.3131 92.3549V89.9986H61.8402C61.8402 89.9986 61.8402 89.9986 61.8596 89.9986H67.5475C80.7612 89.9986 91.4599 79.1202 91.4599 65.7284C91.4794 55.7926 85.5591 47.2315 77.1046 43.5005Z" fill="black"/>
<path d="M34.7884 46.881C34.7884 43.916 32.3905 41.4937 29.4126 41.4937H5.37587C2.41721 41.4937 0 43.8965 0 46.881C0 49.846 2.39787 52.2687 5.37587 52.2687H29.4126C32.3905 52.2687 34.7884 49.846 34.7884 46.881Z" fill="black"/>
<path d="M24.453 36.3895H48.4897C51.4483 36.3895 53.8657 33.9866 53.8657 31.0021C53.8657 28.0368 51.4678 25.6145 48.4897 25.6145H24.453C21.4944 25.6145 19.0771 28.0176 19.0771 31.0021C19.0771 33.9671 21.475 36.3895 24.453 36.3895Z" fill="black"/>
<path fill-rule="evenodd" clip-rule="evenodd" d="M167.417 40.7003C170.854 44.1664 172.816 48.4159 173.282 53.3901V53.429C173.515 55.7006 173.262 59.8327 173.262 59.8327C173.262 63.1814 170.563 65.9035 167.242 65.9035H143.412C142.927 65.9035 142.538 66.2951 142.538 66.7845V68.2535C142.538 72.0524 143.723 75.0095 146.19 77.2614C148.656 79.5135 151.899 80.6493 155.842 80.6493C156.89 80.6493 158.017 80.5319 159.046 80.3361C160.891 79.9051 163.008 78.9456 164.484 77.8098C164.572 77.7511 164.654 77.6924 164.737 77.6335C164.819 77.5748 164.902 77.5161 164.989 77.4574C165.009 77.4474 165.028 77.433 165.047 77.4182C165.067 77.4035 165.086 77.3888 165.106 77.379C165.28 77.2614 165.475 77.144 165.649 77.0461C165.659 77.0364 165.674 77.0314 165.688 77.0264C165.703 77.0217 165.717 77.0167 165.727 77.0069L166.251 76.7719C166.29 76.7719 166.329 76.7524 166.368 76.7327C166.562 76.6545 166.757 76.5956 166.97 76.5564C166.989 76.5564 167.014 76.5517 167.038 76.5467C167.062 76.5419 167.087 76.5369 167.106 76.5369C167.3 76.4977 167.514 76.4782 167.728 76.4782H167.786H167.805C169.844 76.4782 171.573 77.8098 172.194 79.6701C172.194 79.7093 172.214 79.7485 172.233 79.7877C172.253 79.8856 172.272 79.964 172.291 80.0422C172.33 80.1401 172.35 80.2185 172.369 80.3164C172.427 80.5711 172.447 80.8451 172.447 81.0998V81.178V81.2761C172.447 81.4522 172.427 81.648 172.408 81.8243C172.388 81.8635 172.388 81.883 172.388 81.9222C172.35 82.1377 172.291 82.353 172.233 82.5488C172.223 82.5782 172.214 82.6027 172.204 82.6272C172.194 82.6517 172.185 82.6761 172.175 82.7056C172.136 82.8622 172.078 83.0188 172 83.1559C171.994 83.1677 171.987 83.1814 171.978 83.1964C171.959 83.2306 171.936 83.2716 171.922 83.3127C171.825 83.5085 171.709 83.6848 171.592 83.8609C170.835 85.0751 169.437 86.2501 167.281 87.5032C164.135 89.3443 160.192 90.2645 155.57 90.2645C148.811 90.2645 143.218 88.1888 138.926 84.1156C134.615 80.0422 132.42 74.5982 132.42 67.9793V56.4253C132.42 50.5503 134.479 45.4198 138.538 41.1506C142.597 36.8619 147.549 34.6882 153.259 34.6882C158.677 34.6882 163.455 36.7053 167.417 40.7003ZM161.707 57.2282C162.775 57.2282 163.649 56.3667 163.649 55.2895V54.604C163.649 51.4903 162.639 49.4538 160.581 47.1038C158.541 44.793 156.114 43.6769 153.162 43.6769C150.249 43.6769 147.821 44.7148 145.704 46.8688C143.587 49.023 142.558 51.608 142.558 54.7609V55.2503C142.558 56.3274 143.432 57.2088 144.5 57.2088L161.707 57.2282Z" fill="black"/>
<path fill-rule="evenodd" clip-rule="evenodd" d="M214.551 40.7003C217.988 44.1664 219.949 48.4159 220.416 53.3901V53.429C220.649 55.7006 220.396 59.8327 220.396 59.8327C220.396 63.1814 217.697 65.9035 214.376 65.9035H190.546C190.061 65.9035 189.672 66.2951 189.672 66.7845V68.2535C189.672 72.0524 190.857 75.0095 193.323 77.2614C195.79 79.5135 199.033 80.6493 202.976 80.6493C204.024 80.6493 205.151 80.5319 206.18 80.3361C208.025 79.9051 210.142 78.9456 211.618 77.8098C211.705 77.7511 211.788 77.6924 211.87 77.6335C211.953 77.5748 212.036 77.5161 212.123 77.4574C212.142 77.4474 212.162 77.433 212.181 77.4182C212.201 77.4035 212.22 77.3888 212.24 77.379C212.414 77.2614 212.608 77.144 212.783 77.0461C212.793 77.0364 212.807 77.0314 212.822 77.0264C212.837 77.0217 212.851 77.0167 212.861 77.0069L213.385 76.7719C213.424 76.7719 213.463 76.7524 213.502 76.7327C213.696 76.6545 213.89 76.5956 214.104 76.5564C214.123 76.5564 214.147 76.5517 214.172 76.5467C214.196 76.5419 214.22 76.5369 214.24 76.5369C214.434 76.4977 214.648 76.4782 214.861 76.4782H214.919H214.939C216.978 76.4782 218.707 77.8098 219.328 79.6701C219.328 79.7093 219.347 79.7485 219.367 79.7877C219.386 79.8856 219.406 79.964 219.425 80.0422C219.464 80.1401 219.483 80.2185 219.503 80.3164C219.561 80.5711 219.581 80.8451 219.581 81.0998V81.178V81.2761C219.581 81.4522 219.561 81.648 219.542 81.8243C219.522 81.8635 219.522 81.883 219.522 81.9222C219.483 82.1377 219.425 82.353 219.367 82.5488C219.357 82.5782 219.347 82.6027 219.338 82.6272C219.328 82.6517 219.318 82.6761 219.309 82.7056C219.27 82.8622 219.212 83.0188 219.134 83.1559C219.128 83.1677 219.12 83.1814 219.112 83.1964C219.093 83.2306 219.07 83.2716 219.056 83.3127C218.959 83.5085 218.843 83.6848 218.726 83.8609C217.969 85.0751 216.57 86.2501 214.415 87.5032C211.268 89.3443 207.326 90.2645 202.704 90.2645C195.945 90.2645 190.352 88.1888 186.06 84.1156C181.748 80.0422 179.554 74.5982 179.554 67.9793V56.4253C179.554 50.5503 181.612 45.4198 185.671 41.1506C189.731 36.8619 194.683 34.6882 200.393 34.6882C205.811 34.6882 210.589 36.7053 214.551 40.7003ZM208.841 57.2282C209.909 57.2282 210.783 56.3667 210.783 55.2895V54.604C210.783 51.4903 209.773 49.4538 207.714 47.1038C205.675 44.793 203.248 43.6769 200.296 43.6769C197.382 43.6769 194.955 44.7148 192.838 46.8688C190.721 49.023 189.692 51.608 189.692 54.7609V55.2503C189.692 56.3274 190.566 57.2088 191.634 57.2088L208.841 57.2282Z" fill="black"/>
</g>
<defs>
<clipPath id="clip0_79_40">
<rect width="263.158" height="100" fill="white"/>
</clipPath>
</defs>
</svg>
