<svg width="429" height="90" viewBox="0 0 429 90" fill="none" xmlns="http://www.w3.org/2000/svg">
<g style="mix-blend-mode:luminosity">
<path d="M116.246 65.7494C112.737 65.7494 109.729 64.9972 107.223 63.2428C104.716 61.4883 102.711 59.2323 101.207 56.2247C99.7034 53.217 99.2021 49.4572 99.2021 45.1961C99.2021 40.6847 99.9541 37.1755 101.458 34.1676C102.962 31.16 104.967 28.9042 107.473 27.4001C109.98 25.8964 112.988 25.1444 116.246 25.1444C120.758 25.1444 124.267 26.147 127.024 28.403C129.781 30.6587 131.285 33.4157 132.037 36.9249L124.518 38.4287C124.016 36.4236 123.014 34.6691 121.51 33.4157C120.006 32.1625 118.502 31.4106 116.497 31.4106C114.742 31.4106 113.238 31.9119 111.735 32.9144C110.23 33.917 109.228 35.421 108.476 37.4261C107.724 39.4312 107.223 41.9379 107.223 45.1961C107.223 48.204 107.473 50.4598 108.225 52.7155C108.977 54.9715 109.98 56.4753 111.484 57.4779C112.988 58.4804 114.492 59.2323 116.497 59.2323C119.003 59.2323 121.008 58.4804 122.512 57.2272C124.016 55.974 124.518 54.2196 124.518 51.9636H132.037C132.037 54.9715 131.536 57.2272 130.032 59.4832C128.778 61.4883 127.024 62.9921 124.768 64.2453C122.262 65.2479 119.505 65.7494 116.246 65.7494Z" fill="#262E34"/>
<path d="M136.801 65.0039V35.6781H143.819V65.0039H136.801ZM142.064 52.2209C142.064 48.4611 142.566 45.2029 143.318 42.6962C144.07 40.1899 145.323 38.4354 146.827 37.1819C148.33 35.9288 149.834 35.4275 151.589 35.4275C152.09 35.4275 152.591 35.4275 152.842 35.4275C153.093 35.4275 153.594 35.6781 154.095 35.6781V42.6962C153.594 42.6962 153.093 42.4456 152.341 42.4456C151.84 42.4456 151.088 42.4456 150.837 42.4456C149.333 42.4456 148.08 42.6962 146.827 43.4481C145.824 44.2003 145.072 45.2029 144.571 46.7067C144.07 48.2105 143.819 49.9649 143.819 52.2209H142.064Z" fill="#262E34"/>
<path d="M169.887 65.7575C167.129 65.7575 164.874 65.2562 162.618 64.003C160.362 62.7496 158.858 61.2458 157.605 58.99C156.352 56.734 155.6 53.977 155.6 50.4679C155.6 46.9589 156.352 44.2017 157.605 41.6953C158.858 39.4396 160.613 37.6849 162.618 36.6823C164.874 35.6798 167.129 34.9279 169.887 34.9279C172.393 34.9279 174.899 35.4291 177.155 36.6823C179.411 37.6849 180.915 39.4396 182.168 41.6953C183.422 43.951 184.174 46.9589 184.174 50.4679C184.174 53.977 183.422 56.734 182.168 58.99C180.915 61.2458 179.161 63.0002 177.155 64.003C174.899 65.2562 172.644 65.7575 169.887 65.7575ZM169.636 59.4913C171.14 59.4913 172.393 59.2407 173.396 58.4888C174.398 57.7366 175.401 56.734 175.902 55.4809C176.404 54.2277 176.905 52.4732 176.905 50.4679C176.905 47.4602 176.404 44.9536 175.15 43.4498C173.897 41.9459 172.393 41.194 170.137 41.194C168.633 41.194 167.38 41.4447 166.378 42.1966C165.375 42.9485 164.372 43.951 163.871 45.2042C163.37 46.4577 162.868 48.2121 162.868 50.4679C162.868 53.4758 163.37 55.7315 164.623 57.2353C165.876 58.7394 167.631 59.4913 169.636 59.4913Z" fill="#262E34"/>
<path d="M184.421 35.6781H191.94L198.206 57.7352H197.455L203.47 37.1819H209.987L216.002 57.7352H215L221.266 35.4275H228.284L218.759 64.5027H211.741L205.726 45.2029H206.729L200.964 64.5027H193.945L184.421 35.6781Z" fill="#262E34"/>
<path d="M242.074 65.7542C239.568 65.7542 237.312 65.0023 235.307 63.7491C233.302 62.4959 231.798 60.7412 230.545 58.2349C229.291 55.9791 228.79 53.2219 228.79 49.9636C228.79 46.9557 229.291 44.1987 230.545 41.9427C231.798 39.6869 233.301 37.9325 235.056 36.6793C236.811 35.4259 239.066 34.6739 241.573 34.6739C243.829 34.6739 245.583 35.1752 247.087 36.1778C248.591 37.1806 249.844 38.6844 250.847 40.6895C251.599 42.6946 252.1 45.2012 252.1 48.2089H250.095C250.095 46.705 249.844 45.4519 249.092 44.1987C248.591 43.1961 247.589 42.1933 246.586 41.692C245.583 41.1908 244.581 40.9401 243.327 40.9401C241.824 40.9401 240.57 41.1908 239.568 41.9427C238.565 42.6946 237.563 43.6974 237.061 44.9506C236.56 46.2038 236.059 47.9582 236.059 49.7129C236.059 51.4674 236.309 53.2219 237.061 54.475C237.563 55.7285 238.565 56.9817 239.568 57.7336C240.57 58.4855 241.824 58.9868 243.327 58.9868C244.33 58.9868 245.583 58.7361 246.586 57.9842C247.589 57.4829 248.34 56.4804 249.092 55.4779C249.844 54.475 250.095 52.9712 250.095 51.718H252.351C252.351 54.7257 251.849 57.2323 251.097 59.488C250.095 61.4931 249.092 62.9972 247.338 63.9998C245.583 65.2529 244.079 65.7542 242.074 65.7542ZM251.348 65.0023L250.095 57.7336V23.6455H257.364V65.0023H251.348Z" fill="#262E34"/>
<path d="M264.382 25.9052H271.4V42.1972H288.443V25.9052H295.461V65.0062H288.443V48.4634H271.4V65.0062H264.382V25.9052Z" fill="#262E34"/>
<path d="M314.508 65.7575C312.002 65.7575 309.746 65.0056 307.742 63.7521C305.737 62.4989 303.981 60.7445 302.729 58.2381C301.474 55.7315 300.973 53.2251 300.973 50.2172C300.973 46.9589 301.474 44.2017 302.729 41.9459C303.981 39.6902 305.737 37.9355 307.742 36.6823C309.746 35.4291 312.002 34.9279 314.508 34.9279C316.764 34.9279 318.771 35.4291 320.524 36.4317C322.278 37.4342 323.533 38.6874 324.534 40.1915C325.537 41.6953 326.29 43.7004 326.541 45.7058C326.789 47.7109 327.04 49.7159 326.541 51.9719H306.236V47.7109H321.528L320.023 48.7134C320.023 47.7109 320.023 46.7083 319.772 45.9564C319.521 44.9536 319.27 44.2017 319.019 43.1991C318.52 42.4472 318.018 41.6953 317.265 41.194C316.513 40.6928 315.512 40.4421 314.257 40.4421C312.754 40.4421 311.5 40.6928 310.499 41.4447C309.495 42.1966 308.743 43.1991 308.244 44.4523C307.742 45.7058 307.491 47.2096 307.491 48.7134V51.4707C307.491 53.2251 307.742 54.4783 308.244 55.7315C308.743 56.9847 309.495 57.9875 310.499 58.7394C311.5 59.4913 312.754 59.7419 314.257 59.7419C315.763 59.7419 316.764 59.4913 317.767 58.7394C318.771 57.9875 319.27 57.2353 319.521 55.7315H326.789C326.541 57.7369 325.788 59.2407 324.784 60.7445C323.784 62.2483 322.278 63.2509 320.524 64.003C318.771 65.2562 316.764 65.7575 314.508 65.7575Z" fill="#262E34"/>
<path d="M341.582 65.7548C339.075 65.7548 337.068 65.2536 335.314 64.5017C333.561 63.7497 332.306 62.4963 331.556 60.9925C330.804 59.4887 330.302 57.9848 330.302 56.4807C330.302 54.7263 330.804 52.9718 331.804 51.7187C332.808 50.4652 334.063 49.4627 336.067 48.9614C337.821 48.2095 340.076 47.9588 342.332 47.9588C343.837 47.9588 345.34 47.9588 346.845 48.2095C348.348 48.4601 349.603 48.7107 351.105 49.212V53.4731C350.102 53.2225 348.85 52.7212 347.595 52.7212C346.344 52.7212 345.089 52.4706 343.837 52.4706C342.084 52.4706 340.829 52.7212 339.574 53.4731C338.323 54.225 338.072 55.2276 338.072 56.7314C338.072 57.7342 338.574 58.7367 339.326 59.4887C340.327 60.2406 341.582 60.7418 343.586 60.7418C345.089 60.7418 346.344 60.4912 347.347 59.7393C348.348 58.9874 349.101 58.2355 349.603 57.2327C350.102 56.2301 350.353 55.2276 350.353 54.225H352.109C352.109 56.2301 351.607 58.2355 350.854 59.9899C350.102 61.7444 348.85 63.2482 347.347 64.251C345.842 65.2536 343.837 65.7548 341.582 65.7548ZM351.105 65.0029L350.353 57.7342V45.9537C350.353 43.9484 349.854 42.4446 349.101 41.442C348.348 40.4395 346.845 39.9382 344.838 39.9382C343.586 39.9382 342.583 40.1888 341.833 40.4395C341.08 40.6901 340.327 41.1914 339.825 41.9433C339.326 42.6952 339.075 43.4471 339.075 44.199H331.305C331.305 41.9433 331.804 40.1888 332.808 38.685C333.812 37.1809 335.314 36.1784 337.319 35.6771C339.326 34.9252 341.833 34.6746 344.59 34.6746C347.096 34.6746 349.352 35.1758 351.105 35.9277C352.859 36.6797 354.364 37.9328 355.616 39.6876C356.871 41.442 357.122 43.4471 357.122 46.2044V64.7523H351.105V65.0029Z" fill="#262E34"/>
<path d="M363.889 65.0023V23.6455H370.906V65.0023H363.889Z" fill="#262E34"/>
<path d="M374.917 40.4359V35.6736H393.967V40.4359H374.917ZM388.452 65.7513C386.696 65.7513 385.193 65.5007 383.691 64.7487C382.185 63.9968 381.184 63.2449 380.181 61.7411C379.428 60.4877 378.926 58.7332 378.926 56.7281V27.9036H385.946V56.4775C385.946 58.9838 387.198 59.9864 389.453 59.9864C390.206 59.9864 390.959 59.9864 391.461 59.7357C391.96 59.4851 392.963 59.2345 393.967 58.9838L394.968 63.9968C393.967 64.4981 392.712 64.7487 391.709 64.9994C390.959 65.5007 389.704 65.7513 388.452 65.7513Z" fill="#262E34"/>
<path d="M398.98 65.0023V23.6455H405.998V65.0023H398.98ZM419.031 65.0023V47.7076C419.031 45.4519 418.532 43.948 417.529 42.6946C416.525 41.692 415.022 40.9401 413.52 40.9401C412.014 40.9401 410.762 41.4414 409.759 42.1933C408.755 42.9455 407.754 44.1987 407.252 45.7025C406.75 47.2063 406.249 49.2117 406.249 51.4674H403.993C403.993 47.7076 404.495 44.4493 405.499 41.9427C406.5 39.4363 407.754 37.4312 409.508 36.4284C411.261 35.1752 413.269 34.6739 415.524 34.6739C418.03 34.6739 420.035 35.1752 421.54 36.1778C423.043 37.1806 424.295 38.6844 425.299 40.6895C426.051 42.6946 426.553 44.9506 426.553 47.4569V64.501H419.031V65.0023Z" fill="#262E34"/>
<path d="M25.624 40.6448C27.9005 40.6448 29.746 38.7992 29.746 36.5228C29.746 34.2461 27.9005 32.4005 25.624 32.4005C23.3474 32.4005 21.502 34.2461 21.502 36.5228C21.502 38.7992 23.3474 40.6448 25.624 40.6448Z" fill="#FF9100"/>
<path d="M14.6796 38.031C17.7149 38.031 20.1756 35.5705 20.1756 32.535C20.1756 29.4996 17.7149 27.0391 14.6796 27.0391C11.6442 27.0391 9.18359 29.4996 9.18359 32.535C9.18359 35.5705 11.6442 38.031 14.6796 38.031Z" fill="#FF9100"/>
<path d="M25.624 56.9975C27.9005 56.9975 29.746 55.1523 29.746 52.8755C29.746 50.5991 27.9005 48.7535 25.624 48.7535C23.3474 48.7535 21.502 50.5991 21.502 52.8755C21.502 55.1523 23.3474 56.9975 25.624 56.9975Z" fill="#FF9100"/>
<path d="M14.6796 62.3184C17.7149 62.3184 20.1756 59.8579 20.1756 56.8224C20.1756 53.787 17.7149 51.3264 14.6796 51.3264C11.6442 51.3264 9.18359 53.787 9.18359 56.8224C9.18359 59.8579 11.6442 62.3184 14.6796 62.3184Z" fill="#FF9100"/>
<path d="M25.3584 30.3581C27.953 30.3581 30.0566 28.2545 30.0566 25.6598C30.0566 23.065 27.953 20.9615 25.3584 20.9615C22.7636 20.9615 20.6602 23.065 20.6602 25.6598C20.6602 28.2545 22.7636 30.3581 25.3584 30.3581Z" fill="#FF9100"/>
<path d="M36.1318 28.102C38.4082 28.102 40.2538 26.2564 40.2538 23.9799C40.2538 21.7034 38.4082 19.8579 36.1318 19.8579C33.8553 19.8579 32.0098 21.7034 32.0098 23.9799C32.0098 26.2564 33.8553 28.102 36.1318 28.102Z" fill="#FF9100"/>
<path d="M30.3242 19.4109C33.3594 19.4109 35.8202 16.9502 35.8202 13.9149C35.8202 10.8795 33.3594 8.41882 30.3242 8.41882C27.2888 8.41882 24.8281 10.8795 24.8281 13.9149C24.8281 16.9502 27.2888 19.4109 30.3242 19.4109Z" fill="#FF9100"/>
<path d="M42.9121 20.2089C45.5069 20.2089 47.6104 18.1054 47.6104 15.5107C47.6104 12.916 45.5069 10.8125 42.9121 10.8125C40.3174 10.8125 38.2139 12.916 38.2139 15.5107C38.2139 18.1054 40.3174 20.2089 42.9121 20.2089Z" fill="#FF9100"/>
<path d="M52.2158 25.3054C54.4925 25.3054 56.3378 23.4599 56.3378 21.1834C56.3378 18.9069 54.4925 17.0614 52.2158 17.0614C49.9393 17.0614 48.0938 18.9069 48.0938 21.1834C48.0938 23.4599 49.9393 25.3054 52.2158 25.3054Z" fill="#FF9100"/>
<path d="M54.2607 15.2051C57.2961 15.2051 59.7567 12.7445 59.7567 9.70913C59.7567 6.67379 57.2961 4.21313 54.2607 4.21313C51.2255 4.21313 48.7646 6.67379 48.7646 9.70913C48.7646 12.7445 51.2255 15.2051 54.2607 15.2051Z" fill="#FF9100"/>
<path d="M62.9043 23.7139C65.4991 23.7139 67.6023 21.6105 67.6023 19.0157C67.6023 16.4209 65.4991 14.3175 62.9043 14.3175C60.3096 14.3175 58.2061 16.4209 58.2061 19.0157C58.2061 21.6105 60.3096 23.7139 62.9043 23.7139Z" fill="#FF9100"/>
<path d="M66.3544 33.4636C68.6309 33.4636 70.4764 31.6181 70.4764 29.3416C70.4764 27.0651 68.6309 25.2196 66.3544 25.2196C64.078 25.2196 62.2324 27.0651 62.2324 29.3416C62.2324 31.6181 64.078 33.4636 66.3544 33.4636Z" fill="#FF9100"/>
<path d="M18.4453 49.3732C21.04 49.3732 23.1435 47.2699 23.1435 44.6752C23.1435 42.0805 21.04 39.9769 18.4453 39.9769C15.8505 39.9769 13.7471 42.0805 13.7471 44.6752C13.7471 47.2699 15.8505 49.3732 18.4453 49.3732Z" fill="#FF9100"/>
<path d="M6.78921 48.7075C9.01677 48.7075 10.8226 46.9017 10.8226 44.6741C10.8226 42.4465 9.01677 40.6407 6.78921 40.6407C4.56166 40.6407 2.75586 42.4465 2.75586 44.6741C2.75586 46.9017 4.56166 48.7075 6.78921 48.7075Z" fill="#FF9100"/>
<path d="M29.6613 46.9802C30.9342 46.9802 31.9659 45.9482 31.9659 44.6754C31.9659 43.4023 30.9342 42.3706 29.6613 42.3706C28.3883 42.3706 27.3564 43.4023 27.3564 44.6754C27.3564 45.9482 28.3883 46.9802 29.6613 46.9802Z" fill="#FF9100"/>
<path d="M40.9198 8.06673C43.1474 8.06673 44.9532 6.26092 44.9532 4.03336C44.9532 1.8058 43.1474 0 40.9198 0C38.6924 0 36.8867 1.8058 36.8867 4.03336C36.8867 6.26092 38.6924 8.06673 40.9198 8.06673Z" fill="#FF9100"/>
<path d="M44.8654 28.8523C46.1382 28.8523 47.1702 27.8206 47.1702 26.5476C47.1702 25.2747 46.1382 24.2428 44.8654 24.2428C43.5925 24.2428 42.5605 25.2747 42.5605 26.5476C42.5605 27.8206 43.5925 28.8523 44.8654 28.8523Z" fill="#FF9100"/>
<path d="M68.7052 12.9437C70.9329 12.9437 72.7386 11.1379 72.7386 8.91032C72.7386 6.68274 70.9329 4.87695 68.7052 4.87695C66.4776 4.87695 64.6719 6.68274 64.6719 8.91032C64.6719 11.1379 66.4776 12.9437 68.7052 12.9437Z" fill="#FF9100"/>
<path d="M57.2745 31.0669C58.5474 31.0669 59.5794 30.0352 59.5794 28.7621C59.5794 27.4893 58.5474 26.4574 57.2745 26.4574C56.0017 26.4574 54.9697 27.4893 54.9697 28.7621C54.9697 30.0352 56.0017 31.0669 57.2745 31.0669Z" fill="#FF9100"/>
<path d="M16.4533 22.1605C18.6808 22.1605 20.4866 20.3547 20.4866 18.1271C20.4866 15.8996 18.6808 14.0938 16.4533 14.0938C14.2257 14.0938 12.4199 15.8996 12.4199 18.1271C12.4199 20.3547 14.2257 22.1605 16.4533 22.1605Z" fill="#FF9100"/>
<path d="M33.9562 35.1459C35.229 35.1459 36.261 34.1141 36.261 32.841C36.261 31.5682 35.229 30.5365 33.9562 30.5365C32.6834 30.5365 31.6514 31.5682 31.6514 32.841C31.6514 34.1141 32.6834 35.1459 33.9562 35.1459Z" fill="#FF9100"/>
<path d="M40.9198 89.4002C43.1474 89.4002 44.9532 87.5942 44.9532 85.3669C44.9532 83.1392 43.1474 81.3335 40.9198 81.3335C38.6924 81.3335 36.8867 83.1392 36.8867 85.3669C36.8867 87.5942 38.6924 89.4002 40.9198 89.4002Z" fill="#FF9100"/>
<path d="M44.8654 65.1081C46.1382 65.1081 47.1702 64.0764 47.1702 62.8033C47.1702 61.5305 46.1382 60.4988 44.8654 60.4988C43.5925 60.4988 42.5605 61.5305 42.5605 62.8033C42.5605 64.0764 43.5925 65.1081 44.8654 65.1081Z" fill="#FF9100"/>
<path d="M68.7052 84.4786C70.9329 84.4786 72.7386 82.6729 72.7386 80.4452C72.7386 78.2176 70.9329 76.4119 68.7052 76.4119C66.4776 76.4119 64.6719 78.2176 64.6719 80.4452C64.6719 82.6729 66.4776 84.4786 68.7052 84.4786Z" fill="#FF9100"/>
<path d="M57.2745 62.9384C58.5474 62.9384 59.5794 61.9064 59.5794 60.6336C59.5794 59.3607 58.5474 58.3287 57.2745 58.3287C56.0017 58.3287 54.9697 59.3607 54.9697 60.6336C54.9697 61.9064 56.0017 62.9384 57.2745 62.9384Z" fill="#FF9100"/>
<path d="M16.4533 75.2618C18.6808 75.2618 20.4866 73.4561 20.4866 71.2284C20.4866 69.0008 18.6808 67.1951 16.4533 67.1951C14.2257 67.1951 12.4199 69.0008 12.4199 71.2284C12.4199 73.4561 14.2257 75.2618 16.4533 75.2618Z" fill="#FF9100"/>
<path d="M33.9562 58.8145C35.229 58.8145 36.261 57.7825 36.261 56.5097C36.261 55.2368 35.229 54.2048 33.9562 54.2048C32.6834 54.2048 31.6514 55.2368 31.6514 56.5097C31.6514 57.7825 32.6834 58.8145 33.9562 58.8145Z" fill="#FF9100"/>
<path d="M75.2675 27.3452C78.3029 27.3452 80.7635 24.8846 80.7635 21.8493C80.7635 18.8139 78.3029 16.3533 75.2675 16.3533C72.2323 16.3533 69.7715 18.8139 69.7715 21.8493C69.7715 24.8846 72.2323 27.3452 75.2675 27.3452Z" fill="#FF9100"/>
<path d="M25.3584 68.4333C27.953 68.4333 30.0566 66.3297 30.0566 63.735C30.0566 61.1403 27.953 59.037 25.3584 59.037C22.7636 59.037 20.6602 61.1403 20.6602 63.735C20.6602 66.3297 22.7636 68.4333 25.3584 68.4333Z" fill="#FF9100"/>
<path d="M36.1318 69.4958C38.4082 69.4958 40.2538 67.6503 40.2538 65.3738C40.2538 63.0974 38.4082 61.2518 36.1318 61.2518C33.8553 61.2518 32.0098 63.0974 32.0098 65.3738C32.0098 67.6503 33.8553 69.4958 36.1318 69.4958Z" fill="#FF9100"/>
<path d="M30.3242 80.9312C33.3594 80.9312 35.8202 78.4707 35.8202 75.4352C35.8202 72.3998 33.3594 69.9392 30.3242 69.9392C27.2888 69.9392 24.8281 72.3998 24.8281 75.4352C24.8281 78.4707 27.2888 80.9312 30.3242 80.9312Z" fill="#FF9100"/>
<path d="M42.9121 78.5378C45.5069 78.5378 47.6104 76.4342 47.6104 73.8395C47.6104 71.2448 45.5069 69.1412 42.9121 69.1412C40.3174 69.1412 38.2139 71.2448 38.2139 73.8395C38.2139 76.4342 40.3174 78.5378 42.9121 78.5378Z" fill="#FF9100"/>
<path d="M52.2158 72.3368C54.4925 72.3368 56.3378 70.4915 56.3378 68.2148C56.3378 65.9383 54.4925 64.0928 52.2158 64.0928C49.9393 64.0928 48.0938 65.9383 48.0938 68.2148C48.0938 70.4915 49.9393 72.3368 52.2158 72.3368Z" fill="#FF9100"/>
<path d="M54.2607 85.1891C57.2961 85.1891 59.7567 82.7283 59.7567 79.6931C59.7567 76.6577 57.2961 74.1971 54.2607 74.1971C51.2255 74.1971 48.7646 76.6577 48.7646 79.6931C48.7646 82.7283 51.2255 85.1891 54.2607 85.1891Z" fill="#FF9100"/>
<path d="M62.9043 75.0403C65.4991 75.0403 67.6023 72.9368 67.6023 70.342C67.6023 67.7473 65.4991 65.644 62.9043 65.644C60.3096 65.644 58.2061 67.7473 58.2061 70.342C58.2061 72.9368 60.3096 75.0403 62.9043 75.0403Z" fill="#FF9100"/>
<path d="M66.3544 64.134C68.6309 64.134 70.4764 62.2887 70.4764 60.012C70.4764 57.7356 68.6309 55.89 66.3544 55.89C64.078 55.89 62.2324 57.7356 62.2324 60.012C62.2324 62.2887 64.078 64.134 66.3544 64.134Z" fill="#FF9100"/>
<path d="M75.2675 72.9968C78.3029 72.9968 80.7635 70.5362 80.7635 67.5008C80.7635 64.4653 78.3029 62.0048 75.2675 62.0048C72.2323 62.0048 69.7715 64.4653 69.7715 67.5008C69.7715 70.5362 72.2323 72.9968 75.2675 72.9968Z" fill="#FF9100"/>
</g>
</svg>
