<svg width="525" height="80" viewBox="0 0 525 80" fill="none" xmlns="http://www.w3.org/2000/svg">
<g style="mix-blend-mode:luminosity" clip-path="url(#clip0_79_972)">
<path d="M6.61133 28.4299H159.669M6.61133 55.8679H45.6196M63.8014 55.8679H102.81M120.661 55.8679H159.669" stroke="#FAA200" stroke-width="12.563" stroke-linecap="square"/>
<path d="M230.418 70.7764C225.904 70.7764 221.729 70.0429 217.892 68.5759C214.112 67.0525 210.811 64.9366 207.99 62.2283C205.225 59.4636 203.053 56.2475 201.473 52.58C199.893 48.9125 199.103 44.8782 199.103 40.4772C199.103 36.0762 199.893 32.0419 201.473 28.3744C203.053 24.7069 205.254 21.519 208.075 18.8107C210.896 16.046 214.197 13.9301 217.977 12.4631C221.814 10.9397 225.989 10.178 230.503 10.178C235.073 10.178 239.277 10.9679 243.114 12.5477C247.007 14.0712 250.308 16.3563 253.016 19.4031L247.515 24.7351C245.258 22.3654 242.719 20.6162 239.897 19.4878C237.076 18.3029 234.058 17.7104 230.842 17.7104C227.513 17.7104 224.409 18.2747 221.532 19.4031C218.711 20.5316 216.256 22.1115 214.168 24.1427C212.081 26.1739 210.445 28.6001 209.26 31.4213C208.131 34.186 207.567 37.2047 207.567 40.4772C207.567 43.7497 208.131 46.7966 209.26 49.6178C210.445 52.3825 212.081 54.7805 214.168 56.8117C216.256 58.8429 218.711 60.4228 221.532 61.5513C224.409 62.6797 227.513 63.2439 230.842 63.2439C234.058 63.2439 237.076 62.6797 239.897 61.5513C242.719 60.3664 245.258 58.5608 247.515 56.1346L253.016 61.4666C250.308 64.5135 247.007 66.8268 243.114 68.4067C239.277 69.9865 235.045 70.7764 230.418 70.7764ZM281.373 70.6072C277.536 70.6072 274.151 69.9019 271.217 68.4913C268.339 67.0807 266.082 64.9366 264.446 62.0591C262.866 59.1251 262.076 55.4576 262.076 51.0565V25.2429H270.201V50.1256C270.201 54.5266 271.245 57.8273 273.333 60.0278C275.477 62.2283 278.467 63.3286 282.304 63.3286C285.125 63.3286 287.58 62.7644 289.667 61.6359C291.755 60.451 293.363 58.7583 294.491 56.5578C295.62 54.3009 296.184 51.5926 296.184 48.4329V25.2429H304.309V70.0994H296.607V57.9966L297.877 61.2127C296.41 64.2031 294.209 66.5165 291.275 68.1528C288.341 69.789 285.041 70.6072 281.373 70.6072ZM319.777 70.0994V25.2429H327.563V37.4303L326.801 34.3835C328.043 31.2802 330.13 28.9104 333.064 27.2742C335.998 25.6379 339.61 24.8198 343.898 24.8198V32.6908C343.559 32.6344 343.221 32.6062 342.882 32.6062C342.6 32.6062 342.318 32.6062 342.036 32.6062C337.691 32.6062 334.249 33.9039 331.71 36.4994C329.171 39.0948 327.902 42.847 327.902 47.7558V70.0994H319.777ZM353.912 70.0994V25.2429H361.698V37.4303L360.936 34.3835C362.178 31.2802 364.265 28.9104 367.199 27.2742C370.133 25.6379 373.744 24.8198 378.033 24.8198V32.6908C377.694 32.6344 377.356 32.6062 377.017 32.6062C376.735 32.6062 376.453 32.6062 376.171 32.6062C371.826 32.6062 368.384 33.9039 365.845 36.4994C363.306 39.0948 362.037 42.847 362.037 47.7558V70.0994H353.912ZM407.607 70.6072C402.811 70.6072 398.579 69.6198 394.912 67.645C391.301 65.6701 388.48 62.9618 386.448 59.52C384.474 56.0782 383.486 52.1286 383.486 47.6712C383.486 43.2137 384.445 39.2641 386.364 35.8223C388.339 32.3805 391.019 29.7004 394.404 27.782C397.846 25.8072 401.711 24.8198 405.999 24.8198C410.344 24.8198 414.18 25.779 417.509 27.6973C420.838 29.6157 423.434 32.3241 425.296 35.8223C427.214 39.2641 428.173 43.2984 428.173 47.9251C428.173 48.2636 428.145 48.6586 428.089 49.1099C428.089 49.5613 428.061 49.9845 428.004 50.3795H389.834V44.5397H423.772L420.472 46.5709C420.528 43.6933 419.936 41.1261 418.694 38.8691C417.453 36.6122 415.732 34.8631 413.532 33.6218C411.388 32.324 408.877 31.6752 405.999 31.6752C403.178 31.6752 400.667 32.324 398.467 33.6218C396.266 34.8631 394.545 36.6404 393.304 38.9538C392.063 41.2107 391.442 43.8062 391.442 46.7402V48.0943C391.442 51.0848 392.119 53.7649 393.473 56.1346C394.884 58.448 396.83 60.2535 399.313 61.5513C401.796 62.849 404.645 63.4979 407.861 63.4979C410.513 63.4979 412.911 63.0465 415.055 62.1437C417.256 61.2409 419.174 59.8868 420.81 58.0812L425.296 63.3286C423.265 65.6984 420.726 67.5039 417.679 68.7452C414.688 69.9865 411.331 70.6072 407.607 70.6072ZM463.407 24.8198C467.075 24.8198 470.291 25.5251 473.056 26.9356C475.877 28.3462 478.077 30.4903 479.657 33.3679C481.237 36.2455 482.027 39.8848 482.027 44.2858V70.0994H473.902V45.2167C473.902 40.8722 472.83 37.5996 470.686 35.3991C468.598 33.1986 465.636 32.0984 461.799 32.0984C458.922 32.0984 456.411 32.6626 454.267 33.7911C452.123 34.9195 450.458 36.584 449.273 38.7845C448.145 40.985 447.581 43.7215 447.581 46.9941V70.0994H439.456V25.2429H447.242V37.3457L445.972 34.1296C447.439 31.1956 449.696 28.9104 452.743 27.2742C455.79 25.6379 459.345 24.8198 463.407 24.8198ZM512.467 70.6072C507.953 70.6072 504.455 69.3941 501.972 66.9679C499.49 64.5417 498.248 61.0717 498.248 56.5578V15.4253H506.373V56.2193C506.373 58.6455 506.966 60.5074 508.151 61.8052C509.392 63.1029 511.141 63.7518 513.398 63.7518C515.937 63.7518 518.053 63.0465 519.746 61.6359L522.285 67.4757C521.043 68.5477 519.548 69.3377 517.799 69.8455C516.106 70.3533 514.329 70.6072 512.467 70.6072ZM490.631 31.9291V25.2429H519.238V31.9291H490.631Z" fill="black"/>
</g>
<defs>
<clipPath id="clip0_79_972">
<rect width="524.959" height="80" fill="white"/>
</clipPath>
</defs>
</svg>
