<svg width="559" height="80" viewBox="0 0 559 80" fill="none" xmlns="http://www.w3.org/2000/svg">
<g style="mix-blend-mode:luminosity" clip-path="url(#clip0_79_52)">
<g style="mix-blend-mode:multiply" opacity="0.5">
<path d="M40.9424 58.8428H73.2907L40.9424 1.34277V58.8428Z" fill="url(#paint0_linear_79_52)"/>
</g>
<path d="M70.3124 61.0544C73.3477 61.0246 73.9924 62.4696 72.1276 64.7816C64.7375 73.9904 53.5184 80 40.8314 80C28.1442 80 16.9252 73.9904 9.53509 64.7816C7.67021 62.4696 8.32488 61.0345 11.3504 61.0544C26.1008 61.1241 70.3124 61.0544 70.3124 61.0544Z" fill="url(#paint1_radial_79_52)"/>
<path d="M73.883 54.8355C75.3909 57.4765 76.9384 57.327 78.0096 54.5565C82.2553 43.5241 81.8287 30.7575 75.4801 19.7151C69.1316 8.67262 58.3489 1.92558 46.7134 0.0918165C43.7872 -0.366624 42.8646 0.918999 44.4119 3.54009C44.4119 3.54009 66.5823 41.9793 73.883 54.8355Z" fill="url(#paint2_radial_79_52)"/>
<path d="M37.259 3.54006C38.7867 0.909009 37.884 -0.366648 34.9578 0.0917917C23.3221 1.91559 12.5395 8.67259 6.19101 19.7149C-0.157512 30.7575 -0.574133 43.5241 3.66152 54.5565C4.73284 57.337 6.29021 57.4864 7.78806 54.8355C7.78806 54.8355 29.8393 16.3266 37.259 3.54006Z" fill="url(#paint3_radial_79_52)"/>
<mask id="mask0_79_52" style="mask-type:alpha" maskUnits="userSpaceOnUse" x="0" y="0" width="81" height="80">
<path d="M70.2263 61.0544C73.2617 61.0246 73.9065 62.4696 72.0415 64.7816C64.6515 73.9904 53.4326 80 40.7454 80C28.0583 80 16.8392 73.9904 9.44915 64.7816C7.58427 62.4696 8.23895 61.0345 11.2644 61.0544C26.0148 61.1241 70.2263 61.0544 70.2263 61.0544Z" fill="white"/>
<path d="M73.7981 54.8355C75.3059 57.4765 76.8534 57.327 77.9246 54.5565C82.1702 43.5241 81.7437 30.7575 75.3952 19.7151C69.0467 8.67262 58.2641 1.92558 46.6284 0.0918165C43.7021 -0.366624 42.7796 0.918999 44.3271 3.54009C44.3271 3.54009 66.4973 41.9793 73.7981 54.8355Z" fill="white"/>
<path d="M37.174 3.54006C38.7017 0.909009 37.799 -0.366648 34.8728 0.0917917C23.2371 1.91559 12.4546 8.67259 6.10604 19.7149C-0.242473 30.7575 -0.659094 43.5241 3.57656 54.5565C4.64788 57.337 6.20524 57.4864 7.7031 54.8355C7.7031 54.8355 29.7543 16.3266 37.174 3.54006Z" fill="white"/>
</mask>
<g mask="url(#mask0_79_52)">
<g opacity="0.25" filter="url(#filter0_f_79_52)">
<path d="M12.7504 23.473C7.37711 32.8238 3.67951 43.7155 3.57812 54.4609C-0.662984 43.4248 -0.238625 30.6619 6.10762 19.6193C12.4538 8.57692 23.2412 1.82778 34.8743 0C25.6615 5.46002 18.1235 14.1244 12.7504 23.473ZM75.3963 19.6201C69.0505 8.57762 58.2618 1.82848 46.6295 0.000699524C55.8412 5.46043 63.3801 14.1247 68.7524 23.4734C74.1247 32.822 77.8242 43.714 77.9245 54.4591C82.1655 43.4228 81.7424 30.6617 75.3963 19.6201ZM70.2287 60.9588C70.2287 60.9588 26.0127 61.0279 11.2743 60.9588C20.3403 65.8527 30.4654 68.6954 40.752 68.6954C51.0386 68.6954 61.1637 65.8531 70.2287 60.9588Z" fill="black"/>
</g>
<g opacity="0.2" filter="url(#filter1_f_79_52)">
<path d="M40.7527 72.2011C51.498 72.2011 62.7357 69.9738 72.0489 64.6882C64.6555 73.8969 53.4436 79.9081 40.7519 79.9081C28.0604 79.9081 16.8493 73.8965 9.45694 64.6882C18.7696 69.9734 30.0063 72.2011 40.7527 72.2011ZM15.7717 25.2251C10.6289 34.1762 8.01522 44.4072 7.70117 54.741C7.70117 54.741 29.7501 16.2363 37.1788 3.44556C28.427 8.88743 20.9156 16.2759 15.7717 25.2251ZM44.324 3.44556C44.324 3.44556 66.492 41.8831 73.8016 54.741C73.4877 44.4052 70.8748 34.1762 65.731 25.2251C60.5872 16.2759 53.0754 8.88544 44.324 3.44556Z" fill="white"/>
</g>
</g>
<path d="M135.465 22.7462C135.465 22.3185 135.824 21.9265 136.291 21.9265H154.032C154.498 21.9265 154.858 22.3185 154.858 22.7462V26.3099C154.858 26.7376 154.498 27.1296 154.032 27.1296H141.103V35.2551H151.877C152.308 35.2551 152.703 35.6471 152.703 36.0748V39.6387C152.703 40.0662 152.308 40.4582 151.877 40.4582H141.103V51.3991C141.103 51.8268 140.708 52.2188 140.277 52.2188H136.255C135.788 52.2188 135.429 51.8268 135.429 51.3991V22.7462H135.465Z" fill="black"/>
<path d="M189.517 21.4998C198.243 21.4998 205.21 28.4849 205.21 37.1448C205.21 45.8049 198.243 52.683 189.517 52.683C180.79 52.683 173.858 45.8049 173.858 37.1448C173.858 28.4849 180.79 21.4998 189.517 21.4998ZM189.517 47.0166C195.011 47.0166 199.536 42.5618 199.536 37.1091C199.536 31.6566 195.011 27.0949 189.517 27.0949C184.022 27.0949 179.533 31.6566 179.533 37.1091C179.497 42.5618 183.986 47.0166 189.517 47.0166Z" fill="black"/>
<path d="M226.396 22.7462C226.396 22.3185 226.791 21.9265 227.222 21.9265H231.353C231.819 21.9265 232.178 22.3185 232.178 22.7462V40.4582C232.178 44.1291 234.693 47.0514 238.5 47.0514C242.307 47.0514 244.855 44.1648 244.855 40.5296V22.7819C244.855 22.3542 245.214 21.9622 245.682 21.9622H249.811C250.242 21.9622 250.638 22.3542 250.638 22.7819V40.779C250.638 47.3722 245.358 52.6822 238.463 52.6822C231.604 52.6822 226.324 47.3722 226.324 40.779V22.7462H226.396Z" fill="black"/>
<path d="M274.161 22.2476C274.161 21.8199 274.557 21.4636 274.988 21.4636H276.065L294.202 40.6012H294.237V22.7108C294.237 22.2831 294.596 21.8911 295.063 21.8911H299.086C299.517 21.8911 299.911 22.2831 299.911 22.7108V51.8628C299.911 52.2904 299.517 52.6468 299.086 52.6468H298.044L279.8 32.7608H279.765V51.3637C279.765 51.7914 279.406 52.1834 278.938 52.1834H274.951C274.52 52.1834 274.126 51.7914 274.126 51.3637V22.2476H274.161Z" fill="black"/>
<path d="M323.79 22.7462C323.79 22.3185 324.149 21.9265 324.58 21.9265H334.924C343.328 21.9265 350.223 28.7333 350.223 37.0371C350.223 45.4477 343.328 52.2188 334.924 52.2188H324.58C324.149 52.2188 323.79 51.8268 323.79 51.3991V22.7462ZM334.385 46.9445C340.059 46.9445 344.188 42.7035 344.188 37.0371C344.188 31.4063 340.059 27.1653 334.385 27.1653H329.392V46.9445H334.385Z" fill="black"/>
<path d="M373.493 51.3637C373.314 51.7914 372.92 52.2191 372.237 52.2191H368.43C367.784 52.2191 367.425 51.649 367.677 51.0786L381.251 21.9268C381.394 21.6773 381.61 21.4636 382.004 21.4636H382.436C382.867 21.4636 383.046 21.6773 383.191 21.9268L396.621 51.0786C396.873 51.649 396.549 52.2191 395.868 52.2191H392.061C391.413 52.2191 391.091 51.9696 390.804 51.3637L382.149 32.3688H382.004L373.493 51.3637Z" fill="black"/>
<path d="M418.998 27.1296H412.319C411.852 27.1296 411.493 26.7376 411.493 26.3099V22.7462C411.493 22.3185 411.852 21.9265 412.319 21.9265H431.388C431.856 21.9265 432.215 22.3185 432.215 22.7462V26.3099C432.215 26.7376 431.856 27.1296 431.388 27.1296H424.709V51.4348C424.709 51.8625 424.313 52.2545 423.883 52.2545H419.825C419.394 52.2545 418.998 51.8625 418.998 51.4348V27.1296Z" fill="black"/>
<path d="M452.686 22.7462C452.686 22.3185 453.08 21.9265 453.511 21.9265H457.569C458.001 21.9265 458.395 22.3185 458.395 22.7462V51.3991C458.395 51.8268 458.001 52.2188 457.569 52.2188H453.511C453.08 52.2188 452.686 51.8268 452.686 51.3991V22.7462Z" fill="black"/>
<path d="M495.743 21.4998C504.471 21.4998 511.437 28.4849 511.437 37.1448C511.437 45.8049 504.471 52.683 495.743 52.683C487.018 52.683 480.085 45.8049 480.085 37.1448C480.085 28.4849 487.018 21.4998 495.743 21.4998ZM495.743 47.0166C501.238 47.0166 505.763 42.5618 505.763 37.1091C505.763 31.6566 501.238 27.0949 495.743 27.0949C490.249 27.0949 485.759 31.6566 485.759 37.1091C485.759 42.5618 490.249 47.0166 495.743 47.0166Z" fill="black"/>
<path d="M533.094 22.2476C533.094 21.8199 533.49 21.4636 533.921 21.4636H534.998L553.135 40.6012H553.17V22.7108C553.17 22.2831 553.529 21.8911 553.995 21.8911H558.019C558.45 21.8911 558.844 22.2831 558.844 22.7108V51.8628C558.844 52.2904 558.45 52.6468 558.019 52.6468H556.977L538.733 32.7608H538.698V51.3637C538.698 51.7914 538.339 52.1834 537.87 52.1834H533.884C533.453 52.1834 533.059 51.7914 533.059 51.3637V22.2476H533.094Z" fill="black"/>
</g>
<defs>
<filter id="filter0_f_79_52" x="-2.20508" y="-3" width="85.9131" height="74.6953" filterUnits="userSpaceOnUse" color-interpolation-filters="sRGB">
<feFlood flood-opacity="0" result="BackgroundImageFix"/>
<feBlend mode="normal" in="SourceGraphic" in2="BackgroundImageFix" result="shape"/>
<feGaussianBlur stdDeviation="1.5" result="effect1_foregroundBlur_79_52"/>
</filter>
<filter id="filter1_f_79_52" x="4.70117" y="0.445557" width="72.1006" height="82.4624" filterUnits="userSpaceOnUse" color-interpolation-filters="sRGB">
<feFlood flood-opacity="0" result="BackgroundImageFix"/>
<feBlend mode="normal" in="SourceGraphic" in2="BackgroundImageFix" result="shape"/>
<feGaussianBlur stdDeviation="1.5" result="effect1_foregroundBlur_79_52"/>
</filter>
<linearGradient id="paint0_linear_79_52" x1="40.9424" y1="75.0668" x2="40.7246" y2="1.31732" gradientUnits="userSpaceOnUse">
<stop offset="0.216102" stop-color="white" stop-opacity="0"/>
<stop offset="1"/>
</linearGradient>
<radialGradient id="paint1_radial_79_52" cx="0" cy="0" r="1" gradientUnits="userSpaceOnUse" gradientTransform="translate(40.7198 39.7354) scale(40.0215 40.2092)">
<stop offset="0.5" stop-color="#BB6E5A"/>
<stop offset="0.75" stop-color="#DE9173"/>
<stop offset="1" stop-color="#FAC2A9"/>
</radialGradient>
<radialGradient id="paint2_radial_79_52" cx="0" cy="0" r="1" gradientUnits="userSpaceOnUse" gradientTransform="translate(40.7846 39.8006) scale(40.0131 40.2008)">
<stop offset="0.5" stop-color="#FAC2A9"/>
<stop offset="0.75" stop-color="#DE9173"/>
<stop offset="1" stop-color="#BB6E5A"/>
</radialGradient>
<radialGradient id="paint3_radial_79_52" cx="0" cy="0" r="1" gradientUnits="userSpaceOnUse" gradientTransform="translate(40.8161 39.7844) scale(40.0704 40.2585)">
<stop offset="0.5" stop-color="#FAC2A9"/>
<stop offset="0.75" stop-color="#DE9173"/>
<stop offset="1" stop-color="#BB6E5A"/>
</radialGradient>
<clipPath id="clip0_79_52">
<rect width="558.049" height="80" fill="white" transform="translate(0.794922)"/>
</clipPath>
</defs>
</svg>
