<svg width="223" height="110" viewBox="0 0 223 110" fill="none" xmlns="http://www.w3.org/2000/svg">
<g style="mix-blend-mode:luminosity">
<path d="M1.53125 13.75C1.53125 6.15608 7.68733 0 15.2812 0H207.781C215.375 0 221.531 6.15608 221.531 13.75V96.25C221.531 103.844 215.375 110 207.781 110H15.2812C7.68733 110 1.53125 103.844 1.53125 96.25V13.75Z" fill="#3654FF"/>
<path d="M63.8215 42.3514C63.5479 41.4026 63.1629 40.5584 62.6693 39.8228C62.1756 39.0871 61.572 38.4629 60.8625 37.9473C60.153 37.433 59.3459 37.0398 58.4411 36.7661C57.5364 36.4939 56.5368 36.3564 55.4436 36.3564C53.399 36.3564 51.6046 36.8638 50.0619 37.8799C48.5191 38.8946 47.3174 40.37 46.458 42.3033C45.5986 44.2365 45.1683 46.5974 45.1683 49.3831C45.1683 52.1689 45.5918 54.5394 46.4374 56.4919C47.283 58.4458 48.4806 59.9335 50.0303 60.9551C51.5799 61.9768 53.41 62.4883 55.5193 62.4883C57.4333 62.4883 59.0709 62.1459 60.4308 61.4625C61.792 60.7791 62.8343 59.8125 63.5561 58.5626C64.242 57.3752 64.6025 55.9831 64.6369 54.3826H56.0459V48.015H72.7851V53.0544C72.7851 56.5703 72.0426 59.5884 70.559 62.1074C69.0754 64.6264 67.0308 66.5665 64.4265 67.9278C61.8223 69.2876 58.8413 69.9683 55.4821 69.9683C51.7311 69.9683 48.438 69.1378 45.5986 67.4768C42.7593 65.8158 40.5496 63.4535 38.967 60.3873C37.3857 57.321 36.5938 53.6786 36.5938 49.4601C36.5938 46.2179 37.0654 43.3235 38.01 40.7798C38.9546 38.2333 40.2787 36.0759 41.9851 34.3049C43.6901 32.5339 45.677 31.185 47.943 30.2624C50.2076 29.337 52.6634 28.875 55.3061 28.875C57.5721 28.875 59.6814 29.2036 61.6339 29.8623C63.5878 30.5195 65.323 31.4462 66.8396 32.6439C68.3563 33.8429 69.5965 35.2646 70.5604 36.9119C71.5243 38.5577 72.1416 40.3727 72.4166 42.35L63.8215 42.3514Z" fill="white"/>
<path fill-rule="evenodd" clip-rule="evenodd" d="M87.5308 69.9888C85.6168 69.9888 83.9104 69.6533 82.4131 68.9837C80.9157 68.3141 79.7346 67.3172 78.8683 65.9958C78.0021 64.6731 77.5703 63.0231 77.5703 61.0431C77.5703 59.3766 77.8756 57.9782 78.4874 56.8438C79.0993 55.7094 79.9326 54.8006 80.9872 54.1103C82.0418 53.4201 83.2436 52.8989 84.5911 52.5469C85.9386 52.1949 87.3548 51.9474 88.8384 51.8044C90.5833 51.6229 91.9899 51.4497 93.0569 51.2874C94.1239 51.1252 94.8994 50.8804 95.3807 50.5546C95.8619 50.2301 96.1026 49.7474 96.1026 49.1094V48.9926C96.1026 47.7564 95.7148 46.7981 94.9407 46.1216C94.1666 45.4437 93.0693 45.1054 91.6489 45.1054C90.1516 45.1054 88.9594 45.4341 88.0753 46.0927C87.1898 46.7513 86.6041 47.5736 86.3181 48.5636L78.6222 47.9379C79.0127 46.1161 79.7813 44.5362 80.9267 43.2024C82.0721 41.8673 83.5529 40.8388 85.3693 40.1169C87.1857 39.3951 89.2922 39.0334 91.6874 39.0334C93.3539 39.0334 94.9517 39.2287 96.4821 39.6192C98.0124 40.0097 99.3737 40.6161 100.564 41.4356C101.757 42.2564 102.697 43.3069 103.387 44.5898C104.078 45.8727 104.423 47.4058 104.423 49.1892V69.4237H96.5316V65.2643H96.2978C95.8152 66.2021 95.1717 67.0257 94.3646 67.7352C93.5574 68.4461 92.5881 68.9988 91.4551 69.3948C90.3248 69.7894 89.0158 69.9888 87.5308 69.9888ZM89.9137 64.2468C91.1374 64.2468 92.2182 64.0021 93.1559 63.5139C94.0937 63.0272 94.8293 62.3658 95.3628 61.5326C95.8963 60.6993 96.1631 59.7547 96.1631 58.7001V55.5169C95.9032 55.6861 95.5484 55.8387 95.0988 55.9762C94.6492 56.1137 94.1446 56.2361 93.5849 56.3474C93.0253 56.4588 92.4657 56.5551 91.9061 56.6403C91.3464 56.7256 90.8377 56.7998 90.3826 56.8658C89.4063 57.0088 88.5524 57.2371 87.8237 57.5492C87.0936 57.8613 86.5284 58.2807 86.1242 58.8087C85.7199 59.3367 85.5192 59.9898 85.5192 60.7722C85.5192 61.9038 85.9317 62.7673 86.7594 63.3599C87.5872 63.9526 88.6377 64.2468 89.9137 64.2468Z" fill="white"/>
<path d="M119.211 69.4225V29.4224H110.891V69.4225H119.211Z" fill="white"/>
<path fill-rule="evenodd" clip-rule="evenodd" d="M139.404 70.0094C136.369 70.0094 133.751 69.3604 131.543 68.0652C129.336 66.7713 127.632 64.9604 126.435 62.6367C125.237 60.3129 124.638 57.6138 124.638 54.5407C124.638 51.4414 125.237 48.7286 126.435 46.4048C127.632 44.0824 129.335 42.2716 131.543 40.9763C133.751 39.6811 136.369 39.0334 139.404 39.0334C142.438 39.0334 145.058 39.6811 147.266 40.9763C149.472 42.2716 151.175 44.0824 152.373 46.4048C153.57 48.7286 154.17 51.4414 154.17 54.5407C154.17 57.6124 153.57 60.3116 152.373 62.6367C151.175 64.9618 149.473 66.7713 147.266 68.0652C145.059 69.3604 142.438 70.0094 139.404 70.0094ZM139.445 63.5634C140.824 63.5634 141.978 63.1688 142.902 62.3823C143.826 61.5944 144.527 60.5178 145.001 59.1483C145.477 57.7816 145.714 56.2251 145.714 54.4802C145.714 52.7353 145.477 51.1802 145.001 49.8121C144.526 48.4439 143.826 47.3646 142.902 46.5698C141.978 45.7764 140.824 45.3791 139.445 45.3791C138.051 45.3791 136.883 45.7764 135.937 46.5698C134.994 47.3646 134.285 48.4439 133.809 49.8121C133.333 51.1788 133.095 52.7353 133.095 54.4802C133.095 56.2251 133.333 57.7802 133.809 59.1483C134.285 60.5164 134.994 61.5931 135.937 62.3823C136.882 63.1688 138.051 63.5634 139.445 63.5634Z" fill="white"/>
<path d="M160.783 80.3687C161.701 80.531 162.686 80.6135 163.742 80.6135C165.799 80.6135 167.559 80.2849 169.017 79.6262C170.476 78.9676 171.684 78.0436 172.641 76.8529C173.596 75.6621 174.355 74.2651 174.915 72.6632L186.575 39.4611L177.767 39.4226L171.495 61.4529H171.183L164.971 39.4226H156.222L166.982 70.2804L166.496 71.5509C165.909 72.9039 165.111 73.689 164.105 73.9035C163.095 74.118 161.854 73.9984 160.382 73.5419L158.508 79.772C159.106 80.0071 159.865 80.2065 160.783 80.3687Z" fill="white"/>
</g>
</svg>
