<svg width="316" height="100" viewBox="0 0 316 100" fill="none" xmlns="http://www.w3.org/2000/svg">
<g style="mix-blend-mode:luminosity" clip-path="url(#clip0_79_1132)">
<path d="M95.6598 34.4326C95.6042 34.0984 95.5475 33.7644 95.4842 33.4323C95.282 32.3625 95.282 32.3625 95.282 32.3625C94.9979 31.2041 93.7168 30.2564 92.4357 30.2562L61.3774 30.2534C60.0957 30.2532 58.7242 31.2507 58.3294 32.4696L51.7305 52.8419C51.5357 53.4436 51.2796 54.1847 51.5626 54.5852C51.8533 54.9959 52.6938 55.0584 53.3429 55.0584H65.9878C65.9878 55.0584 66.5785 55.0534 66.6571 55.4636C66.7412 55.8989 66.2883 56.3679 66.2883 56.3679L43.9988 79.7945C43.219 80.6142 41.8574 82.0438 40.9738 82.9712L35.2563 88.9704C35.2563 88.9704 35.1396 89.1016 35.0031 89.2274C34.9245 89.3003 34.8489 89.3638 34.7768 89.42C33.9837 90.0362 33.6086 89.6915 33.9377 88.5644L36.847 78.5945C37.2062 77.3647 37.793 75.3515 38.1522 74.1216L39.8185 68.4115C40.0979 67.4537 40.4152 66.3677 40.6146 65.683C40.6714 65.4885 40.8034 64.8888 40.604 64.5855C40.4146 64.2975 40.0957 64.243 39.7377 64.243C39.3497 64.243 38.8927 64.243 38.4122 64.243H26.3689C25.0872 64.243 24.6571 63.5942 25.4127 62.8014C26.1683 62.0085 27.5097 60.6008 28.3938 59.6732L37.7571 49.849C38.6412 48.9214 40.0023 47.4918 40.7826 46.6718C41.5629 45.8518 42.924 44.4216 43.807 43.4932L45.3881 41.8312C46.2716 40.9027 47.7168 39.3836 48.5998 38.4553L51.8448 35.0455C52.7278 34.117 54.1152 32.6589 54.927 31.8052C55.7393 30.9518 56.6168 30.0296 56.8768 29.7559C57.1368 29.4825 58.0722 28.4992 58.9557 27.5707L77.0081 8.59759C77.8916 7.6691 77.7188 6.36389 76.6251 5.69677C76.6251 5.69677 74.0716 4.14033 71.6486 3.12855C65.3511 0.498409 58.5146 -0.437482 51.6089 0.185807C49.6618 0.361696 47.7138 0.6606 45.7763 1.08005C40.5478 2.21266 35.427 4.20663 30.6072 6.97047C27.5979 8.6954 24.7185 10.7159 22.0124 13.002C15.6387 18.3855 10.29 25.1899 6.48969 33.069C4.60174 36.983 3.20942 40.937 2.26778 44.8504C0.293804 53.0537 0.309968 61.1085 1.98969 68.3559C3.10641 73.1786 4.96475 77.6756 7.4853 81.669C7.639 81.9129 7.79626 82.1553 7.95516 82.3953C9.3116 84.4452 10.8522 86.3608 12.565 88.12C15.1779 90.8033 18.2067 93.1334 21.6354 95.0167C23.345 95.9562 25.0998 96.7532 26.8864 97.4178C27.9015 97.7948 28.9278 98.1304 29.9637 98.4219C31.7396 98.9227 33.5456 99.2981 35.3697 99.5556C51.259 101.794 69.7377 94.8033 82.5053 79.4734C84.9486 76.5397 87.0768 73.4364 88.8859 70.2145C91.2612 65.9849 93.0837 61.5499 94.3305 57.0285C95.3703 53.2581 96.0075 49.4332 96.2316 45.6277C96.4549 41.8433 96.2683 38.086 95.6598 34.4326Z" fill="#20ECC7"/>
<path d="M95.9192 82.9162L105.778 32.2239C105.887 31.7307 105.997 31.3751 106.107 31.1559C106.216 30.9373 106.463 30.7321 106.846 30.5397C107.229 30.3482 107.777 30.2521 108.489 30.2521H137.738C139.162 30.2521 139.764 30.9091 139.546 32.2239L137.738 41.6718C137.738 42.8773 136.944 43.4797 135.356 43.4797H119.335L118.102 50.0526H132.809C134.177 50.0526 134.725 50.6006 134.452 51.6956L132.644 61.1439C132.644 62.5134 131.85 63.1981 130.262 63.1981H115.555L113.912 71.6603H131.987C133.192 71.6603 133.713 72.2633 133.549 73.468L131.659 82.9162C131.604 83.3554 131.536 83.6839 131.453 83.9022C131.371 84.1219 131.151 84.3414 130.796 84.5595C130.439 84.7789 129.905 84.888 129.194 84.888H97.8913C96.9598 84.888 96.3716 84.7376 96.125 84.4362C95.8781 84.1356 95.8085 83.6288 95.9192 82.9162Z" fill="#20ECC7"/>
<path d="M162.96 52.106H163.618C166.3 46.9027 168.026 43.6986 168.794 42.4934L174.134 33.1268C174.845 31.923 175.503 31.1285 176.106 30.7444C176.708 30.3619 177.667 30.1696 178.981 30.1696H190.073C190.894 30.1696 191.456 30.3893 191.757 30.8263C192.057 31.2657 192.016 31.7304 191.634 32.2235L168.3 66.8126L165.26 82.9159C165.096 84.2304 164.219 84.8876 162.631 84.8876H151.457C149.868 84.8876 149.211 84.2304 149.485 82.9159L152.608 66.8126H152.69L143.734 32.6342C143.57 31.923 143.694 31.3337 144.105 30.8679C144.516 30.4033 145.185 30.1696 146.117 30.1696H156.141C157.4 30.1696 158.249 30.3208 158.688 30.6213C159.126 30.923 159.481 31.566 159.756 32.552L161.646 42.4934C162.357 46.7117 162.796 49.9159 162.96 52.106Z" fill="#20ECC7"/>
<path d="M212.748 29.6764C218.389 29.6764 222.825 30.4983 226.058 32.141C228.522 33.3465 229.289 34.7704 228.358 36.4134L226.304 42.4115C225.811 43.6164 225.249 44.3564 224.62 44.6295C223.99 44.9046 223.045 44.8761 221.785 44.5474C218.224 43.8361 214.911 43.4797 211.844 43.4797C210.254 43.4797 209.105 43.7131 208.393 44.1778C207.68 44.6441 207.325 45.5621 207.325 46.9301C207.325 47.9715 207.955 48.8484 209.215 49.5594L211.105 50.3813C211.322 50.4364 211.816 50.5863 212.583 50.8328C213.349 51.0791 214.061 51.3131 214.719 51.5312C215.376 51.7506 215.896 51.9419 216.28 52.1065C219.402 53.312 221.771 54.8997 223.387 56.872C225.002 58.8435 225.811 61.5547 225.811 65.0057C225.811 72.6747 223.154 78.1512 217.841 81.4375C213.185 84.2309 207.516 85.6276 200.835 85.6276C194.919 85.6276 190.154 84.7526 186.538 82.9986C184.128 81.8484 183.389 80.4246 184.32 78.7265L186.456 72.8106C186.949 71.4961 187.496 70.7156 188.099 70.4687C188.702 70.223 189.796 70.2917 191.386 70.6745C196.424 71.4424 200.505 71.8249 203.627 71.8249C207.187 71.8249 208.968 70.4561 208.968 67.7167C208.968 66.7863 208.68 66.0734 208.105 65.5808C207.53 65.0876 206.475 64.5945 204.942 64.1016C201.108 62.8975 197.848 61.3635 195.165 59.5005C192.043 57.1465 190.482 53.6956 190.482 49.1487C190.482 45.5887 191.084 42.5082 192.29 39.9057C193.494 37.3052 195.151 35.2917 197.26 33.8671C199.368 32.4435 201.71 31.3895 204.285 30.7041C206.859 30.0191 209.68 29.6764 212.748 29.6764Z" fill="#20ECC7"/>
<path d="M227.892 82.9162L237.751 32.2239C237.86 31.7307 237.969 31.3751 238.079 31.1559C238.188 30.9373 238.435 30.7321 238.819 30.5397C239.201 30.3482 239.749 30.2521 240.462 30.2521H269.711C271.134 30.2521 271.737 30.9091 271.519 32.2239L269.711 41.6718C269.711 42.8773 268.916 43.4797 267.328 43.4797H251.307L250.075 50.0526H264.781C266.15 50.0526 266.698 50.6006 266.425 51.6956L264.617 61.1439C264.617 62.5134 263.823 63.1981 262.234 63.1981H247.528L245.885 71.6603H263.96C265.164 71.6603 265.685 72.2633 265.521 73.468L263.632 82.9162C263.576 83.3554 263.508 83.6839 263.426 83.9022C263.344 84.1219 263.124 84.3414 262.769 84.5595C262.412 84.7789 261.878 84.888 261.166 84.888H229.863C228.932 84.888 228.343 84.7376 228.097 84.4362C227.851 84.1356 227.781 83.6288 227.892 82.9162Z" fill="#20ECC7"/>
<path d="M282.116 30.2518H301.012C305.231 30.2518 308.625 31.4431 311.201 33.8258C313.773 36.2083 315.061 39.6179 315.061 44.0546C315.061 52.0524 311.721 58.0768 305.039 62.1296L309.228 82.5055C309.393 83.2179 309.242 83.7929 308.776 84.2307C308.31 84.6702 307.667 84.888 306.847 84.888H296.576C294.22 84.888 292.962 84.1765 292.798 82.7518L290.661 65.0874H288.688L285.239 82.9159C285.075 84.2305 284.198 84.8877 282.609 84.8877H271.517C270.585 84.8877 269.983 84.7373 269.71 84.4359C269.435 84.1354 269.353 83.6288 269.464 82.9159L279.324 32.2236C279.488 31.5121 279.76 31.0053 280.143 30.7036C280.527 30.4033 281.184 30.2518 282.116 30.2518ZM296.165 43.4795H292.877L291.236 52.2705H294.357C295.508 52.2705 296.508 51.7916 297.357 50.8327C298.206 49.8754 298.628 48.3551 298.628 46.2727C298.628 44.4116 297.809 43.4795 296.165 43.4795Z" fill="#20ECC7"/>
</g>
<defs>
<clipPath id="clip0_79_1132">
<rect width="314.521" height="100" fill="white" transform="translate(0.756836)"/>
</clipPath>
</defs>
</svg>
