<svg width="404" height="90" viewBox="0 0 404 90" fill="none" xmlns="http://www.w3.org/2000/svg">
<g style="mix-blend-mode:luminosity" clip-path="url(#clip0_79_85)">
<path d="M31.0438 43.1897V41.5594L31.0475 41.5641L53.5972 69.7566V69.7547L55.7497 64.2234C59.7894 60.0037 73.2819 45.1706 73.9269 34.6331C72.3884 35.0466 70.9222 35.3522 69.5225 35.5772L65.1041 28.8469C64.1131 22.3491 61.8819 16.6106 58.1253 10.8834L56.7828 8.83688L55.0522 10.5684C54.8272 10.7934 54.6125 11.0175 54.3959 11.2416C54.3575 11.2388 54.3294 11.2406 54.3059 11.2444C51.4503 6.79406 45.4428 3.71907 38.4706 3.71907C38.465 3.71907 38.4603 3.72 38.4547 3.72L37.5434 0L37.5359 0.000944137C37.3953 0.00844414 18.4203 1.05562 11.225 17.6531C10.7488 18.7341 10.3381 19.8928 9.97906 21.1088C9.95656 21.1856 9.93031 21.2588 9.90875 21.3366C9.78125 21.7791 9.67156 22.2422 9.56094 22.7025C9.51219 22.9059 9.45313 23.0972 9.40719 23.3044C9.38094 23.4234 9.36406 23.5369 9.33969 23.655C9.29656 23.8566 9.26375 24.0525 9.22344 24.2531C6.71188 36.8559 10.5228 46.4016 14.9028 52.7484C14.8831 55.2384 14.2831 56.7806 13.8444 57.5494C13.7459 57.7059 13.6419 57.8634 13.5294 58.0209H11.1388L6.28719 67.8122H4.6175L0.223442 76.6791C0.221567 76.6828 0.219688 76.6856 0.21875 76.6894C5.74625 73.2038 12.2872 71.1788 19.3053 71.1788C24.7794 71.1788 29.9638 72.4106 34.6044 74.6044C40.2078 77.2538 45.0078 81.3141 48.5591 86.325C49.2031 87.2334 49.8059 88.1737 50.3647 89.1422H53.6675H60.1175L31.0438 43.1897ZM46.4431 55.2356L44.5381 52.8544L44.6591 52.6997L45.2094 51.9937L52.7028 42.3816C53.7481 42.5531 54.8863 42.7172 56.0919 42.8578L46.7469 54.8456L46.4431 55.2356ZM49.6063 59.19L47.7013 56.8088L48.1259 56.2641L49.0428 55.0884L58.3963 43.0913C59.5728 43.1878 60.7897 43.2487 62.0178 43.2703L50.2138 58.4109L49.6063 59.19ZM68.5663 42.8841L53.6825 61.9763L52.7703 63.1463L50.8653 60.765L51.5947 59.8303L52.8106 58.2703L64.5219 43.2478C65.8859 43.1981 67.2444 43.0847 68.5663 42.8841ZM50.8203 28.6969L50.9844 26.4684L51.9875 27.2719C52.6709 27.8381 54.1025 29.0081 56.1594 30.1406H56.1603C57.5731 30.9188 59.2775 31.6734 61.265 32.205L62.0159 33.3487L63.2197 35.1825L63.7991 36.0656C63.6809 36.0666 63.5666 36.0647 63.4503 36.0647C55.0981 36.0356 50.5034 32.9897 50.5034 32.9897L50.8203 28.6969ZM47.3047 41.2941C47.9497 41.4516 49.0278 41.7009 50.4191 41.9719L50.4922 42.0291L43.5181 50.9747L43.2791 51.2813L41.3741 48.9L47.3047 41.2941Z" fill="black"/>
<path d="M103.608 31.4663H96.8359V57.6741H103.608V31.4663Z" fill="black"/>
<path d="M130.208 51.5522H130.055L121.906 31.4663H112.188V57.6741H118.08V38.6579H118.232L126.076 57.6741H133.422L141.227 38.6579H141.38V57.6741H148.153V31.4663H138.471L130.208 51.5522Z" fill="black"/>
<path d="M181.348 33.7604C178.823 31.6951 175.035 31.4663 169.946 31.4663H156.746V57.6741H163.519V51.8372V50.2894V45.2785V39.6704V36.4772H169.754C174.346 36.4772 177.215 36.8213 177.215 40.801C177.215 44.3213 175.15 45.2776 169.831 45.2776H167.454V50.2885H168.417C174.844 50.2885 178.212 50.0222 181.042 47.9176C183.147 46.4251 184.103 44.0138 184.103 40.7241C184.102 37.6257 183.222 35.2922 181.348 33.7604Z" fill="black"/>
<path d="M197.704 46.8076H211.86V41.7582H197.704V36.6685H213.009V31.4663H190.932V57.6741H213.659V52.4326H197.704V46.8076Z" fill="black"/>
<path d="M244.818 46.4635C246.883 45.0479 247.839 43.021 247.839 39.9216C247.839 37.0135 246.959 34.9857 245.046 33.571C242.522 31.6951 238.811 31.4663 233.683 31.4663H220.942V57.6741H227.715V51.8372V48.6835V43.9013V39.6704V36.4772H233.721C238.198 36.4772 240.952 36.7079 240.952 40.1129C240.952 43.2497 238.887 43.9013 233.797 43.9013H231.65V48.6835C231.65 48.6835 233.301 48.6835 233.913 48.6441L240.915 57.6741H249.102L241.296 47.8791C242.676 47.6119 243.861 47.1526 244.818 46.4635Z" fill="black"/>
<path d="M268.445 51.4763H268.254L258.88 31.4663H251.266L264.39 57.6741H271.966L285.05 31.4663H277.781L268.445 51.4763Z" fill="black"/>
<path d="M296.623 31.4663H289.851V57.6741H296.623V31.4663Z" fill="black"/>
<path d="M332.673 33.5709C329.497 31.5037 325.443 30.9299 320.2 30.9299C315.036 30.9299 310.94 31.4662 307.766 33.5709C304.17 35.9418 302.945 39.9215 302.945 44.5509C302.945 49.2196 304.17 53.1215 307.766 55.4943C310.525 57.3562 313.961 58.0265 318.252 58.1718V52.8459C312.477 52.3912 309.871 49.7868 309.871 44.3587C309.871 38.1993 313.122 36.209 320.238 36.209C327.393 36.209 330.57 38.7356 330.57 44.7421C330.57 50.2874 327.887 52.4737 322.188 52.8562V58.1709C326.442 58.0274 329.911 57.3609 332.673 55.5299C336.231 53.1206 337.495 49.2187 337.495 44.5499C337.495 39.9215 336.231 35.9802 332.673 33.5709Z" fill="black"/>
<path d="M365.599 45.9282C365.599 48.1088 365.293 49.7926 364.146 50.9794C362.845 52.4326 360.586 52.9294 357.87 52.9294C355.193 52.9294 352.897 52.3566 351.595 50.9401C350.41 49.6397 350.065 47.8791 350.065 45.6591V31.4663H343.293V46.1588C343.293 50.4441 343.829 53.4282 346.43 55.4551C349.414 57.7904 353.355 58.2104 357.793 58.2104C362.194 58.2104 366.058 57.7894 369.081 55.4551C371.721 53.4282 372.257 50.4441 372.257 46.1588V31.4663H365.6L365.599 45.9282Z" fill="black"/>
<path d="M392.363 41.4524C390.488 41.1459 388.383 40.8777 386.93 40.4943C385.666 40.1887 385.207 39.5765 385.207 38.4674C385.207 37.4334 385.59 36.7837 386.853 36.4771C388.038 36.2484 389.607 36.1715 390.984 36.1715C394.007 36.1715 397.794 36.4396 400.856 36.7837V31.3509C397.45 31.1221 394.275 30.9299 391.099 30.9299C388.345 30.9299 385.206 31.1212 382.912 32.2302C379.888 33.6834 378.779 36.1715 378.779 39.2324C378.779 44.1674 381.725 46.004 388.459 47.114C390.448 47.4581 392.667 47.7637 394.16 48.1471C395.46 48.5306 395.92 49.1427 395.92 50.3277C395.92 51.4368 395.613 52.1643 394.236 52.4709C393.087 52.6996 391.099 52.8524 388.803 52.8524C386.01 52.8524 381.993 52.5468 378.855 52.2027V57.7884C382.681 58.0171 386.125 58.2093 389.682 58.2093C392.63 58.2093 395.996 57.9027 398.329 56.7543C401.352 55.2637 402.501 52.7371 402.501 49.5627C402.502 44.2452 399.097 42.4856 392.363 41.4524Z" fill="black"/>
</g>
<defs>
<clipPath id="clip0_79_85">
<rect width="403.125" height="90" fill="white" transform="translate(0.21875)"/>
</clipPath>
</defs>
</svg>
