<svg width="442" height="100" viewBox="0 0 442 100" fill="none" xmlns="http://www.w3.org/2000/svg">
<g style="mix-blend-mode:luminosity" clip-path="url(#clip0_79_99)">
<path d="M426.404 85.4641C445.958 66.0117 446.004 34.3534 426.506 14.7534C407.009 -4.84662 375.351 -4.96629 355.796 14.4861C336.242 33.9385 336.196 65.5967 355.693 85.1968C375.191 104.797 406.849 104.916 426.404 85.4641Z" fill="#E86B10"/>
<path d="M403.344 59.4748L378.21 60.0328L377.885 33.9691L380.094 24.9711L386.418 19.2283L396.601 19.019L402.6 26.4824L403.344 59.4748Z" fill="#E86B10"/>
<path d="M391.486 24.878C393.014 25.4354 394.407 26.3069 395.576 27.4363C396.746 28.5657 397.665 29.9278 398.275 31.4346C398.493 30.4493 398.431 29.423 398.099 28.4705C397.766 27.5179 397.175 26.6766 396.392 26.0405C395.747 25.4356 394.955 25.01 394.094 24.806C393.233 24.6021 392.334 24.6269 391.486 24.878Z" fill="white"/>
<path d="M405.762 48.361C405.762 48.361 405.762 48.2447 405.762 48.175C405.762 46.4777 405.762 32.8995 405.762 31.2022C405.718 29.0317 405.177 26.9003 404.181 24.9711C402.798 22.2868 400.633 20.0854 397.972 18.6574C395.311 17.2294 392.279 16.6421 389.278 16.9729C386.37 17.2877 383.625 18.4725 381.402 20.3723C379.178 22.2722 377.58 24.7987 376.816 27.6216C376.213 30.5494 375.97 33.5399 376.095 36.5265V41.1766C376.095 41.5719 376.095 61.0092 376.095 61.3812C375.951 63.6292 376.006 65.8854 376.258 68.1238C376.613 70.1024 377.366 71.9885 378.47 73.6686C379.574 75.3488 381.006 76.7882 382.681 77.9003C384.356 79.0124 386.238 79.7743 388.215 80.1399C390.192 80.5056 392.222 80.4675 394.184 80.028C397.039 79.5046 399.66 78.1033 401.682 76.0194C403.703 73.9356 405.024 71.273 405.46 68.4028C405.931 61.7329 406.032 55.0421 405.762 48.361ZM401.298 58.9167L379.978 59.0329H379.28C379.28 52.4996 379.28 35.3873 379.28 32.6205C379.245 31.4772 379.315 30.3331 379.489 29.2027C380.085 26.5845 381.568 24.2531 383.687 22.6045C385.806 20.9558 388.43 20.0914 391.115 20.1582C393.752 20.1763 396.305 21.0906 398.354 22.751C400.403 24.4115 401.827 26.7193 402.391 29.2957C402.763 31.6207 402.67 44.9199 402.763 47.896C402.763 51.5695 402.763 57.7077 402.763 58.8004L401.298 58.9167Z" fill="white"/>
<path d="M7.13332 59.6374C4.92624 58.4305 3.12915 56.593 1.97173 54.3596C0.71011 51.8364 0.0873658 49.042 0.158201 46.2219C0.0844915 43.409 0.707492 40.6214 1.97173 38.1075C3.124 35.8586 4.92122 34.0047 7.13332 32.7832C9.54919 31.4973 12.256 30.8566 14.992 30.9232C17.7497 30.8613 20.4779 31.5013 22.9203 32.7832C25.1087 34.0069 26.894 35.8407 28.0587 38.061C29.3229 40.575 29.9459 43.3625 29.8722 46.1754C29.9537 49.004 29.3304 51.8084 28.0587 54.3363C26.9075 56.5664 25.1188 58.4036 22.9203 59.6142C20.4853 60.9158 17.7518 61.5571 14.992 61.4742C12.2582 61.5468 9.55173 60.9142 7.13332 59.6374ZM18.2238 53.476C19.176 52.748 19.9017 51.7642 20.3163 50.6395C20.8535 49.2299 21.114 47.7301 21.0836 46.2219C21.1112 44.727 20.8426 43.2414 20.2931 41.8508C19.8724 40.7358 19.1474 39.7611 18.2005 39.0375C17.2634 38.3764 16.1385 38.0341 14.992 38.061C13.8504 38.0188 12.7255 38.3449 11.7834 38.991C10.8361 39.7234 10.1247 40.7178 9.73737 41.8508C9.20133 43.2439 8.9484 44.7299 8.99336 46.2219C8.9527 47.7136 9.20549 49.1988 9.73737 50.593C10.1314 51.729 10.8412 52.7291 11.7834 53.476C12.7047 54.1336 13.8138 54.4761 14.9455 54.4526C16.1168 54.5036 17.2713 54.1597 18.2238 53.476Z" fill="#2D2D2D"/>
<path d="M32.709 38.3866H41.0791V42.4321H41.2419C41.4333 41.156 42.0281 39.9746 42.9392 39.0608C43.8524 38.2686 45.0326 37.8531 46.2407 37.8983C46.5885 37.8617 46.9392 37.8617 47.287 37.8983C47.6205 37.9372 47.9483 38.0152 48.2635 38.1308V45.1059C47.8939 44.9588 47.5129 44.8422 47.1242 44.7572C46.702 44.6829 46.2742 44.644 45.8455 44.6409C44.9329 44.6168 44.0267 44.7996 43.1949 45.1757C42.5077 45.5135 41.9517 46.0694 41.6139 46.7567C41.235 47.5794 41.0519 48.4787 41.0791 49.384V60.7999H32.709V38.3866Z" fill="#2D2D2D"/>
<path d="M52.5411 60.4511C51.442 59.8903 50.5113 59.0479 49.8441 58.0099C49.2053 56.9209 48.9058 55.6661 48.9838 54.406C48.9498 53.0895 49.3322 51.7957 50.0766 50.7092C50.9075 49.6593 52.0086 48.8555 53.2619 48.3842C54.8649 47.7403 56.5601 47.3557 58.284 47.2449L67.5841 46.6172V51.2672L59.772 51.8253C59.076 51.8082 58.3924 52.0117 57.819 52.4065C57.6175 52.5677 57.456 52.7733 57.3471 53.0072C57.2382 53.2411 57.1848 53.4971 57.1912 53.755C57.1828 54.0206 57.2425 54.284 57.3646 54.52C57.4867 54.7561 57.6671 54.9569 57.8887 55.1036C58.4496 55.4378 59.0965 55.5996 59.7488 55.5686C60.3459 55.5772 60.9387 55.4665 61.4925 55.2431C61.9644 55.0456 62.3741 54.7243 62.6783 54.313C62.8994 53.9171 62.989 53.4612 62.9341 53.011V46.0359C62.9471 45.7464 62.8978 45.4575 62.7895 45.1888C62.6812 44.92 62.5164 44.6777 62.3063 44.4781C61.7498 44.0686 61.0657 43.8708 60.3765 43.9201C59.6761 43.878 58.9792 44.0482 58.377 44.4084C58.1608 44.5375 57.9731 44.7092 57.8252 44.913C57.6773 45.1168 57.5724 45.3486 57.5167 45.5941V45.7801H50.0301V45.5244C50.1313 44.065 50.6566 42.667 51.5414 41.5021C52.497 40.3009 53.7694 39.3909 55.2149 38.8748C57.0212 38.2035 58.9382 37.8801 60.8648 37.9215C62.7478 37.8833 64.6199 38.2151 66.3751 38.898C67.807 39.4619 69.0658 40.392 70.0254 41.5951C70.8885 42.7569 71.346 44.1702 71.3275 45.6174V60.9859H62.9341V57.8936C62.5176 58.5794 61.9914 59.192 61.3763 59.7071C60.7606 60.2209 60.0495 60.6081 59.2837 60.8464C58.4344 61.1164 57.5476 61.2498 56.6565 61.2417C55.2402 61.3253 53.8256 61.0536 52.5411 60.4511Z" fill="#2D2D2D"/>
<path d="M74.5596 38.3865H82.953V42.5716H83.1157C83.5815 41.1759 84.4767 39.9634 85.6733 39.1072C86.9277 38.2639 88.4176 37.8405 89.9281 37.8982C90.9974 37.8393 92.0666 38.0172 93.0593 38.4191C94.052 38.821 94.9438 39.437 95.6709 40.2233C97.0823 41.9989 97.7789 44.238 97.624 46.5009V61.0091H89.2306V48.2912C89.3064 47.3434 89.0517 46.3986 88.5098 45.6174C88.2216 45.2891 87.8625 45.0306 87.4597 44.8614C87.0569 44.6922 86.621 44.6168 86.1848 44.6408C85.5859 44.6282 84.9963 44.7897 84.4875 45.1058C84.0053 45.4254 83.6258 45.8776 83.3947 46.4079C83.1125 46.9944 82.9769 47.6407 82.9995 48.2912V60.9626H74.5596V38.3865Z" fill="#2D2D2D"/>
<path d="M106.227 67.7053C104.721 67.2181 103.357 66.3723 102.251 65.2408C101.333 64.2908 100.753 63.0653 100.6 61.7532V61.5672H108.645C108.897 62.0029 109.268 62.3577 109.714 62.5902C110.425 62.982 111.228 63.1748 112.039 63.1483C113.001 63.2243 113.958 62.952 114.736 62.381C115.02 62.1419 115.246 61.8424 115.399 61.5045C115.552 61.1666 115.627 60.7988 115.62 60.428V56.5219H115.457C115.113 57.269 114.604 57.9286 113.969 58.4517C113.281 59.0091 112.491 59.4276 111.644 59.6839C110.683 59.9917 109.677 60.1409 108.668 60.1257C106.991 60.177 105.335 59.7409 103.902 58.8702C102.557 57.9897 101.517 56.7146 100.926 55.2199C100.279 53.3217 100.011 51.3155 100.135 49.3143C100.079 47.1837 100.426 45.0617 101.158 43.0599C101.755 41.5121 102.799 40.1768 104.157 39.2236C105.592 38.3093 107.269 37.8476 108.97 37.8983C109.964 37.8871 110.951 38.0687 111.876 38.4331C112.757 38.7408 113.553 39.2504 114.202 39.9211C114.857 40.5813 115.365 41.374 115.69 42.2461H115.876V38.3866H124.246V60.3117C124.266 61.8641 123.749 63.3758 122.781 64.5898C121.696 65.9323 120.265 66.9532 118.642 67.5426C116.593 68.2814 114.426 68.6361 112.248 68.5888C110.206 68.6393 108.169 68.3405 106.227 67.7053ZM114.085 53.9411C114.659 53.5185 115.096 52.9363 115.341 52.2671C115.646 51.4172 115.795 50.5194 115.783 49.6165C115.804 48.7034 115.646 47.7949 115.318 46.9427C115.074 46.2663 114.638 45.6762 114.062 45.2454C113.503 44.8656 112.843 44.6625 112.167 44.6625C111.491 44.6625 110.831 44.8656 110.272 45.2454C109.708 45.678 109.274 46.2571 109.017 46.9195C108.688 47.7717 108.53 48.6801 108.552 49.5933C108.539 50.4961 108.689 51.3939 108.993 52.2438C109.245 52.9159 109.68 53.5039 110.249 53.9411C110.811 54.3342 111.481 54.545 112.167 54.545C112.853 54.545 113.523 54.3342 114.085 53.9411Z" fill="#2D2D2D"/>
<path d="M132.221 60.0325C130.494 59.1131 129.084 57.6953 128.175 55.9637C127.18 54.0162 126.692 51.849 126.757 49.6628C126.699 47.48 127.178 45.3165 128.152 43.3619C129.06 41.6567 130.451 40.2574 132.151 39.3396C134.034 38.3519 136.14 37.8636 138.266 37.9213C140.381 37.8705 142.475 38.3501 144.357 39.3164C146.042 40.2115 147.432 41.5765 148.356 43.2457C149.342 45.0715 149.831 47.1238 149.775 49.1978V51.5228H130.849V46.8727H145.892L141.986 51.2671V48.0353C142.006 47.2376 141.856 46.4447 141.544 45.7102C141.31 45.0922 140.897 44.558 140.358 44.1757C139.787 43.8405 139.137 43.6638 138.475 43.6638C137.813 43.6638 137.163 43.8405 136.592 44.1757C136.051 44.5584 135.625 45.0808 135.359 45.687C135.058 46.4246 134.908 47.2152 134.918 48.012V51.2903C134.904 52.0898 135.062 52.8828 135.383 53.6154C135.651 54.2279 136.096 54.7462 136.661 55.1034C137.271 55.4703 137.973 55.6558 138.684 55.6382C139.318 55.665 139.948 55.5374 140.521 55.2661C140.956 55.07 141.35 54.794 141.683 54.4524C141.901 54.2225 142.074 53.9545 142.195 53.6619H149.658V53.9176C149.45 54.726 149.146 55.5066 148.752 56.2427C148.245 57.1691 147.585 58.0025 146.799 58.7072C145.844 59.5601 144.729 60.216 143.52 60.637C141.925 61.1679 140.249 61.4196 138.568 61.381C136.373 61.4605 134.193 60.9973 132.221 60.0325Z" fill="#2D2D2D"/>
<path d="M160.772 31.4578H169.445V60.9626H160.772V31.4578ZM165.237 46.5008H172.002C173.22 46.5781 174.423 46.1966 175.374 45.4313C175.797 45.0221 176.125 44.5245 176.334 43.9738C176.543 43.4232 176.628 42.8332 176.583 42.246C176.63 41.6586 176.546 41.0681 176.337 40.5173C176.128 39.9664 175.799 39.4688 175.374 39.0607C174.415 38.3135 173.216 37.9416 172.002 38.0144H165.237V31.4578H174.072C176.142 31.4046 178.193 31.8597 180.047 32.7831C181.637 33.6495 182.951 34.9469 183.837 36.5264C184.792 38.2695 185.266 40.2358 185.209 42.2227C185.27 44.2101 184.796 46.1776 183.837 47.9191C182.916 49.4946 181.56 50.7703 179.931 51.5926C178.075 52.5089 176.024 52.956 173.955 52.8947H165.237V46.5008Z" fill="#2D2D2D"/>
<path d="M187.812 38.3864H196.183V60.9626H187.812V38.3864ZM189.045 35.1779C188.67 34.8138 188.372 34.3783 188.169 33.8971C187.965 33.4158 187.86 32.8987 187.86 32.3762C187.86 31.8538 187.965 31.3366 188.169 30.8554C188.372 30.3741 188.67 29.9386 189.045 29.5745C189.84 28.8155 190.898 28.3921 191.998 28.3921C193.097 28.3921 194.155 28.8155 194.95 29.5745C195.331 29.9352 195.634 30.3696 195.841 30.8513C196.049 31.333 196.155 31.8519 196.155 32.3762C196.155 32.9006 196.049 33.4194 195.841 33.9011C195.634 34.3828 195.331 34.8172 194.95 35.1779C194.155 35.9369 193.097 36.3603 191.998 36.3603C190.898 36.3603 189.84 35.9369 189.045 35.1779Z" fill="#2D2D2D"/>
<path d="M199.438 31.4578H207.808V60.9625H199.438V31.4578Z" fill="#2D2D2D"/>
<path d="M211.179 31.4578H219.549V60.9625H211.179V31.4578Z" fill="#2D2D2D"/>
<path d="M238.591 31.4578H246.776V38.4329H243.939L238.08 60.8928H228.966L238.591 31.4578ZM236.824 48.9653H251.263L253.053 55.0802H234.988L236.824 48.9653ZM244.102 38.5026V31.5275H249.473L259.098 61.0323H249.984L244.102 38.5026Z" fill="#2D2D2D"/>
<path d="M261.283 38.3865H269.653V42.4553H269.863C270.181 41.5457 270.688 40.7138 271.351 40.014C271.994 39.3155 272.79 38.7745 273.676 38.433C274.601 38.0687 275.588 37.887 276.582 37.8982C278.289 37.8509 279.969 38.3299 281.395 39.27C282.767 40.2685 283.811 41.6524 284.394 43.2458C285.123 45.2967 285.47 47.4638 285.417 49.6397C285.477 51.8141 285.138 53.9811 284.417 56.0335C283.852 57.6365 282.814 59.0307 281.441 60.0326C280.074 60.9696 278.449 61.4572 276.791 61.4276C275.775 61.4363 274.765 61.2549 273.815 60.8929C272.944 60.5562 272.152 60.0415 271.49 59.3816C270.844 58.7134 270.338 57.923 270.002 57.0566H269.839V68.1005H261.469L261.283 38.3865ZM275.233 54.0805C275.809 53.6298 276.244 53.0251 276.489 52.3367C276.796 51.4794 276.946 50.5735 276.931 49.6629C276.948 48.7426 276.79 47.8274 276.466 46.9659C276.214 46.2938 275.779 45.7058 275.21 45.2686C274.666 44.8663 274.004 44.654 273.327 44.6641C272.643 44.6573 271.975 44.8691 271.42 45.2686C270.845 45.6993 270.408 46.2895 270.165 46.9659C269.84 47.8354 269.683 48.7583 269.7 49.6862C269.681 50.6067 269.838 51.5223 270.165 52.3832C270.408 53.0662 270.844 53.6639 271.42 54.1037C271.972 54.5093 272.642 54.7218 273.327 54.7083C273.984 54.7016 274.62 54.4812 275.14 54.0805H275.233Z" fill="#2D2D2D"/>
<path d="M287.952 38.3865H296.322V42.4553H296.508C296.827 41.5457 297.334 40.7138 297.996 40.014C298.64 39.3155 299.435 38.7745 300.321 38.433C301.247 38.0687 302.233 37.887 303.228 37.8982C304.935 37.8509 306.615 38.3299 308.04 39.27C309.412 40.2685 310.456 41.6524 311.04 43.2458C311.769 45.2967 312.115 47.4638 312.063 49.6397C312.122 51.8141 311.783 53.9811 311.063 56.0335C310.498 57.6365 309.46 59.0307 308.087 60.0326C306.72 60.9696 305.094 61.4572 303.437 61.4276C302.42 61.4385 301.41 61.2571 300.461 60.8929C299.589 60.5562 298.797 60.0415 298.136 59.3816C297.49 58.7134 296.984 57.923 296.648 57.0566H296.485V68.1005H288.115L287.952 38.3865ZM301.902 54.0805C302.478 53.6298 302.913 53.0251 303.158 52.3367C303.456 51.4777 303.598 50.572 303.576 49.6629C303.601 48.7441 303.451 47.8289 303.135 46.9659C302.883 46.2938 302.448 45.7058 301.879 45.2686C301.335 44.8663 300.673 44.654 299.996 44.6641C299.312 44.654 298.643 44.8661 298.089 45.2686C297.514 45.6993 297.077 46.2895 296.834 46.9659C296.509 47.8354 296.352 48.7583 296.369 49.6862C296.35 50.6067 296.507 51.5223 296.834 52.3832C297.077 53.0662 297.513 53.6639 298.089 54.1037C298.641 54.5093 299.311 54.7218 299.996 54.7083C300.653 54.7016 301.289 54.4812 301.809 54.0805H301.902Z" fill="#2D2D2D"/>
</g>
<defs>
<clipPath id="clip0_79_99">
<rect width="440.967" height="100" fill="white" transform="translate(0.158203)"/>
</clipPath>
</defs>
</svg>
