<svg width="575" height="80" viewBox="0 0 575 80" fill="none" xmlns="http://www.w3.org/2000/svg">
<g style="mix-blend-mode:luminosity" clip-path="url(#clip0_113_58)">
<path d="M87.1689 41.0191C87.1689 28.0255 98.2517 17.3248 111.882 17.3248C125.513 17.3248 136.723 28.0255 136.723 41.0191C136.723 54.1401 125.513 64.8408 111.882 64.8408C98.2517 64.8408 87.1689 54.2675 87.1689 41.0191ZM99.2709 41.0191C99.2709 48.535 104.621 54.0127 111.755 54.0127C118.761 54.0127 124.239 48.4076 124.239 41.0191C124.239 33.758 118.761 28.1529 111.755 28.1529C104.876 28.1529 99.2709 33.758 99.2709 41.0191Z" fill="white"/>
<path d="M157.106 43.5668V63.6942H144.749V18.0891H157.106V24.2038C161.692 18.0891 169.462 17.1974 172.647 17.3248V29.4267C169.717 29.1719 157.106 29.8089 157.106 43.5668Z" fill="white"/>
<path d="M212.901 59.2357C210.99 61.7835 205.513 64.8408 199.016 64.8408C184.621 64.8408 176.086 54.1402 176.086 41.0192C176.086 27.8981 184.494 17.1975 199.016 17.1975C205.64 17.1975 210.481 19.8727 212.901 22.93V1.01917H225.131V63.6943H212.901V59.2357ZM200.799 28.0255C192.901 28.0255 188.315 33.5032 188.315 40.8918C188.315 48.1529 193.156 53.758 200.799 53.758C208.57 53.758 213.283 48.9173 213.283 40.8918C213.411 33.3759 208.57 28.0255 200.799 28.0255Z" fill="white"/>
<path d="M242.329 13.3758C238.507 13.3758 235.322 10.4459 235.322 6.6242C235.322 2.92994 238.507 0 242.329 0C246.023 0 249.08 2.92994 249.08 6.6242C249.208 10.3185 246.15 13.3758 242.329 13.3758ZM236.087 18.2166H248.571V63.6943H236.087V18.2166Z" fill="white"/>
<path d="M301.436 36.8153V63.6943H288.698V36.8153C288.698 29.8089 284.749 27.6433 279.908 27.6433C276.468 27.6433 270.991 29.6815 271.245 39.6178V63.6943H258.889V18.0892H271.245V22.1656C274.303 19.1083 279.398 17.3248 283.475 17.3248C296.596 17.3248 301.436 24.9681 301.436 36.8153Z" fill="white"/>
<path d="M346.277 59.2357C344.366 61.7835 338.889 64.8408 332.392 64.8408C317.997 64.8408 309.462 54.1402 309.462 41.0192C309.462 27.8981 317.87 17.1975 332.392 17.1975C339.016 17.1975 343.857 19.8727 346.277 22.93V18.2166H358.506V63.6943H346.277V59.2357ZM334.303 28.0255C326.405 28.0255 321.819 33.5032 321.819 40.8918C321.819 48.1529 326.659 53.758 334.303 53.758C342.073 53.758 346.787 48.9173 346.787 40.8918C346.787 33.3759 341.946 28.0255 334.303 28.0255Z" fill="white"/>
<path d="M369.08 1.01917H381.564V63.6943H369.08V1.01917Z" fill="white"/>
<path d="M388.952 57.7071L395.449 49.0446C399.016 51.465 404.748 53.8854 410.226 53.8854C414.048 53.8854 416.723 52.102 416.723 49.809C416.723 46.7516 410.353 46.3695 407.933 45.9873C401.691 44.9682 389.844 43.0574 389.844 31.5924C389.844 18.2166 404.239 17.1975 408.697 17.1975C415.959 17.1975 421.691 19.2357 427.678 23.6943L421.181 32.102C417.742 30.0638 413.283 27.8981 408.188 27.8981C405.767 27.8981 402.201 29.0446 402.201 31.3376C402.201 34.395 408.825 35.1593 410.863 35.4141C418.634 36.688 428.952 38.0892 428.952 49.809C428.952 59.2357 422.201 64.586 410.226 64.586C400.544 64.8408 393.92 61.6561 388.952 57.7071Z" fill="white"/>
<path d="M437.105 63.6943V1.01917H449.335V22.93C451.628 19.8727 456.596 17.1975 463.22 17.1975C477.615 17.1975 486.15 27.8981 486.15 41.0192C486.15 54.1402 477.742 64.8408 463.22 64.8408C456.723 64.8408 451.246 61.9109 449.335 59.2357V63.6943H437.105ZM461.437 53.758C469.08 53.758 473.921 48.1529 473.921 40.8918C473.921 33.3759 469.335 28.0255 461.437 28.0255C453.666 28.0255 448.953 33.3759 448.953 40.8918C448.953 48.9173 453.666 53.758 461.437 53.758ZM492.265 41.0192C492.265 28.0255 503.348 17.3249 516.978 17.3249C530.609 17.3249 541.819 28.0255 541.819 41.0192C541.819 54.1402 530.609 64.8408 516.978 64.8408C503.348 64.8408 492.265 54.2676 492.265 41.0192ZM504.494 41.0192C504.494 48.5351 509.844 54.0128 516.978 54.0128C523.984 54.0128 529.462 48.4077 529.462 41.0192C529.462 33.758 523.984 28.1529 516.978 28.1529C509.972 28.1529 504.494 33.758 504.494 41.0192ZM565.386 47.516C565.386 50.0638 565.513 54.2676 570.991 54.2676C572.392 54.2676 573.411 54.1402 574.176 54.1402V64.586C572.647 64.7134 570.354 64.9682 568.57 64.9682C559.016 64.9682 553.029 63.1848 553.029 53.6306V28.2803H547.424V17.4523H553.029V5.22299H565.258V17.4523H574.43V28.2803H565.258V47.516H565.386Z" fill="url(#paint0_linear_113_58)"/>
<path d="M60.5455 44.4586C64.1123 91.7198 -2.51187 91.7198 0.927618 44.4586C0.927618 43.3121 1.81934 42.4204 2.96584 42.4204H58.5072C59.6537 42.5478 60.5455 43.4395 60.5455 44.4586ZM52.3926 7.13378V30.5733C52.3926 34.1401 49.59 36.9427 46.0232 36.9427H15.4499C11.883 36.9427 9.08048 34.0128 9.08048 30.5733V7.13378C9.08048 3.5669 12.0104 0.636963 15.5773 0.636963H46.0232C49.59 0.636963 52.3926 3.5669 52.3926 7.13378ZM28.1888 18.4714C28.1888 15.2866 25.5136 12.7389 22.3289 12.7389C19.1442 12.7389 16.7238 15.2866 16.5964 18.4714C16.5964 21.6561 19.2716 24.2038 22.4563 24.2038C25.641 24.2038 28.1888 21.6561 28.1888 18.4714ZM44.8767 18.4714C44.8767 15.2866 42.2015 12.7389 39.0168 12.7389C35.8321 12.7389 33.4117 15.2866 33.2843 18.4714C33.2843 21.6561 35.9595 24.2038 39.1442 24.2038C42.2015 24.2038 44.7493 21.6561 44.8767 18.4714ZM39.0168 16.6879C37.9977 16.6879 37.2334 17.5796 37.3607 18.4714C37.3607 19.3631 38.1251 20.1274 39.0168 20.1274C40.0359 20.1274 40.8002 19.2357 40.6728 18.344C40.6728 17.4522 39.9085 16.8153 39.0168 16.6879ZM22.4563 16.6879C21.4372 16.6879 20.6728 17.5796 20.8002 18.4714C20.8002 19.3631 21.5646 20.1274 22.4563 20.1274C23.4754 20.1274 24.2397 19.2357 24.1123 18.344C24.1123 17.4522 23.348 16.8153 22.4563 16.6879Z" fill="white"/>
</g>
<defs>
<linearGradient id="paint0_linear_113_58" x1="457.889" y1="80.5546" x2="552.77" y2="-14.3269" gradientUnits="userSpaceOnUse">
<stop stop-color="#F9B233"/>
<stop offset="1" stop-color="#FFD810"/>
</linearGradient>
<clipPath id="clip0_113_58">
<rect width="573.758" height="80" fill="white" transform="translate(0.799805)"/>
</clipPath>
</defs>
</svg>
