<svg width="538" height="75" viewBox="0 0 538 75" fill="none" xmlns="http://www.w3.org/2000/svg">
<g clip-path="url(#clip0_302_16)">
<path d="M80.9717 38.4554C80.9717 26.2739 91.3618 16.2421 104.14 16.2421C116.919 16.2421 127.429 26.2739 127.429 38.4554C127.429 50.7564 116.919 60.7883 104.14 60.7883C91.3618 60.7883 80.9717 50.8758 80.9717 38.4554ZM92.3172 38.4554C92.3172 45.5016 97.3331 50.637 104.021 50.637C110.59 50.637 115.725 45.3822 115.725 38.4554C115.725 31.6481 110.59 26.3933 104.021 26.3933C97.572 26.3933 92.3172 31.6481 92.3172 38.4554Z" fill="white"/>
<path d="M146.537 40.8439V59.7134H134.952V16.9586H146.537V22.6911C150.836 16.9586 158.121 16.1226 161.107 16.242V27.5876C158.36 27.3487 146.537 27.9458 146.537 40.8439Z" fill="white"/>
<path d="M198.846 55.5335C197.055 57.922 191.92 60.7883 185.829 60.7883C172.334 60.7883 164.332 50.7564 164.332 38.4554C164.332 26.1545 172.214 16.1226 185.829 16.1226C192.039 16.1226 196.577 18.6306 198.846 21.4968V0.955444H210.311V59.7134H198.846V55.5335ZM187.501 26.2739C180.096 26.2739 175.797 31.4093 175.797 38.336C175.797 45.1433 180.335 50.3981 187.501 50.3981C194.786 50.3981 199.205 45.8599 199.205 38.336C199.324 31.2898 194.786 26.2739 187.501 26.2739Z" fill="white"/>
<path d="M226.434 12.5398C222.851 12.5398 219.865 9.79299 219.865 6.21019C219.865 2.74682 222.851 0 226.434 0C229.897 0 232.763 2.74682 232.763 6.21019C232.883 9.67357 230.017 12.5398 226.434 12.5398ZM220.582 17.078H232.286V59.7134H220.582V17.078Z" fill="white"/>
<path d="M281.848 34.5144V59.7134H269.905V34.5144C269.905 27.9459 266.203 25.9156 261.664 25.9156C258.44 25.9156 253.305 27.8265 253.543 37.1417V59.7134H241.959V16.9586H253.543V20.7803C256.41 17.914 261.187 16.2421 265.008 16.2421C277.309 16.2421 281.848 23.4077 281.848 34.5144Z" fill="white"/>
<path d="M323.885 55.5335C322.094 57.922 316.959 60.7882 310.868 60.7882C297.373 60.7882 289.371 50.7564 289.371 38.4554C289.371 26.1545 297.253 16.1226 310.868 16.1226C317.078 16.1226 321.616 18.6306 323.885 21.4968V17.078H335.35V59.7134H323.885V55.5335ZM312.659 26.2739C305.255 26.2739 300.955 31.4092 300.955 38.336C300.955 45.1433 305.494 50.3981 312.659 50.3981C319.944 50.3981 324.363 45.8599 324.363 38.336C324.363 31.2898 319.825 26.2739 312.659 26.2739Z" fill="white"/>
<path d="M345.263 0.955444H356.967V59.7134H345.263V0.955444Z" fill="white"/>
<path d="M363.894 54.1003L369.984 45.9793C373.328 48.2484 378.702 50.5175 383.838 50.5175C387.421 50.5175 389.929 48.8455 389.929 46.6959C389.929 43.8296 383.957 43.4713 381.688 43.1131C375.836 42.1576 364.73 40.3662 364.73 29.6178C364.73 17.078 378.225 16.1226 382.405 16.1226C389.212 16.1226 394.586 18.0334 400.199 22.2134L394.109 30.0955C390.884 28.1847 386.704 26.1545 381.927 26.1545C379.658 26.1545 376.314 27.2293 376.314 29.379C376.314 32.2452 382.524 32.9618 384.435 33.2006C391.72 34.3949 401.394 35.7086 401.394 46.6959C401.394 55.5334 395.064 60.5494 383.838 60.5494C374.761 60.7882 368.551 57.8026 363.894 54.1003Z" fill="white"/>
<path d="M409.037 59.7134V0.955444H420.502V21.4968C422.652 18.6306 427.309 16.1226 433.52 16.1226C447.015 16.1226 455.016 26.1545 455.016 38.4554C455.016 50.7564 447.134 60.7882 433.52 60.7882C427.429 60.7882 422.293 58.0414 420.502 55.5335V59.7134H409.037ZM431.848 50.3981C439.013 50.3981 443.551 45.1433 443.551 38.336C443.551 31.2898 439.252 26.2739 431.848 26.2739C424.563 26.2739 420.144 31.2898 420.144 38.336C420.144 45.8599 424.563 50.3981 431.848 50.3981ZM460.749 38.4554C460.749 26.2739 471.139 16.2421 483.918 16.2421C496.696 16.2421 507.206 26.2739 507.206 38.4554C507.206 50.7564 496.696 60.7882 483.918 60.7882C471.139 60.7882 460.749 50.8758 460.749 38.4554ZM472.214 38.4554C472.214 45.5016 477.23 50.637 483.918 50.637C490.486 50.637 495.622 45.3822 495.622 38.4554C495.622 31.6481 490.486 26.3933 483.918 26.3933C477.349 26.3933 472.214 31.6481 472.214 38.4554ZM529.3 44.5462C529.3 46.9347 529.419 50.8758 534.555 50.8758C535.868 50.8758 536.824 50.7564 537.54 50.7564V60.5494C536.107 60.6688 533.958 60.9077 532.286 60.9077C523.329 60.9077 517.715 59.2357 517.715 50.2787V26.5128H512.461V16.3615H517.715V4.89653H529.18V16.3615H537.779V26.5128H529.18V44.5462H529.3Z" fill="url(#paint0_linear_302_16)"/>
<path d="M56.0115 41.6799C59.3554 85.9872 -3.10476 85.9872 0.119764 41.6799C0.119764 40.6051 0.955752 39.7691 2.03059 39.7691H54.1007C55.1755 39.8885 56.0115 40.7245 56.0115 41.6799ZM48.3682 6.68787V28.6624C48.3682 32.0063 45.7408 34.6337 42.3968 34.6337H13.7344C10.3905 34.6337 7.76308 31.8869 7.76308 28.6624V6.68787C7.76308 3.34392 10.5099 0.597107 13.8538 0.597107H42.3968C45.7408 0.597107 48.3682 3.34392 48.3682 6.68787ZM25.6771 17.3169C25.6771 14.3312 23.1691 11.9426 20.1835 11.9426C17.1978 11.9426 14.9287 14.3312 14.8093 17.3169C14.8093 20.3025 17.3172 22.6911 20.3029 22.6911C23.2886 22.6911 25.6771 20.3025 25.6771 17.3169ZM41.322 17.3169C41.322 14.3312 38.814 11.9426 35.8284 11.9426C32.8427 11.9426 30.5736 14.3312 30.4542 17.3169C30.4542 20.3025 32.9621 22.6911 35.9478 22.6911C38.814 22.6911 41.2026 20.3025 41.322 17.3169ZM35.8284 15.6449C34.8729 15.6449 34.1564 16.4809 34.2758 17.3169C34.2758 18.1528 34.9924 18.8694 35.8284 18.8694C36.7838 18.8694 37.5003 18.0334 37.3809 17.1974C37.3809 16.3614 36.6644 15.7643 35.8284 15.6449ZM20.3029 15.6449C19.3475 15.6449 18.6309 16.4809 18.7503 17.3169C18.7503 18.1528 19.4669 18.8694 20.3029 18.8694C21.2583 18.8694 21.9749 18.0334 21.8554 17.1974C21.8554 16.3614 21.1389 15.7643 20.3029 15.6449Z" fill="white"/>
</g>
<defs>
<linearGradient id="paint0_linear_302_16" x1="428.521" y1="75.5199" x2="517.473" y2="-13.4315" gradientUnits="userSpaceOnUse">
<stop stop-color="#F9B233"/>
<stop offset="1" stop-color="#FFD810"/>
</linearGradient>
<clipPath id="clip0_302_16">
<rect width="537.898" height="75" fill="white"/>
</clipPath>
</defs>
</svg>
