<svg width="138" height="120" viewBox="0 0 138 120" fill="none" xmlns="http://www.w3.org/2000/svg">
<g style="mix-blend-mode:luminosity" clip-path="url(#clip0_79_570)">
<mask id="mask0_79_570" style="mask-type:luminance" maskUnits="userSpaceOnUse" x="3" y="2" width="133" height="133">
<path d="M69.2925 134.657C105.844 134.657 135.476 105.031 135.476 68.4856C135.476 31.9402 105.844 2.31421 69.2925 2.31421C32.7406 2.31421 3.10938 31.9402 3.10938 68.4856C3.10938 105.031 32.7406 134.657 69.2925 134.657Z" fill="white"/>
</mask>
<g mask="url(#mask0_79_570)">
<path d="M156.617 58.6172H-19.5674V79.1685H156.617V58.6172Z" fill="#FFBE84"/>
<path d="M156.617 41.002H-19.5674V58.6173H156.617V41.002Z" fill="#FF9772"/>
<path d="M156.617 23.3865H-19.5674V41.0019H156.617V23.3865Z" fill="#FF6F61"/>
<path d="M156.617 -20.6519H-19.5674V23.3866H156.617V-20.6519Z" fill="#FA4C4B"/>
<path d="M156.617 79.1685H-19.5674V117.335H156.617V79.1685Z" fill="#FFE595"/>
</g>
<mask id="mask1_79_570" style="mask-type:luminance" maskUnits="userSpaceOnUse" x="3" y="2" width="133" height="133">
<path d="M69.2925 134.657C105.844 134.657 135.476 105.031 135.476 68.4856C135.476 31.9402 105.844 2.31421 69.2925 2.31421C32.7406 2.31421 3.10938 31.9402 3.10938 68.4856C3.10938 105.031 32.7406 134.657 69.2925 134.657Z" fill="white"/>
</mask>
<g mask="url(#mask1_79_570)">
<path d="M50.9071 17.5149H47.9707V20.4508H50.9071V17.5149Z" fill="#FF6F61"/>
<path d="M3.92469 29.2585H0.988281V32.1944H3.92469V29.2585Z" fill="#FA4C4B"/>
<path d="M9.79773 29.2585H6.86133V32.1944H9.79773V29.2585Z" fill="#FA4C4B"/>
<path d="M21.5429 29.2585H18.6064V32.1944H21.5429V29.2585Z" fill="#FA4C4B"/>
<path d="M134.596 29.2585H131.659V32.1944H134.596V29.2585Z" fill="#FA4C4B"/>
<path d="M125.786 26.3225H122.85V29.2584H125.786V26.3225Z" fill="#FA4C4B"/>
<path d="M30.3524 20.4507H27.416V26.3225H30.3524V20.4507Z" fill="#FF6F61"/>
<path d="M42.0985 20.4507H39.1621V26.3225H42.0985V20.4507Z" fill="#FF6F61"/>
<path d="M47.9706 20.4507H45.0342V26.3225H47.9706V20.4507Z" fill="#FF6F61"/>
<path d="M59.7166 17.5149H53.8438V23.3867H59.7166V17.5149Z" fill="#FF6F61"/>
<path d="M56.7801 20.4507H50.9072V26.3225H56.7801V20.4507Z" fill="#FF6F61"/>
<path d="M128.723 20.4507H125.786V23.3866H128.723V20.4507Z" fill="#FF6F61"/>
<path d="M3.92469 23.3867H0.988281V26.3226H3.92469V23.3867Z" fill="#FA4C4B"/>
<path d="M9.79773 23.3867H6.86133V26.3226H9.79773V23.3867Z" fill="#FA4C4B"/>
<path d="M15.6708 23.3867H12.7344V26.3226H15.6708V23.3867Z" fill="#FA4C4B"/>
<path d="M27.4156 23.3867H15.6699V26.3226H27.4156V23.3867Z" fill="#FA4C4B"/>
<path d="M36.2255 23.3867H33.2891V26.3226H36.2255V23.3867Z" fill="#FA4C4B"/>
<path d="M122.849 20.4507H116.977V26.3225H122.849V20.4507Z" fill="#FA4C4B"/>
<path d="M128.723 23.3867H125.786V26.3226H128.723V23.3867Z" fill="#FA4C4B"/>
<path d="M137.532 23.3867H131.659V26.3226H137.532V23.3867Z" fill="#FA4C4B"/>
<path d="M6.86121 26.3225H3.9248V29.2584H6.86121V26.3225Z" fill="#FA4C4B"/>
<path d="M12.7343 26.3225H9.79785V29.2584H12.7343V26.3225Z" fill="#FA4C4B"/>
<path d="M18.6063 26.3225H15.6699V29.2584H18.6063V26.3225Z" fill="#FA4C4B"/>
<path d="M24.4794 26.3225H21.543V29.2584H24.4794V26.3225Z" fill="#FA4C4B"/>
<path d="M119.913 26.3225H116.977V29.2584H119.913V26.3225Z" fill="#FA4C4B"/>
<path d="M137.531 26.3225H134.595V29.2584H137.531V26.3225Z" fill="#FA4C4B"/>
</g>
<mask id="mask2_79_570" style="mask-type:luminance" maskUnits="userSpaceOnUse" x="3" y="2" width="133" height="133">
<path d="M69.2925 134.657C105.844 134.657 135.476 105.031 135.476 68.4856C135.476 31.9402 105.844 2.31421 69.2925 2.31421C32.7406 2.31421 3.10938 31.9402 3.10938 68.4856C3.10938 105.031 32.7406 134.657 69.2925 134.657Z" fill="white"/>
</mask>
<g mask="url(#mask2_79_570)">
<path d="M6.86121 32.1943H3.9248V35.1302H6.86121V32.1943Z" fill="#FF9772"/>
<path d="M36.2255 32.1943H33.2891V35.1302H36.2255V32.1943Z" fill="#FF9772"/>
<path d="M137.531 32.1943H134.595V35.1302H137.531V32.1943Z" fill="#FF9772"/>
<path d="M6.86121 43.938H3.9248V46.8739H6.86121V43.938Z" fill="#FF6F61"/>
<path d="M12.7343 43.938H9.79785V46.8739H12.7343V43.938Z" fill="#FF6F61"/>
<path d="M9.79773 46.8738H6.86133V49.8097H9.79773V46.8738Z" fill="#FF6F61"/>
<path d="M9.79773 38.0662H6.86133V43.938H9.79773V38.0662Z" fill="#FF6F61"/>
<path d="M18.6063 43.938H15.6699V46.8739H18.6063V43.938Z" fill="#FF6F61"/>
<path d="M24.4793 38.0662H18.6064V43.938H24.4793V38.0662Z" fill="#FF6F61"/>
<path d="M125.786 43.938H122.85V46.8739H125.786V43.938Z" fill="#FF6F61"/>
<path d="M137.531 43.938H134.595V46.8739H137.531V43.938Z" fill="#FF6F61"/>
<path d="M3.92469 35.1304H0.988281V38.0663H3.92469V35.1304Z" fill="#FF9772"/>
<path d="M21.5429 35.1304H18.6064V38.0663H21.5429V35.1304Z" fill="#FF9772"/>
<path d="M33.2889 35.1304H30.3525V38.0663H33.2889V35.1304Z" fill="#FF9772"/>
<path d="M39.162 35.1304H36.2256V38.0663H39.162V35.1304Z" fill="#FF9772"/>
<path d="M50.9071 29.2585H47.9707V32.1944H50.9071V29.2585Z" fill="#FF9772"/>
<path d="M59.7165 35.1304H50.9072V43.9381H59.7165V35.1304Z" fill="#FF9772"/>
<path d="M53.8436 32.1943H50.9072V35.1302H53.8436V32.1943Z" fill="#FF9772"/>
<path d="M47.9706 38.0662H45.0342V43.938H47.9706V38.0662Z" fill="#FF9772"/>
<path d="M53.8436 38.0662H50.9072V43.938H53.8436V38.0662Z" fill="#FF9772"/>
<path d="M45.0341 35.1304H42.0977V38.0663H45.0341V35.1304Z" fill="#FF9772"/>
<path d="M59.7164 35.1304H47.9707V38.0663H59.7164V35.1304Z" fill="#FF9772"/>
<path d="M116.976 35.1304H114.04V41.0022H116.976V35.1304Z" fill="#FF9772"/>
<path d="M134.595 35.1304H131.658V38.0663H134.595V35.1304Z" fill="#FF9772"/>
<path d="M6.86121 38.0662H3.9248V41.002H6.86121V38.0662Z" fill="#FF9772"/>
<path d="M30.3524 38.0662H27.416V43.938H30.3524V38.0662Z" fill="#FF9772"/>
<path d="M36.2255 38.0662H33.2891V43.938H36.2255V38.0662Z" fill="#FF9772"/>
<path d="M119.913 38.0662H114.04V43.938H119.913V38.0662Z" fill="#FF9772"/>
<path d="M137.531 38.0662H134.595V41.002H137.531V38.0662Z" fill="#FF9772"/>
<path d="M3.92469 41.0022H0.988281V43.9381H3.92469V41.0022Z" fill="#FF6F61"/>
<path d="M15.6698 38.0662H12.7334V43.938H15.6698V38.0662Z" fill="#FF6F61"/>
<path d="M122.849 38.0662H119.913V43.938H122.849V38.0662Z" fill="#FF6F61"/>
<path d="M128.723 38.0662H125.786V43.938H128.723V38.0662Z" fill="#FF6F61"/>
</g>
<mask id="mask3_79_570" style="mask-type:luminance" maskUnits="userSpaceOnUse" x="3" y="2" width="133" height="133">
<path d="M69.2925 134.657C105.844 134.657 135.476 105.031 135.476 68.4856C135.476 31.9402 105.844 2.31421 69.2925 2.31421C32.7406 2.31421 3.10938 31.9402 3.10938 68.4856C3.10938 105.031 32.7406 134.657 69.2925 134.657Z" fill="white"/>
</mask>
<g mask="url(#mask3_79_570)">
<path d="M15.6708 52.7456H12.7344V55.6815H15.6708V52.7456Z" fill="#FFBE84"/>
<path d="M21.5429 52.7456H18.6064V55.6815H21.5429V52.7456Z" fill="#FFBE84"/>
<path d="M30.3524 55.6816H27.416V61.5534H30.3524V55.6816Z" fill="#FFBE84"/>
<path d="M33.2889 52.7456H30.3525V55.6815H33.2889V52.7456Z" fill="#FFBE84"/>
<path d="M36.2255 49.8098H33.2891V52.7457H36.2255V49.8098Z" fill="#FFBE84"/>
<path d="M42.0984 52.7456H36.2256V61.5533H42.0984V52.7456Z" fill="#FFBE84"/>
<path d="M116.976 52.7456H114.04V55.6815H116.976V52.7456Z" fill="#FFBE84"/>
<path d="M122.849 52.7456H119.913V55.6815H122.849V52.7456Z" fill="#FFBE84"/>
<path d="M9.79773 64.4893H6.86133V67.4251H9.79773V64.4893Z" fill="#FF9772"/>
<path d="M24.4794 55.6816H21.543V61.5534H24.4794V55.6816Z" fill="#FFBE84"/>
<path d="M119.913 55.6816H116.977V61.5534H119.913V55.6816Z" fill="#FFBE84"/>
<path d="M125.786 55.6816H122.85V61.5534H125.786V55.6816Z" fill="#FFBE84"/>
<path d="M9.79753 55.6816H0.988281V61.5534H9.79753V55.6816Z" fill="#FF9772"/>
<path d="M15.6708 55.6816H12.7344V61.5534H15.6708V55.6816Z" fill="#FF9772"/>
<path d="M6.86113 58.6174H0.988281V64.4892H6.86113V58.6174Z" fill="#FF9772"/>
<path d="M131.659 55.6816H128.723V61.5534H131.659V55.6816Z" fill="#FF9772"/>
<path d="M12.7343 61.5535H9.79785V64.4894H12.7343V61.5535Z" fill="#FF9772"/>
<path d="M18.6063 61.5535H15.6699V64.4894H18.6063V61.5535Z" fill="#FF9772"/>
<path d="M134.596 61.5535H131.659V64.4894H134.596V61.5535Z" fill="#FF9772"/>
</g>
<mask id="mask4_79_570" style="mask-type:luminance" maskUnits="userSpaceOnUse" x="3" y="2" width="133" height="133">
<path d="M69.2925 134.657C105.844 134.657 135.476 105.031 135.476 68.4856C135.476 31.9402 105.844 2.31421 69.2925 2.31421C32.7406 2.31421 3.10938 31.9402 3.10938 68.4856C3.10938 105.031 32.7406 134.657 69.2925 134.657Z" fill="white"/>
</mask>
<g mask="url(#mask4_79_570)">
<path d="M30.3524 70.3608H27.416V73.2967H30.3524V70.3608Z" fill="#FFE595"/>
<path d="M36.2255 67.425H33.2891V70.3609H36.2255V67.425Z" fill="#FFE595"/>
<path d="M24.4794 73.2969H21.543V76.2328H24.4794V73.2969Z" fill="#FFE595"/>
<path d="M119.913 73.2969H114.04V76.2328H119.913V73.2969Z" fill="#FFE595"/>
<path d="M6.86121 85.0405H3.9248V87.9764H6.86121V85.0405Z" fill="#FFBE84"/>
<path d="M134.595 87.9763H131.658V90.9122H134.595V87.9763Z" fill="#FFBE84"/>
<path d="M21.5429 76.2327H18.6064V82.1045H21.5429V76.2327Z" fill="#FFE595"/>
<path d="M33.2889 73.2969H30.3525V76.2328H33.2889V73.2969Z" fill="#FFE595"/>
<path d="M116.976 70.3608H114.04V82.1044H116.976V70.3608Z" fill="#FFE595"/>
<path d="M122.849 76.2327H119.913V82.1045H122.849V76.2327Z" fill="#FFE595"/>
<path d="M12.7341 76.2327H3.9248V82.1045H12.7341V76.2327Z" fill="#FFBE84"/>
<path d="M125.786 76.2327H122.85V82.1044H125.786V76.2327Z" fill="#FFBE84"/>
<path d="M131.659 76.2327H128.723V82.1045H131.659V76.2327Z" fill="#FFBE84"/>
<path d="M137.531 76.2327H134.595V82.1045H137.531V76.2327Z" fill="#FFBE84"/>
<path d="M3.92469 76.2327H0.988281V85.0404H3.92469V76.2327Z" fill="#FFBE84"/>
<path d="M9.79773 82.1045H6.86133V85.0404H9.79773V82.1045Z" fill="#FFBE84"/>
<path d="M15.6698 82.1045H12.7334V85.0404H15.6698V82.1045Z" fill="#FFBE84"/>
<path d="M21.5429 82.1045H18.6064V85.0404H21.5429V82.1045Z" fill="#FFBE84"/>
<path d="M122.849 82.1045H119.913V85.0404H122.849V82.1045Z" fill="#FFBE84"/>
<path d="M128.723 85.0405H125.786V87.9764H128.723V85.0405Z" fill="#FFBE84"/>
<path d="M134.595 82.1045H131.658V85.0404H134.595V82.1045Z" fill="#FFBE84"/>
</g>
<path d="M65.5893 73.2969H24.4795V117.335H65.5893V73.2969Z" fill="#A475D1"/>
<path d="M62.653 79.1687H27.416V83.5725H62.653V79.1687Z" fill="#AE89DB"/>
<path d="M62.653 87.9763H27.416V92.3801H62.653V87.9763Z" fill="#AE89DB"/>
<path d="M62.653 96.7842H27.416V101.188H62.653V96.7842Z" fill="#AE89DB"/>
<path d="M62.653 105.592H27.416V109.996H62.653V105.592Z" fill="#AE89DB"/>
<path d="M81.7397 46.8738H40.6299V117.335H81.7397V46.8738Z" fill="#76389E"/>
<path d="M78.8034 52.7456H43.5664V57.1494H78.8034V52.7456Z" fill="#884EB5"/>
<path d="M78.8034 61.5532H43.5664V65.957H78.8034V61.5532Z" fill="#884EB5"/>
<path d="M78.8034 70.3608H43.5664V74.7647H78.8034V70.3608Z" fill="#884EB5"/>
<path d="M78.8034 79.1687H43.5664V83.5725H78.8034V79.1687Z" fill="#884EB5"/>
<path d="M78.8034 87.9763H43.5664V92.3801H78.8034V87.9763Z" fill="#884EB5"/>
<path d="M78.8034 96.7839H43.5664V101.188H78.8034V96.7839Z" fill="#884EB5"/>
<path d="M78.8034 105.592H43.5664V109.996H78.8034V105.592Z" fill="#884EB5"/>
<path d="M114.04 11.6431H58.248V117.335H114.04V11.6431Z" fill="#14003A"/>
<path d="M111.104 17.5149H61.1846V21.9187H111.104V17.5149Z" fill="#4C1971"/>
<path d="M111.104 26.3225H61.1846V30.7263H111.104V26.3225Z" fill="#4C1971"/>
<path d="M111.104 35.1301H61.1846V39.534H111.104V35.1301Z" fill="#4C1971"/>
<path d="M111.104 43.938H61.1846V48.3418H111.104V43.938Z" fill="#4C1971"/>
<path d="M111.104 52.7456H61.1846V57.1494H111.104V52.7456Z" fill="#4C1971"/>
<path d="M111.104 61.5532H61.1846V65.957H111.104V61.5532Z" fill="#4C1971"/>
<path d="M111.104 70.3611H61.1846V74.7649H111.104V70.3611Z" fill="#4C1971"/>
<path d="M111.104 79.1687H61.1846V83.5725H111.104V79.1687Z" fill="#4C1971"/>
<path d="M111.104 87.9763H61.1846V92.3801H111.104V87.9763Z" fill="#4C1971"/>
<path d="M111.104 96.7839H61.1846V101.188H111.104V96.7839Z" fill="#4C1971"/>
<path d="M111.104 105.592H61.1846V109.996H111.104V105.592Z" fill="#4C1971"/>
<path d="M101.561 17.5149H75.1328V21.9187H101.561V17.5149Z" fill="#F745E2"/>
<path d="M76.6003 26.3225H67.791V30.7263H76.6003V26.3225Z" fill="#F745E2"/>
<path d="M97.1559 35.1301H75.1328V39.534H97.1559V35.1301Z" fill="#F745E2"/>
<path d="M104.497 43.938H95.6875V48.3418H104.497V43.938Z" fill="#F745E2"/>
<path d="M97.1553 52.7456H70.7275V57.1494H97.1553V52.7456Z" fill="#F745E2"/>
<path d="M97.1559 70.3608H75.1328V74.7647H97.1559V70.3608Z" fill="#F745E2"/>
<path d="M76.6003 79.1687H67.791V83.5725H76.6003V79.1687Z" fill="#F745E2"/>
<path d="M104.497 79.1687H95.6875V83.5725H104.497V79.1687Z" fill="#F745E2"/>
<path d="M104.497 96.7839H95.6875V101.188H104.497V96.7839Z" fill="#F745E2"/>
<path d="M76.6003 96.7839H67.791V101.188H76.6003V96.7839Z" fill="#F745E2"/>
<path d="M76.6003 87.9763H67.791V92.3801H76.6003V87.9763Z" fill="#F745E2"/>
<path d="M97.1559 105.592H75.1328V109.996H97.1559V105.592Z" fill="#F745E2"/>
</g>
<defs>
<clipPath id="clip0_79_570">
<rect width="137.167" height="120" fill="white" transform="translate(0.708984)"/>
</clipPath>
</defs>
</svg>
