<svg width="238" height="100" viewBox="0 0 238 100" fill="none" xmlns="http://www.w3.org/2000/svg">
<g style="mix-blend-mode:luminosity">
<path d="M122.135 39.6893C122.498 40.5732 123.257 41.3179 124.212 41.3179H128.96C129.996 41.3179 130.85 40.4607 130.682 39.4393C129.646 33.1464 123.91 28.9429 115.575 28.9429C106.575 28.9429 99.9799 33.9179 100.021 41.3786C99.9996 47.4357 104.269 50.9054 111.205 52.5697L115.675 53.6929C120.144 54.775 122.63 56.0589 122.65 58.8268C122.63 61.8357 119.784 63.8804 115.375 63.8804C111.535 63.8804 108.612 62.3697 107.653 59.3857C107.355 58.4572 106.578 57.6839 105.6 57.6839H100.842C99.7978 57.6839 98.946 58.5482 99.0853 59.5822C100.117 67.2214 106.248 71.1607 115.475 71.1607C125.496 71.1607 131.389 66.3679 131.41 58.8464C131.389 52.0072 126.237 48.3768 119.101 46.7732L115.414 45.8911C111.846 45.0697 108.86 43.7447 108.919 40.7964C108.919 38.1482 111.266 36.2036 115.514 36.2036C118.907 36.2036 121.228 37.4643 122.135 39.6893ZM145.625 31.3625C145.625 30.87 145.429 30.3976 145.081 30.0493C144.732 29.701 144.26 29.5054 143.767 29.5054H138.946C138.702 29.5051 138.46 29.553 138.235 29.6462C138.009 29.7394 137.804 29.8762 137.632 30.0487C137.459 30.2212 137.322 30.426 137.229 30.6514C137.135 30.8768 137.087 31.1185 137.087 31.3625V68.7232C137.087 69.7482 137.919 70.5804 138.944 70.5804H143.767C144.26 70.5804 144.732 70.3847 145.081 70.0364C145.429 69.6881 145.625 69.2158 145.625 68.7232V31.3625ZM181.757 71.1804C189.178 71.1804 194.103 67.2357 195.266 61.2357C195.469 60.1893 194.609 59.2893 193.541 59.2893H189.046C188.126 59.2893 187.376 59.9714 187.055 60.8322C186.192 63.1482 184.287 64.4214 181.857 64.4214C177.867 64.4214 175.282 61.0732 175.282 55.1768C175.282 49.3607 177.889 46.0304 181.857 46.0304C184.423 46.0304 186.234 47.4232 187.055 49.6197C187.376 50.4786 188.128 51.1661 189.048 51.1661H193.551C194.616 51.1661 195.476 50.2714 195.275 49.2286C194.11 43.2107 189 39.3714 181.716 39.3714C172.376 39.3714 166.603 45.85 166.603 55.2964C166.603 64.6625 172.275 71.1804 181.757 71.1804ZM215.005 71.1804C221.671 71.1804 226.435 68.3393 228.325 63.7964C228.759 62.7536 227.948 61.6893 226.819 61.6143L222.446 61.325C221.623 61.2714 220.892 61.7893 220.417 62.4625C219.325 64.0054 217.444 64.8018 215.144 64.8018C210.876 64.8018 208.169 61.975 208.169 57.3822C208.169 57.3714 208.178 57.3643 208.189 57.3643H227.278C227.771 57.3643 228.243 57.1686 228.591 56.8204C228.94 56.4721 229.135 55.9997 229.135 55.5072V55.0161C229.135 44.5464 222.801 39.3732 214.664 39.3732C205.603 39.3732 199.732 45.8107 199.732 55.3161C199.732 65.0839 205.525 71.1804 215.005 71.1804ZM210.125 52.0679C209.062 52.0679 208.191 51.1589 208.534 50.1536C209.407 47.5911 211.737 45.75 214.805 45.75C217.855 45.75 220.134 47.5429 220.855 50.2214C221.123 51.2161 220.26 52.0679 219.23 52.0679H210.125ZM161.005 68.7232C161.005 69.2158 160.809 69.6881 160.461 70.0364C160.113 70.3847 159.64 70.5804 159.148 70.5804H154.321C153.828 70.5804 153.356 70.3847 153.008 70.0364C152.66 69.6881 152.464 69.2158 152.464 68.7232V49.4179C152.464 48.9286 152.657 48.4607 153 48.1143L157.821 43.2286C158.989 42.0482 161.003 42.8714 161.003 44.5322L161.005 68.7232Z" fill="#0F172A"/>
<path fill-rule="evenodd" clip-rule="evenodd" d="M8.38202 43.9429C8.27787 42.0674 8.57132 40.191 9.24313 38.4369C9.91493 36.6827 10.9499 35.0904 12.2802 33.7643L20.8695 25.1804C22.5782 23.4731 24.6183 22.1337 26.8642 21.2446C28.3651 20.428 30.0466 20.0001 31.7552 20H60.7142C62.4392 20 64.1195 20.4357 65.607 21.2446C67.8523 22.1339 69.8917 23.4733 71.5999 25.1804L80.1892 33.7625C81.5198 35.0885 82.5551 36.6807 83.2272 38.4349C83.8994 40.189 84.1931 42.0654 84.0892 43.9411C84.1933 45.817 83.8997 47.6937 83.2276 49.4482C82.5555 51.2027 81.52 52.7953 80.1892 54.1214L59.4784 74.8214C57.7494 76.553 55.6794 77.9063 53.3997 78.7956C51.12 79.685 48.6804 80.0908 46.2356 79.9875C43.7908 80.0908 41.3511 79.685 39.0715 78.7956C36.7918 77.9063 34.7218 76.553 32.9927 74.8214L12.2784 54.125C10.9482 52.7985 9.91343 51.2058 9.24193 49.4514C8.57043 47.6969 8.27739 45.8185 8.38202 43.9429ZM31.7552 28.9107H59.0874C61.416 28.9112 63.6492 29.836 65.2963 31.4821L73.8856 40.0643C74.2999 40.4779 74.6287 40.9692 74.8529 41.51C75.0772 42.0509 75.1927 42.6306 75.1927 43.2161C75.1927 43.8016 75.0772 44.3813 74.8529 44.9221C74.6287 45.4629 74.2999 45.9542 73.8856 46.3679C73.0492 47.2035 71.9152 47.6728 70.7329 47.6728C69.5506 47.6728 68.4167 47.2035 67.5802 46.3679L61.6017 40.3929C59.9543 38.7474 57.7211 37.8232 55.3927 37.8232H48.4052C48.2424 37.8227 48.0831 37.8706 47.9475 37.9608C47.8119 38.051 47.7063 38.1795 47.6439 38.3299C47.5815 38.4804 47.5652 38.6459 47.5971 38.8056C47.629 38.9653 47.7077 39.1119 47.8231 39.2268L58.216 49.6143C59.0313 50.4287 59.6781 51.3959 60.1194 52.4605C60.5608 53.5251 60.7879 54.6663 60.7879 55.8187C60.7879 56.9712 60.5608 58.1124 60.1194 59.177C59.6781 60.2416 59.0313 61.2088 58.216 62.0232L51.716 68.5179C50.0687 70.1628 47.8359 71.0867 45.5079 71.0867C43.18 71.0867 40.9472 70.1628 39.2999 68.5179L18.5856 47.8214C18.1713 47.4078 17.8425 46.9165 17.6183 46.3757C17.394 45.8349 17.2785 45.2551 17.2785 44.6696C17.2785 44.0842 17.394 43.5044 17.6183 42.9636C17.8425 42.4228 18.1713 41.9315 18.5856 41.5179C19.4223 40.6821 20.5566 40.2127 21.7392 40.2127C22.9218 40.2127 24.056 40.6821 24.8927 41.5179L42.3552 58.9696C43.1917 59.8053 44.3256 60.2746 45.5079 60.2746C46.6902 60.2746 47.8242 59.8053 48.6606 58.9696C49.0749 58.556 49.4036 58.0647 49.6279 57.5239C49.8522 56.9831 49.9677 56.4033 49.9677 55.8179C49.9677 55.2324 49.8522 54.6526 49.6279 54.1118C49.4036 53.571 49.0749 53.0797 48.6606 52.6661L30.8124 34.8321C30.4491 34.4693 30.161 34.0384 29.9646 33.564C29.7682 33.0896 29.6673 32.5811 29.6678 32.0676C29.6683 31.5542 29.7702 31.0459 29.9675 30.5719C30.1648 30.0979 30.4537 29.6675 30.8177 29.3054C30.94 29.1808 31.0859 29.0819 31.2469 29.0145C31.4079 28.947 31.5807 28.9106 31.7552 28.9107Z" fill="#0F172A"/>
<path d="M160.714 33.8178C160.714 34.9873 160.249 36.1087 159.422 36.9355C158.594 37.7622 157.473 38.2267 156.303 38.2267C155.431 38.2267 154.578 37.968 153.853 37.4834C153.127 36.9987 152.562 36.3099 152.228 35.5039C151.894 34.6979 151.807 33.8111 151.977 32.9555C152.148 32.0999 152.568 31.314 153.184 30.6971C153.801 30.0803 154.587 29.6602 155.443 29.49C156.298 29.3198 157.185 29.4072 157.991 29.741C158.797 30.0749 159.486 30.6402 159.971 31.3655C160.455 32.0909 160.714 32.9454 160.714 33.8178Z" fill="#0F172A"/>
<path fill-rule="evenodd" clip-rule="evenodd" d="M8.38202 43.9429C8.27787 42.0674 8.57132 40.191 9.24313 38.4369C9.91493 36.6827 10.9499 35.0904 12.2802 33.7643L20.8695 25.1804C22.5782 23.4731 24.6183 22.1337 26.8642 21.2446C28.3651 20.428 30.0466 20.0001 31.7552 20H60.7142C62.4392 20 64.1195 20.4357 65.607 21.2446C67.8523 22.1339 69.8917 23.4733 71.5999 25.1804L80.1892 33.7625C81.5198 35.0885 82.5551 36.6807 83.2272 38.4349C83.8994 40.189 84.1931 42.0654 84.0892 43.9411C84.1933 45.817 83.8997 47.6937 83.2276 49.4482C82.5555 51.2027 81.52 52.7953 80.1892 54.1214L59.4784 74.8214C57.7494 76.553 55.6794 77.9063 53.3997 78.7956C51.12 79.685 48.6804 80.0908 46.2356 79.9875C43.7908 80.0908 41.3511 79.685 39.0715 78.7956C36.7918 77.9063 34.7218 76.553 32.9927 74.8214L12.2784 54.125C10.9482 52.7985 9.91343 51.2058 9.24193 49.4514C8.57043 47.6969 8.27739 45.8185 8.38202 43.9429ZM31.7552 28.9107H59.0874C61.416 28.9112 63.6492 29.836 65.2963 31.4821L73.8856 40.0643C74.2999 40.4779 74.6287 40.9692 74.8529 41.51C75.0772 42.0509 75.1927 42.6306 75.1927 43.2161C75.1927 43.8016 75.0772 44.3813 74.8529 44.9221C74.6287 45.4629 74.2999 45.9542 73.8856 46.3679C73.0492 47.2035 71.9152 47.6728 70.7329 47.6728C69.5506 47.6728 68.4167 47.2035 67.5802 46.3679L61.6017 40.3929C59.9543 38.7474 57.7211 37.8232 55.3927 37.8232H48.4052C48.2424 37.8227 48.0831 37.8706 47.9475 37.9608C47.8119 38.051 47.7063 38.1795 47.6439 38.3299C47.5815 38.4804 47.5652 38.6459 47.5971 38.8056C47.629 38.9653 47.7077 39.1119 47.8231 39.2268L58.216 49.6143C59.0313 50.4287 59.6781 51.3959 60.1194 52.4605C60.5608 53.5251 60.7879 54.6663 60.7879 55.8187C60.7879 56.9712 60.5608 58.1124 60.1194 59.177C59.6781 60.2416 59.0313 61.2088 58.216 62.0232L51.716 68.5179C50.0687 70.1628 47.8359 71.0867 45.5079 71.0867C43.18 71.0867 40.9472 70.1628 39.2999 68.5179L18.5856 47.8214C18.1713 47.4078 17.8425 46.9165 17.6183 46.3757C17.394 45.8349 17.2785 45.2551 17.2785 44.6696C17.2785 44.0842 17.394 43.5044 17.6183 42.9636C17.8425 42.4228 18.1713 41.9315 18.5856 41.5179C19.4223 40.6821 20.5566 40.2127 21.7392 40.2127C22.9218 40.2127 24.056 40.6821 24.8927 41.5179L42.3552 58.9696C43.1917 59.8053 44.3256 60.2746 45.5079 60.2746C46.6902 60.2746 47.8242 59.8053 48.6606 58.9696C49.0749 58.556 49.4036 58.0647 49.6279 57.5239C49.8522 56.9831 49.9677 56.4033 49.9677 55.8179C49.9677 55.2324 49.8522 54.6526 49.6279 54.1118C49.4036 53.571 49.0749 53.0797 48.6606 52.6661L30.8124 34.8321C30.4491 34.4693 30.161 34.0384 29.9646 33.564C29.7682 33.0896 29.6673 32.5811 29.6678 32.0676C29.6683 31.5542 29.7702 31.0459 29.9675 30.5719C30.1648 30.0979 30.4537 29.6675 30.8177 29.3054C30.94 29.1808 31.0859 29.0819 31.2469 29.0145C31.4079 28.947 31.5807 28.9106 31.7552 28.9107Z" fill="#0F172A"/>
</g>
</svg>
