<svg width="332" height="100" viewBox="0 0 332 100" fill="none" xmlns="http://www.w3.org/2000/svg">
<g style="mix-blend-mode:luminosity">
<path d="M43.0916 37.6066C43.0916 38.2874 43.2928 38.8291 43.6952 39.2315C44.1284 39.6027 44.6235 39.7884 45.1807 39.7884C45.7997 39.7884 46.3102 39.5872 46.7126 39.1848C47.1149 38.7516 47.3161 38.1326 47.3161 37.3282V25.5827C47.3161 24.4066 47.1613 23.5709 46.8519 23.0759C46.5732 22.5808 46.109 22.3333 45.4591 22.3333C44.5926 22.3333 43.9736 22.689 43.6021 23.401C43.2307 24.1127 43.0453 25.1804 43.0453 26.6041C41.5906 24.9946 39.6561 23.8806 37.2422 23.2616C34.859 22.6426 32.3057 22.3333 29.5822 22.3333C26.6112 22.3333 23.9031 22.8901 21.458 24.0045C19.044 25.0877 17.1251 26.6968 15.7014 28.8325C14.2778 30.968 13.5659 33.5366 13.5659 36.5389C13.5659 39.2315 14.123 41.4442 15.2372 43.1776C16.3823 44.8797 17.8679 46.2413 19.6939 47.2627C21.5199 48.2531 23.8877 49.2436 26.7969 50.2337L34.4102 52.8336C36.9171 53.7001 38.9135 54.5512 40.399 55.3868C41.9154 56.2225 43.0762 57.2747 43.8809 58.5436C44.6853 59.8125 45.0876 61.4065 45.0876 63.3253C45.0876 67.0702 43.9272 69.8249 41.6061 71.5889C39.2846 73.3528 36.2827 74.2351 32.5996 74.2351C30.0927 74.2351 27.6325 73.8173 25.2184 72.9817C22.8352 72.146 20.8854 71.0783 19.3689 69.7782C17.8524 68.4475 17.0941 67.1323 17.0941 65.8322V60.3079C17.0941 59.5959 16.8775 59.039 16.4442 58.6366C16.0419 58.2343 15.5467 58.0331 14.9587 58.0331C14.3706 58.0331 13.8754 58.2188 13.4731 58.5903C13.1017 58.9614 12.916 59.5032 12.916 60.2149V74.792C12.916 76.0921 13.0862 76.9895 13.4267 77.4846C13.7671 77.98 14.3397 78.2275 15.1444 78.2275C15.8562 78.2275 16.3978 77.7324 16.7692 76.742C17.1406 75.7515 17.3263 74.3587 17.3263 72.5639C18.9666 74.2969 21.2413 75.6743 24.1506 76.6956C27.0599 77.7167 29.8297 78.2275 32.4605 78.2275C35.6173 78.2275 38.4802 77.7167 41.0489 76.6956C43.6176 75.6743 45.6757 74.0339 47.2234 71.7746C48.7707 69.5152 49.5445 66.6369 49.5445 63.1396C49.5445 60.5709 49.0028 58.4046 47.9196 56.6403C46.8365 54.8454 45.2734 53.3441 43.2307 52.1374C41.2192 50.8994 38.5884 49.7232 35.3389 48.6091L29.025 46.427C25.93 45.3439 23.7019 44.4774 22.34 43.8275C20.9783 43.1776 19.9105 42.2798 19.1368 41.1348C18.394 39.9896 18.0226 38.3804 18.0226 36.3068C18.0226 33.2119 19.1368 30.7822 21.3651 29.0183C23.5935 27.2231 26.6884 26.3257 30.6499 26.3257C32.5687 26.3257 34.4411 26.5886 36.2672 27.1146C38.1242 27.6409 39.6715 28.4456 40.9095 29.5288C42.1784 30.581 42.9059 31.8654 43.0916 33.3821V37.6066ZM95.8549 45.313C96.443 45.313 96.8917 45.1273 97.2014 44.7558C97.542 44.3843 97.7119 43.9356 97.7119 43.4096C97.7119 42.9143 97.542 42.481 97.2014 42.1095C96.8917 41.7075 96.4585 41.5063 95.9016 41.5063H78.6319V30.4108C78.6319 29.73 78.5234 29.2194 78.3068 28.8789C78.0902 28.5074 77.6414 28.3217 76.9606 28.3217C76.0629 28.3217 75.413 28.7241 75.0106 29.5288C74.6395 30.3026 74.4071 31.5251 74.3144 33.1964C74.2217 34.8677 74.175 37.6375 74.175 41.5063H67.3509C66.7319 41.5063 66.252 41.6917 65.9118 42.0632C65.5712 42.4037 65.4009 42.8215 65.4009 43.3166C65.4009 43.8429 65.5867 44.3071 65.9581 44.7094C66.3296 45.1118 66.8556 45.313 67.5364 45.313H74.175V69.5925C74.175 71.1092 74.7168 72.533 75.7999 73.8636C76.914 75.1943 78.3844 76.2621 80.2101 77.0668C82.0671 77.8406 84.048 78.2275 86.1525 78.2275C88.2261 78.2275 90.3152 77.98 92.4197 77.4846C94.5242 77.0204 96.3658 76.4169 97.944 75.6743C99.5535 74.9005 100.683 74.1266 101.333 73.3528C101.488 73.1362 101.565 72.9041 101.565 72.6566C101.565 72.1306 101.349 71.6043 100.915 71.0783C100.482 70.552 100.049 70.2891 99.6153 70.2891C99.3986 70.2891 99.2287 70.3509 99.1047 70.4748C97.6192 71.5889 95.7004 72.533 93.3481 73.3065C91.0269 74.0494 88.783 74.4208 86.6167 74.4208C84.2337 74.4208 82.2992 73.91 80.8137 72.8886C79.359 71.8364 78.6319 70.196 78.6319 67.9679V45.313H95.8549ZM147.69 55.6189L144.301 55.851C139.256 56.1916 135.233 56.6248 132.231 57.1511C129.26 57.6771 126.753 58.7603 124.71 60.4006C122.667 62.041 121.646 64.4706 121.646 67.6892C121.646 70.8771 122.621 73.4304 124.571 75.3492C126.521 77.2371 129.229 78.1812 132.695 78.1812C135.914 78.1812 138.885 77.6085 141.608 76.4632C144.363 75.3183 146.499 73.8945 148.015 72.1924C148.386 74.3896 149.114 75.8755 150.197 76.649C151.28 77.3919 152.611 77.7633 154.19 77.7633C155.582 77.7633 156.913 77.4691 158.182 76.8811C159.482 76.2621 160.627 75.4264 161.617 74.3742C161.927 74.0648 162.082 73.6779 162.082 73.2138C162.082 72.7184 161.911 72.2697 161.571 71.8673C161.231 71.4649 160.828 71.2638 160.364 71.2638C159.962 71.2638 159.59 71.4495 159.25 71.8209C158.724 72.3781 158.012 72.9041 157.114 73.3995C156.217 73.8636 155.365 74.0957 154.561 74.0957C153.818 74.0957 153.23 73.91 152.797 73.5385C152.363 73.1362 152.147 72.3936 152.147 71.3104V56.826C152.147 53.0502 151.744 49.9244 150.94 47.4484C150.135 44.9415 148.712 43.0227 146.669 41.6917C144.657 40.361 141.872 39.6957 138.313 39.6957C135.156 39.6957 132.355 40.1135 129.91 40.9491C127.465 41.7847 125.561 42.9452 124.2 44.431C122.838 45.9165 122.157 47.5878 122.157 49.4448C122.157 50.4349 122.389 51.2396 122.853 51.8586C123.349 52.4776 124.045 52.7873 124.942 52.7873C125.995 52.7873 126.737 52.1837 127.171 50.9766C127.604 49.7695 127.882 47.9747 128.006 45.5914C129.647 44.8488 131.272 44.3225 132.881 44.0132C134.521 43.6726 136.316 43.5023 138.266 43.5023C141.732 43.5023 144.162 44.4619 145.555 46.3807C146.978 48.2995 147.69 51.0693 147.69 54.6906V55.6189ZM147.69 68.6642C146.019 70.4281 143.868 71.8364 141.237 72.8886C138.637 73.91 135.96 74.4208 133.206 74.4208C131.07 74.4208 129.353 73.8946 128.053 72.8423C126.784 71.7591 126.149 70.0415 126.149 67.6892C126.149 65.5228 126.892 63.8825 128.378 62.7684C129.863 61.654 131.86 60.8805 134.367 60.4473C136.904 59.9828 140.711 59.5032 145.787 59.0081L147.69 58.8224V68.6642ZM207.324 49.0733C207.324 49.8471 207.541 50.4507 207.974 50.8839C208.407 51.2863 208.918 51.4875 209.506 51.4875C210.125 51.4875 210.651 51.2705 211.085 50.8373C211.549 50.3731 211.781 49.7232 211.781 48.8876V42.481C211.781 41.5527 211.472 40.8561 210.853 40.3919C210.234 39.9278 209.181 39.6957 207.696 39.6957C199.092 39.6957 193.026 42.4037 189.498 47.8199L189.312 42.9918C189.281 42.1253 189.142 41.4751 188.894 41.0418C188.678 40.6086 188.229 40.3919 187.548 40.3919C187.238 40.3919 186.882 40.4383 186.48 40.5313L178.542 42.1095C178.108 42.2026 177.768 42.4192 177.52 42.7597C177.273 43.0691 177.149 43.4405 177.149 43.8738C177.149 44.3689 177.304 44.8021 177.613 45.1736C177.953 45.5451 178.418 45.7308 179.006 45.7308C179.253 45.7308 179.439 45.7153 179.563 45.6844L185.227 44.5237V73.6316H176.731C176.112 73.6316 175.632 73.8173 175.292 74.1887C174.952 74.5599 174.781 74.9932 174.781 75.4885C174.781 76.0145 174.967 76.479 175.338 76.881C175.71 77.2525 176.236 77.4382 176.917 77.4382H205.235C205.823 77.4382 206.288 77.2525 206.628 76.881C206.969 76.479 207.139 76.03 207.139 75.5349C207.139 75.0086 206.969 74.5599 206.628 74.1887C206.318 73.8173 205.87 73.6316 205.282 73.6316H189.683V53.0193C190.921 49.9244 193.134 47.5723 196.322 45.9629C199.51 44.3225 203.177 43.5023 207.324 43.5023V49.0733ZM259.995 45.313C260.583 45.313 261.032 45.1273 261.341 44.7558C261.682 44.3843 261.852 43.9356 261.852 43.4096C261.852 42.9143 261.682 42.481 261.341 42.1095C261.032 41.7075 260.598 41.5063 260.042 41.5063H242.772V30.4108C242.772 29.73 242.663 29.2194 242.447 28.8789C242.23 28.5074 241.781 28.3217 241.101 28.3217C240.203 28.3217 239.553 28.7241 239.151 29.5288C238.78 30.3026 238.547 31.5251 238.454 33.1964C238.362 34.8677 238.315 37.6375 238.315 41.5063H231.491C230.872 41.5063 230.392 41.6917 230.052 42.0632C229.711 42.4037 229.541 42.8215 229.541 43.3166C229.541 43.8429 229.727 44.3071 230.098 44.7094C230.47 45.1118 230.996 45.313 231.676 45.313H238.315V69.5925C238.315 71.1092 238.857 72.533 239.94 73.8636C241.054 75.1943 242.524 76.2621 244.35 77.0668C246.207 77.8406 248.188 78.2275 250.293 78.2275C252.366 78.2275 254.455 77.98 256.56 77.4846C258.664 77.0204 260.506 76.4169 262.084 75.6743C263.693 74.9005 264.823 74.1266 265.473 73.3528C265.628 73.1362 265.705 72.9041 265.705 72.6566C265.705 72.1306 265.489 71.6043 265.055 71.0783C264.622 70.552 264.189 70.2891 263.756 70.2891C263.539 70.2891 263.369 70.3509 263.245 70.4748C261.759 71.5889 259.84 72.533 257.488 73.3065C255.167 74.0494 252.923 74.4208 250.757 74.4208C248.374 74.4208 246.439 73.91 244.954 72.8886C243.499 71.8364 242.772 70.196 242.772 67.9679V45.313H259.995Z" fill="black"/>
<path d="M302.314 57.5223C304.975 57.5223 307.589 56.9345 310.159 55.7583C312.729 54.5821 314.864 52.8491 316.567 50.5588C315.205 60.0913 309.601 68.958 299.76 77.1598C299.389 77.5 299.203 77.8715 299.203 78.2739C299.203 78.8001 299.42 79.2798 299.853 79.713C300.286 80.1772 300.782 80.4093 301.339 80.4093C301.803 80.4093 302.236 80.2236 302.639 79.8524C306.414 76.4478 309.633 73.0435 312.294 69.6392C314.987 66.2345 317.169 62.3197 318.84 57.8937C320.543 53.4372 321.395 48.4389 321.395 42.8988C321.395 36.5234 319.862 31.5097 316.797 27.8575C313.764 24.1745 309.245 22.3333 303.242 22.3333C299.776 22.3333 296.712 23.045 294.05 24.4687C291.389 25.8924 289.315 27.9193 287.829 30.5501C286.375 33.1497 285.647 36.1983 285.647 39.6957C285.647 43.193 286.313 46.288 287.644 48.9803C288.975 51.6729 290.893 53.7777 293.4 55.2941C295.907 56.7797 298.878 57.5223 302.314 57.5223ZM316.936 40.0205C316.936 42.4655 316.334 44.7403 315.126 46.8449C313.95 48.9185 312.234 50.5897 309.973 51.8586C307.744 53.0966 305.146 53.7156 302.174 53.7156C299.451 53.7156 297.176 53.0657 295.35 51.7659C293.555 50.4349 292.224 48.7018 291.357 46.5664C290.522 44.431 290.104 42.0941 290.104 39.5563C290.104 37.1112 290.615 34.8676 291.636 32.8249C292.658 30.7822 294.159 29.1573 296.139 27.9503C298.151 26.7435 300.518 26.1399 303.242 26.1399C306.368 26.1399 308.952 26.7744 310.995 28.0433C313.038 29.2813 314.539 30.9525 315.498 33.057C316.457 35.1306 316.936 37.4518 316.936 40.0205Z" fill="black"/>
</g>
</svg>
