<svg width="319" height="90" viewBox="0 0 319 90" fill="none" xmlns="http://www.w3.org/2000/svg">
<g style="mix-blend-mode:luminosity" clip-path="url(#clip0_113_48)">
<path d="M94.2496 23.55C91.8496 21.9 88.8496 20.7 85.5496 19.95C82.2496 19.2 78.6496 18.9 74.8996 18.9C63.3496 18.9 57.4996 21.75 57.4996 27.45C57.4996 28.35 57.6496 29.25 57.9496 30C58.2496 30.75 58.6996 31.5 58.9996 32.1C59.4496 32.7 59.7496 33.3 60.1996 33.6C60.6496 34.05 60.7996 34.2 60.9496 34.35C61.2496 34.2 61.6996 33.9 62.2996 33.6C62.8996 33.3 63.7996 33 64.8496 32.55C65.8996 32.25 67.2496 31.95 68.7496 31.65C70.2496 31.35 72.0496 31.35 74.1496 31.35C78.4996 31.35 81.4996 31.95 83.4496 33.3C85.2496 34.65 86.2996 36.45 86.2996 38.7C85.3996 38.55 84.1996 38.4 82.8496 38.4C81.4996 38.4 79.6996 38.25 77.5996 38.25C69.1996 38.25 63.1996 39.6 59.2996 42.15C55.3996 44.7 53.5996 49.05 53.5996 55.05C53.5996 57.3 54.0496 59.4 54.7996 61.35C55.5496 63.3 56.8996 65.1 58.8496 66.6C60.7996 68.1 63.3496 69.3 66.6496 70.2C69.9496 71.1 73.9996 71.55 78.9496 71.55C81.9496 71.55 84.6496 71.55 87.3496 71.4C90.0496 71.25 92.2996 71.1 94.3996 70.95C96.4996 70.8 98.1496 70.5 99.4996 70.35C100.85 70.2 101.75 70.05 102.2 69.9V40.5C102.2 36.45 101.45 33 100.1 30.15C98.7496 27.45 96.7996 25.2 94.2496 23.55ZM86.4496 60C85.9996 60.15 85.0996 60.3 83.5996 60.3C82.0996 60.45 80.5996 60.45 78.9496 60.45C76.8496 60.45 75.0496 60.3 73.6996 59.85C72.3496 59.55 71.4496 59.1 70.6996 58.5C70.0996 58.05 69.6496 57.45 69.4996 56.7C69.3496 56.1 69.1996 55.35 69.1996 54.9C69.1996 54.15 69.3496 53.4 69.6496 52.65C69.9496 51.9 70.3996 51.3 70.9996 50.7C71.7496 50.1 72.6496 49.65 73.8496 49.35C75.0496 49.05 76.6996 48.9 78.6496 48.9C80.8996 48.9 82.6996 48.9 83.7496 49.05C84.9496 49.2 85.6996 49.2 86.2996 49.35V60H86.4496Z" fill="black"/>
<path d="M216.95 0C214.4 0 212.45 0.9 210.8 2.55C209.15 4.2 208.25 6.3 208.25 8.85C208.25 11.4 209.15 13.35 210.8 15.15C212.45 16.8 214.55 17.7 216.95 17.7C219.5 17.7 221.45 16.8 223.25 15.15C224.9 13.5 225.8 11.4 225.8 8.85C225.8 6.3 224.9 4.2 223.25 2.55C221.6 0.9 219.5 0 216.95 0Z" fill="black"/>
<path d="M217.399 20.4C214.849 20.4 212.899 20.85 211.399 21.9C209.899 22.95 209.149 24.75 209.149 27.3V68.4C209.599 68.7 210.649 69 212.299 69.6C213.799 70.05 215.599 70.35 217.399 70.35C219.949 70.35 221.749 69.75 223.099 68.55C224.299 67.35 225.049 65.25 225.049 62.25V21.75C224.599 21.6 223.699 21.3 222.349 20.85C220.699 20.55 219.199 20.4 217.399 20.4Z" fill="black"/>
<path d="M304.1 50.85C307.85 50.1 310.85 49.05 312.95 47.7C315.2 46.35 316.7 44.7 317.45 42.75C318.35 40.8 318.65 38.7 318.65 36.15C318.65 33.9 318.2 31.8 317.15 29.7C316.1 27.6 314.6 25.8 312.8 24.15C310.85 22.5 308.45 21.15 305.75 20.25C302.9 19.35 299.75 18.9 296.3 18.9C292.55 18.9 288.95 19.5 285.8 20.85C282.5 22.2 279.65 23.85 277.25 26.25C274.85 28.5 272.9 31.35 271.55 34.65C270.2 37.95 269.45 41.55 269.45 45.45C269.45 49.65 270.2 53.4 271.55 56.7C272.9 60 274.85 62.7 277.1 64.95C279.5 67.2 282.2 68.85 285.5 70.05C288.65 71.25 292.1 71.85 295.7 71.85C298.7 71.85 301.25 71.7 303.8 71.25C306.2 70.8 308.45 70.35 310.25 69.75C312.05 69.15 313.55 68.55 314.75 68.1C315.5 67.8 316.1 67.35 316.1 67.35C316.1 66.9 315.95 66 315.8 64.65C315.65 63.3 315.2 61.95 314.45 60.6C313.55 58.8 312.35 57.6 311 57.15C310.1 56.85 309.2 56.85 308 57.15C306.95 57.45 305.6 57.9 304.1 58.2C302.6 58.5 300.95 58.65 299.3 58.65C297.05 58.65 295.25 58.5 293.6 58.05C292.1 57.6 290.75 57.15 289.7 56.55C288.65 55.95 287.9 55.2 287.3 54.45C286.7 53.7 286.4 52.95 286.25 52.2H289.7C295.55 51.9 300.35 51.6 304.1 50.85ZM285.5 41.7C285.5 40.35 285.8 39.15 286.25 37.8C286.7 36.45 287.3 35.4 288.2 34.35C289.1 33.3 290.15 32.55 291.5 31.95C292.85 31.35 294.35 31.05 296.15 31.05C298.7 31.05 300.5 31.5 301.7 32.55C302.9 33.6 303.5 34.8 303.5 36.15C303.5 36.75 303.35 37.5 303.05 38.1C302.75 38.7 302 39.3 300.95 39.9C299.75 40.35 297.95 40.8 295.55 41.25C293.3 41.55 290 41.7 285.5 41.7Z" fill="black"/>
<path d="M202.4 22.95C201.35 21.9 199.85 21 197.6 20.25C195.35 19.35 192.35 18.9 188.45 18.9C185.3 18.9 182.3 19.35 179.6 20.25C176.9 21.15 174.65 22.5 172.7 24.15C170.75 25.8 169.4 27.9 168.2 30.45C167.15 33 166.55 35.85 166.55 39V68.4C167 68.7 168.05 69 169.7 69.6C171.2 70.05 173 70.35 174.8 70.35C177.35 70.35 179.15 69.75 180.5 68.55C181.7 67.35 182.45 65.25 182.45 62.25V42.45C182.45 39.15 183.35 36.75 185 35.25C186.8 33.75 188.9 33.15 191.3 33.15C193.25 33.15 194.9 33.45 196.55 33.9C198.05 34.35 199.4 34.8 200.6 35.4C200.75 35.25 201.05 34.95 201.5 34.35C201.95 33.9 202.25 33.3 202.7 32.7C203.15 32.1 203.45 31.35 203.75 30.45C204.05 29.55 204.2 28.65 204.2 27.75C204.2 26.7 204.05 25.95 203.75 25.2C203.45 24.3 203 23.7 202.4 22.95Z" fill="black"/>
<path d="M154.099 26.25C151.699 24 148.849 22.2 145.549 20.85C142.249 19.5 138.649 18.9 134.899 18.9C130.249 18.9 125.899 19.8 122.149 21.45C118.249 23.1 115.099 25.65 112.699 28.95C111.199 31.05 109.999 33.6 109.099 36.75C108.199 39.9 107.899 43.5 107.899 47.7V88.2C108.349 88.5 109.399 88.8 111.049 89.4C112.549 89.85 114.349 90.15 116.149 90.15C118.699 90.15 120.499 89.55 121.849 88.35C123.049 87.15 123.799 85.05 123.799 82.05V66.6C124.999 67.8 126.799 69 129.199 70.05C131.599 71.25 134.599 71.7 138.199 71.7C141.499 71.7 144.649 71.1 147.649 69.9C150.649 68.7 153.199 66.9 155.299 64.65C157.549 62.4 159.199 59.55 160.549 56.4C161.749 53.25 162.499 49.65 162.499 45.6C162.499 41.7 161.749 38.1 160.399 34.8C158.449 31.35 156.499 28.5 154.099 26.25ZM142.549 54C140.449 56.25 137.749 57.45 134.449 57.45C132.799 57.45 131.299 57.15 129.949 56.55C128.599 55.95 127.399 55.05 126.349 54C125.299 52.95 124.549 51.6 123.949 50.1C123.349 48.6 123.049 47.1 123.049 45.3C123.049 41.7 124.099 38.7 126.199 36.6C128.299 34.5 130.999 33.45 134.299 33.45C137.599 33.45 140.299 34.5 142.399 36.75C144.499 38.85 145.549 41.7 145.549 45.3C145.699 48.75 144.649 51.75 142.549 54Z" fill="black"/>
<path d="M268.4 63.75C268.25 62.55 267.95 61.35 267.35 60.15C266.6 58.35 265.55 57.15 264.35 56.4C263.15 55.65 261.65 55.65 259.7 56.55L259.4 56.7C257.9 57.3 256.1 57.6 254.3 57.6C253.4 57.6 252.5 57.45 251.6 57.3C250.7 57.15 249.95 56.85 249.2 56.25C248.45 55.8 248 55.05 247.55 54.15C247.1 53.25 246.8 52.05 246.8 50.55V35.1H264.2C264.5 34.65 264.8 33.75 265.4 32.25C265.85 30.75 266.15 29.25 266.15 27.45C266.15 25.05 265.55 23.4 264.35 22.2C263.15 21 261.05 20.4 258.05 20.4H246.8V7.05005C246.35 6.90005 245.45 6.60005 244.1 6.15005C242.6 5.70005 241.1 5.55005 239.3 5.55005C236.75 5.55005 234.8 6.15005 233.3 7.05005C231.8 8.10005 231.05 9.90005 231.05 12.45V53.7C231.05 59.1 232.85 63.45 236.3 66.75C239.75 70.05 244.55 71.55 250.7 71.55C252.8 71.55 254.9 71.4 256.85 70.95C258.8 70.5 260.6 70.05 262.1 69.45C263.6 68.85 264.95 68.25 266.15 67.65C267.2 67.05 268.1 66.45 268.7 65.85C268.55 65.7 268.55 64.95 268.4 63.75Z" fill="black"/>
<path d="M48.1998 32.25C48.9498 30.9 49.2498 29.4 49.2498 27.9C49.2498 25.35 48.4998 23.55 46.9998 22.2C45.4998 20.85 43.6998 20.25 41.4498 20.25H2.7498C2.4498 20.7 2.1498 21.6 1.5498 23.1C1.0998 24.6 0.799805 26.1 0.799805 27.9C0.799805 30.3 1.3998 31.95 2.5998 33C3.7998 34.05 5.8998 34.65 8.8998 34.65H27.1998L5.2998 54C3.6498 55.5 2.4498 56.85 1.8498 58.2C1.0998 59.55 0.799805 61.05 0.799805 62.55C0.799805 65.1 1.5498 66.9 3.0498 68.25C4.5498 69.6 6.3498 70.2 8.5998 70.2H47.2998C47.5998 69.75 47.8998 68.85 48.4998 67.35C48.9498 65.85 49.2498 64.35 49.2498 62.55C49.2498 60.15 48.6498 58.5 47.4498 57.45C46.2498 56.4 44.1498 55.8 41.1498 55.8H22.8498L44.7498 36.6C46.3998 34.95 47.5998 33.6 48.1998 32.25Z" fill="black"/>
</g>
<defs>
<clipPath id="clip0_113_48">
<rect width="318" height="90" fill="white" transform="translate(0.799805)"/>
</clipPath>
</defs>
</svg>
