<svg width="286" height="41" viewBox="0 0 286 41" fill="none" xmlns="http://www.w3.org/2000/svg">
<g style="mix-blend-mode:multiply" opacity="0.5">
<path d="M20.5758 30.157H37.1543L20.5758 0.688232V30.157Z" fill="url(#paint0_linear_35_19136)"/>
</g>
<path d="M35.6276 31.2904C37.1832 31.2751 37.5136 32.0157 36.5579 33.2006C32.7705 37.9201 27.0207 41 20.5186 41C14.0164 41 8.26666 37.9201 4.47925 33.2006C3.5235 32.0157 3.85902 31.2802 5.40958 31.2904C12.9692 31.3261 35.6276 31.2904 35.6276 31.2904Z" fill="url(#paint1_radial_35_19136)"/>
<path d="M37.4574 28.1032C38.2302 29.4567 39.0233 29.3801 39.5723 27.9602C41.7482 22.3061 41.5296 15.7632 38.2759 10.104C35.0223 4.44471 29.4962 0.986852 23.533 0.0470498C22.0333 -0.187901 21.5605 0.470981 22.3535 1.81429C22.3535 1.81429 33.7158 21.5144 37.4574 28.1032Z" fill="url(#paint2_radial_35_19136)"/>
<path d="M18.6879 1.81428C19.4708 0.465867 19.0082 -0.187907 17.5085 0.0470433C11.5452 0.981738 6.01915 4.4447 2.76553 10.1039C-0.488086 15.7632 -0.701604 22.3061 1.46917 27.9602C2.01822 29.3852 2.81637 29.4618 3.58402 28.1032C3.58402 28.1032 14.8853 8.36736 18.6879 1.81428Z" fill="url(#paint3_radial_35_19136)"/>
<mask id="mask0_35_19136" style="mask-type:alpha" maskUnits="userSpaceOnUse" x="0" y="0" width="41" height="41">
<path d="M35.5838 31.2904C37.1394 31.2751 37.4699 32.0157 36.5141 33.2006C32.7267 37.9201 26.977 41 20.4748 41C13.9727 41 8.2229 37.9201 4.43549 33.2006C3.47974 32.0157 3.81526 31.2802 5.36581 31.2904C12.9254 31.3261 35.5838 31.2904 35.5838 31.2904Z" fill="white"/>
<path d="M37.414 28.1032C38.1867 29.4567 38.9798 29.3801 39.5288 27.9602C41.7047 22.3061 41.4861 15.7632 38.2325 10.104C34.9789 4.44471 29.4528 0.986852 23.4895 0.0470498C21.9898 -0.187901 21.517 0.470981 22.3101 1.81429C22.3101 1.81429 33.6723 21.5144 37.414 28.1032Z" fill="white"/>
<path d="M18.6443 1.81428C19.4272 0.465867 18.9646 -0.187907 17.4649 0.0470433C11.5016 0.981738 5.97557 4.4447 2.72195 10.1039C-0.531665 15.7632 -0.745183 22.3061 1.42559 27.9602C1.97464 29.3852 2.77279 29.4618 3.54044 28.1032C3.54044 28.1032 14.8417 8.36736 18.6443 1.81428Z" fill="white"/>
</mask>
<g mask="url(#mask0_35_19136)">
<g opacity="0.25" filter="url(#filter0_f_35_19136)">
<path d="M6.12716 12.0299C3.37337 16.8222 1.47835 22.4042 1.42639 27.9112C-0.747177 22.2552 -0.529693 15.7142 2.72276 10.0549C5.9752 4.39567 11.5037 0.936738 17.4657 0C12.7441 2.79826 8.88089 7.23873 6.12716 12.0299ZM38.2332 10.0553C34.981 4.39603 29.4518 0.937096 23.4902 0.000358506C28.2112 2.79847 32.0749 7.23893 34.8282 12.0301C37.5815 16.8213 39.4775 22.4034 39.5289 27.9103C41.7024 22.2542 41.4856 15.7141 38.2332 10.0553ZM35.5848 31.2414C35.5848 31.2414 12.9241 31.2768 5.37069 31.2414C10.017 33.7495 15.2061 35.2064 20.478 35.2064C25.7499 35.2064 30.939 33.7497 35.5848 31.2414Z" fill="black"/>
</g>
<g opacity="0.2" filter="url(#filter1_f_35_19136)">
<path d="M20.4785 37.0031C25.9855 37.0031 31.7448 35.8616 36.5178 33.1527C32.7287 37.8722 26.9826 40.9529 20.4781 40.9529C13.9737 40.9529 8.22803 37.872 4.43944 33.1527C9.2122 35.8614 14.971 37.0031 20.4785 37.0031ZM7.67577 12.9279C5.04009 17.5153 3.70056 22.7587 3.53961 28.0548C3.53961 28.0548 14.8397 8.32114 18.6469 1.76587C14.1616 4.55483 10.312 8.34142 7.67577 12.9279ZM22.3088 1.76587C22.3088 1.76587 33.6699 21.4651 37.4161 28.0548C37.2552 22.7577 35.9161 17.5153 33.2799 12.9279C30.6437 8.34142 26.7939 4.55381 22.3088 1.76587V1.76587Z" fill="white"/>
</g>
</g>
<path d="M69.0184 11.6574C69.0184 11.4382 69.2025 11.2373 69.4417 11.2373H78.534C78.7732 11.2373 78.9573 11.4382 78.9573 11.6574V13.4838C78.9573 13.703 78.7732 13.9039 78.534 13.9039H71.908V18.0682H77.4296C77.6505 18.0682 77.853 18.2691 77.853 18.4883V20.3148C77.853 20.5339 77.6505 20.7348 77.4296 20.7348H71.908V26.342C71.908 26.5612 71.7056 26.7621 71.4847 26.7621H69.4233C69.1841 26.7621 69 26.5612 69 26.342V11.6574H69.0184Z" fill="black"/>
<path d="M96.7199 11.0186C101.192 11.0186 104.763 14.5985 104.763 19.0367C104.763 23.475 101.192 27 96.7199 27C92.2474 27 88.6951 23.475 88.6951 19.0367C88.6951 14.5985 92.2474 11.0186 96.7199 11.0186ZM96.7199 24.096C99.5359 24.096 101.855 21.8129 101.855 19.0184C101.855 16.224 99.5359 13.8861 96.7199 13.8861C93.9038 13.8861 91.6032 16.224 91.6032 19.0184C91.5848 21.8129 93.8854 24.096 96.7199 24.096Z" fill="black"/>
<path d="M115.621 11.6574C115.621 11.4382 115.823 11.2373 116.044 11.2373H118.161C118.4 11.2373 118.584 11.4382 118.584 11.6574V20.7348C118.584 22.6161 119.873 24.1138 121.824 24.1138C123.775 24.1138 125.081 22.6344 125.081 20.7714V11.6757C125.081 11.4565 125.265 11.2556 125.505 11.2556H127.621C127.842 11.2556 128.045 11.4565 128.045 11.6757V20.8992C128.045 24.2782 125.339 26.9996 121.805 26.9996C118.29 26.9996 115.584 24.2782 115.584 20.8992V11.6574H115.621Z" fill="black"/>
<path d="M140.1 11.4019C140.1 11.1827 140.303 11.0001 140.524 11.0001H141.076L150.371 20.8081H150.389V11.6393C150.389 11.4201 150.573 11.2192 150.812 11.2192H152.874C153.095 11.2192 153.297 11.4201 153.297 11.6393V26.5797C153.297 26.7988 153.095 26.9815 152.874 26.9815H152.34L142.99 16.7899H142.972V26.3239C142.972 26.5431 142.788 26.744 142.548 26.744H140.505C140.284 26.744 140.082 26.5431 140.082 26.3239V11.4019H140.1Z" fill="black"/>
<path d="M165.535 11.6574C165.535 11.4382 165.719 11.2373 165.94 11.2373H171.241C175.548 11.2373 179.082 14.7258 179.082 18.9815C179.082 23.2919 175.548 26.7621 171.241 26.7621H165.94C165.719 26.7621 165.535 26.5612 165.535 26.342V11.6574ZM170.965 24.059C173.873 24.059 175.989 21.8855 175.989 18.9815C175.989 16.0957 173.873 13.9222 170.965 13.9222H168.406V24.059H170.965Z" fill="black"/>
<path d="M191.008 26.3239C190.916 26.5431 190.714 26.7623 190.364 26.7623H188.413C188.082 26.7623 187.898 26.4701 188.027 26.1778L194.984 11.2375C195.057 11.1096 195.168 11.0001 195.37 11.0001H195.591C195.812 11.0001 195.904 11.1096 195.978 11.2375L202.861 26.1778C202.99 26.4701 202.824 26.7623 202.475 26.7623H200.524C200.192 26.7623 200.027 26.6344 199.88 26.3239L195.444 16.589H195.37L191.008 26.3239Z" fill="black"/>
<path d="M214.329 13.9039H210.906C210.667 13.9039 210.483 13.703 210.483 13.4838V11.6574C210.483 11.4382 210.667 11.2373 210.906 11.2373H220.679C220.919 11.2373 221.103 11.4382 221.103 11.6574V13.4838C221.103 13.703 220.919 13.9039 220.679 13.9039H217.256V26.3603C217.256 26.5795 217.053 26.7804 216.833 26.7804H214.753C214.532 26.7804 214.329 26.5795 214.329 26.3603V13.9039V13.9039Z" fill="black"/>
<path d="M231.594 11.6574C231.594 11.4382 231.796 11.2373 232.017 11.2373H234.097C234.318 11.2373 234.52 11.4382 234.52 11.6574V26.342C234.52 26.5612 234.318 26.7621 234.097 26.7621H232.017C231.796 26.7621 231.594 26.5612 231.594 26.342V11.6574Z" fill="black"/>
<path d="M253.661 11.0186C258.134 11.0186 261.704 14.5985 261.704 19.0367C261.704 23.475 258.134 27 253.661 27C249.189 27 245.636 23.475 245.636 19.0367C245.636 14.5985 249.189 11.0186 253.661 11.0186ZM253.661 24.096C256.477 24.096 258.796 21.8129 258.796 19.0184C258.796 16.224 256.477 13.8861 253.661 13.8861C250.845 13.8861 248.544 16.224 248.544 19.0184C248.544 21.8129 250.845 24.096 253.661 24.096Z" fill="black"/>
<path d="M272.803 11.4019C272.803 11.1827 273.006 11.0001 273.227 11.0001H273.779L283.074 20.8081H283.092V11.6393C283.092 11.4201 283.276 11.2192 283.515 11.2192H285.577C285.798 11.2192 286 11.4201 286 11.6393V26.5797C286 26.7988 285.798 26.9815 285.577 26.9815H285.043L275.693 16.7899H275.675V26.3239C275.675 26.5431 275.491 26.744 275.251 26.744H273.208C272.987 26.744 272.785 26.5431 272.785 26.3239V11.4019H272.803Z" fill="black"/>
<defs>
<filter id="filter0_f_35_19136" x="-3" y="-3" width="46.9555" height="41.2064" filterUnits="userSpaceOnUse" color-interpolation-filters="sRGB">
<feFlood flood-opacity="0" result="BackgroundImageFix"/>
<feBlend mode="normal" in="SourceGraphic" in2="BackgroundImageFix" result="shape"/>
<feGaussianBlur stdDeviation="1.5" result="effect1_foregroundBlur_35_19136"/>
</filter>
<filter id="filter1_f_35_19136" x="0.539612" y="-1.23413" width="39.8765" height="45.187" filterUnits="userSpaceOnUse" color-interpolation-filters="sRGB">
<feFlood flood-opacity="0" result="BackgroundImageFix"/>
<feBlend mode="normal" in="SourceGraphic" in2="BackgroundImageFix" result="shape"/>
<feGaussianBlur stdDeviation="1.5" result="effect1_foregroundBlur_35_19136"/>
</filter>
<linearGradient id="paint0_linear_35_19136" x1="20.5758" y1="38.4718" x2="20.4642" y2="0.675189" gradientUnits="userSpaceOnUse">
<stop offset="0.216102" stop-color="white" stop-opacity="0"/>
<stop offset="1"/>
</linearGradient>
<radialGradient id="paint1_radial_35_19136" cx="0" cy="0" r="1" gradientUnits="userSpaceOnUse" gradientTransform="translate(20.4614 20.3644) scale(20.511 20.6072)">
<stop offset="0.5" stop-color="#BB6E5A"/>
<stop offset="0.75" stop-color="#DE9173"/>
<stop offset="1" stop-color="#FAC2A9"/>
</radialGradient>
<radialGradient id="paint2_radial_35_19136" cx="0" cy="0" r="1" gradientUnits="userSpaceOnUse" gradientTransform="translate(20.4945 20.3978) scale(20.5067 20.6029)">
<stop offset="0.5" stop-color="#FAC2A9"/>
<stop offset="0.75" stop-color="#DE9173"/>
<stop offset="1" stop-color="#BB6E5A"/>
</radialGradient>
<radialGradient id="paint3_radial_35_19136" cx="0" cy="0" r="1" gradientUnits="userSpaceOnUse" gradientTransform="translate(20.5109 20.3895) scale(20.5361 20.6325)">
<stop offset="0.5" stop-color="#FAC2A9"/>
<stop offset="0.75" stop-color="#DE9173"/>
<stop offset="1" stop-color="#BB6E5A"/>
</radialGradient>
</defs>
</svg>
