<svg width="430" height="96" viewBox="0 0 430 96" fill="none" xmlns="http://www.w3.org/2000/svg">
<path d="M32.88 46.069V44.33L32.884 44.335L56.937 74.407V74.405L59.233 68.505C63.542 64.004 77.934 48.182 78.622 36.942C76.981 37.383 75.417 37.709 73.924 37.949L69.211 30.77C68.154 23.839 65.774 17.718 61.767 11.609L60.335 9.42601L58.489 11.273C58.249 11.513 58.02 11.752 57.789 11.991C57.748 11.988 57.718 11.99 57.693 11.994C54.647 7.247 48.239 3.96701 40.802 3.96701C40.796 3.96701 40.791 3.968 40.785 3.968L39.813 0C39.813 0 39.806 0.00100708 39.805 0.00100708C39.655 0.00900708 19.415 1.126 11.74 18.83C11.232 19.983 10.794 21.219 10.411 22.516C10.387 22.598 10.359 22.676 10.336 22.759C10.2 23.231 10.083 23.725 9.965 24.216C9.913 24.433 9.85 24.637 9.801 24.858C9.773 24.985 9.755 25.106 9.729 25.232C9.683 25.447 9.648 25.656 9.605 25.87C6.926 39.313 10.991 49.495 15.663 56.265C15.642 58.921 15.002 60.566 14.534 61.386C14.429 61.553 14.318 61.721 14.198 61.889H11.648L6.473 72.333H4.692L0.00500488 81.791C0.00300488 81.795 0.001 81.798 0 81.802C5.896 78.084 12.873 75.924 20.359 75.924C26.198 75.924 31.728 77.238 36.678 79.578C42.655 82.404 47.775 86.735 51.563 92.08C52.25 93.049 52.893 94.052 53.489 95.085H57.012H63.892L32.88 46.069ZM49.306 58.918L47.274 56.378L47.403 56.213L47.99 55.46L55.983 45.207C57.098 45.39 58.312 45.565 59.598 45.715L49.63 58.502L49.306 58.918ZM52.68 63.136L50.648 60.596L51.101 60.015L52.079 58.761L62.056 45.964C63.311 46.067 64.609 46.132 65.919 46.155L53.328 62.305L52.68 63.136ZM72.904 45.743L57.028 66.108L56.055 67.356L54.023 64.816L54.801 63.819L56.098 62.155L68.59 46.131C70.045 46.078 71.494 45.957 72.904 45.743ZM53.975 30.61L54.15 28.233L55.22 29.09C55.949 29.694 57.476 30.942 59.67 32.15C59.67 32.15 59.67 32.15 59.671 32.15C61.178 32.98 62.996 33.785 65.116 34.352L65.917 35.572L67.201 37.528L67.819 38.47C67.693 38.471 67.571 38.469 67.447 38.469C58.538 38.438 53.637 35.189 53.637 35.189L53.975 30.61ZM50.225 44.047C50.913 44.215 52.063 44.481 53.547 44.77L53.625 44.831L46.186 54.373L45.931 54.7L43.899 52.16L50.225 44.047Z" fill="white"/>
<path d="M110.282 33.564H103.058V61.519H110.282V33.564Z" fill="white"/>
<path d="M138.655 54.989H138.492L129.799 33.564H119.433V61.519H125.718V41.235H125.881L134.247 61.519H142.083L150.409 41.235H150.572V61.519H157.796V33.564H147.469L138.655 54.989Z" fill="white"/>
<path d="M193.205 36.011C190.512 33.808 186.471 33.564 181.043 33.564H166.963V61.519H174.187V55.293V53.642V48.297V42.315V38.909H180.838C185.736 38.909 188.797 39.276 188.797 43.521C188.797 47.276 186.594 48.296 180.92 48.296H178.385V53.641H179.412C186.267 53.641 189.86 53.357 192.879 51.112C195.124 49.52 196.144 46.948 196.144 43.439C196.143 40.134 195.204 37.645 193.205 36.011Z" fill="white"/>
<path d="M210.651 49.928H225.751V44.542H210.651V39.113H226.976V33.564H203.427V61.519H227.669V55.928H210.651V49.928Z" fill="white"/>
<path d="M260.906 49.561C263.109 48.051 264.129 45.889 264.129 42.583C264.129 39.481 263.19 37.318 261.15 35.809C258.457 33.808 254.499 33.564 249.029 33.564H235.439V61.519H242.663V55.293V51.929V46.828V42.315V38.909H249.07C253.845 38.909 256.783 39.155 256.783 42.787C256.783 46.133 254.58 46.828 249.151 46.828H246.86V51.929C246.86 51.929 248.621 51.929 249.274 51.887L256.743 61.519H265.476L257.15 51.071C258.621 50.786 259.886 50.296 260.906 49.561Z" fill="white"/>
<path d="M286.108 54.908H285.904L275.905 33.564H267.783L281.782 61.519H289.863L303.82 33.564H296.066L286.108 54.908Z" fill="white"/>
<path d="M316.165 33.564H308.941V61.519H316.165V33.564Z" fill="white"/>
<path d="M354.618 35.809C351.23 33.604 346.905 32.992 341.313 32.992C335.805 32.992 331.436 33.564 328.05 35.809C324.214 38.338 322.908 42.583 322.908 47.521C322.908 52.501 324.214 56.663 328.05 59.194C330.993 61.18 334.658 61.895 339.235 62.05V56.369C333.075 55.884 330.295 53.106 330.295 47.316C330.295 40.746 333.763 38.623 341.354 38.623C348.985 38.623 352.374 41.318 352.374 47.725C352.374 53.64 349.512 55.972 343.433 56.38V62.049C347.971 61.896 351.671 61.185 354.618 59.232C358.413 56.662 359.761 52.5 359.761 47.52C359.761 42.583 358.413 38.379 354.618 35.809Z" fill="white"/>
<path d="M389.739 48.99C389.739 51.316 389.413 53.112 388.189 54.378C386.802 55.928 384.392 56.458 381.495 56.458C378.639 56.458 376.19 55.847 374.802 54.336C373.537 52.949 373.17 51.071 373.17 48.703V33.564H365.946V49.236C365.946 53.807 366.518 56.99 369.292 59.152C372.475 61.643 376.679 62.091 381.413 62.091C386.107 62.091 390.229 61.642 393.453 59.152C396.269 56.99 396.841 53.807 396.841 49.236V33.564H389.74V48.99H389.739Z" fill="white"/>
<path d="M418.287 44.216C416.287 43.889 414.042 43.603 412.492 43.194C411.144 42.868 410.654 42.215 410.654 41.032C410.654 39.929 411.063 39.236 412.41 38.909C413.674 38.665 415.348 38.583 416.816 38.583C420.041 38.583 424.08 38.869 427.347 39.236V33.441C423.713 33.197 420.327 32.992 416.939 32.992C414.001 32.992 410.653 33.196 408.206 34.379C404.981 35.929 403.798 38.583 403.798 41.848C403.798 47.112 406.94 49.071 414.123 50.255C416.245 50.622 418.612 50.948 420.204 51.357C421.591 51.766 422.081 52.419 422.081 53.683C422.081 54.866 421.754 55.642 420.285 55.969C419.06 56.213 416.939 56.376 414.49 56.376C411.511 56.376 407.226 56.05 403.879 55.683V61.641C407.96 61.885 411.633 62.09 415.428 62.09C418.572 62.09 422.162 61.763 424.651 60.538C427.876 58.948 429.101 56.253 429.101 52.867C429.102 47.195 425.47 45.318 418.287 44.216Z" fill="white"/>
</svg>
