<svg width="105" height="21" viewBox="0 0 105 21" fill="none" xmlns="http://www.w3.org/2000/svg">
<path d="M0.584 17V0.199999H7.496C8.552 0.199999 9.48 0.415999 10.28 0.847999C11.096 1.264 11.728 1.856 12.176 2.624C12.64 3.392 12.872 4.304 12.872 5.36V5.696C12.872 6.736 12.632 7.648 12.152 8.432C11.688 9.2 11.048 9.8 10.232 10.232C9.432 10.648 8.52 10.856 7.496 10.856H3.752V17H0.584ZM3.752 7.976H7.184C7.936 7.976 8.544 7.768 9.008 7.352C9.472 6.936 9.704 6.368 9.704 5.648V5.408C9.704 4.688 9.472 4.12 9.008 3.704C8.544 3.288 7.936 3.08 7.184 3.08H3.752V7.976ZM15.1644 17V0.199999H18.1884V17H15.1644ZM26.9634 17.336C25.7794 17.336 24.7314 17.088 23.8194 16.592C22.9234 16.08 22.2194 15.368 21.7074 14.456C21.2114 13.528 20.9634 12.44 20.9634 11.192V10.904C20.9634 9.656 21.2114 8.576 21.7074 7.664C22.2034 6.736 22.8994 6.024 23.7954 5.528C24.6914 5.016 25.7314 4.76 26.9154 4.76C28.0834 4.76 29.0994 5.024 29.9634 5.552C30.8274 6.064 31.4994 6.784 31.9794 7.712C32.4594 8.624 32.6994 9.688 32.6994 10.904V11.936H24.0354C24.0674 12.752 24.3714 13.416 24.9474 13.928C25.5234 14.44 26.2274 14.696 27.0594 14.696C27.9074 14.696 28.5314 14.512 28.9314 14.144C29.3314 13.776 29.6354 13.368 29.8434 12.92L32.3154 14.216C32.0914 14.632 31.7634 15.088 31.3314 15.584C30.9154 16.064 30.3554 16.48 29.6514 16.832C28.9474 17.168 28.0514 17.336 26.9634 17.336ZM24.0594 9.68H29.6274C29.5634 8.992 29.2834 8.44 28.7874 8.024C28.3074 7.608 27.6754 7.4 26.8914 7.4C26.0754 7.4 25.4274 7.608 24.9474 8.024C24.4674 8.44 24.1714 8.992 24.0594 9.68ZM42.5429 17.336C41.4709 17.336 40.6469 17.152 40.0709 16.784C39.4949 16.416 39.0709 16.008 38.7989 15.56H38.3669V17H35.3909V0.199999H38.4149V6.464H38.8469C39.0229 6.176 39.2549 5.904 39.5429 5.648C39.8469 5.392 40.2389 5.184 40.7189 5.024C41.2149 4.848 41.8229 4.76 42.5429 4.76C43.5029 4.76 44.3909 5 45.2069 5.48C46.0229 5.944 46.6789 6.632 47.1749 7.544C47.6709 8.456 47.9189 9.56 47.9189 10.856V11.24C47.9189 12.536 47.6709 13.64 47.1749 14.552C46.6789 15.464 46.0229 16.16 45.2069 16.64C44.3909 17.104 43.5029 17.336 42.5429 17.336ZM41.6309 14.696C42.5589 14.696 43.3349 14.4 43.9589 13.808C44.5829 13.2 44.8949 12.32 44.8949 11.168V10.928C44.8949 9.776 44.5829 8.904 43.9589 8.312C43.3509 7.704 42.5749 7.4 41.6309 7.4C40.7029 7.4 39.9269 7.704 39.3029 8.312C38.6789 8.904 38.3669 9.776 38.3669 10.928V11.168C38.3669 12.32 38.6789 13.2 39.3029 13.808C39.9269 14.4 40.7029 14.696 41.6309 14.696ZM50.5996 17V0.199999H53.7676V14.12H61.4476V17H50.5996ZM67.3994 17.336C66.5514 17.336 65.7914 17.192 65.1194 16.904C64.4474 16.6 63.9114 16.168 63.5114 15.608C63.1274 15.032 62.9354 14.336 62.9354 13.52C62.9354 12.704 63.1274 12.024 63.5114 11.48C63.9114 10.92 64.4554 10.504 65.1434 10.232C65.8474 9.944 66.6474 9.8 67.5434 9.8H70.8074V9.128C70.8074 8.568 70.6314 8.112 70.2794 7.76C69.9274 7.392 69.3674 7.208 68.5994 7.208C67.8474 7.208 67.2874 7.384 66.9194 7.736C66.5514 8.072 66.3114 8.512 66.1994 9.056L63.4154 8.12C63.6074 7.512 63.9114 6.96 64.3274 6.464C64.7594 5.952 65.3274 5.544 66.0314 5.24C66.7514 4.92 67.6234 4.76 68.6474 4.76C70.2154 4.76 71.4554 5.152 72.3674 5.936C73.2794 6.72 73.7354 7.856 73.7354 9.344V13.784C73.7354 14.264 73.9594 14.504 74.4074 14.504H75.3674V17H73.3514C72.7594 17 72.2714 16.856 71.8874 16.568C71.5034 16.28 71.3114 15.896 71.3114 15.416V15.392H70.8554C70.7914 15.584 70.6474 15.84 70.4234 16.16C70.1994 16.464 69.8474 16.736 69.3674 16.976C68.8874 17.216 68.2314 17.336 67.3994 17.336ZM67.9274 14.888C68.7754 14.888 69.4634 14.656 69.9914 14.192C70.5354 13.712 70.8074 13.08 70.8074 12.296V12.056H67.7594C67.1994 12.056 66.7594 12.176 66.4394 12.416C66.1194 12.656 65.9594 12.992 65.9594 13.424C65.9594 13.856 66.1274 14.208 66.4634 14.48C66.7994 14.752 67.2874 14.888 67.9274 14.888ZM84.7304 17.336C83.6584 17.336 82.8344 17.152 82.2584 16.784C81.6824 16.416 81.2584 16.008 80.9864 15.56H80.5544V17H77.5784V0.199999H80.6024V6.464H81.0344C81.2104 6.176 81.4424 5.904 81.7304 5.648C82.0344 5.392 82.4264 5.184 82.9064 5.024C83.4024 4.848 84.0104 4.76 84.7304 4.76C85.6904 4.76 86.5784 5 87.3944 5.48C88.2104 5.944 88.8664 6.632 89.3624 7.544C89.8584 8.456 90.1064 9.56 90.1064 10.856V11.24C90.1064 12.536 89.8584 13.64 89.3624 14.552C88.8664 15.464 88.2104 16.16 87.3944 16.64C86.5784 17.104 85.6904 17.336 84.7304 17.336ZM83.8184 14.696C84.7464 14.696 85.5224 14.4 86.1464 13.808C86.7704 13.2 87.0824 12.32 87.0824 11.168V10.928C87.0824 9.776 86.7704 8.904 86.1464 8.312C85.5384 7.704 84.7624 7.4 83.8184 7.4C82.8904 7.4 82.1144 7.704 81.4904 8.312C80.8664 8.904 80.5544 9.776 80.5544 10.928V11.168C80.5544 12.32 80.8664 13.2 81.4904 13.808C82.1144 14.4 82.8904 14.696 83.8184 14.696ZM92.7631 20.888V18.152H104.523V20.888H92.7631Z" fill="url(#paint0_linear_304_5)"/>
<defs>
<linearGradient id="paint0_linear_304_5" x1="53" y1="-6" x2="53" y2="23" gradientUnits="userSpaceOnUse">
<stop stop-color="#FF7030"/>
<stop offset="1" stop-color="#F97800"/>
</linearGradient>
</defs>
</svg>
