<svg width="180" height="20" viewBox="0 0 180 20" fill="none" xmlns="http://www.w3.org/2000/svg">
<path d="M30.0079 9.99753C30.0082 11.3106 29.7499 12.6109 29.2476 13.8242C28.7453 15.0374 28.0089 16.1398 27.0806 17.0684C26.1522 17.9971 25.0499 18.7337 23.8368 19.2363C22.6237 19.7389 21.3235 19.9975 20.0104 19.9975C19.1675 19.9983 18.328 19.8926 17.5116 19.683L18.7498 14.8415C17.896 16.3846 16.6493 17.6744 15.1362 18.5802C13.6231 19.486 11.8973 19.9755 10.1339 19.9991C8.37058 20.0227 6.63233 19.5796 5.09548 18.7147C3.55862 17.8498 2.27783 16.5938 1.38299 15.0742C0.488147 13.5545 0.0110881 11.8253 0.000190965 10.0618C-0.0107061 8.2983 0.444946 6.56329 1.32094 5.03272C2.19693 3.50214 3.4621 2.23045 4.98815 1.3466C6.5142 0.462745 8.24685 -0.00182323 10.0104 5.37742e-06C10.8532 -0.000747549 11.6928 0.104926 12.5091 0.314517L11.2585 5.15602C10.8538 5.05306 10.4379 5.00066 10.0203 5.00001C9.03084 4.99804 8.06307 5.28969 7.23947 5.83801C6.41587 6.38633 5.77347 7.16669 5.39358 8.08029C5.0137 8.99389 4.91341 9.99966 5.10542 10.9703C5.29743 11.9409 5.77309 12.8327 6.47221 13.5329C7.17132 14.2331 8.06245 14.71 9.03279 14.9035C10.0031 15.0969 11.009 14.9982 11.9232 14.6196C12.8374 14.2411 13.6187 13.5999 14.1682 12.7771C14.7178 11.9543 15.0109 10.987 15.0104 9.99753H20.0104C20.0169 11.6913 19.5907 13.3587 18.7721 14.8415C19.1769 14.9441 19.5928 14.9965 20.0104 14.9975C20.9993 14.9975 21.966 14.7043 22.7882 14.1549C23.6105 13.6055 24.2513 12.8246 24.6298 11.9109C25.0082 10.9973 25.1072 9.99198 24.9143 9.02208C24.7214 8.05217 24.2452 7.16126 23.5459 6.46199C22.8466 5.76273 21.9557 5.28653 20.9858 5.0936C20.0159 4.90068 19.0106 4.99969 18.097 5.37813C17.1833 5.75657 16.4024 6.39743 15.853 7.21968C15.3036 8.04192 15.0104 9.00862 15.0104 9.99753H10.0104C10.0517 7.37294 11.1233 4.86983 12.9939 3.02841C14.8646 1.18698 17.3842 0.154892 20.0091 0.154892C22.634 0.154892 25.1537 1.18698 27.0243 3.02841C28.895 4.86983 29.9666 7.37294 30.0079 9.99753ZM49.1362 11.6865C49.3882 12.2607 49.5149 12.8821 49.5076 13.5092C49.5259 14.4386 49.2588 15.3513 48.7424 16.1243C48.1937 16.8925 47.4342 17.4851 46.5557 17.8306C45.4633 18.2621 44.2949 18.4684 43.1208 18.4373C41.9364 18.4633 40.7584 18.2563 39.6538 17.8281C38.726 17.4631 37.9266 16.8326 37.3556 16.0154C36.7824 15.1311 36.4826 14.0974 36.4938 13.0436H39.8593C39.8769 13.5401 40.0434 14.0199 40.3373 14.4205C40.6301 14.7968 41.022 15.0841 41.469 15.2501C41.9848 15.4404 42.5314 15.5336 43.0812 15.525C43.6048 15.5388 44.1263 15.4549 44.6191 15.2774C45.0162 15.134 45.3677 14.8869 45.6369 14.5617C45.8754 14.2631 46.0031 13.8912 45.9985 13.5092C46.009 13.1689 45.8925 12.837 45.6716 12.578C45.4095 12.2929 45.0848 12.0725 44.7231 11.9341C44.2299 11.7329 43.7215 11.5714 43.2025 11.4512L41.4096 11.003C40.0227 10.6645 38.9273 10.137 38.1233 9.42051C37.3193 8.70398 36.9206 7.73651 36.9272 6.51808C36.9026 5.58414 37.1834 4.66769 37.7271 3.90788C38.3004 3.13998 39.0705 2.54108 39.9559 2.17435C40.9728 1.74065 42.07 1.52712 43.1753 1.5478C44.2754 1.52261 45.3679 1.73638 46.3774 2.17435C47.235 2.54458 47.9737 3.14447 48.5121 3.90788C49.0229 4.6715 49.2953 5.56966 49.2947 6.48837H45.9489C45.9302 6.19134 45.8464 5.90206 45.7035 5.64101C45.5605 5.37996 45.3619 5.15352 45.1218 4.97772C44.5362 4.59028 43.8418 4.40104 43.1406 4.43785C42.6496 4.42752 42.1611 4.51159 41.7018 4.68549C41.3484 4.81655 41.0381 5.04283 40.8053 5.33928C40.6014 5.61321 40.4927 5.9463 40.4958 6.28777C40.4791 6.55874 40.5456 6.82832 40.6864 7.06043C40.8309 7.28786 41.0237 7.48065 41.2511 7.62507C41.5136 7.79337 41.7944 7.93128 42.0881 8.03616C42.4202 8.15194 42.7593 8.24624 43.1035 8.31848L44.5894 8.67262C45.2694 8.82123 45.9331 9.03691 46.5705 9.3165C47.138 9.56402 47.6635 9.8982 48.1282 10.3071C48.5553 10.6929 48.8984 11.1624 49.1362 11.6865ZM61.0951 7.99406C61.3928 8.57929 61.5392 9.22974 61.521 9.88609V18.2095H58.2744V16.4983H58.1803C57.9809 16.884 57.7103 17.2285 57.3828 17.5136C57.0321 17.8167 56.6259 18.0489 56.1867 18.1971C55.6662 18.3699 55.1203 18.4537 54.572 18.4448C53.849 18.4575 53.1315 18.3165 52.467 18.0312C51.8701 17.7701 51.3629 17.3396 51.0084 16.793C50.6333 16.1811 50.4472 15.4721 50.4735 14.7548C50.4523 14.1544 50.5826 13.5582 50.8524 13.0213C51.0938 12.5653 51.4475 12.1783 51.8801 11.897C52.3365 11.602 52.8386 11.3844 53.366 11.2531C53.935 11.1067 54.5146 11.0048 55.0995 10.9485C55.8177 10.8717 56.3972 10.8024 56.833 10.7355C57.1692 10.7024 57.4948 10.5995 57.789 10.4334C57.8858 10.3686 57.9642 10.2798 58.0163 10.1756C58.0684 10.0714 58.0925 9.95538 58.0861 9.83904V9.80684C58.0991 9.58682 58.0629 9.36667 57.9802 9.16236C57.8976 8.95805 57.7705 8.77469 57.6082 8.62556C57.2237 8.32373 56.7413 8.17467 56.2536 8.20704C55.733 8.18037 55.2179 8.32285 54.785 8.61318C54.4365 8.86051 54.1817 9.21829 54.0619 9.62853L50.8945 9.38089C51.0438 8.65933 51.3744 7.98771 51.8553 7.42943C52.3513 6.86268 52.9789 6.42643 53.683 6.15899C54.5137 5.84713 55.3961 5.69587 56.2833 5.71323C56.9515 5.71192 57.6171 5.79513 58.2645 5.96088C58.8624 6.10219 59.4308 6.34782 59.9435 6.68648C60.4277 7.02255 60.8229 7.4713 61.0951 7.99406ZM58.1233 12.4889C57.9867 12.5717 57.8391 12.635 57.685 12.6771C57.4806 12.7393 57.2731 12.7905 57.0634 12.8306C56.833 12.8752 56.6027 12.9173 56.3724 12.952L55.7434 13.0436C55.382 13.0924 55.0283 13.1873 54.6909 13.3259C54.4192 13.4349 54.1809 13.6134 54 13.8435C53.8288 14.077 53.7416 14.3615 53.7523 14.6508C53.742 14.8568 53.7832 15.062 53.8723 15.248C53.9614 15.434 54.0955 15.5947 54.2625 15.7157C54.6457 15.9711 55.1 16.0986 55.5601 16.0797C56.022 16.0894 56.4792 15.9866 56.8925 15.7801C57.2628 15.5935 57.5766 15.3114 57.8013 14.9629C58.0217 14.615 58.1362 14.2106 58.1307 13.7989L58.1233 12.4889ZM69.0866 15.5795C68.9271 15.607 68.7656 15.6211 68.6037 15.6216C68.3967 15.6256 68.1909 15.5903 67.997 15.5176C67.8231 15.4486 67.6799 15.3194 67.5933 15.1535C67.4837 14.9219 67.4334 14.6665 67.4472 14.4106V8.43983H69.7701V5.86925H67.4472V2.91234H64.0247V5.86925H62.3382V8.43983H64.0247V14.8588C63.9898 15.5631 64.162 16.2622 64.52 16.8697C64.8663 17.4021 65.3715 17.812 65.9638 18.0411C66.6534 18.3046 67.3915 18.4169 68.1282 18.3705C68.5096 18.3628 68.8894 18.3189 69.2625 18.2392C69.572 18.1674 69.8122 18.103 69.9856 18.0485L69.4457 15.5027L69.0866 15.5795ZM77.9252 11.0426L75.6963 10.5919C75.2583 10.5253 74.8424 10.3555 74.4829 10.0966C74.3722 10.0069 74.283 9.89372 74.2218 9.76518C74.1605 9.63664 74.1287 9.49604 74.1287 9.35365C74.1304 9.16967 74.1822 8.98963 74.2787 8.83296C74.3751 8.67628 74.5125 8.54891 74.676 8.46459C75.0844 8.23251 75.5489 8.11768 76.0183 8.13274C76.3693 8.12335 76.7183 8.19009 77.0411 8.32839C77.3103 8.44652 77.5484 8.62537 77.737 8.85092C77.9099 9.0619 78.0289 9.31178 78.0837 9.57901L81.2164 9.38584C81.1588 8.85035 80.9887 8.33308 80.7173 7.8679C80.4458 7.40272 80.0792 7.00012 79.6414 6.68648C78.7432 6.02609 77.5149 5.69589 75.9564 5.69589C75.0157 5.67629 74.0797 5.83424 73.1976 6.16147C72.4779 6.42491 71.8459 6.88371 71.3724 7.48638C70.9356 8.07931 70.7082 8.80064 70.7261 9.5369C70.7113 9.9556 70.7816 10.3729 70.9327 10.7637C71.0838 11.1545 71.3126 11.5105 71.6052 11.8103C72.193 12.4047 73.0886 12.8224 74.2922 13.0634L76.4294 13.4894C76.856 13.5514 77.2632 13.7089 77.6206 13.95C77.7408 14.0391 77.8389 14.1547 77.9072 14.2878C77.9755 14.421 78.0121 14.5681 78.0143 14.7177C78.0084 14.9042 77.9536 15.0858 77.8554 15.2445C77.7571 15.4031 77.6189 15.5332 77.4546 15.6216C76.9987 15.8607 76.491 15.984 75.9762 15.9805C75.4614 15.9771 74.9554 15.847 74.5027 15.6018C74.308 15.4728 74.1418 15.3055 74.014 15.11C73.8863 14.9146 73.7997 14.6951 73.7598 14.4651L70.3942 14.6409C70.4623 15.2006 70.6491 15.7393 70.9421 16.221C71.2351 16.7028 71.6275 17.1164 72.0931 17.4344C73.0622 18.1162 74.3624 18.4572 75.9935 18.4572C76.9648 18.4765 77.9302 18.3031 78.834 17.947C79.5962 17.6519 80.2668 17.1607 80.7781 16.523C81.2514 15.9152 81.5023 15.1636 81.4888 14.3933C81.5045 13.9918 81.4336 13.5916 81.2811 13.2199C81.1285 12.8481 80.8979 12.5135 80.6047 12.2387C80.0203 11.6865 79.1238 11.2902 77.9252 11.0426ZM94.2971 8.52403C94.7528 9.46509 94.9807 10.6422 94.9807 12.0555C95.0159 13.2506 94.7894 14.439 94.3169 15.5374C93.9353 16.411 93.3103 17.1564 92.5166 17.6845C91.7573 18.1683 90.8735 18.4205 89.9732 18.4101C89.3918 18.4264 88.814 18.3131 88.2818 18.0783C87.8492 17.8828 87.4621 17.5995 87.1451 17.2462C86.871 16.9433 86.6439 16.6011 86.4715 16.2308H86.3179V18.212H82.945V1.75583H86.3675V7.94701H86.4715C86.643 7.58157 86.8629 7.24088 87.1253 6.93413C87.4362 6.57075 87.819 6.27564 88.2496 6.06737C88.7925 5.81816 89.386 5.69862 89.9831 5.71818C90.8625 5.713 91.7254 5.95684 92.472 6.4215C93.2701 6.93202 93.9038 7.66209 94.2971 8.52403ZM91.4839 12.0381C91.4955 11.399 91.395 10.7628 91.1867 10.1585C91.0191 9.66264 90.7164 9.22348 90.3125 8.89055C89.9048 8.57835 89.4018 8.41652 88.8885 8.4324C88.3825 8.41596 87.8858 8.57133 87.4794 8.87321C87.0738 9.19943 86.769 9.63392 86.6003 10.1263C86.3832 10.7398 86.2792 11.3875 86.2932 12.0381C86.2794 12.692 86.3834 13.3429 86.6003 13.9599C86.7702 14.4585 87.0765 14.8995 87.4844 15.2328C87.8942 15.5297 88.3874 15.6895 88.8935 15.6895C89.3996 15.6895 89.8927 15.5297 90.3026 15.2328C90.7089 14.8934 91.0139 14.4488 91.1842 13.9475C91.3953 13.3336 91.4967 12.6872 91.4839 12.0381ZM106.41 7.99406C106.706 8.57972 106.852 9.22987 106.836 9.88609V18.2095H103.589V16.4983H103.492C103.295 16.8844 103.025 17.2291 102.697 17.5136C102.347 17.8167 101.94 18.0489 101.501 18.1971C100.98 18.3699 100.433 18.4536 99.8841 18.4448C99.1611 18.4572 98.4436 18.3163 97.7791 18.0312C97.1828 17.7701 96.6764 17.3395 96.3229 16.793C95.9478 16.1811 95.7618 15.4721 95.788 14.7548C95.7672 14.1547 95.8966 13.5588 96.1644 13.0213C96.4067 12.5651 96.7613 12.1782 97.1946 11.897C97.6509 11.6017 98.153 11.3842 98.6805 11.2531C99.2544 11.106 99.839 11.0042 100.429 10.9485C101.147 10.8717 101.724 10.8024 102.162 10.7355C102.499 10.7024 102.824 10.5995 103.118 10.4334C103.215 10.3686 103.294 10.2798 103.346 10.1756C103.398 10.0714 103.422 9.95538 103.416 9.83904V9.80684C103.428 9.58682 103.392 9.36667 103.31 9.16236C103.227 8.95805 103.1 8.77469 102.938 8.62556C102.553 8.32373 102.071 8.17467 101.583 8.20704C101.062 8.18001 100.546 8.32249 100.112 8.61318C99.7641 8.8612 99.5094 9.21871 99.3888 9.62853L96.2238 9.38089C96.3688 8.66077 96.6943 7.98929 97.1699 7.42943C97.6654 6.86215 98.2931 6.4258 98.9975 6.15899C99.8274 5.84715 100.709 5.69588 101.595 5.71323C102.263 5.71192 102.929 5.79513 103.576 5.96088C104.176 6.10753 104.744 6.35906 105.256 6.70382C105.738 7.03537 106.134 7.47784 106.41 7.99406ZM103.438 12.4889C103.302 12.5717 103.155 12.6351 103.002 12.6771C102.797 12.7393 102.588 12.7905 102.378 12.8306C102.148 12.8752 101.917 12.9173 101.687 12.952L101.06 13.0436C100.699 13.0921 100.345 13.187 100.008 13.3259C99.7371 13.4352 99.4997 13.6137 99.3194 13.8435C99.1483 14.077 99.061 14.3615 99.0718 14.6508C99.0614 14.8568 99.1027 15.062 99.1917 15.248C99.2808 15.434 99.415 15.5947 99.5819 15.7157C99.9653 15.9708 100.419 16.0982 100.88 16.0797C101.342 16.0894 101.8 15.9866 102.214 15.7801C102.585 15.5941 102.898 15.3118 103.121 14.9629C103.342 14.6155 103.457 14.2108 103.45 13.7989L103.438 12.4889ZM112.94 8.80635C113.343 8.5161 113.83 8.36486 114.327 8.37544C114.606 8.36334 114.884 8.4073 115.146 8.50471C115.407 8.60212 115.647 8.751 115.85 8.94255C116.248 9.3438 116.501 9.86687 116.568 10.4284H119.787C119.762 9.5424 119.493 8.68055 119.01 7.9371C118.531 7.2237 117.866 6.65435 117.088 6.29025C116.202 5.88221 115.235 5.68149 114.26 5.70332C113.133 5.67528 112.021 5.95436 111.041 6.51065C110.142 7.04099 109.416 7.81914 108.948 8.75186C108.437 9.78655 108.182 10.9289 108.205 12.0827C108.182 13.2285 108.432 14.3632 108.933 15.3938C109.395 16.3295 110.121 17.1095 111.021 17.6374C111.958 18.1306 112.994 18.4053 114.052 18.4409C115.11 18.4765 116.162 18.2721 117.13 17.843C117.903 17.4698 118.558 16.8905 119.022 16.1689C119.489 15.4243 119.754 14.5707 119.79 13.6924H116.571C116.52 14.0887 116.381 14.4686 116.164 14.8044C115.969 15.1023 115.701 15.3446 115.384 15.5077C115.058 15.6743 114.696 15.7593 114.329 15.7553C113.83 15.7621 113.342 15.6056 112.94 15.3096C112.519 14.986 112.199 14.5486 112.019 14.049C111.79 13.404 111.683 12.7223 111.702 12.0381C111.685 11.3628 111.796 10.6904 112.031 10.057C112.209 9.56192 112.524 9.12798 112.94 8.80635ZM132.752 5.86925H128.814L124.852 10.5523H124.666V1.75583H121.254V18.2095H124.676V14.2917L125.605 13.2318L128.968 18.2095H132.977L128.165 11.2135L132.752 5.86925ZM135.756 14.579C135.503 14.5747 135.252 14.6224 135.018 14.7191C134.784 14.8158 134.572 14.9595 134.396 15.1412C134.214 15.3149 134.069 15.5245 133.972 15.7567C133.874 15.989 133.825 16.2389 133.829 16.4908C133.83 17.0014 134.034 17.4907 134.395 17.8518C134.756 18.2128 135.245 18.4162 135.756 18.4175C136.093 18.4207 136.425 18.3307 136.714 18.1575C137.001 17.9853 137.242 17.7455 137.415 17.4591C137.635 17.0954 137.724 16.6676 137.669 16.2462C137.613 15.8249 137.415 15.4351 137.108 15.1412C136.931 14.9603 136.719 14.8173 136.484 14.7207C136.25 14.624 135.999 14.5758 135.746 14.579H135.756ZM142.507 7.98663C143.078 7.59833 143.755 7.39751 144.446 7.41209C145.17 7.37401 145.882 7.6071 146.444 8.06588C146.907 8.45246 147.241 8.9707 147.403 9.55176H149.3C149.207 8.81628 148.922 8.11833 148.472 7.52848C148.018 6.94775 147.426 6.48838 146.751 6.19119C146.014 5.86044 145.212 5.6956 144.404 5.70828C143.371 5.68584 142.355 5.96933 141.484 6.52304C140.639 7.08158 139.966 7.86341 139.54 8.78158C139.059 9.82154 138.821 10.9571 138.844 12.1025C138.823 13.2345 139.054 14.3571 139.52 15.3888C140.168 16.6825 141.293 17.6737 142.658 18.1529C144.023 18.6321 145.521 18.5619 146.836 17.9569C147.489 17.6457 148.056 17.1771 148.484 16.5932C148.912 16.0093 149.189 15.3283 149.29 14.6112H147.393C147.288 15.0379 147.084 15.434 146.798 15.7677C146.521 16.0912 146.171 16.3456 145.778 16.5107C145.352 16.6844 144.895 16.7686 144.436 16.7583C143.739 16.774 143.055 16.5686 142.482 16.1714C141.906 15.7542 141.46 15.1835 141.194 14.5245C140.876 13.7333 140.722 12.8857 140.741 12.0332C140.722 11.1974 140.88 10.367 141.204 9.59634C141.475 8.94916 141.923 8.39136 142.497 7.98663H142.507ZM160.971 8.72957C161.459 9.783 161.699 10.9344 161.672 12.0951C161.699 13.2486 161.459 14.3927 160.971 15.4383C160.531 16.3624 159.838 17.1428 158.973 17.6892C158.107 18.2356 157.105 18.5256 156.081 18.5256C155.058 18.5256 154.055 18.2356 153.19 17.6892C152.325 17.1428 151.632 16.3624 151.192 15.4383C150.703 14.3929 150.462 13.2488 150.488 12.0951C150.462 10.9342 150.703 9.7828 151.192 8.72957C151.63 7.80395 152.323 7.02184 153.188 6.47417C154.054 5.9265 155.057 5.63577 156.081 5.63577C157.106 5.63577 158.109 5.9265 158.975 6.47417C159.84 7.02184 160.533 7.80395 160.971 8.72957ZM159.778 12.0951C159.784 11.3093 159.651 10.5286 159.384 9.78951C159.148 9.11041 158.728 8.51025 158.17 8.05597C157.558 7.62709 156.829 7.39702 156.081 7.39702C155.334 7.39702 154.605 7.62709 153.993 8.05597C153.435 8.51025 153.015 9.11041 152.779 9.78951C152.512 10.5286 152.379 11.3093 152.385 12.0951C152.378 12.8785 152.511 13.6569 152.779 14.3933C153.016 15.0657 153.436 15.6585 153.993 16.1045C154.607 16.5287 155.335 16.7559 156.081 16.7559C156.828 16.7559 157.556 16.5287 158.17 16.1045C158.727 15.6585 159.147 15.0657 159.384 14.3933C159.647 13.6587 159.777 12.8829 159.768 12.1025L159.778 12.0951ZM178.814 6.74097C178.455 6.39599 178.03 6.12679 177.564 5.94938C177.099 5.77197 176.603 5.68998 176.105 5.70828C175.309 5.68525 174.523 5.88144 173.832 6.27539C173.219 6.63217 172.725 7.16088 172.41 7.79594H172.281C172.008 7.17534 171.567 6.64293 171.008 6.25805C170.4 5.87359 169.689 5.68196 168.97 5.70828C168.244 5.68747 167.527 5.8785 166.907 6.25805C166.339 6.62288 165.904 7.16262 165.669 7.79594H165.508V5.86925H163.676V18.2095H165.573V10.4953C165.561 9.93651 165.695 9.38431 165.961 8.89302C166.204 8.44793 166.558 8.07337 166.989 7.80585C167.402 7.54699 167.881 7.41047 168.368 7.41209C169.017 7.3863 169.649 7.61875 170.127 8.05845C170.354 8.27707 170.533 8.54157 170.651 8.83444C170.769 9.12732 170.823 9.44188 170.81 9.75731V18.2095H172.739V10.1758C172.713 9.44826 172.969 8.73863 173.453 8.19466C173.931 7.67212 174.602 7.41209 175.471 7.41209C176.107 7.39949 176.728 7.6068 177.229 7.99901C177.725 8.38865 177.972 9.03913 177.972 9.95048V18.2095H179.869V9.95048C179.871 8.49926 179.519 7.42943 178.814 6.74097Z" fill="white"/>
</svg>
