<svg width="133" height="56" fill="none" xmlns="http://www.w3.org/2000/svg"><path d="M68.396 22.226c.203.495.628.912 1.163.912h2.659c.58 0 1.058-.48.964-1.052-.58-3.524-3.792-5.878-8.46-5.878-5.04 0-8.733 2.786-8.71 6.964-.012 3.392 2.379 5.335 6.263 6.267l2.503.629c2.503.606 3.895 1.325 3.906 2.875-.011 1.685-1.605 2.83-4.074 2.83-2.15 0-3.787-.846-4.324-2.517-.167-.52-.602-.953-1.15-.953h-2.664c-.585 0-1.062.484-.984 1.063.578 4.278 4.011 6.484 9.178 6.484 5.612 0 8.912-2.684 8.924-6.896-.012-3.83-2.897-5.863-6.893-6.761l-2.065-.494c-1.998-.46-3.67-1.202-3.637-2.853 0-1.483 1.314-2.572 3.693-2.572 1.9 0 3.2.706 3.708 1.952ZM81.55 17.563a1.04 1.04 0 0 0-1.04-1.04h-2.7a1.04 1.04 0 0 0-1.041 1.04v20.922c0 .574.466 1.04 1.04 1.04h2.701a1.04 1.04 0 0 0 1.04-1.04V17.563ZM101.784 39.861c4.156 0 6.914-2.209 7.565-5.569.114-.586-.368-1.09-.966-1.09h-2.517c-.515 0-.935.382-1.115.864-.483 1.297-1.55 2.01-2.911 2.01-2.234 0-3.682-1.875-3.682-5.177 0-3.257 1.46-5.122 3.682-5.122 1.437 0 2.451.78 2.911 2.01.18.481.601.866 1.116.866h2.522c.596 0 1.078-.501.965-1.085-.652-3.37-3.514-5.52-7.593-5.52-5.23 0-8.463 3.628-8.463 8.918 0 5.245 3.176 8.895 8.486 8.895ZM120.403 39.861c3.733 0 6.401-1.591 7.459-4.135.243-.584-.211-1.18-.843-1.222l-2.449-.162c-.461-.03-.87.26-1.136.637-.612.864-1.665 1.31-2.953 1.31-2.39 0-3.906-1.583-3.906-4.155 0-.006.005-.01.011-.01h10.69a1.04 1.04 0 0 0 1.04-1.04v-.275c0-5.863-3.547-8.76-8.104-8.76-5.074 0-8.362 3.605-8.362 8.928 0 5.47 3.244 8.884 8.553 8.884Zm-2.733-10.703c-.595 0-1.083-.509-.891-1.072.489-1.435 1.794-2.466 3.512-2.466 1.708 0 2.984 1.004 3.388 2.504.15.557-.333 1.034-.91 1.034h-5.099ZM90.163 38.485a1.04 1.04 0 0 1-1.04 1.04H86.42a1.04 1.04 0 0 1-1.04-1.04V27.674c0-.274.108-.536.3-.73l2.7-2.736c.654-.661 1.782-.2 1.782.73v13.547Z" fill="#0F172A"/><path fill-rule="evenodd" clip-rule="evenodd" d="M4.694 24.608a7.464 7.464 0 0 1 2.183-5.7l4.81-4.807a9.91 9.91 0 0 1 3.357-2.204 5.732 5.732 0 0 1 2.739-.697H34c.966 0 1.907.244 2.74.697a9.91 9.91 0 0 1 3.356 2.204l4.81 4.806a7.464 7.464 0 0 1 2.184 5.7 7.464 7.464 0 0 1-2.184 5.701L33.308 41.9a9.89 9.89 0 0 1-7.416 2.893 9.89 9.89 0 0 1-7.416-2.893l-11.6-11.59a7.464 7.464 0 0 1-2.182-5.701Zm13.089-8.418h15.306a4.92 4.92 0 0 1 3.477 1.44l4.81 4.806a2.494 2.494 0 0 1 0 3.53 2.498 2.498 0 0 1-3.531 0l-3.348-3.346a4.92 4.92 0 0 0-3.477-1.439h-3.913a.46.46 0 0 0-.326.786l5.82 5.817a4.911 4.911 0 0 1 0 6.949l-3.64 3.637a4.92 4.92 0 0 1-6.953 0l-11.6-11.59a2.494 2.494 0 0 1 0-3.53 2.499 2.499 0 0 1 3.532 0l9.779 9.773a2.498 2.498 0 0 0 3.531 0 2.494 2.494 0 0 0 0-3.53l-9.995-9.987a2.185 2.185 0 0 1 .003-3.095.735.735 0 0 1 .525-.22Z" fill="#0F172A"/><path d="M90 18.938a2.47 2.47 0 0 1-2.47 2.469 2.47 2.47 0 1 1 2.47-2.47Z" fill="#0F172A"/><path fill-rule="evenodd" clip-rule="evenodd" d="M4.694 24.608a7.464 7.464 0 0 1 2.183-5.7l4.81-4.807a9.91 9.91 0 0 1 3.357-2.204 5.732 5.732 0 0 1 2.739-.697H34c.966 0 1.907.244 2.74.697a9.91 9.91 0 0 1 3.356 2.204l4.81 4.806a7.464 7.464 0 0 1 2.184 5.7 7.464 7.464 0 0 1-2.184 5.701L33.308 41.9a9.89 9.89 0 0 1-7.416 2.893 9.89 9.89 0 0 1-7.416-2.893l-11.6-11.59a7.464 7.464 0 0 1-2.182-5.701Zm13.089-8.418h15.306a4.92 4.92 0 0 1 3.477 1.44l4.81 4.806a2.494 2.494 0 0 1 0 3.53 2.498 2.498 0 0 1-3.531 0l-3.348-3.346a4.92 4.92 0 0 0-3.477-1.439h-3.913a.46.46 0 0 0-.326.786l5.82 5.817a4.911 4.911 0 0 1 0 6.949l-3.64 3.637a4.92 4.92 0 0 1-6.953 0l-11.6-11.59a2.494 2.494 0 0 1 0-3.53 2.499 2.499 0 0 1 3.532 0l9.779 9.773a2.498 2.498 0 0 0 3.531 0 2.494 2.494 0 0 0 0-3.53l-9.995-9.987a2.185 2.185 0 0 1 .003-3.095.735.735 0 0 1 .525-.22Z" fill="#0F172A"/></svg>