<svg width="100" height="53" viewBox="0 0 124 47" fill="none" xmlns="http://www.w3.org/2000/svg"><path d="M61.6719 20.7451H70.5393" stroke="#011911" stroke-width="3.13344" stroke-linecap="round" stroke-linejoin="round"></path><path d="M57.455 16.2548C58.3471 16.2548 59.0702 15.5316 59.0702 14.6396C59.0702 13.7476 58.3471 13.0244 57.455 13.0244C56.563 13.0244 55.8398 13.7476 55.8398 14.6396C55.8398 15.5316 56.563 16.2548 57.455 16.2548Z" fill="#011911"></path><path d="M39.1719 12.6367V26.9796" stroke="#011911" stroke-width="3.23035" stroke-linecap="round" stroke-linejoin="round"></path><path d="M45.6972 33.6337C49.3011 33.6337 52.2225 30.7122 52.2225 27.1083C52.2225 23.5045 49.3011 20.583 45.6972 20.583C42.0934 20.583 39.1719 23.5045 39.1719 27.1083C39.1719 30.7122 42.0934 33.6337 45.6972 33.6337Z" stroke="#011911" stroke-width="3.19807"></path><path d="M108.949 12.7334V27.0762" stroke="#011911" stroke-width="3.23035" stroke-linecap="round" stroke-linejoin="round"></path><path d="M115.475 33.6337C119.078 33.6337 122 30.7122 122 27.1083C122 23.5045 119.078 20.583 115.475 20.583C111.871 20.583 108.949 23.5045 108.949 27.1083C108.949 30.7122 111.871 33.6337 115.475 33.6337Z" stroke="#011911" stroke-width="3.19807"></path><path d="M57.2461 20.9062V33.8115" stroke="#011911" stroke-width="3.23035" stroke-linecap="round" stroke-linejoin="round"></path><path d="M66.1133 12.6045L66.2586 34.0218" stroke="#011911" stroke-width="3.03653" stroke-linecap="round" stroke-linejoin="round"></path><path d="M73.1875 33.9567V27.1245C73.1875 23.5117 76.1163 20.583 79.729 20.583C83.3418 20.583 86.2705 23.5117 86.2705 27.1245V33.9567" stroke="#011911" stroke-width="3.23035" stroke-linecap="round"></path><path d="M97.7689 33.8601C101.462 33.8601 104.456 30.8663 104.456 27.1732C104.456 23.4801 101.462 20.4863 97.7689 20.4863C94.0758 20.4863 91.082 23.4801 91.082 27.1732C91.082 30.8663 94.0758 33.8601 97.7689 33.8601Z" stroke="#011911" stroke-width="3.23035"></path><path fill-rule="evenodd" clip-rule="evenodd" d="M8.23435 16.4687C12.7821 16.4687 16.4687 12.7821 16.4687 8.23435C16.4687 3.68664 12.7821 0 8.23435 0C3.68664 0 0 3.68664 0 8.23435C0 12.7821 3.68664 16.4687 8.23435 16.4687Z" fill="#23E0A2"></path><path fill-rule="evenodd" clip-rule="evenodd" d="M8.2351 30.3027C9.88273 30.3027 11.4173 30.7866 12.7046 31.6201C11.4173 32.4538 9.88273 32.9377 8.2351 32.9377C6.58746 32.9377 5.05284 32.4538 3.76562 31.6203C5.05284 30.7867 6.58746 30.3027 8.2351 30.3027ZM22.0688 30.3027C23.7164 30.3027 25.251 30.7866 26.5383 31.6201C25.251 32.4538 23.7164 32.9377 22.0688 32.9377C20.4212 32.9377 18.8865 32.4538 17.5993 31.6203C18.8865 30.7867 20.4212 30.3027 22.0688 30.3027Z" fill="#23FDB4"></path><path fill-rule="evenodd" clip-rule="evenodd" d="M16.4688 24.7029C16.4688 26.3505 15.9848 27.8851 15.1514 29.1723C14.3177 27.8851 13.8338 26.3505 13.8338 24.7029C13.8338 23.0552 14.3177 21.5206 15.1511 20.2334C15.9848 21.5206 16.4688 23.0552 16.4688 24.7029Z" fill="#23FDB4"></path><path fill-rule="evenodd" clip-rule="evenodd" d="M16.4688 38.5369C16.4688 40.1845 15.9848 41.7191 15.1514 43.0063C14.3177 41.7191 13.8338 40.1845 13.8338 38.5369C13.8338 36.8892 14.3177 35.3546 15.1511 34.0674C15.9848 35.3546 16.4688 36.8892 16.4688 38.5369Z" fill="#23FDB4"></path><path fill-rule="evenodd" clip-rule="evenodd" d="M8.23435 16.4688C11.1344 16.4688 13.6843 17.968 15.1513 20.2336C14.3176 21.5209 13.8337 23.0555 13.8337 24.7031C13.8337 26.3507 14.3176 27.8853 15.1511 29.1726C14.5178 30.151 13.6823 30.9865 12.7038 31.6201C13.6823 32.2534 14.5178 33.0889 15.1513 34.0673C14.3176 35.3546 13.8337 36.8892 13.8337 38.5368C13.8337 40.1844 14.3176 41.719 15.1511 43.0063C13.6843 45.2719 11.1344 46.7711 8.23435 46.7711C3.68664 46.7711 0 43.0845 0 38.5368C0 35.6367 1.49921 33.0868 3.76489 31.6198C1.49921 30.1531 0 27.6032 0 24.7031C0 20.1554 3.68664 16.4688 8.23435 16.4688ZM22.068 16.4688C26.6158 16.4688 30.3024 20.1554 30.3024 24.7031C30.3024 27.6032 28.8032 30.1531 26.5375 31.6201C28.8032 33.0868 30.3024 35.6367 30.3024 38.5368C30.3024 43.0845 26.6158 46.7711 22.068 46.7711C19.168 46.7711 16.6181 45.2719 15.1511 43.0063C15.9848 41.719 16.4687 40.1844 16.4687 38.5368C16.4687 36.8892 15.9848 35.3546 15.1513 34.0673C15.7846 33.0889 16.6201 32.2534 17.5986 31.6198C16.6201 30.9865 15.7846 30.151 15.1511 29.1726C15.9848 27.8853 16.4687 26.3507 16.4687 24.7031C16.4687 23.0555 15.9848 21.5209 15.1513 20.2336C16.6181 17.968 19.168 16.4688 22.068 16.4688ZM8.23435 30.3025C6.58671 30.3025 5.0521 30.7864 3.76489 31.6198C5.0521 32.4535 6.58671 32.9374 8.23435 32.9374C9.88198 32.9374 11.4166 32.4535 12.7038 31.6201C11.4166 30.7864 9.88198 30.3025 8.23435 30.3025ZM22.068 30.3025C20.4204 30.3025 18.8858 30.7864 17.5986 31.6198C18.8858 32.4535 20.4204 32.9374 22.068 32.9374C23.7157 32.9374 25.2503 32.4535 26.5375 31.6201C25.2503 30.7864 23.7157 30.3025 22.068 30.3025Z" fill="#23E0A2"></path></svg>