<svg width="142" height="32" viewBox="0 0 142 32" fill="none" xmlns="http://www.w3.org/2000/svg">
<path d="M35.906 22.2898L20.4823 14.9971C19.0711 14.3298 17.4389 14.3298 16.0278 14.9971L0.60406 22.2898C-0.201354 22.6706 -0.201353 23.826 0.604061 24.2069L16.0278 31.4996C17.4389 32.1668 19.0711 32.1668 20.4823 31.4996L35.906 24.2069C36.7114 23.826 36.7114 22.6706 35.906 22.2898Z" fill="#B9C5F0"/>
<path d="M35.906 15.1069L20.4823 7.90368C19.0711 7.24464 17.4389 7.24464 16.0278 7.90368L0.60406 15.1069C-0.201354 15.4831 -0.201353 16.6243 0.604061 17.0005L16.0278 24.2037C17.4389 24.8627 19.0711 24.8627 20.4823 24.2037L35.906 17.0005C36.7114 16.6243 36.7114 15.4831 35.906 15.1069Z" fill="#788EE1"/>
<path d="M35.906 7.60189L20.4823 0.488139C19.0711 -0.162713 17.4389 -0.162713 16.0278 0.488139L0.60406 7.60189C-0.201354 7.97336 -0.201353 9.10046 0.604061 9.47193L16.0278 16.5857C17.4389 17.2365 19.0711 17.2365 20.4823 16.5857L35.906 9.47193C36.7114 9.10046 36.7114 7.97336 35.906 7.60189Z" fill="#3758D3"/>
<path d="M52.6657 7.9286H45.8739V24.6621H53.5024C57.4889 24.6621 59.7282 22.8657 59.7282 19.7159C59.7282 17.8457 58.7439 16.4676 56.9475 15.8278C58.1041 15.188 58.7931 14.0806 58.7931 12.678C58.7931 9.7742 56.4553 7.9286 52.6657 7.9286ZM49.8112 21.5369V17.575H53.2809C54.8558 17.575 55.6925 18.387 55.6925 19.5436C55.6925 20.7494 54.8804 21.5369 53.4039 21.5369H49.8112ZM49.8112 14.7204V11.0538H52.5673C53.9699 11.0538 54.7328 11.7675 54.7328 12.924C54.7328 13.9576 53.9945 14.7204 52.4934 14.7204H49.8112Z" fill="#162354"/>
<path d="M61.9754 6.94427V10.0941H65.7405V6.94427H61.9754ZM61.9754 24.6621H65.7405V11.4229H61.9754V24.6621Z" fill="#162354"/>
<path d="M69.0099 14.2775V20.3557C69.0099 23.4317 70.3633 25.0558 73.1933 25.0558C74.2022 25.0558 75.0389 24.9082 75.4572 24.7113V21.8814H74.7436C73.1194 21.8814 72.7749 21.1677 72.7749 19.8881V14.2775H75.4818V11.4229H72.7749V8.34693H69.0099V11.4229H67.3858V14.2775H69.0099Z" fill="#162354"/>
<path d="M80.688 15.0895C80.688 14.3759 81.3278 13.8838 82.3121 13.8838C83.6409 13.8838 84.4284 14.4497 84.6499 15.8032H88.3903C88.0212 12.4565 85.6096 11.0046 82.4351 11.0046C78.8916 11.0046 77.0952 13.0717 77.0952 15.2864C77.0952 20.6018 85.1174 18.3132 85.1174 20.8724C85.1174 21.6845 84.453 22.2013 83.1242 22.2013C81.7215 22.2013 80.7126 21.5369 80.5403 20.3065H76.7753C77.2674 23.5793 79.679 25.0558 83.0257 25.0558C86.4709 25.0558 88.8824 23.2594 88.8824 20.651C88.8824 15.4095 80.688 17.698 80.688 15.0895Z" fill="#162354"/>
<path d="M91.5147 14.2775V20.3557C91.5147 23.4317 92.8682 25.0558 95.6981 25.0558C96.7071 25.0558 97.5437 24.9082 97.9621 24.7113V21.8814H97.2484C95.6243 21.8814 95.2798 21.1677 95.2798 19.8881V14.2775H97.9867V11.4229H95.2798V8.34693H91.5147V11.4229H89.8906V14.2775H91.5147Z" fill="#162354"/>
<path d="M99.8461 15.8032H103.611C103.783 14.7696 104.472 14.056 105.752 14.056C107.204 14.056 107.918 14.8189 107.918 16.2707V16.566C105.875 16.5906 104.226 16.7629 102.504 17.3289C100.412 18.0671 99.3786 19.4452 99.3786 21.2416C99.3786 23.7762 101.249 25.0558 103.759 25.0558C105.334 25.0558 106.909 24.4406 107.942 23.0133C107.967 23.6532 108.041 24.2191 108.164 24.6621H112.052C111.83 23.9731 111.683 23.0872 111.683 21.3646V16.2953C111.683 13.2193 109.714 11.0046 105.924 11.0046C102.528 11.0046 100.24 12.8256 99.8461 15.8032ZM103.144 20.9955C103.144 19.7651 104.103 18.83 107.918 18.7562V19.2729C107.918 21.0939 106.589 22.4474 104.915 22.4474C103.808 22.4474 103.144 21.8814 103.144 20.9955Z" fill="#162354"/>
<path d="M122.656 16.1969H126.421C125.953 12.7272 123.517 11.0046 120.441 11.0046C116.553 11.0046 114.043 13.5392 114.043 18.0425C114.043 22.3735 116.504 25.0558 120.466 25.0558C123.542 25.0558 125.929 23.4563 126.495 20.1342H122.73C122.459 21.3646 121.671 22.0044 120.539 22.0044C118.817 22.0044 117.906 20.6018 117.906 18.0425C117.906 15.4587 118.768 14.056 120.441 14.056C121.524 14.056 122.41 14.6466 122.656 16.1969Z" fill="#162354"/>
<path d="M128.649 6.94427V24.6621H132.414V18.4855L136.819 24.6621H141.347L136.056 17.2551L140.978 11.4229H136.671L132.414 16.7875V6.94427H128.649Z" fill="#162354"/>
</svg>
