<svg width="106" height="40" viewBox="0 0 106 40" fill="none" xmlns="http://www.w3.org/2000/svg">
<g clip-path="url(#clip0_4689_171)">
<path fill-rule="evenodd" clip-rule="evenodd" d="M5.66595 0L0 4.22546V39.3736H5.66595V35.3402C8.64297 39.3736 13.9248 41.0061 19.2066 39.3736C24.4884 37.741 29.002 32.8433 29.002 25.9289C29.002 18.1503 23.7467 13.3894 19.3987 12.1002C13.467 10.3414 8.83504 12.4843 5.66595 16.2296V0ZM14.5009 34.9562C19.7828 34.9562 23.336 30.8716 23.336 25.8331C23.336 20.7945 20.0709 16.5179 14.5009 16.5179C9.21911 16.5179 5.56986 20.7945 5.56986 25.8331C5.56986 30.8716 9.41118 34.9562 14.5009 34.9562Z" fill="white"/>
<path fill-rule="evenodd" clip-rule="evenodd" d="M100.036 0H105.652V35.1771L100.036 39.3192V35.3402C97.0845 39.3736 91.5768 41.0061 86.3408 39.3736C81.105 37.741 76.9023 32.8433 76.9023 25.9289C76.9023 17.5272 82.1119 13.3894 86.4222 12.1002C92.3024 10.3414 97.4458 12.5272 100.036 16.2296V0ZM91.2947 34.9562C86.0128 34.9562 82.4596 30.8716 82.4596 25.8331C82.4596 20.7945 85.7247 16.5179 91.2947 16.5179C96.5764 16.5179 100.226 20.7945 100.226 25.8331C100.226 30.8716 96.3844 34.9562 91.2947 34.9562Z" fill="white"/>
<path fill-rule="evenodd" clip-rule="evenodd" d="M46.6577 40C55.2391 40 61.0327 33.6907 61.0327 25.8032C61.0327 17.9158 55.152 11.5217 46.6577 11.5217C38.1634 11.5217 32.2827 17.9158 32.2827 25.8032C32.2827 33.6907 38.0763 40 46.6577 40ZM46.6306 34.8913C51.9838 34.8913 55.598 30.8456 55.598 25.788C55.598 20.7304 51.9294 16.6304 46.6306 16.6304C41.3316 16.6304 37.6631 20.7304 37.6631 25.788C37.6631 30.8456 41.2773 34.8913 46.6306 34.8913Z" fill="white"/>
<rect x="66.0869" width="5.65217" height="39.3478" fill="white"/>
</g>
<defs>
<clipPath id="clip0_4689_171">
<rect width="105.652" height="40" fill="white"/>
</clipPath>
</defs>
</svg>
