<svg xmlns="http://www.w3.org/2000/svg" viewBox="0 0 189.66 43.01"><defs><style>.cls-1{fill:#e86b10;}.cls-2{fill:#fff;}.cls-3{fill:#2d2d2d;}</style></defs><g id="Laag_2" data-name="Laag 2"><g id="Logo_OrangePillApp_light"><g id="Logo_OrangePillApp_light-2" data-name="Logo_OrangePillApp_light"><g id="Orange_Pill" data-name="Orange Pill"><g id="Circle"><ellipse class="cls-1" cx="168.15" cy="21.5" rx="21.48" ry="21.53" transform="translate(33.77 124.84) rotate(-44.85)"/></g><g id="Pill"><polygon class="cls-1" points="173.41 25.58 162.6 25.82 162.46 14.61 163.41 10.74 166.13 8.27 170.51 8.18 173.09 11.39 173.41 25.58"/><path class="cls-2" d="M168.31,10.7a5,5,0,0,1,2.92,2.82,2.34,2.34,0,0,0-.81-2.32A2.18,2.18,0,0,0,168.31,10.7Z"/><path class="cls-2" d="M174.45,20.8s0-.05,0-.08c0-.73,0-6.57,0-7.3a6.12,6.12,0,0,0-.68-2.68,6.42,6.42,0,0,0-6.41-3.44A6.25,6.25,0,0,0,162,11.88a15.74,15.74,0,0,0-.31,3.83v2c0,.17,0,8.53,0,8.69h0a16.51,16.51,0,0,0,.07,2.9,6.41,6.41,0,0,0,7.71,5.12,6,6,0,0,0,4.85-5A77.82,77.82,0,0,0,174.45,20.8Zm-1.92,4.54-9.17.05h-.3c0-2.81,0-10.17,0-11.36a8,8,0,0,1,.09-1.47,5,5,0,0,1,5-3.89A5,5,0,0,1,173,12.6c.16,1,.12,6.72.16,8,0,1.58,0,4.22,0,4.69Z"/></g></g><g id="Name"><path class="cls-3" d="M3,25.65A5.44,5.44,0,0,1,.78,23.38,7.41,7.41,0,0,1,0,19.88v0a7.34,7.34,0,0,1,.78-3.49A5.46,5.46,0,0,1,3,14.1a6.84,6.84,0,0,1,3.38-.8,7,7,0,0,1,3.41.8A5.56,5.56,0,0,1,12,16.37a7.34,7.34,0,0,1,.78,3.49v0A7.34,7.34,0,0,1,12,23.37a5.44,5.44,0,0,1-2.21,2.27,6.8,6.8,0,0,1-3.41.8A6.85,6.85,0,0,1,3,25.65ZM7.77,23a2.72,2.72,0,0,0,.9-1.22A5.05,5.05,0,0,0,9,19.88v0A4.87,4.87,0,0,0,8.66,18a2.74,2.74,0,0,0-.9-1.21,2.3,2.3,0,0,0-1.38-.42A2.29,2.29,0,0,0,5,16.77,2.63,2.63,0,0,0,4.12,18a4.83,4.83,0,0,0-.32,1.88v0a4.9,4.9,0,0,0,.32,1.88A2.72,2.72,0,0,0,5,23a2.26,2.26,0,0,0,1.36.42A2.25,2.25,0,0,0,7.77,23Z"/><path class="cls-3" d="M14,16.51h3.6v1.74h.07a2.6,2.6,0,0,1,.73-1.45,2.05,2.05,0,0,1,1.42-.5,2.15,2.15,0,0,1,.45,0,1.84,1.84,0,0,1,.42.1v3a3.14,3.14,0,0,0-.49-.15,3.31,3.31,0,0,0-.55-.05,2.6,2.6,0,0,0-1.14.23,1.49,1.49,0,0,0-.68.68,2.52,2.52,0,0,0-.23,1.13v4.91H14Z"/><path class="cls-3" d="M22.53,26a3,3,0,0,1-1.16-1.05A2.73,2.73,0,0,1,21,23.4h0a2.69,2.69,0,0,1,.47-1.59,3.17,3.17,0,0,1,1.37-1A7,7,0,0,1,25,20.32l4-.27v2l-3.36.24a1.42,1.42,0,0,0-.84.25.72.72,0,0,0-.27.58h0a.67.67,0,0,0,.3.58,1.43,1.43,0,0,0,.8.2,1.93,1.93,0,0,0,.75-.14,1.22,1.22,0,0,0,.51-.4A.92.92,0,0,0,27,22.8v-3a.87.87,0,0,0-.27-.67,1.25,1.25,0,0,0-.83-.24,1.5,1.5,0,0,0-.86.21.8.8,0,0,0-.37.51l0,.08H21.45v-.11a3.23,3.23,0,0,1,.65-1.73,3.54,3.54,0,0,1,1.58-1.13,6.57,6.57,0,0,1,2.43-.41,6.19,6.19,0,0,1,2.37.42,3.78,3.78,0,0,1,1.57,1.16,2.84,2.84,0,0,1,.56,1.73v6.61H27V24.9H27a3.15,3.15,0,0,1-.67.78,2.62,2.62,0,0,1-.9.49,3.62,3.62,0,0,1-1.13.17A3.66,3.66,0,0,1,22.53,26Z"/><path class="cls-3" d="M32,16.51h3.61v1.8h.07a3,3,0,0,1,1.1-1.49,3.07,3.07,0,0,1,1.83-.52,3.13,3.13,0,0,1,2.47,1A3.91,3.91,0,0,1,41.92,20v6.24H38.31V20.77A1.77,1.77,0,0,0,38,19.62a1.24,1.24,0,0,0-1-.42,1.33,1.33,0,0,0-.73.2,1.29,1.29,0,0,0-.47.56,1.73,1.73,0,0,0-.17.81v5.45H32Z"/><path class="cls-3" d="M45.62,29.12a4.2,4.2,0,0,1-1.71-1.06,2.59,2.59,0,0,1-.71-1.5v-.08h3.46l0,0a1.14,1.14,0,0,0,.46.44,1.94,1.94,0,0,0,1,.24,1.73,1.73,0,0,0,1.16-.33,1.07,1.07,0,0,0,.38-.84V24.31h-.07a2.35,2.35,0,0,1-.64.83,2.94,2.94,0,0,1-1,.53,4,4,0,0,1-1.28.19,3.73,3.73,0,0,1-2.05-.54,3.35,3.35,0,0,1-1.28-1.57A6.61,6.61,0,0,1,43,21.21h0a7.28,7.28,0,0,1,.44-2.69,3.6,3.6,0,0,1,1.29-1.65,3.65,3.65,0,0,1,2.07-.57,3.31,3.31,0,0,1,1.25.23,2.57,2.57,0,0,1,1,.64,2.81,2.81,0,0,1,.64,1h.08V16.51h3.6v9.43a2.89,2.89,0,0,1-.63,1.84,4.08,4.08,0,0,1-1.78,1.27,7.62,7.62,0,0,1-2.75.45A7.72,7.72,0,0,1,45.62,29.12ZM49,23.2a1.56,1.56,0,0,0,.54-.72,3.24,3.24,0,0,0,.19-1.14h0a3,3,0,0,0-.2-1.15,1.58,1.58,0,0,0-.54-.73,1.45,1.45,0,0,0-1.63,0,1.67,1.67,0,0,0-.54.72,3,3,0,0,0-.2,1.15h0a3.24,3.24,0,0,0,.19,1.14,1.65,1.65,0,0,0,.54.73,1.44,1.44,0,0,0,1.65,0Z"/><path class="cls-3" d="M56.8,25.82a4.19,4.19,0,0,1-1.74-1.75,5.59,5.59,0,0,1-.61-2.71h0a5.74,5.74,0,0,1,.6-2.71,4.22,4.22,0,0,1,1.72-1.73,5.35,5.35,0,0,1,2.63-.61,5.45,5.45,0,0,1,2.62.6,4.24,4.24,0,0,1,1.72,1.69,5.1,5.1,0,0,1,.61,2.56v1H56.21v-2h6.47L61,22.05V20.66a2.4,2.4,0,0,0-.19-1A1.43,1.43,0,0,0,60.3,19a1.6,1.6,0,0,0-1.62,0,1.57,1.57,0,0,0-.53.65,2.56,2.56,0,0,0-.19,1v1.41a2.39,2.39,0,0,0,.2,1,1.44,1.44,0,0,0,.55.64,1.61,1.61,0,0,0,.87.23,1.68,1.68,0,0,0,.79-.16,1.64,1.64,0,0,0,.5-.35,1.11,1.11,0,0,0,.22-.34v0h3.21l0,.11a4.5,4.5,0,0,1-.39,1,4,4,0,0,1-.84,1.06,4.18,4.18,0,0,1-1.41.83,6.29,6.29,0,0,1-2.13.32A5.74,5.74,0,0,1,56.8,25.82Z"/><path class="cls-3" d="M69.08,13.53h3.73V26.22H69.08ZM71,20h2.91a2.1,2.1,0,0,0,1.45-.46,1.72,1.72,0,0,0,.52-1.37h0a1.71,1.71,0,0,0-.52-1.37,2.15,2.15,0,0,0-1.45-.45H71V13.53h3.8a5.45,5.45,0,0,1,2.57.57A4.14,4.14,0,0,1,79,15.71a4.81,4.81,0,0,1,.59,2.45h0A4.77,4.77,0,0,1,79,20.61a4.07,4.07,0,0,1-1.68,1.58,5.44,5.44,0,0,1-2.57.56H71Z"/><path class="cls-3" d="M80.71,16.51h3.6v9.71h-3.6Zm.53-1.38a1.68,1.68,0,0,1,0-2.41,1.84,1.84,0,0,1,2.54,0,1.66,1.66,0,0,1,0,2.41,1.84,1.84,0,0,1-2.54,0Z"/><path class="cls-3" d="M85.71,13.53h3.6V26.22h-3.6Z"/><path class="cls-3" d="M90.76,13.53h3.6V26.22h-3.6Z"/><path class="cls-3" d="M102.55,13.53h3.52v3h-1.22l-2.52,9.66H98.41Zm-.76,7.53H108l.77,2.63H101Zm3.13-4.5v-3h2.31l4.14,12.69h-3.92Z"/><path class="cls-3" d="M112.31,16.51h3.6v1.75H116a2.94,2.94,0,0,1,.64-1.05,2.66,2.66,0,0,1,1-.68,3.31,3.31,0,0,1,1.25-.23,3.58,3.58,0,0,1,2.07.59,3.68,3.68,0,0,1,1.29,1.71,7.66,7.66,0,0,1,.44,2.75h0a7.67,7.67,0,0,1-.43,2.75,3.62,3.62,0,0,1-1.28,1.72,3.43,3.43,0,0,1-2,.6,3.51,3.51,0,0,1-1.28-.23,2.89,2.89,0,0,1-1-.65,3,3,0,0,1-.64-1h-.07v4.75h-3.6Zm6,6.75a1.66,1.66,0,0,0,.54-.75,3.25,3.25,0,0,0,.19-1.15h0a3.13,3.13,0,0,0-.2-1.16,1.65,1.65,0,0,0-.54-.73,1.33,1.33,0,0,0-.81-.26,1.38,1.38,0,0,0-.82.26,1.58,1.58,0,0,0-.54.73,3.18,3.18,0,0,0-.2,1.17h0a3.09,3.09,0,0,0,.2,1.16,1.61,1.61,0,0,0,.54.74,1.34,1.34,0,0,0,.82.26A1.3,1.3,0,0,0,118.27,23.26Z"/><path class="cls-3" d="M123.78,16.51h3.6v1.75h.08a2.94,2.94,0,0,1,.64-1.05,2.66,2.66,0,0,1,1-.68,3.31,3.31,0,0,1,1.25-.23,3.58,3.58,0,0,1,2.07.59,3.68,3.68,0,0,1,1.29,1.71,7.66,7.66,0,0,1,.44,2.75h0a7.67,7.67,0,0,1-.43,2.75,3.62,3.62,0,0,1-1.28,1.72,3.43,3.43,0,0,1-2,.6,3.47,3.47,0,0,1-1.28-.23,2.89,2.89,0,0,1-1-.65,3,3,0,0,1-.64-1h-.07v4.75h-3.6Zm6,6.75a1.66,1.66,0,0,0,.54-.75,3.27,3.27,0,0,0,.18-1.15h0a3.13,3.13,0,0,0-.19-1.16,1.65,1.65,0,0,0-.54-.73,1.33,1.33,0,0,0-.81-.26,1.36,1.36,0,0,0-.82.26,1.58,1.58,0,0,0-.54.73,3.18,3.18,0,0,0-.2,1.17h0a3.09,3.09,0,0,0,.2,1.16,1.61,1.61,0,0,0,.54.74,1.34,1.34,0,0,0,.82.26A1.3,1.3,0,0,0,129.74,23.26Z"/></g></g></g></g></svg>