<?xml version="1.0" encoding="utf-8"?>
<!-- Generator: Adobe Illustrator 24.3.0, SVG Export Plug-In . SVG Version: 6.00 Build 0)  -->
<svg version="1.1" id="Layer_1" xmlns="http://www.w3.org/2000/svg" xmlns:xlink="http://www.w3.org/1999/xlink" x="0px" y="0px"
	 viewBox="0 0 4000 3500" enable-background="new 0 0 4000 3500" xml:space="preserve">
<g>
	<g>
		<defs>
			<circle id="SVGID_1_" cx="2000" cy="1997.5" r="1930"/>
		</defs>
		<clipPath id="SVGID_2_">
			<use xlink:href="#SVGID_1_"  overflow="visible"/>
		</clipPath>
		<g clip-path="url(#SVGID_2_)">
			<rect x="-591.278" y="1709.676" fill="#FFBE84" width="5137.815" height="599.412"/>
			<rect x="-591.278" y="1195.895" fill="#FF9772" width="5137.815" height="513.782"/>
			<rect x="-591.278" y="682.113" fill="#FF6F61" width="5137.815" height="513.782"/>
			<rect x="-591.278" y="-602.341" fill="#FA4C4B" width="5137.815" height="1284.454"/>
			<rect x="-591.278" y="2309.088" fill="#FFE595" width="5137.815" height="1113.193"/>
		</g>
		<g clip-path="url(#SVGID_2_)">
			<rect x="1378.218" y="510.853" fill="#FF6F61" width="85.63" height="85.63"/>
			<rect x="-676.908" y="853.374" fill="#FA4C4B" width="85.63" height="85.63"/>
			<rect x="-505.648" y="853.374" fill="#FA4C4B" width="85.63" height="85.63"/>
			<rect x="-334.387" y="853.374" fill="#FA4C4B" width="85.63" height="85.63"/>
			<rect x="-163.126" y="853.374" fill="#FA4C4B" width="85.63" height="85.63"/>
			<rect x="8.134" y="853.374" fill="#FA4C4B" width="85.63" height="85.63"/>
			<rect x="179.395" y="853.374" fill="#FA4C4B" width="85.63" height="85.63"/>
			<rect x="521.916" y="853.374" fill="#FA4C4B" width="85.63" height="85.63"/>
			<rect x="3818.681" y="853.374" fill="#FA4C4B" width="85.63" height="85.63"/>
			<rect x="3989.941" y="853.374" fill="#FA4C4B" width="85.63" height="85.63"/>
			<rect x="3561.79" y="767.743" fill="#FA4C4B" width="85.63" height="85.63"/>
			<rect x="4246.832" y="853.374" fill="#FA4C4B" width="85.63" height="85.63"/>
			<rect x="4503.723" y="853.374" fill="#FA4C4B" width="85.63" height="85.63"/>
			<rect x="4674.983" y="853.374" fill="#FA4C4B" width="85.63" height="85.63"/>
			<rect x="4760.614" y="853.374" fill="#FA4C4B" width="85.63" height="85.63"/>
			<rect x="778.806" y="596.483" fill="#FF6F61" width="85.63" height="171.261"/>
			<rect x="1121.327" y="596.483" fill="#FF6F61" width="85.63" height="171.261"/>
			<rect x="1292.588" y="596.483" fill="#FF6F61" width="85.63" height="171.261"/>
			<rect x="1549.479" y="510.853" fill="#FF6F61" width="171.261" height="171.261"/>
			<rect x="1463.849" y="596.483" fill="#FF6F61" width="171.261" height="171.261"/>
			<rect x="3647.42" y="596.483" fill="#FF6F61" width="85.63" height="85.63"/>
			<rect x="-676.908" y="682.113" fill="#FA4C4B" width="85.63" height="85.63"/>
			<rect x="-505.648" y="682.113" fill="#FA4C4B" width="85.63" height="85.63"/>
			<rect x="-334.387" y="682.113" fill="#FA4C4B" width="85.63" height="85.63"/>
			<rect x="-163.126" y="682.113" fill="#FA4C4B" width="85.63" height="85.63"/>
			<rect x="8.134" y="682.113" fill="#FA4C4B" width="85.63" height="85.63"/>
			<rect x="179.395" y="682.113" fill="#FA4C4B" width="85.63" height="85.63"/>
			<rect x="350.655" y="682.113" fill="#FA4C4B" width="85.63" height="85.63"/>
			<rect x="436.285" y="682.113" fill="#FA4C4B" width="342.521" height="85.63"/>
			<rect x="950.067" y="682.113" fill="#FA4C4B" width="85.63" height="85.63"/>
			<rect x="3390.529" y="596.483" fill="#FA4C4B" width="171.261" height="171.261"/>
			<rect x="3647.42" y="682.113" fill="#FA4C4B" width="85.63" height="85.63"/>
			<rect x="3818.681" y="682.113" fill="#FA4C4B" width="171.261" height="85.63"/>
			<rect x="3989.941" y="682.113" fill="#FA4C4B" width="85.63" height="85.63"/>
			<rect x="4161.202" y="682.113" fill="#FA4C4B" width="85.63" height="85.63"/>
			<rect x="4332.462" y="682.113" fill="#FA4C4B" width="85.63" height="85.63"/>
			<rect x="4503.723" y="682.113" fill="#FA4C4B" width="85.63" height="85.63"/>
			<rect x="4674.983" y="682.113" fill="#FA4C4B" width="85.63" height="85.63"/>
			<rect x="4760.614" y="682.113" fill="#FA4C4B" width="85.63" height="85.63"/>
			<rect x="-762.538" y="767.743" fill="#FA4C4B" width="85.63" height="85.63"/>
			<rect x="-591.278" y="767.743" fill="#FA4C4B" width="85.63" height="85.63"/>
			<rect x="-420.017" y="767.743" fill="#FA4C4B" width="85.63" height="85.63"/>
			<rect x="-248.757" y="767.743" fill="#FA4C4B" width="85.63" height="85.63"/>
			<rect x="-77.496" y="767.743" fill="#FA4C4B" width="85.63" height="85.63"/>
			<rect x="93.764" y="767.743" fill="#FA4C4B" width="85.63" height="85.63"/>
			<rect x="265.025" y="767.743" fill="#FA4C4B" width="85.63" height="85.63"/>
			<rect x="436.285" y="767.743" fill="#FA4C4B" width="85.63" height="85.63"/>
			<rect x="607.546" y="767.743" fill="#FA4C4B" width="85.63" height="85.63"/>
			<rect x="3390.529" y="767.743" fill="#FA4C4B" width="85.63" height="85.63"/>
			<rect x="3904.311" y="767.743" fill="#FA4C4B" width="85.63" height="85.63"/>
			<rect x="4075.572" y="767.743" fill="#FA4C4B" width="85.63" height="85.63"/>
			<rect x="4418.092" y="767.743" fill="#FA4C4B" width="85.63" height="85.63"/>
			<rect x="4589.353" y="767.743" fill="#FA4C4B" width="85.63" height="85.63"/>
			<rect x="4674.983" y="767.743" fill="#FA4C4B" width="85.63" height="85.63"/>
		</g>
		<g clip-path="url(#SVGID_2_)">
			<rect x="-762.538" y="939.004" fill="#FF9772" width="85.63" height="85.63"/>
			<rect x="-591.278" y="939.004" fill="#FF9772" width="85.63" height="85.63"/>
			<rect x="-420.017" y="939.004" fill="#FF9772" width="85.63" height="85.63"/>
			<rect x="-248.757" y="939.004" fill="#FF9772" width="85.63" height="85.63"/>
			<rect x="-77.496" y="939.004" fill="#FF9772" width="85.63" height="85.63"/>
			<rect x="93.764" y="939.004" fill="#FF9772" width="85.63" height="85.63"/>
			<rect x="950.067" y="939.004" fill="#FF9772" width="85.63" height="85.63"/>
			<rect x="3904.311" y="939.004" fill="#FF9772" width="85.63" height="85.63"/>
			<rect x="4075.572" y="939.004" fill="#FF9772" width="85.63" height="85.63"/>
			<rect x="4246.832" y="939.004" fill="#FF9772" width="85.63" height="85.63"/>
			<rect x="4418.092" y="939.004" fill="#FF9772" width="85.63" height="85.63"/>
			<rect x="4589.353" y="939.004" fill="#FF9772" width="85.63" height="85.63"/>
			<rect x="4674.983" y="939.004" fill="#FF9772" width="85.63" height="85.63"/>
			<rect x="-762.538" y="1281.525" fill="#FF6F61" width="85.63" height="85.63"/>
			<rect x="-591.278" y="1281.525" fill="#FF6F61" width="85.63" height="85.63"/>
			<rect x="-420.017" y="1281.525" fill="#FF6F61" width="85.63" height="85.63"/>
			<rect x="-248.757" y="1281.525" fill="#FF6F61" width="85.63" height="85.63"/>
			<rect x="-77.496" y="1281.525" fill="#FF6F61" width="85.63" height="85.63"/>
			<rect x="93.764" y="1281.525" fill="#FF6F61" width="85.63" height="85.63"/>
			<rect x="265.025" y="1281.525" fill="#FF6F61" width="85.63" height="85.63"/>
			<rect x="179.395" y="1367.155" fill="#FF6F61" width="85.63" height="85.63"/>
			<rect x="179.395" y="1110.264" fill="#FF6F61" width="85.63" height="171.261"/>
			<rect x="436.285" y="1281.525" fill="#FF6F61" width="85.63" height="85.63"/>
			<rect x="521.916" y="1110.264" fill="#FF6F61" width="171.261" height="171.261"/>
			<rect x="3561.79" y="1281.525" fill="#FF6F61" width="85.63" height="85.63"/>
			<rect x="3904.311" y="1281.525" fill="#FF6F61" width="85.63" height="85.63"/>
			<rect x="4075.572" y="1281.525" fill="#FF6F61" width="85.63" height="85.63"/>
			<rect x="4246.832" y="1281.525" fill="#FF6F61" width="85.63" height="85.63"/>
			<rect x="4418.092" y="1281.525" fill="#FF6F61" width="85.63" height="85.63"/>
			<rect x="4589.353" y="1281.525" fill="#FF6F61" width="85.63" height="85.63"/>
			<rect x="4674.983" y="1281.525" fill="#FF6F61" width="85.63" height="85.63"/>
			<rect x="-848.169" y="1024.634" fill="#FF9772" width="85.63" height="85.63"/>
			<rect x="-676.908" y="1024.634" fill="#FF9772" width="85.63" height="85.63"/>
			<rect x="-505.648" y="1024.634" fill="#FF9772" width="85.63" height="85.63"/>
			<rect x="-334.387" y="1024.634" fill="#FF9772" width="85.63" height="85.63"/>
			<rect x="-163.126" y="1024.634" fill="#FF9772" width="85.63" height="85.63"/>
			<rect x="8.134" y="1024.634" fill="#FF9772" width="85.63" height="85.63"/>
			<rect x="521.916" y="1024.634" fill="#FF9772" width="85.63" height="85.63"/>
			<rect x="864.437" y="1024.634" fill="#FF9772" width="85.63" height="85.63"/>
			<rect x="1035.697" y="1024.634" fill="#FF9772" width="85.63" height="85.63"/>
			<rect x="1378.218" y="853.374" fill="#FF9772" width="85.63" height="85.63"/>
			<rect x="1463.849" y="1024.634" fill="#FF9772" width="256.891" height="256.891"/>
			<rect x="1463.849" y="939.004" fill="#FF9772" width="85.63" height="85.63"/>
			<rect x="1292.588" y="1110.264" fill="#FF9772" width="85.63" height="171.261"/>
			<rect x="1463.849" y="1110.264" fill="#FF9772" width="85.63" height="171.261"/>
			<rect x="1206.958" y="1024.634" fill="#FF9772" width="85.63" height="85.63"/>
			<rect x="1378.218" y="1024.634" fill="#FF9772" width="342.521" height="85.63"/>
			<rect x="3304.899" y="1024.634" fill="#FF9772" width="85.63" height="171.261"/>
			<rect x="3818.681" y="1024.634" fill="#FF9772" width="85.63" height="85.63"/>
			<rect x="3989.941" y="1024.634" fill="#FF9772" width="85.63" height="85.63"/>
			<rect x="4161.202" y="1024.634" fill="#FF9772" width="85.63" height="85.63"/>
			<rect x="4332.462" y="1024.634" fill="#FF9772" width="85.63" height="85.63"/>
			<rect x="4503.723" y="1024.634" fill="#FF9772" width="85.63" height="85.63"/>
			<rect x="4589.353" y="1024.634" fill="#FF9772" width="85.63" height="85.63"/>
			<rect x="-762.538" y="1110.264" fill="#FF9772" width="85.63" height="85.63"/>
			<rect x="-591.278" y="1110.264" fill="#FF9772" width="85.63" height="85.63"/>
			<rect x="-420.017" y="1110.264" fill="#FF9772" width="85.63" height="85.63"/>
			<rect x="-248.757" y="1110.264" fill="#FF9772" width="85.63" height="85.63"/>
			<rect x="-77.496" y="1110.264" fill="#FF9772" width="85.63" height="85.63"/>
			<rect x="93.764" y="1110.264" fill="#FF9772" width="85.63" height="85.63"/>
			<rect x="778.806" y="1110.264" fill="#FF9772" width="85.63" height="171.261"/>
			<rect x="950.067" y="1110.264" fill="#FF9772" width="85.63" height="171.261"/>
			<rect x="3304.899" y="1110.264" fill="#FF9772" width="171.261" height="171.261"/>
			<rect x="3904.311" y="1110.264" fill="#FF9772" width="85.63" height="85.63"/>
			<rect x="4075.572" y="1110.264" fill="#FF9772" width="85.63" height="85.63"/>
			<rect x="4246.832" y="1110.264" fill="#FF9772" width="85.63" height="85.63"/>
			<rect x="4418.092" y="1110.264" fill="#FF9772" width="85.63" height="85.63"/>
			<rect x="4589.353" y="1110.264" fill="#FF9772" width="85.63" height="85.63"/>
			<rect x="4674.983" y="1110.264" fill="#FF9772" width="85.63" height="85.63"/>
			<rect x="-848.169" y="1195.895" fill="#FF6F61" width="85.63" height="85.63"/>
			<rect x="-676.908" y="1195.895" fill="#FF6F61" width="85.63" height="85.63"/>
			<rect x="-505.648" y="1195.895" fill="#FF6F61" width="85.63" height="85.63"/>
			<rect x="-334.387" y="1195.895" fill="#FF6F61" width="85.63" height="85.63"/>
			<rect x="-163.126" y="1195.895" fill="#FF6F61" width="85.63" height="85.63"/>
			<rect x="8.134" y="1195.895" fill="#FF6F61" width="85.63" height="85.63"/>
			<rect x="350.655" y="1110.264" fill="#FF6F61" width="85.63" height="171.261"/>
			<rect x="3476.16" y="1110.264" fill="#FF6F61" width="85.63" height="171.261"/>
			<rect x="3647.42" y="1110.264" fill="#FF6F61" width="85.63" height="171.261"/>
			<rect x="3989.941" y="1195.895" fill="#FF6F61" width="85.63" height="85.63"/>
			<rect x="4161.202" y="1195.895" fill="#FF6F61" width="85.63" height="85.63"/>
			<rect x="4332.462" y="1195.895" fill="#FF6F61" width="85.63" height="85.63"/>
			<rect x="4503.723" y="1195.895" fill="#FF6F61" width="85.63" height="85.63"/>
			<rect x="4589.353" y="1195.895" fill="#FF6F61" width="85.63" height="85.63"/>
		</g>
		<g clip-path="url(#SVGID_2_)">
			<rect x="-676.908" y="1538.416" fill="#FFBE84" width="85.63" height="85.63"/>
			<rect x="-505.648" y="1538.416" fill="#FFBE84" width="85.63" height="85.63"/>
			<rect x="-334.387" y="1538.416" fill="#FFBE84" width="85.63" height="85.63"/>
			<rect x="-163.126" y="1538.416" fill="#FFBE84" width="85.63" height="85.63"/>
			<rect x="350.655" y="1538.416" fill="#FFBE84" width="85.63" height="85.63"/>
			<rect x="521.916" y="1538.416" fill="#FFBE84" width="85.63" height="85.63"/>
			<rect x="778.806" y="1624.046" fill="#FFBE84" width="85.63" height="171.261"/>
			<rect x="864.437" y="1538.416" fill="#FFBE84" width="85.63" height="85.63"/>
			<rect x="950.067" y="1452.786" fill="#FFBE84" width="85.63" height="85.63"/>
			<rect x="1035.697" y="1538.416" fill="#FFBE84" width="171.261" height="256.891"/>
			<rect x="3304.899" y="1538.416" fill="#FFBE84" width="85.63" height="85.63"/>
			<rect x="3476.16" y="1538.416" fill="#FFBE84" width="85.63" height="85.63"/>
			<rect x="3989.941" y="1538.416" fill="#FFBE84" width="85.63" height="85.63"/>
			<rect x="4161.202" y="1538.416" fill="#FFBE84" width="85.63" height="85.63"/>
			<rect x="4332.462" y="1538.416" fill="#FFBE84" width="85.63" height="85.63"/>
			<rect x="4503.723" y="1538.416" fill="#FFBE84" width="85.63" height="85.63"/>
			<rect x="4674.983" y="1538.416" fill="#FFBE84" width="85.63" height="85.63"/>
			<rect x="4760.614" y="1538.416" fill="#FFBE84" width="85.63" height="85.63"/>
			<rect x="-676.908" y="1880.937" fill="#FF9772" width="85.63" height="85.63"/>
			<rect x="-505.648" y="1880.937" fill="#FF9772" width="85.63" height="85.63"/>
			<rect x="-334.387" y="1880.937" fill="#FF9772" width="85.63" height="85.63"/>
			<rect x="-163.126" y="1880.937" fill="#FF9772" width="85.63" height="85.63"/>
			<rect x="179.395" y="1880.937" fill="#FF9772" width="85.63" height="85.63"/>
			<rect x="3989.941" y="1880.937" fill="#FF9772" width="85.63" height="85.63"/>
			<rect x="4161.202" y="1880.937" fill="#FF9772" width="85.63" height="85.63"/>
			<rect x="4332.462" y="1880.937" fill="#FF9772" width="85.63" height="85.63"/>
			<rect x="4503.723" y="1880.937" fill="#FF9772" width="85.63" height="85.63"/>
			<rect x="4674.983" y="1880.937" fill="#FF9772" width="85.63" height="85.63"/>
			<rect x="4760.614" y="1880.937" fill="#FF9772" width="85.63" height="85.63"/>
			<rect x="-762.538" y="1624.046" fill="#FFBE84" width="85.63" height="85.63"/>
			<rect x="-591.278" y="1624.046" fill="#FFBE84" width="85.63" height="85.63"/>
			<rect x="-420.017" y="1624.046" fill="#FFBE84" width="85.63" height="85.63"/>
			<rect x="-248.757" y="1624.046" fill="#FFBE84" width="85.63" height="85.63"/>
			<rect x="-77.496" y="1624.046" fill="#FFBE84" width="85.63" height="85.63"/>
			<rect x="607.546" y="1624.046" fill="#FFBE84" width="85.63" height="171.261"/>
			<rect x="3390.529" y="1624.046" fill="#FFBE84" width="85.63" height="171.261"/>
			<rect x="3561.79" y="1624.046" fill="#FFBE84" width="85.63" height="171.261"/>
			<rect x="4075.572" y="1624.046" fill="#FFBE84" width="85.63" height="85.63"/>
			<rect x="4246.832" y="1624.046" fill="#FFBE84" width="85.63" height="85.63"/>
			<rect x="4418.092" y="1624.046" fill="#FFBE84" width="85.63" height="85.63"/>
			<rect x="4589.353" y="1624.046" fill="#FFBE84" width="85.63" height="85.63"/>
			<rect x="4674.983" y="1624.046" fill="#FFBE84" width="85.63" height="85.63"/>
			<rect x="-676.908" y="1709.676" fill="#FF9772" width="85.63" height="85.63"/>
			<rect x="-505.648" y="1709.676" fill="#FF9772" width="85.63" height="85.63"/>
			<rect x="-334.387" y="1709.676" fill="#FF9772" width="85.63" height="85.63"/>
			<rect x="-163.126" y="1709.676" fill="#FF9772" width="85.63" height="85.63"/>
			<rect x="8.134" y="1624.046" fill="#FF9772" width="256.891" height="171.261"/>
			<rect x="350.655" y="1624.046" fill="#FF9772" width="85.63" height="171.261"/>
			<rect x="8.134" y="1709.676" fill="#FF9772" width="171.261" height="171.261"/>
			<rect x="3733.05" y="1624.046" fill="#FF9772" width="85.63" height="171.261"/>
			<rect x="3989.941" y="1709.676" fill="#FF9772" width="85.63" height="85.63"/>
			<rect x="4161.202" y="1709.676" fill="#FF9772" width="85.63" height="85.63"/>
			<rect x="4332.462" y="1709.676" fill="#FF9772" width="85.63" height="85.63"/>
			<rect x="4503.723" y="1709.676" fill="#FF9772" width="85.63" height="85.63"/>
			<rect x="4674.983" y="1709.676" fill="#FF9772" width="85.63" height="85.63"/>
			<rect x="4760.614" y="1709.676" fill="#FF9772" width="85.63" height="85.63"/>
			<rect x="-762.538" y="1795.307" fill="#FF9772" width="85.63" height="85.63"/>
			<rect x="-591.278" y="1795.307" fill="#FF9772" width="85.63" height="85.63"/>
			<rect x="-420.017" y="1795.307" fill="#FF9772" width="85.63" height="85.63"/>
			<rect x="-248.757" y="1795.307" fill="#FF9772" width="85.63" height="85.63"/>
			<rect x="-77.496" y="1795.307" fill="#FF9772" width="85.63" height="85.63"/>
			<rect x="265.025" y="1795.307" fill="#FF9772" width="85.63" height="85.63"/>
			<rect x="436.285" y="1795.307" fill="#FF9772" width="85.63" height="85.63"/>
			<rect x="3818.681" y="1795.307" fill="#FF9772" width="85.63" height="85.63"/>
			<rect x="4075.572" y="1795.307" fill="#FF9772" width="85.63" height="85.63"/>
			<rect x="4246.832" y="1795.307" fill="#FF9772" width="85.63" height="85.63"/>
			<rect x="4418.092" y="1795.307" fill="#FF9772" width="85.63" height="85.63"/>
			<rect x="4589.353" y="1795.307" fill="#FF9772" width="85.63" height="85.63"/>
			<rect x="4674.983" y="1795.307" fill="#FF9772" width="85.63" height="85.63"/>
		</g>
		<g clip-path="url(#SVGID_2_)">
			<rect x="-762.538" y="2137.828" fill="#FFE595" width="85.63" height="85.63"/>
			<rect x="-591.278" y="2137.828" fill="#FFE595" width="85.63" height="85.63"/>
			<rect x="-420.017" y="2137.828" fill="#FFE595" width="85.63" height="85.63"/>
			<rect x="-248.757" y="2137.828" fill="#FFE595" width="85.63" height="85.63"/>
			<rect x="-77.496" y="2137.828" fill="#FFE595" width="85.63" height="85.63"/>
			<rect x="778.806" y="2052.197" fill="#FFE595" width="85.63" height="85.63"/>
			<rect x="950.067" y="1966.567" fill="#FFE595" width="85.63" height="85.63"/>
			<rect x="607.546" y="2137.828" fill="#FFE595" width="85.63" height="85.63"/>
			<rect x="3304.899" y="2137.828" fill="#FFE595" width="171.261" height="85.63"/>
			<rect x="4075.572" y="2137.828" fill="#FFE595" width="85.63" height="85.63"/>
			<rect x="4246.832" y="2137.828" fill="#FFE595" width="85.63" height="85.63"/>
			<rect x="4418.092" y="2137.828" fill="#FFE595" width="85.63" height="85.63"/>
			<rect x="4589.353" y="2137.828" fill="#FFE595" width="85.63" height="85.63"/>
			<rect x="4674.983" y="2137.828" fill="#FFE595" width="85.63" height="85.63"/>
			<rect x="-762.538" y="2480.349" fill="#FFBE84" width="85.63" height="85.63"/>
			<rect x="-591.278" y="2480.349" fill="#FFBE84" width="85.63" height="85.63"/>
			<rect x="-420.017" y="2480.349" fill="#FFBE84" width="85.63" height="85.63"/>
			<rect x="-248.757" y="2480.349" fill="#FFBE84" width="85.63" height="85.63"/>
			<rect x="-77.496" y="2480.349" fill="#FFBE84" width="85.63" height="85.63"/>
			<rect x="93.764" y="2480.349" fill="#FFBE84" width="85.63" height="85.63"/>
			<rect x="3818.681" y="2565.979" fill="#FFBE84" width="85.63" height="85.63"/>
			<rect x="4075.572" y="2480.349" fill="#FFBE84" width="85.63" height="85.63"/>
			<rect x="4246.832" y="2480.349" fill="#FFBE84" width="85.63" height="85.63"/>
			<rect x="4418.092" y="2480.349" fill="#FFBE84" width="85.63" height="85.63"/>
			<rect x="4589.353" y="2480.349" fill="#FFBE84" width="85.63" height="85.63"/>
			<rect x="4674.983" y="2480.349" fill="#FFBE84" width="85.63" height="85.63"/>
			<rect x="-848.169" y="2223.458" fill="#FFE595" width="85.63" height="85.63"/>
			<rect x="-676.908" y="2223.458" fill="#FFE595" width="85.63" height="85.63"/>
			<rect x="-505.648" y="2223.458" fill="#FFE595" width="85.63" height="85.63"/>
			<rect x="-334.387" y="2223.458" fill="#FFE595" width="85.63" height="85.63"/>
			<rect x="-163.126" y="2223.458" fill="#FFE595" width="85.63" height="85.63"/>
			<rect x="521.916" y="2223.458" fill="#FFE595" width="85.63" height="171.261"/>
			<rect x="864.437" y="2137.828" fill="#FFE595" width="85.63" height="85.63"/>
			<rect x="3304.899" y="2052.197" fill="#FFE595" width="85.63" height="342.521"/>
			<rect x="3476.16" y="2223.458" fill="#FFE595" width="85.63" height="171.261"/>
			<rect x="3989.941" y="2223.458" fill="#FFE595" width="85.63" height="85.63"/>
			<rect x="4161.202" y="2223.458" fill="#FFE595" width="85.63" height="85.63"/>
			<rect x="4332.462" y="2223.458" fill="#FFE595" width="85.63" height="85.63"/>
			<rect x="4503.723" y="2223.458" fill="#FFE595" width="85.63" height="85.63"/>
			<rect x="4589.353" y="2223.458" fill="#FFE595" width="85.63" height="85.63"/>
			<rect x="-762.538" y="2309.088" fill="#FFBE84" width="85.63" height="85.63"/>
			<rect x="-591.278" y="2309.088" fill="#FFBE84" width="85.63" height="85.63"/>
			<rect x="-420.017" y="2309.088" fill="#FFBE84" width="85.63" height="85.63"/>
			<rect x="-248.757" y="2309.088" fill="#FFBE84" width="85.63" height="85.63"/>
			<rect x="-77.496" y="2309.088" fill="#FFBE84" width="85.63" height="85.63"/>
			<rect x="93.764" y="2223.458" fill="#FFBE84" width="256.891" height="171.261"/>
			<rect x="3561.79" y="2223.458" fill="#FFBE84" width="85.63" height="171.26"/>
			<rect x="3733.05" y="2223.458" fill="#FFBE84" width="85.63" height="171.261"/>
			<rect x="3904.311" y="2223.458" fill="#FFBE84" width="85.63" height="171.261"/>
			<rect x="4075.572" y="2309.088" fill="#FFBE84" width="85.63" height="85.63"/>
			<rect x="4246.832" y="2309.088" fill="#FFBE84" width="85.63" height="85.63"/>
			<rect x="4418.092" y="2309.088" fill="#FFBE84" width="85.63" height="85.63"/>
			<rect x="4589.353" y="2309.088" fill="#FFBE84" width="85.63" height="85.63"/>
			<rect x="4674.983" y="2309.088" fill="#FFBE84" width="85.63" height="85.63"/>
			<rect x="-848.169" y="2394.718" fill="#FFBE84" width="85.63" height="85.63"/>
			<rect x="-676.908" y="2394.718" fill="#FFBE84" width="85.63" height="85.63"/>
			<rect x="-505.648" y="2394.718" fill="#FFBE84" width="85.63" height="85.63"/>
			<rect x="-334.387" y="2394.718" fill="#FFBE84" width="85.63" height="85.63"/>
			<rect x="-163.126" y="2394.718" fill="#FFBE84" width="85.63" height="85.63"/>
			<rect x="8.134" y="2223.458" fill="#FFBE84" width="85.63" height="256.891"/>
			<rect x="179.395" y="2394.718" fill="#FFBE84" width="85.63" height="85.63"/>
			<rect x="350.655" y="2394.718" fill="#FFBE84" width="85.63" height="85.63"/>
			<rect x="521.916" y="2394.718" fill="#FFBE84" width="85.63" height="85.63"/>
			<rect x="3476.16" y="2394.718" fill="#FFBE84" width="85.63" height="85.63"/>
			<rect x="3647.42" y="2480.349" fill="#FFBE84" width="85.63" height="85.63"/>
			<rect x="3818.681" y="2394.718" fill="#FFBE84" width="85.63" height="85.63"/>
			<rect x="3989.941" y="2394.718" fill="#FFBE84" width="85.63" height="85.63"/>
			<rect x="4161.202" y="2394.718" fill="#FFBE84" width="85.63" height="85.63"/>
			<rect x="4332.462" y="2394.718" fill="#FFBE84" width="85.63" height="85.63"/>
			<rect x="4503.723" y="2394.718" fill="#FFBE84" width="85.63" height="85.63"/>
			<rect x="4589.353" y="2394.718" fill="#FFBE84" width="85.63" height="85.63"/>
		</g>
	</g>
	<g>
		<rect x="693.176" y="2137.828" fill="#A475D1" width="1198.824" height="1284.454"/>
		<g>
			<rect x="778.806" y="2309.088" fill="#AE89DB" width="1027.563" height="128.445"/>
			<rect x="778.806" y="2565.979" fill="#AE89DB" width="1027.563" height="128.445"/>
			<rect x="778.806" y="2822.87" fill="#AE89DB" width="1027.563" height="128.445"/>
			<rect x="778.806" y="3079.76" fill="#AE89DB" width="1027.563" height="128.445"/>
		</g>
	</g>
	<g>
		<rect x="1164.143" y="1367.155" fill="#76389E" width="1198.824" height="2055.126"/>
		<g>
			<rect x="1249.773" y="1538.416" fill="#884EB5" width="1027.563" height="128.445"/>
			<rect x="1249.773" y="1795.307" fill="#884EB5" width="1027.563" height="128.445"/>
			<rect x="1249.773" y="2052.197" fill="#884EB5" width="1027.563" height="128.445"/>
			<rect x="1249.773" y="2309.088" fill="#884EB5" width="1027.563" height="128.445"/>
			<rect x="1249.773" y="2565.979" fill="#884EB5" width="1027.563" height="128.445"/>
			<rect x="1249.773" y="2822.87" fill="#884EB5" width="1027.563" height="128.445"/>
			<rect x="1249.773" y="3079.76" fill="#884EB5" width="1027.563" height="128.445"/>
		</g>
	</g>
	<g>
		<rect x="1677.924" y="339.592" fill="#14003A" width="1626.975" height="3082.689"/>
		<g>
			<rect x="1763.554" y="510.853" fill="#4C1971" width="1455.714" height="128.445"/>
			<rect x="1763.554" y="767.743" fill="#4C1971" width="1455.714" height="128.445"/>
			<rect x="1763.554" y="1024.634" fill="#4C1971" width="1455.714" height="128.445"/>
			<rect x="1763.554" y="1281.525" fill="#4C1971" width="1455.714" height="128.445"/>
			<rect x="1763.554" y="1538.416" fill="#4C1971" width="1455.714" height="128.445"/>
			<rect x="1763.554" y="1795.307" fill="#4C1971" width="1455.714" height="128.445"/>
			<rect x="1763.554" y="2052.197" fill="#4C1971" width="1455.714" height="128.445"/>
			<rect x="1763.554" y="2309.088" fill="#4C1971" width="1455.714" height="128.445"/>
			<rect x="1763.554" y="2565.979" fill="#4C1971" width="1455.714" height="128.445"/>
			<rect x="1763.554" y="2822.87" fill="#4C1971" width="1455.714" height="128.445"/>
			<rect x="1763.554" y="3079.76" fill="#4C1971" width="1455.714" height="128.445"/>
		</g>
		<rect x="2170.298" y="510.853" fill="#F745E2" width="770.672" height="128.445"/>
		<rect x="1956.223" y="767.743" fill="#F745E2" width="256.891" height="128.445"/>
		<rect x="2170.298" y="1024.634" fill="#F745E2" width="642.227" height="128.445"/>
		<rect x="2769.71" y="1281.525" fill="#F745E2" width="256.891" height="128.445"/>
		<rect x="2041.853" y="1538.416" fill="#F745E2" width="770.672" height="128.445"/>
		<rect x="2170.298" y="2052.197" fill="#F745E2" width="642.227" height="128.445"/>
		<rect x="1956.223" y="2309.088" fill="#F745E2" width="256.891" height="128.445"/>
		<rect x="2769.71" y="2309.088" fill="#F745E2" width="256.891" height="128.445"/>
		<rect x="2769.71" y="2822.87" fill="#F745E2" width="256.891" height="128.445"/>
		<rect x="1956.223" y="2822.87" fill="#F745E2" width="256.891" height="128.445"/>
		<rect x="1956.223" y="2565.979" fill="#F745E2" width="256.891" height="128.445"/>
		<rect x="2170.298" y="3079.76" fill="#F745E2" width="642.227" height="128.445"/>
	</g>
</g>
</svg>
