<svg xmlns="http://www.w3.org/2000/svg" xmlns:xlink="http://www.w3.org/1999/xlink" viewBox="0 0 719 204" class="css-mglkc9"><title>Swan logo</title><defs><path id="swan-logo-icon-top-187dbbdc34e.7ce" d="M145.37 55.1c-2.52-4.24-6.18-7.38-10.33-9.92-15.05-9.22-31.33-12.06-48.67-9-10.23 1.8-19.47 5.76-26.94 13.18-12.39 12.31-13.02 31.76.6 43.43a68.04 68.04 0 0 0 15.37 9.93c10.65 4.95 21.68 9.09 32.52 13.64 7.84 3.3 15.39 7.1 21.77 12.88 9.8 8.88 11.6 22.46 5.97 32.25-.17.29-.24.64-.41 1.15.53.1.76.2.94.16.34-.1.67-.28.99-.46 7.01-4.14 13.12-9.29 17.7-16.07 9.52-14.1 7.5-30.03-5.56-40.9a69.58 69.58 0 0 0-15.04-9.7c-10.86-5.02-22.07-9.27-33.13-13.86-6.14-2.55-12.32-5.03-17.6-9.23-8.13-6.48-4.08-15.28 1.94-18.3 3.64-1.82 7.5-2.31 11.52-2.05 7.21.47 13.9 2.7 20.18 6.15 12.52 6.9 22.45 16.69 31.13 27.85.5.64 1.1 1.21 1.64 1.81l.55-.28c-.13-.65-.2-1.32-.4-1.95-1.5-4.72-3.06-9.42-4.5-14.16a3.8 3.8 0 0 1 .17-2.61c2.52-4.75 2.3-9.38-.4-13.93Z"></path><path id="swan-logo-icon-bottom-187dbbdc34e.7ce" d="m36.99 83.93.72.06c.15.81.33 1.62.45 2.43 1.52 9.96 7 17.44 14.8 23.44 8.02 6.18 17.19 10.18 26.45 14.04 9.37 3.9 18.77 7.74 28.02 11.9a35.82 35.82 0 0 1 8.19 5.44c9.4 7.92 7.32 21.9-3.9 26.99-5.85 2.65-12.05 2.84-18.3 2.24-28.78-2.78-55.66-27.5-59.01-59.51a69.47 69.47 0 0 1 1.9-25.36c.15-.57.45-1.12.68-1.67Z"></path><circle id="swan-logo-icon-background-187dbbdc34e.7ce" cx="102" cy="102" r="102"></circle><mask id="swan-logo-icon-stamp-187dbbdc34e.7ce"><use fill="white" href="#swan-logo-icon-background-187dbbdc34e.7ce"></use><use fill="black" href="#swan-logo-icon-top-187dbbdc34e.7ce"></use><use fill="black" href="#swan-logo-icon-bottom-187dbbdc34e.7ce"></use></mask></defs><g id="swan-logo-wordmark-187dbbdc34e.7ce" fill="currentColor"><path id="swan-logo-letter-s-187dbbdc34e.7ce" d="M279.34 168.92c30.77 0 53.3-15.68 53.3-41.94 0-16.08-7.83-28.03-27.82-41.16-15.1-9.8-18.82-15.88-18.82-22.74 0-10.2 9.6-17.44 20.97-17.44 3.73 0 7.06.58 10.2 1.56l1.76 24.11h19.2l2.95-27.63c-8.24-6.28-23.52-10.4-38.03-10.4-28.61 0-49 15.69-49 40.78 0 14.1 5.88 27.63 27.25 42.14 14.7 10 17.44 16.85 17.44 23.52 0 11.36-8.62 16.85-21.17 16.85-3.72 0-8.23-.78-12.74-1.76l-2.35-25.87h-19.01l-2.75 29.6c10 6.66 23.72 10.38 38.62 10.38Z"></path><path id="swan-logo-letter-w-187dbbdc34e.7ce" d="m424.54 166.96 17.64-1.96c19.21-20.19 35.09-41.55 44.89-58.8 6.27-10.98 8.03-17.25 8.03-23.52 0-7.25-.78-10.58-3.53-14.3a17.98 17.98 0 0 0-9.6-2.95c-10.58 0-18.62 5.69-18.62 17.45 0 6.07 2.94 12.74 5.3 19l2.54 7.06a410.1 410.1 0 0 1-19.6 30.78l-10-68.21h-20.77c-9.41 20.19-19.01 40.37-28.42 60.37l-4.12-45.08c-1.17-13.72-6.27-20.39-17.25-20.39-10.19 0-19.99 7.25-31.94 21.95l4.5 5.88c2.75-2.54 5.69-4.3 7.45-4.3 2.16 0 3.73.58 4.31 5.28 3.34 23.33 6.86 46.46 10.2 69.78l2.35 1.96 19.99-1.96 25.87-52.92c2.75 17.64 5.69 35.28 8.43 52.92l2.35 1.96Z"></path><path id="swan-logo-letter-a-187dbbdc34e.7ce" d="M566.61 168.14c15.29 0 28.81-14.31 35.48-27.05l-6.47-4.12c-5.69 7.45-8.82 11.57-11.96 11.57-2.15 0-3.13-1.38-3.13-3.92 0-1.96.59-4.12 1.37-7.26l15.68-68.2-3.14-2.75-15.48 6.47a28.24 28.24 0 0 0-18.43-6.47c-30.38 0-68.4 37.44-68.4 72.72 0 21.75 10.2 29 21.37 29 11.36 0 24.1-8.23 34.5-19.4 0 12.74 7.24 19.4 18.61 19.4Zm-30.58-22.74c-6.46 0-10.38-4.7-10.38-17.25 0-12.54 5.88-34.1 14.9-41.94 3.91-3.53 7.05-4.7 10.58-4.7 3.13 0 6.47.78 9.6 2.15l-10.78 49c-.4 2.16-.78 4.31-1.18 6.27-3.72 3.33-8.42 6.47-12.74 6.47Z"></path><path id="swan-logo-letter-n-187dbbdc34e.7ce" d="M679.28 168.14c18.03 0 31.95-13.14 39.6-26.86l-6.48-4.11c-5.88 7.84-9.8 11.37-12.54 11.37-1.76 0-2.74-1.38-2.74-3.92 0-1.96.59-4.12 1.37-7.26l9.4-37.24a64.14 64.14 0 0 0 2.16-16.26c0-11.76-7.25-17.45-15.87-17.45-12.55 0-25.88 7.06-39.6 20.39l3.34-17.25-4.12-3.53-42.73 11.56-1.37 8.04 11.37 2.16-15.88 76.24 3.14 2.55L638.7 165c2.74-14.3 5.3-28.22 8.43-42.34l5.1-23.71c7.05-6.86 13.52-9.8 18.61-9.8 2.55 0 4.51 1.76 4.51 4.9 0 2.94-.78 7.84-2.35 13.72L666.15 135c-1.37 5.1-3.33 12.74-3.33 19.01 0 9.02 5.88 14.12 16.46 14.12Z"></path></g><use id="swan-logo-icon-187dbbdc34e.7ce" href="#swan-logo-icon-background-187dbbdc34e.7ce" mask="url(#swan-logo-icon-stamp-187dbbdc34e.7ce)" fill="currentColor"></use></svg>