<svg width="591" height="166" viewBox="0 0 591 166" fill="none" xmlns="http://www.w3.org/2000/svg">
<g clip-path="url(#clip0_906:4)">
<path d="M6.6577 0L0 37.2608H25.2976L2.88513 166H46.1581L68.7935 37.2608H94.0891L100.747 0L6.6577 0Z" fill="#FF008A"/>
<path d="M149.037 56.8944L159.023 0L113.088 0L84.0178 166H129.953L141.048 102.188H159.688L148.593 166H194.528L223.598 0L177.663 0L167.677 56.8944H149.037Z" fill="#FF008A"/>
<path d="M294.877 93.7091C295.988 82.1078 296.875 74.7436 299.76 59.5712L310.19 0L347.027 0L317.958 166H278.902L267.805 93.7091C266.03 81.8836 265.363 74.0754 264.699 66.2651C264.058 73.7688 262.394 83.9533 260.099 98.0028L259.816 99.7328L248.278 166H210.996L240.064 0L283.56 0L291.548 63.1423C293.102 75.8599 294.213 85.0086 294.877 93.7091Z" fill="#FF008A"/>
<path fill-rule="evenodd" clip-rule="evenodd" d="M491.174 0L462.106 166H506.487L518.023 100.403H525.348C532.226 100.403 534.447 103.972 532.893 112.675L525.571 153.728C524.681 159.53 525.348 163.545 527.345 166H571.283L571.508 164.884C570.398 161.983 569.51 158.19 570.62 151.274L578.163 108.435C581.49 90.5862 575.278 81.8836 565.736 76.7522C576.389 73.4052 585.265 66.4872 588.15 49.7544L589.925 39.9375C595.251 12.0495 580.161 0 558.857 0L491.174 0ZM542.656 56.0022C541.105 63.8125 538.219 66.4892 532.005 66.4892H524.017L530.228 31.2371H537.33C543.767 31.2371 546.429 34.8081 545.098 42.1702L542.656 56.0022Z" fill="#FF008A"/>
<path d="M404.555 103.75L380.902 103.75L399.097 0L363.497 0L334.426 166H404.555V103.75Z" fill="#FF008A"/>
<path d="M404.554 0L426.74 0C453.368 0 472.231 13.3879 466.24 48.1919L453.591 120.483C448.438 151.564 437.832 165.068 410.027 165.917L428.207 62.25H404.554V0Z" fill="#FF008A"/>
</g>
<defs>
<clipPath id="clip0_906:4">
<rect width="591" height="166" fill="white"/>
</clipPath>
</defs>
</svg>
