<svg width="1009" height="194" viewBox="0 0 1009 194" fill="none" xmlns="http://www.w3.org/2000/svg">
<g clip-path="url(#clip0_471_1505)">
<path d="M259.32 121.746V66.3739C259.32 52.5739 258.17 46.9101 252.677 36.6176V36.2726H285.117V36.6176C280.63 45.0989 278.473 52.5739 278.473 66.3739V121.258C278.473 148.369 289.948 154.838 307.75 154.838C330.411 154.838 338.176 139.715 338.176 119.763V69.3639C338.176 54.3851 336.019 48.2326 326.213 36.5889V36.2439H358.825V36.5889C349.162 48.2326 346.861 54.3851 346.861 69.3639V119.59C346.861 143.366 336.537 163.836 304.759 163.836C280.141 163.836 259.349 151.704 259.349 121.746H259.32Z" fill="#002851"/>
<path d="M365.094 161.019C368.258 151.531 369.092 143.223 369.092 127.928V107.803C369.092 96.3313 365.439 90.0063 361.097 85.3488V85.0038L385.542 75.8613V92.4788L386.203 92.6513C393.68 83.3363 402.02 76.6951 414.156 76.6951C429.801 76.6951 438.457 86.4988 438.457 101.65V127.755C438.457 143.395 438.803 151.531 442.455 161.019V161.364H417.349V161.019C420.512 151.531 421.173 142.389 421.173 127.928V105.819C421.173 96.3313 416.86 88.3676 405.356 88.3676C398.023 88.3676 391.207 91.5301 386.232 97.8551V127.784C386.232 142.906 386.577 151.56 390.057 161.048V161.393H365.094V161.048V161.019Z" fill="#002851"/>
<path d="M523.928 142.245C523.928 142.245 524.043 142.475 524.015 142.59C518.982 154.636 507.708 163.836 490.655 163.836C468.022 163.836 452.895 147.219 452.895 121.746C452.895 96.2739 473.86 76.6664 496.493 76.6664C508.197 76.6664 514.956 79.0526 518.982 81.0076C519.154 81.0939 519.298 81.2664 519.327 81.4676L521.743 100.845C521.743 100.989 521.656 101.133 521.513 101.19L519.988 101.564C519.988 101.564 519.73 101.564 519.643 101.42C514.927 93.6001 504.2 81.8126 493.818 81.8126C479.525 81.8126 470.207 94.4626 470.207 114.731C470.207 137.013 482.027 149.145 499.829 149.145C508.054 149.145 516.279 146.874 522.088 140.865C522.203 140.75 522.375 140.75 522.519 140.865L523.986 142.188L523.928 142.245Z" fill="#002851"/>
<path d="M532.872 161.019C536.036 151.531 536.697 143.223 536.697 127.928V62.2626C536.697 50.9639 533.045 44.4664 528.875 39.9814V39.4926L553.837 30.6664V92.6514H554.01C561.487 83.3364 569.827 76.6951 581.963 76.6951C597.608 76.6951 606.408 86.4989 606.408 101.65V127.928C606.408 143.395 606.753 151.531 610.233 161.019V161.364H585.127V161.019C588.29 151.531 589.124 142.389 589.124 127.928V105.819C589.124 96.3314 584.638 88.3676 573.163 88.3676C565.686 88.3676 559.014 91.7026 553.866 98.0276V127.956C553.866 142.935 554.528 151.56 558.036 161.048V161.393H532.93V161.048L532.872 161.019Z" fill="#002851"/>
<path d="M621.478 147.88C621.478 129.25 647.101 116.198 665.91 113.035V105.158C665.91 93.3414 661.74 87.8501 649.776 87.8501C642.529 87.8501 633.815 89.8051 626.539 94.8651C626.424 94.9514 626.251 94.9226 626.165 94.8364L624.871 93.5426C624.871 93.5426 624.756 93.2551 624.842 93.1401C632.032 83.5951 644.427 76.7239 658.95 76.7239C677.586 76.7239 683.251 87.8789 683.251 100.673V145.091C683.251 149.749 684.919 152.911 689.894 152.911C692.972 152.911 695.589 151.79 698.522 149.26C698.637 149.174 698.81 149.145 698.925 149.26L700.046 150.266C700.046 150.266 700.19 150.496 700.104 150.64C697.228 156.275 691.591 163.405 681.065 163.405C671.92 163.405 667.261 158.259 666.255 151.589C660.762 158.086 651.617 163.894 640.458 163.894C629.3 163.894 621.506 158.086 621.506 147.938L621.478 147.88ZM650.437 153.544C656.937 153.544 662.919 150.726 665.91 147.391V117.348C651.76 120.51 637.64 131.234 637.64 142.734C637.64 149.375 642.471 153.544 650.437 153.544V153.544Z" fill="#002851"/>
<path d="M709.825 161.019C712.154 151.531 713.822 143.05 713.822 127.928V108.464C713.822 97.4814 710.17 90.8401 705.827 86.3551V85.0326L730.933 75.8901V127.784C730.933 142.59 731.279 151.56 734.758 161.048V161.393H709.796V161.048L709.825 161.019ZM711.147 46.6226C711.147 40.6426 715.634 35.9851 721.472 35.9851C727.31 35.9851 731.94 40.6426 731.94 46.6226C731.94 52.2864 727.281 56.9439 721.472 56.9439C715.663 56.9439 711.147 52.2864 711.147 46.6226V46.6226Z" fill="#002851"/>
<path d="M749.54 161.019C752.704 151.531 753.538 143.223 753.538 127.928V107.803C753.538 96.3313 749.886 90.0063 745.543 85.3488V85.0038L769.988 75.8613V92.4788L770.649 92.6513C778.127 83.3363 786.467 76.6951 798.603 76.6951C814.247 76.6951 822.904 86.4988 822.904 101.65V127.755C822.904 143.395 823.249 151.531 826.901 161.019V161.364H801.795V161.019C804.958 151.531 805.62 142.389 805.62 127.928V105.819C805.62 96.3313 801.306 88.3676 789.803 88.3676C782.469 88.3676 775.653 91.5301 770.678 97.8551V127.784C770.678 142.906 771.023 151.56 774.503 161.048V161.393H749.54V161.048V161.019Z" fill="#002851"/>
<path d="M907.77 139.399L909.351 140.578C909.351 140.578 909.495 140.808 909.438 140.951C904.232 153.486 892.959 163.836 875.589 163.836C852.783 163.836 837.34 146.701 837.34 121.919C837.34 94.1463 857.126 76.6951 876.768 76.6951C896.41 76.6951 910.703 95.1526 909.035 112.115H854.796V114.616C854.796 137.559 866.932 149.203 884.561 149.203C893.62 149.203 901.357 146.098 907.338 139.428C907.453 139.313 907.626 139.284 907.741 139.399H907.77ZM854.998 107.458L888.847 106.681V104.813C888.847 90.2076 884.044 83.5376 874.553 83.5376C863.683 83.5376 856.551 93.4851 854.998 107.429V107.458Z" fill="#002851"/>
<path d="M983.894 79.6851V62.4351C983.894 51.1364 980.241 44.4664 976.071 40.1539V39.8089L1001.18 30.6664V124.593C1001.18 148.196 1003.16 152.365 1009 157.511V157.856L984.555 163.348V146.558H984.066C979.062 155.384 968.939 163.865 954.445 163.865C933.652 163.865 921.344 147.075 921.344 123.96C921.344 99.0051 936.816 76.7239 966.437 76.7239C973.081 76.7239 979.091 77.8739 983.894 79.7139V79.6851ZM963.274 151.876C972.247 151.876 979.235 147.708 983.894 141.411V100.011C980.73 86.0389 972.074 81.8701 964.108 81.8701C949.297 81.8701 939.807 96.9926 939.807 118.124C939.807 139.255 947.629 151.876 963.274 151.876V151.876Z" fill="#002851"/>
<g clip-path="url(#clip1_471_1505)">
<ellipse cx="96.9995" cy="97.3377" rx="95.8588" ry="96.426" fill="white"/>
<path d="M70.6096 137.802C60.7955 152.754 53.2637 167.189 47.5293 180.132C61.9652 188.885 78.9117 193.907 96.9993 193.907C150.035 193.907 193.029 150.659 193.029 97.3088C193.029 95.5582 192.972 93.8076 192.887 92.0571H182.045C146.669 92.0571 101.193 91.1674 70.6096 137.773V137.802Z" fill="#0095D6"/>
<path d="M192.003 83.2754H137.397C71.4088 83.2754 33.693 112.662 12.353 142.996C5.07796 129.393 0.969727 113.839 0.969727 97.3375C0.969727 43.9875 43.9636 0.739258 96.9997 0.739258C145.271 0.739258 185.241 36.5833 192.003 83.2754Z" fill="#002851"/>
<path d="M97.7416 25.4483L99.4534 30.7575C101.336 36.5258 105.844 41.0601 111.578 42.9542L116.856 44.6761C117.427 44.877 117.427 45.6805 116.856 45.8527L111.578 47.5746C105.844 49.4687 101.336 54.003 99.4534 59.7714L97.7416 65.0805C97.5419 65.6545 96.7431 65.6545 96.5719 65.0805L94.8602 59.7714C92.9772 54.003 88.4696 49.4687 82.7352 47.5746L77.4572 45.8527C76.8866 45.6518 76.8866 44.8483 77.4572 44.6761L82.7352 42.9542C88.4696 41.0601 92.9772 36.5258 94.8602 30.7575L96.5719 25.4483C96.7716 24.8743 97.5705 24.8743 97.7416 25.4483V25.4483Z" fill="white"/>
</g>
</g>
<defs>
<clipPath id="clip0_471_1505">
<rect width="1009" height="194" fill="white"/>
</clipPath>
<clipPath id="clip1_471_1505">
<rect width="194" height="194" fill="white" transform="translate(0 -0.116699)"/>
</clipPath>
</defs>
</svg>
