<svg viewBox="0 0 80 24" xmlns="http://www.w3.org/2000/svg">
    <path d="M30.7683 1H25.9736V23.0322H30.7683V1Z" />
    <path d="M2 14.0115V1H6.73144V12.4185C6.73144 13.3657 7.21887 14.2541 8.03901 14.8016L11.6113 17.1867C12.337 17.6712 13.3103 17.6637 14.0275 17.168L17.4486 14.8038C18.2447 14.2537 18.715 13.379 18.715 12.4486V1H23.5084V14.0137C23.5084 15.2244 22.9109 16.3662 21.8917 17.1032L14.6494 22.3401C13.5374 23.1442 11.9911 23.1448 10.8784 22.3417L3.61979 17.1031C2.59876 16.3663 2 15.2234 2 14.0115Z" />
    <path d="M78.0956 10.0294V23.0408H73.3642V11.6223C73.3642 10.6751 72.8767 9.78675 72.0566 9.23918L68.4843 6.85415C67.7586 6.36962 66.7853 6.37712 66.0681 6.87277L62.647 9.23697C61.8509 9.78714 61.3806 10.6618 61.3806 11.5922V23.0408H56.5872V10.0271C56.5872 8.81643 57.1847 7.67463 58.2039 6.93763L65.4462 1.70074C66.5582 0.896664 68.1045 0.895991 69.2172 1.69909L76.4758 6.93768C77.4968 7.67456 78.0956 8.81741 78.0956 10.0294Z" />
    <path fill-rule="evenodd" clip-rule="evenodd" d="M33.1779 23.0215V1.01947H49.0665C51.9192 1.01947 54.2318 3.19882 54.2318 5.88718V18.1538C54.2318 20.8422 51.9192 23.0215 49.0665 23.0215H33.1779ZM37.9093 18.5043V5.51723H47.3929C48.534 5.51723 49.459 6.38897 49.459 7.46432V16.5572C49.459 17.6325 48.534 18.5043 47.3929 18.5043H37.9093Z" />
</svg>