<svg width="445" height="100" viewBox="0 0 445 100" fill="none" xmlns="http://www.w3.org/2000/svg">
<g style="mix-blend-mode:luminosity" clip-path="url(#clip0_79_3)">
<path d="M113.165 69.6557L64.9662 46.866C60.5562 44.7807 55.4555 44.7807 51.0459 46.866L2.84667 69.6557C0.329753 70.8457 0.329756 74.4563 2.84668 75.6466L51.0459 98.4363C55.4555 100.521 60.5562 100.521 64.9662 98.4363L113.165 75.6466C115.682 74.4563 115.682 70.8457 113.165 69.6557Z" fill="#B9C5F0"/>
<path d="M113.165 47.209L64.9662 24.6989C60.5562 22.6394 55.4555 22.6394 51.0459 24.6989L2.84667 47.209C0.329753 48.3846 0.329756 51.9509 2.84668 53.1265L51.0459 75.6365C55.4555 77.6959 60.5562 77.6959 64.9662 75.6365L113.165 53.1265C115.682 51.9509 115.682 48.3846 113.165 47.209Z" fill="#788EE1"/>
<path d="M113.165 23.7559L64.9662 1.52543C60.5562 -0.508478 55.4555 -0.508478 51.0459 1.52543L2.84667 23.7559C0.329753 24.9168 0.329756 28.4389 2.84668 29.5998L51.0459 51.8303C55.4555 53.8641 60.5562 53.8641 64.9662 51.8303L113.165 29.5998C115.682 28.4389 115.682 24.9168 113.165 23.7559Z" fill="#3758D3"/>
<path d="M165.539 24.7769H144.314V77.069H168.154C180.611 77.069 187.609 71.4553 187.609 61.6122C187.609 55.7678 184.533 51.4612 178.919 49.4619C182.534 47.4625 184.687 44.0019 184.687 39.6187C184.687 30.5444 177.381 24.7769 165.539 24.7769ZM156.619 67.3028V54.9219H167.461C172.383 54.9219 174.998 57.4594 174.998 61.0737C174.998 64.8419 172.46 67.3028 167.846 67.3028H156.619ZM156.619 46.0012V34.5431H165.231C169.614 34.5431 171.999 36.7734 171.999 40.3875C171.999 43.6175 169.691 46.0012 165 46.0012H156.619Z" fill="#162354"/>
<path d="M194.632 21.7009V31.5441H206.398V21.7009H194.632ZM194.632 77.0691H206.398V35.6966H194.632V77.0691Z" fill="#162354"/>
<path d="M216.615 44.6173V63.6116C216.615 73.2241 220.845 78.2994 229.688 78.2994C232.841 78.2994 235.456 77.8382 236.763 77.2229V68.3794H234.533C229.458 68.3794 228.381 66.1491 228.381 62.1504V44.6173H236.84V35.6966H228.381V26.0842H216.615V35.6966H211.54V44.6173H216.615Z" fill="#162354"/>
<path d="M253.109 47.1547C253.109 44.9247 255.108 43.3869 258.184 43.3869C262.337 43.3869 264.798 45.1553 265.49 49.385H277.179C276.025 38.9266 268.489 34.3894 258.569 34.3894C247.495 34.3894 241.882 40.8491 241.882 47.77C241.882 64.3807 266.951 57.2288 266.951 65.2263C266.951 67.7641 264.875 69.3791 260.722 69.3791C256.339 69.3791 253.186 67.3028 252.647 63.4578H240.882C242.42 73.6853 249.956 78.2994 260.414 78.2994C271.181 78.2994 278.717 72.6857 278.717 64.5344C278.717 48.1547 253.109 55.3063 253.109 47.1547Z" fill="#162354"/>
<path d="M286.942 44.6173V63.6116C286.942 73.2241 291.172 78.2994 300.016 78.2994C303.169 78.2994 305.783 77.8382 307.091 77.2229V68.3794H304.86C299.785 68.3794 298.708 66.1491 298.708 62.1504V44.6173H307.167V35.6966H298.708V26.0842H286.942V35.6966H281.867V44.6173H286.942Z" fill="#162354"/>
<path d="M312.979 49.385H324.744C325.281 46.155 327.434 43.925 331.434 43.925C335.972 43.925 338.203 46.3091 338.203 50.846V51.7688C331.819 51.8457 326.666 52.3841 321.284 54.1528C314.747 56.4597 311.518 60.7663 311.518 66.38C311.518 74.3007 317.363 78.2994 325.206 78.2994C330.128 78.2994 335.05 76.3769 338.278 71.9166C338.356 73.9163 338.588 75.6847 338.972 77.0691H351.122C350.428 74.916 349.969 72.1475 349.969 66.7644V50.9228C349.969 41.3103 343.816 34.3894 331.972 34.3894C321.359 34.3894 314.209 40.08 312.979 49.385ZM323.284 65.611C323.284 61.766 326.281 58.8438 338.203 58.6132V60.2278C338.203 65.9185 334.05 70.1482 328.819 70.1482C325.359 70.1482 323.284 68.3794 323.284 65.611Z" fill="#162354"/>
<path d="M384.259 50.6153H396.025C394.562 39.7725 386.95 34.3894 377.338 34.3894C365.188 34.3894 357.344 42.31 357.344 56.3828C357.344 69.9172 365.034 78.2994 377.416 78.2994C387.028 78.2994 394.488 73.301 396.256 62.9194H384.491C383.644 66.7644 381.181 68.7638 377.644 68.7638C372.263 68.7638 369.416 64.3807 369.416 56.3828C369.416 48.3085 372.109 43.925 377.338 43.925C380.722 43.925 383.491 45.7707 384.259 50.6153Z" fill="#162354"/>
<path d="M402.987 21.7009V77.0691H414.753V57.7673L428.519 77.0691H442.669L426.134 53.9223L441.515 35.6966H428.056L414.753 52.461V21.7009H402.987Z" fill="#162354"/>
</g>
<defs>
<clipPath id="clip0_79_3">
<rect width="443.75" height="100" fill="white" transform="translate(0.958984)"/>
</clipPath>
</defs>
</svg>
