<svg width="265" height="110" viewBox="0 0 265 110" fill="none" xmlns="http://www.w3.org/2000/svg">
<g style="mix-blend-mode:luminosity" clip-path="url(#clip0_79_976)">
<path d="M19.3802 98.9177L18.9849 100.53H15.8534L13.7118 109.454H11.7971L13.9421 100.53H10.8105L11.1887 98.9177H19.3802Z" fill="#010101"/>
<path d="M27.6957 98.9177H29.6104L27.0873 109.45H25.1726L26.3104 104.768H21.9929L20.8551 109.45H18.9404L21.4636 98.9177H23.3782L22.3642 103.142H26.6817L27.6957 98.9177Z" fill="#010101"/>
<path d="M30.126 109.454L32.6491 98.9211H39.1838L38.8022 100.516H34.1616L33.5325 103.16H37.6472L37.2657 104.724H33.175L32.4154 107.855H37.3997L37.0216 109.45H30.126V109.454Z" fill="#010101"/>
<path d="M43.6387 109.454L46.1618 98.9211H52.6965L52.3149 100.516H47.6743L47.0452 103.16H51.1599L50.7784 104.724H46.6877L45.928 107.855H50.9124L50.5343 109.45H43.6387V109.454Z" fill="#010101"/>
<path d="M57.5231 109.454H55.7046C55.3884 107.824 55.1065 106.13 54.8625 104.376C54.6184 102.623 54.4087 100.805 54.2334 98.9177H56.2547C56.3681 100.41 56.4918 101.864 56.6293 103.28C56.7668 104.7 56.9215 106.002 57.0968 107.185C57.4715 106.618 57.86 105.999 58.2621 105.332C58.6643 104.665 59.0665 103.971 59.4721 103.259C59.8778 102.544 60.2731 101.819 60.6581 101.087C61.0431 100.351 61.4075 99.6293 61.7547 98.9212H63.8378C62.8821 100.716 61.8921 102.496 60.8609 104.263C59.8365 106.03 58.7193 107.759 57.5231 109.454Z" fill="#010101"/>
<path d="M63.2637 109.454L65.7868 98.9211H72.3215L71.9399 100.516H67.2993L66.6702 103.16H70.7849L70.4034 104.724H66.3127L65.553 107.855H70.5374L70.1593 109.45H63.2637V109.454Z" fill="#010101"/>
<path d="M77.8999 98.811C79.1546 98.811 80.1102 99.0723 80.7668 99.5948C81.4199 100.117 81.7465 100.808 81.7465 101.671C81.7465 102.056 81.6949 102.424 81.5884 102.771C81.4818 103.122 81.3134 103.445 81.0865 103.744C80.8596 104.043 80.564 104.308 80.2065 104.541C79.8455 104.775 79.4124 104.968 78.9071 105.119C79.0377 105.353 79.1787 105.631 79.3334 105.961C79.4846 106.291 79.6427 106.645 79.8043 107.027C79.9659 107.405 80.124 107.804 80.2752 108.219C80.4265 108.635 80.564 109.044 80.6843 109.45H78.6699C78.5496 109.086 78.4224 108.714 78.2884 108.34C78.1543 107.965 78.0168 107.604 77.8759 107.254C77.7349 106.903 77.5871 106.576 77.4427 106.267C77.2949 105.958 77.1505 105.683 77.0096 105.439C76.9168 105.449 76.8068 105.452 76.6762 105.452C76.5455 105.452 76.4287 105.452 76.3255 105.452H75.4421L74.4865 109.45H72.5684L75.0468 99.0688C75.5315 98.9657 76.0265 98.9004 76.5284 98.8626C77.0268 98.8317 77.484 98.811 77.8999 98.811ZM79.8009 101.884C79.8009 101.327 79.598 100.946 79.1924 100.736C78.7868 100.53 78.2437 100.423 77.5665 100.423C77.4255 100.423 77.2709 100.427 77.1093 100.437C76.9477 100.447 76.7862 100.461 76.6246 100.482L75.803 103.916H76.6555C77.1127 103.916 77.5321 103.878 77.9171 103.802C78.3021 103.727 78.6321 103.606 78.914 103.445C79.1924 103.283 79.409 103.074 79.5671 102.812C79.7218 102.558 79.8009 102.249 79.8009 101.884Z" fill="#010101"/>
<path d="M86.9131 103.572C87.5422 102.812 88.1506 102.049 88.7453 101.283C89.3366 100.52 89.8934 99.729 90.4091 98.9177H92.5678C92.1725 99.4746 91.7772 100.018 91.3819 100.544C90.9866 101.073 90.5844 101.596 90.1719 102.118C89.7628 102.641 89.3366 103.16 88.9034 103.675C88.4669 104.191 88.0166 104.72 87.5491 105.256L86.5453 109.45H84.6306L85.6344 105.256C85.2184 104.191 84.8403 103.136 84.5034 102.087C84.1631 101.039 83.8469 99.9799 83.5547 98.9177H85.5931C85.765 99.698 85.9644 100.478 86.1844 101.259C86.4078 102.039 86.6484 102.809 86.9131 103.572Z" fill="#010101"/>
<path d="M102.052 102.96C102.052 103.902 101.901 104.779 101.595 105.59C101.292 106.401 100.838 107.099 100.24 107.687C99.6421 108.274 98.8962 108.735 97.999 109.069C97.1018 109.402 96.0603 109.57 94.8743 109.57C94.4481 109.57 93.9737 109.546 93.4443 109.502C92.9184 109.457 92.4303 109.381 91.9834 109.282L94.4309 99.0826C94.9259 98.9726 95.4278 98.897 95.9365 98.8626C96.4418 98.8282 96.9093 98.811 97.3356 98.811C98.1056 98.811 98.7862 98.9107 99.374 99.1067C99.9618 99.3026 100.453 99.581 100.849 99.942C101.244 100.303 101.543 100.736 101.746 101.248C101.952 101.764 102.052 102.334 102.052 102.96ZM94.2418 107.886C94.3518 107.907 94.4825 107.92 94.6303 107.924C94.7781 107.931 95.0084 107.931 95.3212 107.931C96.05 107.931 96.71 107.814 97.2978 107.58C97.8856 107.346 98.384 107.016 98.7931 106.583C99.2021 106.154 99.5184 105.638 99.7418 105.033C99.9653 104.431 100.075 103.758 100.075 103.019C100.075 102.218 99.8484 101.585 99.3912 101.118C98.934 100.65 98.1915 100.42 97.1568 100.42C96.8921 100.42 96.6825 100.423 96.5278 100.434C96.3696 100.444 96.2012 100.458 96.019 100.478L94.2418 107.886Z" fill="#010101"/>
<path d="M110.078 109.454C110.054 109.027 110.023 108.601 109.985 108.182C109.948 107.762 109.906 107.353 109.865 106.958H105.568C105.348 107.357 105.121 107.759 104.895 108.171C104.668 108.581 104.434 109.007 104.197 109.454H102.145C102.763 108.378 103.355 107.367 103.918 106.415C104.482 105.463 105.029 104.555 105.561 103.692C106.094 102.83 106.62 102.008 107.143 101.221C107.665 100.437 108.191 99.6671 108.717 98.9177H110.498C110.824 100.427 111.103 102.077 111.336 103.864C111.57 105.652 111.794 107.515 112.007 109.45H110.078V109.454ZM109.188 100.925C108.8 101.523 108.373 102.197 107.902 102.94C107.431 103.686 106.933 104.517 106.404 105.439H109.704C109.649 104.717 109.576 103.981 109.487 103.225C109.401 102.472 109.301 101.706 109.188 100.925Z" fill="#010101"/>
<path d="M117.133 103.572C117.762 102.812 118.37 102.049 118.965 101.283C119.556 100.52 120.113 99.729 120.629 98.9177H122.788C122.392 99.4746 121.997 100.018 121.602 100.544C121.206 101.073 120.804 101.596 120.392 102.118C119.983 102.641 119.556 103.16 119.123 103.675C118.687 104.191 118.236 104.72 117.769 105.256L116.765 109.45H114.85L115.854 105.256C115.438 104.191 115.06 103.136 114.723 102.087C114.383 101.039 114.067 99.9799 113.774 98.9177H115.813C115.985 99.698 116.184 100.478 116.404 101.259C116.624 102.039 116.868 102.809 117.133 103.572Z" fill="#010101"/>
<path d="M129.58 109.574C129.064 109.574 128.518 109.55 127.947 109.505C127.373 109.46 126.864 109.385 126.421 109.285L128.868 99.086C129.326 98.9829 129.807 98.9142 130.312 98.8729C130.817 98.8317 131.33 98.811 131.849 98.811C132.275 98.811 132.708 98.842 133.148 98.9038C133.588 98.9657 133.987 99.086 134.341 99.2613C134.695 99.4367 134.987 99.6807 135.214 99.9901C135.441 100.299 135.558 100.698 135.558 101.183C135.558 101.719 135.407 102.228 135.111 102.702C134.812 103.18 134.307 103.565 133.598 103.857C134.045 104.039 134.389 104.304 134.633 104.648C134.877 104.992 134.997 105.394 134.997 105.848C134.997 107.034 134.533 107.951 133.605 108.598C132.674 109.251 131.333 109.574 129.58 109.574ZM129.415 104.696L128.631 107.934C128.772 107.955 128.961 107.972 129.195 107.986C129.429 108.003 129.687 108.01 129.972 108.01C130.309 108.01 130.656 107.986 131.02 107.934C131.385 107.883 131.715 107.786 132.01 107.645C132.306 107.504 132.55 107.302 132.749 107.037C132.949 106.772 133.045 106.435 133.045 106.019C133.045 105.634 132.897 105.318 132.605 105.071C132.313 104.823 131.825 104.699 131.147 104.699H129.415V104.696ZM129.772 103.221H131.233C131.55 103.221 131.852 103.19 132.148 103.129C132.44 103.067 132.698 102.97 132.914 102.833C133.134 102.695 133.306 102.527 133.44 102.324C133.571 102.121 133.64 101.874 133.64 101.578C133.64 101.111 133.464 100.791 133.117 100.619C132.77 100.447 132.299 100.361 131.711 100.361C131.477 100.361 131.244 100.368 131.013 100.385C130.78 100.399 130.594 100.416 130.45 100.437L129.772 103.221Z" fill="#010101"/>
<path d="M139.139 98.9177H141.054L138.531 109.45H136.616L139.139 98.9177Z" fill="#010101"/>
<path d="M151.466 98.9177L151.071 100.53H147.939L145.798 109.454H143.883L146.028 100.53H142.896L143.275 98.9177H151.466Z" fill="#010101"/>
<path d="M158.565 108.996C158.231 109.168 157.805 109.326 157.289 109.467C156.774 109.608 156.145 109.68 155.406 109.68C154.756 109.68 154.179 109.581 153.673 109.385C153.168 109.185 152.735 108.9 152.381 108.525C152.027 108.151 151.755 107.7 151.566 107.171C151.377 106.642 151.284 106.05 151.284 105.394C151.284 104.541 151.425 103.713 151.71 102.909C151.996 102.104 152.405 101.386 152.941 100.757C153.477 100.128 154.13 99.6258 154.904 99.2442C155.674 98.8626 156.544 98.6736 157.516 98.6736C158.156 98.6736 158.709 98.7458 159.18 98.8867C159.651 99.0277 160.064 99.1995 160.418 99.4023L159.689 100.939C159.366 100.746 159.019 100.599 158.647 100.489C158.276 100.382 157.86 100.33 157.393 100.33C156.753 100.33 156.183 100.471 155.674 100.757C155.169 101.042 154.735 101.413 154.374 101.874C154.014 102.335 153.742 102.86 153.553 103.448C153.364 104.036 153.271 104.634 153.271 105.243C153.271 106.185 153.477 106.882 153.886 107.333C154.295 107.783 154.897 108.01 155.688 108.01C156.296 108.01 156.812 107.941 157.238 107.804C157.664 107.666 158.029 107.529 158.331 107.384L158.565 108.996Z" fill="#010101"/>
<path d="M164.704 109.68C164.116 109.68 163.577 109.588 163.085 109.399C162.593 109.213 162.167 108.938 161.81 108.584C161.449 108.23 161.17 107.79 160.974 107.26C160.775 106.735 160.679 106.13 160.679 105.452C160.679 104.641 160.809 103.83 161.074 103.022C161.339 102.211 161.724 101.485 162.236 100.839C162.748 100.196 163.377 99.6739 164.13 99.2717C164.879 98.873 165.742 98.6702 166.715 98.6702C167.303 98.6702 167.846 98.763 168.341 98.952C168.836 99.1411 169.262 99.4127 169.616 99.7667C169.97 100.121 170.245 100.561 170.445 101.09C170.644 101.616 170.74 102.221 170.74 102.898C170.74 103.71 170.61 104.521 170.345 105.329C170.08 106.14 169.695 106.865 169.19 107.511C168.685 108.154 168.052 108.677 167.299 109.079C166.543 109.481 165.677 109.68 164.704 109.68ZM166.516 100.334C165.938 100.334 165.412 100.478 164.941 100.767C164.47 101.056 164.068 101.434 163.735 101.901C163.401 102.365 163.14 102.898 162.951 103.49C162.762 104.081 162.669 104.682 162.669 105.291C162.669 106.123 162.844 106.786 163.202 107.281C163.556 107.78 164.123 108.027 164.903 108.027C165.481 108.027 166.007 107.883 166.485 107.594C166.962 107.305 167.365 106.927 167.702 106.463C168.035 105.995 168.296 105.466 168.485 104.875C168.671 104.284 168.767 103.682 168.767 103.074C168.767 102.242 168.588 101.578 168.227 101.083C167.867 100.581 167.296 100.334 166.516 100.334Z" fill="#010101"/>
<path d="M174.432 98.9177H176.347L173.824 109.45H171.909L174.432 98.9177Z" fill="#010101"/>
<path d="M183.807 109.454C183.614 108.866 183.394 108.233 183.147 107.553C182.899 106.876 182.634 106.195 182.359 105.514C182.081 104.837 181.792 104.174 181.497 103.531C181.197 102.888 180.898 102.297 180.592 101.761L178.75 109.45H176.866L179.389 98.9177H180.929C181.211 99.3749 181.507 99.8974 181.816 100.485C182.126 101.073 182.425 101.688 182.717 102.331C183.009 102.974 183.294 103.62 183.566 104.27C183.837 104.916 184.078 105.531 184.277 106.109L185.969 98.9177H187.87L185.347 109.45H183.807V109.454Z" fill="#010101"/>
<path d="M201.361 100.121C201.392 100.667 201.43 101.241 201.475 101.84C201.519 102.438 201.574 103.032 201.633 103.627C201.691 104.218 201.753 104.799 201.815 105.366C201.877 105.934 201.935 106.46 201.997 106.948C202.282 106.411 202.575 105.82 202.881 105.177C203.187 104.535 203.489 103.868 203.795 103.18C204.101 102.493 204.4 101.785 204.692 101.059C204.988 100.334 205.27 99.6224 205.545 98.9246H207.583C206.782 100.88 205.971 102.73 205.156 104.473C204.338 106.216 203.475 107.876 202.561 109.457H200.701C200.622 108.911 200.543 108.371 200.467 107.845C200.392 107.319 200.32 106.783 200.258 106.243C200.192 105.7 200.131 105.15 200.076 104.586C200.021 104.022 199.969 103.438 199.917 102.83C199.285 103.995 198.659 105.122 198.044 106.212C197.425 107.302 196.772 108.385 196.078 109.457H194.215C194.136 108.577 194.077 107.7 194.043 106.827C194.008 105.958 193.991 105.064 193.991 104.153C193.991 102.493 194.05 100.75 194.163 98.9246H196.078C196.016 99.8974 195.964 100.863 195.927 101.822C195.885 102.778 195.865 103.751 195.865 104.734C195.865 105.098 195.865 105.466 195.865 105.837C195.865 106.209 195.875 106.58 195.896 106.955C196.212 106.439 196.535 105.892 196.872 105.322C197.205 104.748 197.539 104.17 197.862 103.582C198.188 102.995 198.505 102.407 198.814 101.819C199.123 101.231 199.416 100.667 199.691 100.131H201.361V100.121Z" fill="#010101"/>
<path d="M213.908 109.454C213.884 109.027 213.853 108.601 213.816 108.182C213.778 107.762 213.736 107.353 213.695 106.958H209.398C209.178 107.357 208.951 107.759 208.725 108.171C208.498 108.581 208.264 109.007 208.027 109.454H205.975C206.593 108.378 207.185 107.367 207.748 106.415C208.312 105.463 208.859 104.555 209.391 103.692C209.924 102.83 210.45 102.008 210.973 101.221C211.495 100.437 212.021 99.6671 212.547 98.9177H214.328C214.654 100.427 214.933 102.077 215.166 103.864C215.4 105.652 215.624 107.515 215.837 109.45H213.908V109.454ZM213.018 100.925C212.63 101.523 212.203 102.197 211.732 102.94C211.261 103.686 210.763 104.517 210.234 105.439H213.534C213.479 104.717 213.406 103.981 213.317 103.225C213.231 102.472 213.131 101.706 213.018 100.925Z" fill="#010101"/>
<path d="M224.592 107.841L224.214 109.454H217.631L220.154 98.9211H222.069L219.931 107.845H224.592V107.841Z" fill="#010101"/>
<path d="M233.348 107.841L232.97 109.454H226.387L228.91 98.9211H230.825L228.686 107.845H233.348V107.841Z" fill="#010101"/>
<path d="M235.142 109.454L237.665 98.9211H244.199L243.818 100.516H239.177L238.548 103.16H242.663L242.281 104.724H238.191L237.431 107.855H242.415L242.037 109.45H235.142V109.454Z" fill="#010101"/>
<path d="M254.34 98.9177L253.945 100.53H250.813L248.672 109.454H246.757L248.902 100.53H245.771L246.149 98.9177H254.34Z" fill="#010101"/>
<path d="M50.9157 1.3648C50.8813 1.35449 50.8435 1.34418 50.8057 1.3373C47.5744 0.536366 44.3397 0.151367 41.1532 0.151367H41.1394C23.1957 0.158242 6.87787 12.327 2.36443 30.5286C-2.95338 51.9682 10.116 73.6554 31.5557 78.9732C34.7904 79.7742 38.0251 80.1592 41.2116 80.1592C59.1588 80.1592 75.4835 67.987 79.9969 49.782C85.3044 28.387 72.2969 6.73074 50.9157 1.3648ZM76.8585 49.0051C72.7816 65.4432 58.1241 76.9245 41.2116 76.9245C38.2382 76.9245 35.251 76.5567 32.3326 75.8348C22.8038 73.4732 14.7635 67.5401 9.69662 59.1286C4.62974 50.717 3.1413 40.8376 5.50287 31.3089C9.57974 14.8742 24.2544 3.39637 41.1601 3.38949C44.1301 3.38949 47.1138 3.7573 50.0529 4.48605L50.0907 4.49637L50.1285 4.50668C69.7326 9.4223 81.726 29.3839 76.8585 49.0051Z" fill="url(#paint0_linear_79_976)"/>
<path d="M49.5166 34.798C48.3684 39.3939 41.3628 37.0358 39.0872 36.4755L41.0981 28.4352C43.3359 28.9852 50.6647 30.0439 49.4822 34.798H49.5166ZM48.2653 47.7917C47.0244 52.7967 38.5956 50.088 35.8628 49.4108L38.08 40.5317C40.8128 41.2192 49.5647 42.5633 48.2653 47.7917ZM57.4537 34.8702C58.1756 29.9786 54.4562 27.3489 49.4134 25.6027L51.0669 18.9752L46.99 17.9645L45.3813 24.4202C44.3259 24.1555 43.2328 23.9046 42.1534 23.6605L43.7622 17.1361L39.73 16.1255L38.0766 22.753L35.5053 22.1789L29.9366 20.7902L28.8675 25.0974C28.8675 25.0974 31.6519 25.778 31.7963 25.833C32.6969 26.0152 33.7694 26.9846 33.68 28.1292L29.1528 46.2758C28.9053 47.0492 28.0803 47.4755 27.3034 47.228C27.2175 47.2039 24.3644 46.5061 24.3644 46.5061L22.3672 51.1021L27.6163 52.4014L30.4866 53.1474L28.8228 59.8436L32.855 60.8542L34.5084 54.2267C35.5947 54.5258 36.6637 54.8008 37.7122 55.0552L36.0828 61.7067L40.115 62.7071L41.7787 56.0245C48.6709 57.3239 53.8272 56.8049 56.01 50.5795C57.7666 45.5711 55.9172 42.6905 52.3009 40.8067C54.9375 40.188 56.89 38.5002 57.4537 34.8702Z" fill="#010101"/>
<path d="M116.823 28.0056C119.326 28.0056 121.488 28.449 123.313 29.3359C125.138 30.2228 126.647 31.419 127.847 32.9315C129.047 34.444 129.93 36.2143 130.504 38.2493C131.078 40.2809 131.364 42.4706 131.364 44.8149C131.364 48.4106 130.7 51.8137 129.37 55.0174C128.04 58.2246 126.228 61.0125 123.935 63.3843C121.642 65.7562 118.93 67.6331 115.806 69.0115C112.677 70.3934 109.288 71.0843 105.641 71.0843C105.173 71.0843 104.352 71.0706 103.18 71.0465C102.007 71.019 100.663 70.9021 99.1543 70.6959C97.6418 70.4862 96.0399 70.1734 94.3452 69.7574C92.6505 69.3415 91.0486 68.7674 89.5361 68.0387L103.063 11.1996L115.183 9.32275L110.336 29.494C111.378 29.0231 112.42 28.6621 113.465 28.3974C114.503 28.1362 115.623 28.0056 116.823 28.0056ZM106.658 61.4696C108.484 61.4696 110.202 61.0296 111.818 60.1393C113.434 59.2525 114.829 58.0665 116.001 56.5815C117.174 55.0965 118.098 53.4156 118.776 51.5387C119.453 49.6618 119.793 47.7059 119.793 45.6743C119.793 43.1718 119.374 41.2193 118.542 39.8099C117.706 38.404 116.17 37.6993 113.929 37.6993C113.196 37.6993 112.248 37.8299 111.076 38.0912C109.903 38.3524 108.848 38.899 107.91 39.7343L102.75 61.1568C103.063 61.2084 103.334 61.2599 103.571 61.3149C103.805 61.3665 104.053 61.4078 104.314 61.4318C104.575 61.4593 104.888 61.4696 105.252 61.4696C105.617 61.4696 106.084 61.4696 106.658 61.4696Z" fill="#010101"/>
<path d="M149.971 70.7715C146.268 70.7715 143.364 70.2868 141.253 69.3243C139.142 68.3618 137.63 67.0453 136.719 65.3781C135.808 63.7109 135.365 61.7962 135.389 59.6306C135.416 57.4684 135.715 55.1618 136.289 52.7109L146.22 11.1962L158.337 9.31934L147.468 54.354C147.258 55.2925 147.141 56.1518 147.117 56.9356C147.09 57.7193 147.234 58.4103 147.547 59.0084C147.86 59.61 148.393 60.0912 149.149 60.4556C149.905 60.82 150.961 61.0537 152.315 61.1603L149.971 70.7715Z" fill="#010101"/>
<path d="M167.564 69.9912H155.993L165.766 28.8684H177.416L167.564 69.9912Z" fill="#010101"/>
<path d="M186.013 30.7418C186.9 30.4806 187.876 30.1815 188.945 29.8412C190.014 29.5043 191.214 29.1915 192.541 28.9028C193.871 28.6175 195.356 28.3837 196.999 28.1981C198.642 28.0159 200.505 27.9231 202.588 27.9231C208.738 27.9231 212.959 29.6968 215.256 33.2409C217.548 36.785 217.94 41.6318 216.428 47.7815L211.11 69.9843H199.46L204.62 48.249C204.933 46.8947 205.18 45.5781 205.362 44.3028C205.545 43.024 205.531 41.9068 205.325 40.9409C205.115 39.9784 204.634 39.1947 203.877 38.5965C203.121 37.9984 201.963 37.6959 200.399 37.6959C198.886 37.6959 197.35 37.854 195.786 38.1668L188.202 69.9878H176.553L186.013 30.7418Z" fill="#010101"/>
<path d="M235.658 43.7218C238.786 41.2193 241.729 38.6653 244.492 36.0596C247.253 33.454 249.624 31.0546 251.608 28.8684H264.743C261.824 32.0996 258.789 35.2656 255.633 38.3662C252.478 41.4668 248.868 44.7634 244.805 48.2559C245.898 49.6103 247.005 51.1743 248.129 52.9481C249.25 54.7218 250.319 56.5712 251.333 58.4996C252.35 60.4281 253.289 62.384 254.148 64.364C255.008 66.344 255.726 68.2209 256.297 69.9946H243.32C242.849 68.6403 242.265 67.1553 241.56 65.5396C240.855 63.924 240.075 62.3221 239.216 60.7306C238.356 59.1424 237.456 57.5921 236.517 56.0796C235.579 54.5671 234.64 53.2128 233.702 52.0131L229.323 69.9946H217.752L231.825 11.1996L243.942 9.32275L235.658 43.7218Z" fill="#010101"/>
<path d="M181.517 16.4487C181.517 17.5315 181.311 18.5387 180.898 19.4771C180.486 20.4155 179.922 21.2337 179.214 21.9315C178.503 22.6293 177.671 23.1827 176.715 23.5952C175.763 24.0077 174.745 24.214 173.663 24.214C172.58 24.214 171.562 24.0077 170.61 23.5952C169.658 23.1827 168.833 22.6293 168.135 21.9315C167.437 21.2337 166.884 20.4155 166.471 19.4771C166.059 18.5387 165.853 17.528 165.853 16.4487C165.853 15.3968 166.059 14.393 166.471 13.4409C166.884 12.4887 167.437 11.6637 168.135 10.9658C168.833 10.268 169.658 9.7146 170.61 9.3021C171.562 8.8896 172.58 8.68335 173.663 8.68335C174.745 8.68335 175.759 8.8896 176.715 9.3021C177.667 9.7146 178.499 10.268 179.214 10.9658C179.926 11.6637 180.486 12.4887 180.898 13.4409C181.311 14.393 181.517 15.3934 181.517 16.4487Z" fill="#010101"/>
</g>
<defs>
<linearGradient id="paint0_linear_79_976" x1="16.5104" y1="71.6462" x2="65.8501" y2="8.66413" gradientUnits="userSpaceOnUse">
<stop stop-color="#F9BC18"/>
<stop offset="1" stop-color="#E75824"/>
</linearGradient>
<clipPath id="clip0_79_976">
<rect width="264" height="110" fill="white" transform="translate(0.958984)"/>
</clipPath>
</defs>
</svg>
