<svg width="265" height="100" viewBox="0 0 265 100" fill="none" xmlns="http://www.w3.org/2000/svg">
<g style="mix-blend-mode:luminosity" clip-path="url(#clip0_79_31)">
<mask id="mask0_79_31" style="mask-type:luminance" maskUnits="userSpaceOnUse" x="0" y="0" width="265" height="100">
<path d="M264.13 0H0V100H264.13V0Z" fill="white"/>
</mask>
<g mask="url(#mask0_79_31)">
<path fill-rule="evenodd" clip-rule="evenodd" d="M14.1649 0L0 10.5637V98.434H14.1649V88.3505C21.6074 98.434 34.812 102.515 48.0165 98.434C61.221 94.3525 72.505 82.1082 72.505 64.8222C72.505 45.3757 59.3668 33.4735 48.4968 30.2505C33.6675 25.8535 22.0876 31.2108 14.1649 40.574V0ZM36.2523 87.3905C49.457 87.3905 58.34 77.179 58.34 64.5827C58.34 51.9862 50.1773 41.2948 36.2523 41.2948C23.0478 41.2948 13.9246 51.9862 13.9246 64.5827C13.9246 77.179 23.528 87.3905 36.2523 87.3905Z" fill="black"/>
<path fill-rule="evenodd" clip-rule="evenodd" d="M250.09 0H264.13V87.9428L250.09 98.298V88.3505C242.711 98.434 228.942 102.515 215.852 98.434C202.763 94.3525 192.256 82.1082 192.256 64.8222C192.256 43.818 205.28 33.4735 216.056 30.2505C230.756 25.8535 243.615 31.318 250.09 40.574V0ZM228.237 87.3905C215.032 87.3905 206.149 77.179 206.149 64.5827C206.149 51.9862 214.312 41.2948 228.237 41.2948C241.441 41.2948 250.565 51.9862 250.565 64.5827C250.565 77.179 240.961 87.3905 228.237 87.3905Z" fill="black"/>
<path fill-rule="evenodd" clip-rule="evenodd" d="M116.645 99.9999C138.098 99.9999 152.582 84.2267 152.582 64.5079C152.582 44.7894 137.88 28.8042 116.645 28.8042C95.4088 28.8042 80.707 44.7894 80.707 64.5079C80.707 84.2267 95.191 99.9999 116.645 99.9999ZM116.577 87.2282C129.96 87.2282 138.995 77.1139 138.995 64.4699C138.995 51.8259 129.824 41.5759 116.577 41.5759C103.329 41.5759 94.158 51.8259 94.158 64.4699C94.158 77.1139 103.194 87.2282 116.577 87.2282Z" fill="black"/>
<path d="M179.347 0H165.217V98.3695H179.347V0Z" fill="black"/>
</g>
</g>
<defs>
<clipPath id="clip0_79_31">
<rect width="265" height="100" fill="white"/>
</clipPath>
</defs>
</svg>
