<svg width="463" height="80" viewBox="0 0 463 80" fill="none" xmlns="http://www.w3.org/2000/svg">
<g style="mix-blend-mode:luminosity" clip-path="url(#clip0_79_49)">
<path d="M134.876 19.2159C135.884 19.7252 136.474 20.5043 136.633 21.5529C136.793 22.6116 136.533 23.5704 135.844 24.4393C135.335 25.1285 134.686 25.518 133.887 25.6079C133.088 25.6978 132.289 25.538 131.51 25.1285C130.181 24.4393 128.783 23.89 127.315 23.4805C125.847 23.0711 124.289 22.8613 122.631 22.8613C120.014 22.8613 117.667 23.2908 115.58 24.1397C113.492 24.9887 111.694 26.2071 110.176 27.7852C108.658 29.3732 107.5 31.2408 106.701 33.3981C105.902 35.5554 105.492 37.9425 105.492 40.5592C105.492 43.4456 105.932 46.0124 106.801 48.2296C107.67 50.4568 108.878 52.3345 110.416 53.8725C111.954 55.4106 113.762 56.5592 115.849 57.3182C117.937 58.0773 120.194 58.4568 122.631 58.4568C124.172 58.4607 125.708 58.2762 127.205 57.9075C128.693 57.538 130.111 56.9887 131.44 56.2596C132.269 55.8501 133.078 55.7003 133.887 55.8101C134.279 55.8654 134.655 56.0014 134.992 56.2094C135.329 56.4174 135.619 56.6929 135.844 57.0186C136.623 57.9774 136.913 58.9562 136.703 59.945C136.493 60.9337 135.914 61.6728 134.945 62.1822C133.797 62.8214 132.538 63.3807 131.16 63.8301C129.782 64.2895 128.384 64.6591 126.965 64.9287C125.537 65.2058 124.086 65.343 122.631 65.3382C119.325 65.3382 116.209 64.7889 113.273 63.6903C110.336 62.5917 107.719 60.9837 105.422 58.8763C103.125 56.7689 101.327 54.1722 100.019 51.096C98.7107 48.0199 98.0615 44.5142 98.0615 40.5692C98.0615 37.0336 98.6708 33.7677 99.8892 30.7614C101.108 27.7552 102.826 25.1684 105.053 22.9812C107.28 20.8039 109.887 19.106 112.863 17.8875C115.849 16.6691 119.105 16.0598 122.641 16.0598C124.848 16.0598 126.985 16.3395 129.073 16.8888C131.101 17.4045 133.053 18.187 134.876 19.2159ZM179.35 46.5417C179.35 50.2171 178.531 53.4631 176.903 56.2795C175.275 59.106 173.088 61.3132 170.331 62.9212C167.575 64.5292 164.479 65.3282 161.043 65.3282C157.647 65.3282 154.561 64.5292 151.784 62.9212C149.008 61.3132 146.801 59.106 145.173 56.2795C143.545 53.4531 142.726 50.2071 142.726 46.5417C142.726 42.8264 143.545 39.5505 145.173 36.734C146.801 33.9075 149.008 31.6903 151.784 30.0623C154.561 28.4343 157.647 27.6154 161.043 27.6154C164.488 27.6154 167.585 28.4343 170.331 30.0623C173.088 31.6903 175.275 33.9175 176.903 36.734C178.531 39.5505 179.35 42.8164 179.35 46.5417ZM172.469 46.5417C172.469 44.0149 171.959 41.8276 170.95 39.9699C169.942 38.1122 168.573 36.6441 166.856 35.5654C165.138 34.4868 163.2 33.9475 161.043 33.9475C158.935 33.9475 157.018 34.4868 155.3 35.5654C153.582 36.6441 152.204 38.1122 151.165 39.9699C150.136 41.8276 149.617 44.0249 149.617 46.5417C149.617 48.9787 150.136 51.126 151.165 53.0136C152.194 54.8913 153.572 56.3594 155.3 57.4181C157.018 58.4768 158.935 59.0061 161.043 59.0061C163.2 59.0061 165.138 58.4768 166.856 57.4181C168.573 56.3594 169.942 54.8913 170.95 53.0136C171.959 51.126 172.469 48.9687 172.469 46.5417ZM189.118 23.6204C187.789 23.6204 186.821 23.3807 186.231 22.9013C185.632 22.4219 185.332 21.6029 185.332 20.4543V19.3557C185.332 18.2071 185.652 17.4081 186.291 16.9487C186.93 16.4893 187.899 16.2596 189.178 16.2596C190.556 16.2596 191.545 16.4993 192.134 16.9787C192.733 17.4581 193.033 18.2571 193.033 19.3557V20.4543C193.033 21.6528 192.723 22.4718 192.104 22.9312C191.495 23.3907 190.496 23.6204 189.118 23.6204ZM192.633 61.1335C192.633 62.1422 192.314 62.9812 191.675 63.6503C191.035 64.3195 190.206 64.6491 189.198 64.6491C188.239 64.6491 187.42 64.3195 186.751 63.6503C186.082 62.9812 185.752 62.1522 185.752 61.1335V31.6703C185.752 30.6616 186.082 29.8226 186.751 29.1534C187.42 28.4843 188.229 28.1547 189.198 28.1547C190.206 28.1547 191.035 28.4843 191.675 29.1534C192.314 29.8226 192.633 30.6616 192.633 31.6703V61.1335ZM221.198 27.6054C224.454 27.6054 226.98 28.2845 228.768 29.6328C230.556 30.9912 231.804 32.7989 232.523 35.0661C233.233 37.3332 233.592 39.8701 233.592 42.6765V61.1235C233.592 62.1322 233.263 62.9712 232.593 63.6403C231.924 64.3095 231.115 64.6391 230.146 64.6391C229.138 64.6391 228.309 64.3095 227.67 63.6403C227.03 62.9712 226.711 62.1422 226.711 61.1235V42.7465C226.711 41.0985 226.481 39.6104 226.022 38.302C225.562 36.9936 224.773 35.935 223.645 35.136C222.516 34.337 220.948 33.9275 218.93 33.9275C217.053 33.9275 215.395 34.327 213.977 35.136C212.558 35.935 211.44 36.9936 210.641 38.302C209.842 39.6104 209.432 41.0885 209.432 42.7465V61.1235C209.432 62.1322 209.103 62.9712 208.434 63.6403C207.764 64.3095 206.955 64.6391 205.987 64.6391C204.978 64.6391 204.149 64.3095 203.51 63.6403C202.871 62.9712 202.551 62.1422 202.551 61.1235V31.95C202.551 30.9412 202.871 30.1023 203.51 29.4331C204.149 28.7639 204.978 28.4343 205.987 28.4343C206.945 28.4343 207.764 28.7639 208.434 29.4331C209.103 30.1023 209.432 30.9412 209.432 31.95V35.8051L208.194 36.4943C208.513 35.4855 209.073 34.4668 209.882 33.4281C210.681 32.3994 211.66 31.4306 212.808 30.5417C213.974 29.633 215.275 28.9118 216.663 28.4044C218.082 27.875 219.59 27.6054 221.198 27.6054Z" fill="#BDBCBC"/>
<path d="M278.366 55.8002C277.567 55.6904 276.748 55.8302 275.919 56.2497C274.589 56.9883 273.164 57.5426 271.685 57.8976C270.188 58.2663 268.652 58.4508 267.11 58.4469C264.673 58.4469 262.416 58.0674 260.329 57.3084C258.241 56.5493 256.424 55.4008 254.896 53.8627C253.357 52.3246 252.149 50.4469 251.28 48.2197C250.411 45.9925 249.972 43.4357 249.972 40.5493C249.972 37.9326 250.371 35.5456 251.18 33.3883C251.979 31.231 253.138 29.3633 254.656 27.7753C256.174 26.1873 257.972 24.9788 260.059 24.1298C262.147 23.2809 264.494 22.8514 267.11 22.8514C268.758 22.8514 270.326 23.0612 271.794 23.4707C273.263 23.8802 274.661 24.4395 275.989 25.1186C276.768 25.5281 277.557 25.6979 278.366 25.598C279.165 25.5081 279.824 25.1186 280.324 24.4295C281.013 23.5605 281.273 22.5918 281.113 21.5431C280.953 20.4844 280.364 19.7054 279.355 19.206C277.567 18.1973 275.63 17.4182 273.542 16.8689C271.443 16.3166 269.281 16.038 267.11 16.0399C263.575 16.0399 260.319 16.6492 257.333 17.8677C254.346 19.0861 251.75 20.784 249.522 22.9613C247.295 25.1386 245.577 27.7353 244.359 30.7416C243.14 33.7478 242.531 37.0137 242.531 40.5493C242.531 44.4944 243.18 48.01 244.489 51.0762C245.797 54.1523 247.595 56.7391 249.892 58.8564C252.189 60.9638 254.806 62.5718 257.742 63.6704C260.678 64.769 263.794 65.3184 267.1 65.3184C268.555 65.3181 270.006 65.181 271.435 64.9089C272.853 64.6292 274.261 64.2697 275.63 63.8102C277.008 63.3508 278.266 62.8015 279.415 62.1623C280.374 61.6629 280.963 60.9139 281.173 59.9251C281.382 58.9363 281.093 57.9675 280.314 56.9988C279.824 56.3096 279.165 55.9101 278.366 55.8002ZM316.059 30.0524C313.303 28.4245 310.206 27.6055 306.771 27.6055C303.375 27.6055 300.289 28.4245 297.512 30.0524C294.736 31.6804 292.529 33.9076 290.901 36.7241C289.273 39.5506 288.454 42.8165 288.454 46.5318C288.454 50.2072 289.263 53.4532 290.901 56.2697C292.529 59.0961 294.736 61.3034 297.512 62.9114C300.289 64.5194 303.375 65.3184 306.771 65.3184C310.216 65.3184 313.313 64.5194 316.059 62.9114C318.816 61.3034 321.003 59.0861 322.631 56.2697C324.259 53.4432 325.078 50.1973 325.078 46.5318C325.078 42.8165 324.259 39.5406 322.631 36.7241C321.059 33.9658 318.793 31.666 316.059 30.0524ZM316.678 53.0037C315.67 54.8814 314.301 56.3496 312.583 57.4082C310.866 58.4669 308.928 58.9863 306.771 58.9863C304.663 58.9863 302.746 58.4569 301.028 57.4082C299.31 56.3496 297.932 54.8814 296.903 53.0037C295.874 51.1261 295.355 48.9688 295.355 46.5318C295.355 44.005 295.874 41.8177 296.903 39.96C297.932 38.1024 299.31 36.6342 301.028 35.5556C302.746 34.4769 304.663 33.9376 306.771 33.9376C308.928 33.9376 310.866 34.4769 312.583 35.5556C314.301 36.6342 315.67 38.1024 316.678 39.96C317.687 41.8177 318.196 44.015 318.196 46.5318C318.186 48.9688 317.687 51.1261 316.678 53.0037ZM353.223 28.5743C352.354 27.9351 351.315 27.6055 350.127 27.6055C348.732 27.6012 347.348 27.8342 346.032 28.2946C344.723 28.7541 343.545 29.3933 342.486 30.2222C341.427 31.0512 340.529 32.01 339.769 33.1086C339.391 33.6604 339.057 34.2416 338.771 34.8464V31.9401C338.771 30.9313 338.441 30.0924 337.772 29.4232C337.103 28.7541 336.294 28.4245 335.325 28.4245C334.316 28.4245 333.487 28.7541 332.848 29.4232C332.209 30.0924 331.879 30.9313 331.879 31.9401V61.1236C331.879 62.1323 332.199 62.9713 332.848 63.6405C333.487 64.3096 334.316 64.6392 335.325 64.6392C336.294 64.6392 337.103 64.3096 337.772 63.6405C338.441 62.9713 338.771 62.1423 338.771 61.1236V44.6142C338.771 42.9663 339.01 41.4682 339.49 40.1398C339.969 38.8115 340.628 37.6529 341.447 36.6642C342.276 35.6754 343.195 34.9363 344.204 34.427C345.213 33.9276 346.201 33.6679 347.16 33.6679C348.029 33.6679 348.788 33.8177 349.427 34.1174C350.052 34.4133 350.734 34.5668 351.425 34.5668C352.204 34.5668 352.913 34.2772 353.562 33.7079C354.201 33.1386 354.531 32.2297 354.531 30.9913C354.531 30.0225 354.092 29.2135 353.223 28.5743ZM386.261 29.6429C384.474 28.2946 381.947 27.6155 378.691 27.6155C377.083 27.6155 375.565 27.8851 374.146 28.4045C372.759 28.9142 371.459 29.6351 370.291 30.5418C369.143 31.4407 368.164 32.3995 367.365 33.4282L366.916 34.0474V31.9501C366.916 30.9413 366.586 30.1024 365.917 29.4332C365.248 28.764 364.439 28.4345 363.47 28.4345C362.461 28.4345 361.632 28.764 360.993 29.4332C360.354 30.1024 360.024 30.9413 360.024 31.9501V61.1336C360.024 62.1423 360.344 62.9813 360.993 63.6504C361.632 64.3196 362.461 64.6492 363.47 64.6492C364.439 64.6492 365.248 64.3196 365.917 63.6504C366.586 62.9813 366.916 62.1523 366.916 61.1336V42.7566C366.916 41.1086 367.315 39.6205 368.124 38.3121C368.923 37.0037 370.042 35.9451 371.46 35.1461C372.878 34.3471 374.536 33.9376 376.414 33.9376C378.431 33.9376 379.999 34.3371 381.128 35.1461C382.256 35.9451 383.045 37.0037 383.505 38.3121C383.964 39.6205 384.194 41.0986 384.194 42.7566V61.1336C384.194 62.1423 384.514 62.9813 385.163 63.6504C385.802 64.3196 386.631 64.6492 387.64 64.6492C388.608 64.6492 389.417 64.3196 390.087 63.6504C390.756 62.9813 391.085 62.1523 391.085 61.1336V42.6866C391.085 39.8901 390.726 37.3533 390.017 35.0762C389.308 32.809 388.049 30.9913 386.261 29.6429ZM428.668 32.6692C427.11 31.0911 425.303 29.8427 423.265 28.9538C421.262 28.0661 419.094 27.6102 416.903 27.6155C413.967 27.6155 411.18 28.3845 408.544 29.9226C405.907 31.4607 403.769 33.6679 402.141 36.5343C400.514 39.4008 399.695 42.8564 399.695 46.8914C399.695 50.4669 400.464 53.6529 402.002 56.4195C403.54 59.196 405.717 61.3733 408.544 62.9613C411.37 64.5393 414.656 65.3383 418.421 65.3383C420.808 65.3383 423.085 64.8789 425.273 63.9601C427.45 63.0412 429.158 61.9925 430.396 60.794C431.405 59.965 431.914 59.0462 431.914 58.0375C431.914 57.2584 431.635 56.5793 431.085 56.01C430.536 55.4407 429.847 55.1511 429.018 55.1511C428.379 55.1511 427.69 55.3608 426.951 55.7703C426.401 56.2297 425.752 56.7091 425.023 57.2185C424.284 57.7278 423.375 58.1473 422.266 58.4869C421.168 58.8265 419.789 59.0062 418.142 59.0062C415.934 59.0062 413.947 58.4869 412.149 57.4582C410.361 56.4295 408.933 54.9713 407.884 53.0836C407.105 51.6954 406.616 50.1373 406.416 48.3995H430.326C431.213 48.4113 432.072 48.0906 432.733 47.5006C433.067 47.2225 433.338 46.8765 433.527 46.4855C433.717 46.0946 433.82 45.6677 433.832 45.2335C433.782 42.7066 433.303 40.3795 432.384 38.2422C431.465 36.1149 430.226 34.2472 428.668 32.6692ZM409.532 36.764C410.501 35.7953 411.62 35.0961 412.908 34.6667C414.196 34.2272 415.525 34.0175 416.903 34.0175C418.461 34.0175 419.939 34.3471 421.348 35.0162C422.731 35.6732 423.944 36.6404 424.893 37.8427C425.862 39.0612 426.411 40.4694 426.541 42.0774V42.5568H406.666C406.806 41.8577 406.975 41.1885 407.195 40.5993C407.784 39.0013 408.563 37.7228 409.532 36.764ZM460.738 28.5743C459.869 27.9351 458.831 27.6055 457.642 27.6055C456.248 27.6012 454.863 27.8342 453.547 28.2946C452.239 28.7541 451.06 29.3933 450.002 30.2222C448.943 31.0512 448.044 32.01 447.285 33.1086C446.907 33.6604 446.573 34.2416 446.286 34.8464V31.9401C446.286 30.9313 445.957 30.0924 445.288 29.4232C444.618 28.7541 443.809 28.4245 442.841 28.4245C441.832 28.4245 441.003 28.7541 440.364 29.4232C439.725 30.0924 439.395 30.9313 439.395 31.9401V61.1236C439.395 62.1323 439.715 62.9713 440.364 63.6405C441.003 64.3096 441.832 64.6392 442.841 64.6392C443.799 64.6392 444.618 64.3096 445.288 63.6405C445.957 62.9713 446.286 62.1423 446.286 61.1236V44.6142C446.286 42.9663 446.526 41.4682 447.005 40.1398C447.485 38.8115 448.144 37.6529 448.963 36.6642C449.792 35.6754 450.711 34.9363 451.72 34.427C452.728 33.9276 453.717 33.6679 454.676 33.6679C455.545 33.6679 456.304 33.8177 456.943 34.1174C457.567 34.4133 458.25 34.5668 458.941 34.5668C459.72 34.5668 460.429 34.2772 461.078 33.7079C461.717 33.1386 462.047 32.2297 462.047 30.9913C462.047 30.0225 461.607 29.2135 460.738 28.5743ZM40.3438 0H0.34375V40C0.363725 62.0325 18.3113 79.98 40.3438 80C62.3762 79.98 80.3238 62.0325 80.3438 40C80.3238 17.9675 62.3762 0.019975 40.3438 0ZM40.3438 69.9825C32.0941 69.9725 24.6334 66.6167 19.1702 61.1635C13.717 55.7004 10.3612 48.2397 10.3612 40V10.0175H40.3338C48.5835 10.0175 56.0441 13.3733 61.5073 18.8265C66.9605 24.2896 70.3163 31.7603 70.3163 40C70.3163 48.2397 66.9605 55.7104 61.5073 61.1635C56.0541 66.6167 48.5934 69.9825 40.3438 69.9825Z" fill="#2DC0E8"/>
</g>
<defs>
<clipPath id="clip0_79_49">
<rect width="461.703" height="80" fill="white" transform="translate(0.34375)"/>
</clipPath>
</defs>
</svg>
