<svg width="400" height="80" viewBox="0 0 400 80" fill="none" xmlns="http://www.w3.org/2000/svg">
<g style="mix-blend-mode:luminosity">
<path d="M2.22461 64.762V0.761963H28.556C32.5789 0.761963 36.1141 1.58482 39.1618 3.23053C42.2703 4.8153 44.6779 7.07054 46.3846 9.99625C48.1522 12.922 49.036 16.3963 49.036 20.4191V21.6991C49.036 25.661 48.1218 29.1353 46.2932 32.122C44.5256 35.0477 42.0875 37.3334 38.9789 38.9791C35.9313 40.5639 32.457 41.3563 28.556 41.3563H14.2932V64.762H2.22461ZM14.2932 30.3848H27.3675C30.2322 30.3848 32.5484 29.5924 34.316 28.0077C36.0837 26.4229 36.9675 24.2591 36.9675 21.5163V20.602C36.9675 17.8591 36.0837 15.6953 34.316 14.1105C32.5484 12.5258 30.2322 11.7334 27.3675 11.7334H14.2932V30.3848ZM57.769 64.762V0.761963H69.289V64.762H57.769ZM102.718 66.042C98.2071 66.042 94.2147 65.0972 90.7404 63.2077C87.3271 61.2572 84.6452 58.5448 82.6947 55.0705C80.8052 51.5353 79.8604 47.3905 79.8604 42.6363V41.5391C79.8604 36.7848 80.8052 32.6705 82.6947 29.1963C84.5842 25.661 87.2357 22.9486 90.649 21.0591C94.0623 19.1086 98.0242 18.1334 102.535 18.1334C106.984 18.1334 110.855 19.1391 114.146 21.1505C117.438 23.101 119.998 25.8439 121.826 29.3791C123.655 32.8534 124.569 36.9067 124.569 41.5391V45.4705H91.5633C91.6852 48.5791 92.8433 51.1086 95.0376 53.0591C97.2318 55.0096 99.9138 55.9848 103.083 55.9848C106.314 55.9848 108.691 55.2839 110.215 53.882C111.739 52.4801 112.897 50.9258 113.689 49.2191L123.106 54.1562C122.253 55.741 121.003 57.4782 119.358 59.3677C117.773 61.1962 115.639 62.781 112.958 64.122C110.276 65.402 106.862 66.042 102.718 66.042ZM91.6547 36.8763H112.866C112.622 34.2553 111.556 32.1524 109.666 30.5677C107.838 28.9829 105.43 28.1905 102.443 28.1905C99.3347 28.1905 96.8661 28.9829 95.0376 30.5677C93.209 32.1524 92.0814 34.2553 91.6547 36.8763ZM162.068 66.042C157.984 66.042 154.845 65.341 152.651 63.9391C150.457 62.5372 148.841 60.9829 147.805 59.2763H146.159V64.762H134.822V0.761963H146.342V24.6248H147.988C148.659 23.5277 149.542 22.4915 150.639 21.5163C151.798 20.541 153.291 19.7486 155.119 19.1391C157.009 18.4686 159.325 18.1334 162.068 18.1334C165.725 18.1334 169.108 19.0477 172.217 20.8763C175.325 22.6439 177.824 25.2648 179.714 28.7391C181.603 32.2134 182.548 36.4191 182.548 41.3563V42.8191C182.548 47.7562 181.603 51.962 179.714 55.4362C177.824 58.9105 175.325 61.562 172.217 63.3905C169.108 65.1582 165.725 66.042 162.068 66.042ZM158.594 55.9848C162.129 55.9848 165.085 54.8572 167.462 52.602C169.839 50.2858 171.028 46.9334 171.028 42.5448V41.6305C171.028 37.242 169.839 33.9201 167.462 31.6648C165.146 29.3486 162.19 28.1905 158.594 28.1905C155.059 28.1905 152.102 29.3486 149.725 31.6648C147.348 33.9201 146.159 37.242 146.159 41.6305V42.5448C146.159 46.9334 147.348 50.2858 149.725 52.602C152.102 54.8572 155.059 55.9848 158.594 55.9848ZM192.76 64.762V0.761963H204.829V53.7905H234.086V64.762H192.76ZM256.759 66.042C253.529 66.042 250.634 65.4934 248.074 64.3962C245.514 63.2382 243.472 61.5924 241.948 59.4591C240.485 57.2648 239.754 54.6134 239.754 51.5048C239.754 48.3963 240.485 45.8058 241.948 43.7334C243.472 41.6001 245.544 40.0153 248.165 38.9791C250.847 37.882 253.895 37.3334 257.308 37.3334H269.742V34.7734C269.742 32.6401 269.072 30.9029 267.731 29.562C266.39 28.1601 264.257 27.4591 261.331 27.4591C258.466 27.4591 256.333 28.1296 254.931 29.4705C253.529 30.7505 252.615 32.4267 252.188 34.4991L241.582 30.9334C242.314 28.6172 243.472 26.5143 245.057 24.6248C246.702 22.6743 248.866 21.1201 251.548 19.962C254.291 18.7429 257.613 18.1334 261.514 18.1334C267.487 18.1334 272.211 19.6267 275.685 22.6134C279.159 25.6001 280.897 29.9277 280.897 35.5963V52.5105C280.897 54.3391 281.75 55.2534 283.457 55.2534H287.114V64.762H279.434C277.179 64.762 275.319 64.2134 273.857 63.1163C272.394 62.0191 271.662 60.5563 271.662 58.7277V58.6363H269.925C269.681 59.3677 269.133 60.3429 268.279 61.562C267.426 62.7201 266.085 63.7562 264.257 64.6705C262.428 65.5848 259.929 66.042 256.759 66.042ZM258.771 56.7162C262.001 56.7162 264.622 55.8324 266.634 54.0648C268.706 52.2363 269.742 49.8286 269.742 46.842V45.9277H258.131C255.998 45.9277 254.321 46.3848 253.102 47.2991C251.883 48.2134 251.274 49.4934 251.274 51.1391C251.274 52.7848 251.914 54.1258 253.194 55.162C254.474 56.1982 256.333 56.7162 258.771 56.7162ZM322.782 66.042C318.699 66.042 315.559 65.341 313.365 63.9391C311.171 62.5372 309.556 60.9829 308.519 59.2763H306.874V64.762H295.537V0.761963H307.057V24.6248H308.702C309.373 23.5277 310.257 22.4915 311.354 21.5163C312.512 20.541 314.005 19.7486 315.834 19.1391C317.723 18.4686 320.039 18.1334 322.782 18.1334C326.439 18.1334 329.822 19.0477 332.931 20.8763C336.039 22.6439 338.539 25.2648 340.428 28.7391C342.318 32.2134 343.262 36.4191 343.262 41.3563V42.8191C343.262 47.7562 342.318 51.962 340.428 55.4362C338.539 58.9105 336.039 61.562 332.931 63.3905C329.822 65.1582 326.439 66.042 322.782 66.042ZM319.308 55.9848C322.843 55.9848 325.799 54.8572 328.177 52.602C330.554 50.2858 331.742 46.9334 331.742 42.5448V41.6305C331.742 37.242 330.554 33.9201 328.177 31.6648C325.86 29.3486 322.904 28.1905 319.308 28.1905C315.773 28.1905 312.817 29.3486 310.439 31.6648C308.062 33.9201 306.874 37.242 306.874 41.6305V42.5448C306.874 46.9334 308.062 50.2858 310.439 52.602C312.817 54.8572 315.773 55.9848 319.308 55.9848ZM353.383 79.5734V69.1505H398.183V79.5734H353.383Z" fill="black"/>
</g>
</svg>
