<svg width="180" height="160" viewBox="0 0 180 160" fill="none" xmlns="http://www.w3.org/2000/svg">
<g style="mix-blend-mode:luminosity" clip-path="url(#clip0_113_121)">
<path d="M34.764 0C27.4065 0 21.6882 3.02307 18.0095 8.54112V1.14732H2.7666V72.6815H18.0095V46.6938C21.6882 52.2119 27.4065 55.235 34.764 55.235C48.4771 55.235 59.404 42.7968 59.404 27.5719C59.404 12.3291 48.4771 0 34.764 0ZM31.3038 40.6477C23.8371 40.6477 18.0095 35.0205 18.0095 27.5719C18.0095 20.2146 23.8554 14.4962 31.3038 14.4962C38.6612 14.4962 44.4887 20.3239 44.4887 27.5719C44.4887 34.9111 38.6429 40.6477 31.3038 40.6477Z" fill="#F7F7F7"/>
<path d="M115.788 72.6632V43.2154C115.788 28.0817 105.408 17.4828 90.6022 17.4828C75.6869 17.4828 65.3066 28.0817 65.3066 43.2154V72.6632H80.5495V43.2154C80.5495 36.4045 84.4466 32.0884 90.6022 32.0884C96.7575 32.0884 100.655 36.4225 100.655 43.2154V72.6632H115.788Z" fill="#F7F7F7"/>
<path d="M140.191 72.6446V48.2961L159.968 72.6446H179.108L155.215 44.6175L175.903 19.0123H157.218L140.191 40.9387L140.136 1.14697H124.966V72.6446H140.191Z" fill="#F7F7F7"/>
<path d="M52.1935 72.7722C53.3408 72.6813 54.4699 72.6994 55.5444 72.6813H56.2183V59.3325C54.1603 58.7859 51.1372 58.4583 48.8608 58.4583C36.4406 58.4583 27.8997 66.6716 27.8997 80.8218V83.7355H18.0654V98.2136H27.8997V136.804H43.1426V98.2317H56.2183V83.7538H43.1426V81.1495C43.1426 75.4312 47.0215 73.1365 52.1935 72.7722Z" fill="#F7F7F7"/>
<path d="M65.3066 83.7354V136.803H80.4401V98.2133L100.637 98.1405L100.618 83.717L65.3066 83.7354Z" fill="#F7F7F7"/>
<path d="M146.256 91.0928C142.578 85.6841 136.86 82.7703 129.393 82.7703C115.661 82.7703 104.753 94.6622 104.753 109.359C104.753 123.946 115.661 135.947 129.393 135.947C136.841 135.947 142.578 133.034 146.256 127.625V135.292C146.256 141.775 140.101 146.091 133.509 146.091C127.462 146.091 122.054 143.705 121.617 138.952H106.374C107.339 155.16 124.203 158.73 134.037 158.73C149.389 158.73 161.481 149.642 161.481 134.618V83.7354H146.238V91.0928H146.256ZM132.962 121.888C125.605 121.888 119.668 116.37 119.668 109.359C119.668 102.329 125.605 96.7202 132.962 96.7202C140.429 96.7202 146.256 102.238 146.256 109.359C146.256 116.479 140.429 121.888 132.962 121.888Z" fill="#F7F7F7"/>
</g>
<defs>
<clipPath id="clip0_113_121">
<rect width="178.551" height="160" fill="white" transform="translate(0.557617)"/>
</clipPath>
</defs>
</svg>
