<svg width="285" height="100" viewBox="0 0 285 100" fill="none" xmlns="http://www.w3.org/2000/svg">
<g style="mix-blend-mode:luminosity" clip-path="url(#clip0_79_124)">
<mask id="mask0_79_124" style="mask-type:luminance" maskUnits="userSpaceOnUse" x="0" y="0" width="285" height="100">
<path d="M284.43 0.522705H0.59375V99.673H284.43V0.522705Z" fill="white"/>
</mask>
<g mask="url(#mask0_79_124)">
<path d="M177.646 11.1765H154.091V98.5622H177.646V11.1765Z" fill="black"/>
<path d="M247.901 45.2288C246.454 42.5352 244.408 40.2096 241.921 38.4314C239.049 36.3461 235.826 34.7963 232.404 33.8563C228.304 32.6926 224.058 32.1247 219.797 32.17C213.287 32.17 207.853 33.194 203.496 35.2419C199.138 37.2898 195.825 39.9914 193.555 43.3465C191.332 46.6163 190.013 50.4157 189.731 54.3595H211.411C211.483 53.4768 211.745 52.6199 212.177 51.8465C212.608 51.0731 213.201 50.4012 213.914 49.8759C215.55 48.8217 217.473 48.301 219.417 48.3857C221.196 48.3071 222.955 48.7846 224.45 49.7517C225.085 50.1823 225.6 50.7693 225.944 51.456C226.287 52.1428 226.447 52.9063 226.411 53.6733V53.8432C226.425 54.4321 226.297 55.0157 226.036 55.5439C225.775 56.0721 225.39 56.5292 224.914 56.8759C223.921 57.6123 222.3 58.194 220.051 58.621C217.803 59.048 214.859 59.3901 211.221 59.6471C208.019 59.8701 204.85 60.4265 201.764 61.3072C199.019 62.0827 196.434 63.3397 194.13 65.0197C191.931 66.6544 190.17 68.8073 189.006 71.2877C187.716 74.1616 187.091 77.289 187.176 80.438C187.176 84.7955 188.086 88.3792 189.908 91.1897C191.719 94.0014 194.336 96.2021 197.417 97.5034C203.449 99.84 210.064 100.211 216.319 98.5622C218.638 97.9171 220.8 96.8054 222.672 95.2942C224.651 93.6635 226.277 91.6465 227.45 89.3661H227.966V98.5622H249.986V53.6733C250.011 50.728 249.294 47.8238 247.901 45.2288ZM226.607 75.3531C226.66 77.1596 226.136 78.9367 225.11 80.425C224.123 81.8178 222.783 82.923 221.228 83.6276C219.654 84.3694 217.934 84.7491 216.195 84.7387C214.444 84.8119 212.717 84.3014 211.287 83.2877C210.649 82.8001 210.142 82.1635 209.806 81.4348C209.472 80.7054 209.32 79.906 209.365 79.1047C209.351 78.0263 209.631 76.9642 210.176 76.0328C210.806 75.0374 211.691 74.2276 212.738 73.6864C214.138 72.957 215.655 72.4812 217.221 72.2812C218.158 72.1374 219.053 71.9805 219.908 71.8106C220.79 71.6406 221.614 71.4511 222.385 71.255C223.156 71.0589 223.921 70.8433 224.6 70.6014C225.28 70.3596 225.98 70.1308 226.607 69.8759V75.3531Z" fill="black"/>
<path d="M260.875 98.5164V35.7254H284.404V98.5164H260.875ZM272.64 22.0456C269.602 22.1022 266.663 20.9694 264.45 18.8888C263.368 17.9431 262.503 16.7749 261.914 15.4641C261.325 14.1534 261.027 12.7309 261.038 11.294C261.027 9.85715 261.326 8.43486 261.915 7.12414C262.504 5.81343 263.368 4.64522 264.45 3.69925C266.695 1.66739 269.615 0.542236 272.643 0.542236C275.67 0.542236 278.591 1.66739 280.836 3.69925C281.917 4.64522 282.782 5.81343 283.37 7.12414C283.959 8.43486 284.259 9.85715 284.248 11.294C284.259 12.7309 283.96 14.1534 283.371 15.4641C282.782 16.7749 281.917 17.9431 280.836 18.8888C278.624 20.97 275.682 22.0971 272.646 22.026L272.64 22.0456Z" fill="black"/>
<path d="M111.79 99.6732C104.818 99.6732 98.7879 98.3353 93.6984 95.6601C88.7454 93.0386 84.6892 88.9961 82.0513 84.0523C79.3539 78.9935 78.0036 72.9346 77.999 65.8758C77.999 59.1044 79.365 53.1872 82.0971 48.124C84.7324 43.156 88.7448 39.0531 93.6526 36.3071C98.6284 33.4878 104.511 32.0805 111.3 32.0848C115.882 32.0196 120.438 32.7995 124.738 34.3855C128.617 35.8367 132.129 38.1238 135.025 41.0848C137.93 44.1084 140.158 47.7155 141.561 51.6665C143.157 56.1723 143.938 60.9261 143.868 65.7059V71.1699H100.862V58.1959H122.189C122.198 56.4403 121.694 54.7203 120.738 53.2482C119.836 51.8024 118.551 50.635 117.025 49.8757C115.412 49.0349 113.615 48.6103 111.796 48.6404C109.979 48.6248 108.185 49.0486 106.568 49.8757C105.023 50.635 103.702 51.7811 102.731 53.2025C101.771 54.6925 101.253 56.4236 101.234 58.1959V72.1895C101.194 74.147 101.643 76.0837 102.542 77.8235C103.402 79.4601 104.722 80.8091 106.339 81.7059C108.172 82.6921 110.232 83.1791 112.313 83.1176C113.817 83.1359 115.315 82.9039 116.744 82.4314C118.034 82.0242 119.226 81.3562 120.247 80.4706C121.203 79.6065 121.934 78.5229 122.378 77.3137H143.888C143.238 81.6647 141.432 85.7614 138.659 89.1765C135.692 92.6451 131.904 95.3144 127.64 96.9412C123.134 98.7582 117.851 99.6686 111.79 99.6732Z" fill="black"/>
<path d="M0.59375 98.5622V11.1765H38.3127C44.7964 11.1765 50.4717 12.3573 55.3388 14.719C60.0391 16.9313 63.985 20.4771 66.6851 24.9151C69.391 29.3508 70.742 34.671 70.7374 40.8759C70.7335 47.0806 69.3413 52.3661 66.5609 56.7321C63.7431 61.0721 59.6817 64.4615 54.9075 66.4576C49.9358 68.6361 44.1188 69.7256 37.4565 69.7256H24.2669V51.2876H32.6787C35.0938 51.3416 37.5012 50.9949 39.8029 50.2615C41.6516 49.6597 43.2564 48.4768 44.3781 46.8889C45.529 45.1012 46.0955 42.9998 45.999 40.8759C46.0933 38.7225 45.5253 36.5919 44.3715 34.7713C43.2685 33.1381 41.6618 31.9102 39.7964 31.2746C37.5144 30.4486 35.0983 30.0563 32.6722 30.1177H24.3192V98.5622H0.59375ZM55.8879 65.9609L73.6394 98.5622H47.9009L32.5284 69.7191" fill="black"/>
</g>
</g>
<defs>
<clipPath id="clip0_79_124">
<rect width="284.967" height="100" fill="white"/>
</clipPath>
</defs>
</svg>
