<svg width="585" height="66" viewBox="0 0 585 66" fill="none" xmlns="http://www.w3.org/2000/svg">
<g clip-path="url(#clip0_79_134)">
<path d="M97.5257 32.992C97.5267 37.2594 96.6872 41.4854 95.0547 45.4286C93.4222 49.3715 91.0289 52.9543 88.012 55.9723C84.9947 58.9906 81.4122 61.3845 77.4696 63.018C73.527 64.6514 69.3014 65.4919 65.0338 65.4919C62.2944 65.4945 59.566 65.1509 56.9127 64.4697L60.9369 48.7349C58.162 53.7499 54.1102 57.9418 49.1927 60.8856C44.2751 63.8295 38.6662 65.4204 32.9352 65.4971C27.2044 65.5738 21.5551 64.1337 16.5603 61.3228C11.5655 58.5118 7.40295 54.4298 4.49472 49.4911C1.58648 44.5521 0.0360363 38.9322 0.000620632 33.2008C-0.0347948 27.4695 1.44607 21.8307 4.29306 16.8563C7.14002 11.882 11.2518 7.74896 16.2115 4.87645C21.1712 2.00392 26.8023 0.494075 32.5338 0.500017C35.2729 0.49757 38.0016 0.841009 40.6546 1.52218L36.5901 17.2571C35.2749 16.9224 33.9232 16.7521 32.566 16.75C29.3502 16.7436 26.205 17.6915 23.5283 19.4735C20.8516 21.2556 18.7638 23.7917 17.5291 26.7609C16.2945 29.7301 15.9686 32.9989 16.5926 36.1535C17.2166 39.3079 18.7625 42.2063 21.0347 44.4819C23.3068 46.7576 26.203 48.3075 29.3566 48.9364C32.5101 49.5649 35.7793 49.2441 38.7504 48.0137C41.7216 46.7836 44.2608 44.6997 46.0467 42.0256C47.8329 39.3515 48.7854 36.2077 48.7838 32.992H65.0338C65.0549 38.4967 63.6698 43.9158 61.0093 48.7349C62.3249 49.0683 63.6766 49.2386 65.0338 49.2419C68.2477 49.2419 71.3895 48.289 74.0617 46.5034C76.7341 44.7179 78.8167 42.1799 80.0469 39.2104C81.2767 36.2412 81.5984 32.9739 80.9715 29.8218C80.3446 26.6696 78.7969 23.7741 76.5242 21.5015C74.2515 19.2289 71.356 17.6812 68.2039 17.0542C65.0517 16.4272 61.7845 16.749 58.8153 17.9789C55.8457 19.2089 53.3078 21.2916 51.5223 23.964C49.7367 26.6362 48.7838 29.778 48.7838 32.992H32.5338C32.668 24.4621 36.1507 16.3269 42.2302 10.3423C48.31 4.35768 56.4987 1.0034 65.0296 1.0034C73.5605 1.0034 81.7495 4.35768 87.829 10.3423C93.9088 16.3269 97.3915 24.4621 97.5257 32.992ZM159.693 38.4811C160.512 40.3473 160.923 42.3668 160.9 44.4049C160.959 47.4254 160.091 50.3917 158.413 52.904C156.63 55.4006 154.161 57.3266 151.306 58.4494C147.756 59.8518 143.958 60.5223 140.143 60.4212C136.293 60.5057 132.465 59.833 128.875 58.4413C125.86 57.2551 123.261 55.2059 121.406 52.55C119.543 49.6761 118.568 46.3165 118.605 42.8917H129.543C129.6 44.5053 130.141 46.0647 131.096 47.3666C132.048 48.5896 133.322 49.5233 134.774 50.0628C136.451 50.6813 138.227 50.9842 140.014 50.9562C141.716 51.0011 143.41 50.7284 145.012 50.1515C146.303 49.6855 147.445 48.8824 148.32 47.8255C149.095 46.8551 149.51 45.6464 149.495 44.4049C149.529 43.2989 149.151 42.2202 148.433 41.3785C147.581 40.4519 146.526 39.7356 145.35 39.2858C143.747 38.6319 142.095 38.107 140.408 37.7164L134.581 36.2597C130.074 35.1596 126.514 33.4452 123.901 31.1167C121.288 28.7879 119.992 25.6437 120.013 21.6838C119.933 18.6485 120.846 15.67 122.613 13.2006C124.476 10.7049 126.979 8.75851 129.857 7.56664C133.162 6.15711 136.728 5.46314 140.32 5.53035C143.895 5.44848 147.446 6.14323 150.727 7.56664C153.514 8.76988 155.915 10.7195 157.664 13.2006C159.324 15.6824 160.21 18.6014 160.208 21.5872H149.334C149.273 20.6219 149.001 19.6817 148.536 18.8333C148.072 17.9849 147.426 17.2489 146.646 16.6776C144.743 15.4184 142.486 14.8034 140.207 14.923C138.611 14.8894 137.024 15.1627 135.531 15.7278C134.382 16.1538 133.374 16.8892 132.617 17.8527C131.955 18.7429 131.601 19.8255 131.611 20.9353C131.557 21.8159 131.773 22.692 132.231 23.4464C132.7 24.1855 133.327 24.8121 134.066 25.2815C134.919 25.8285 135.832 26.2767 136.786 26.6175C137.866 26.9938 138.968 27.3003 140.086 27.5351L144.916 28.686C147.126 29.169 149.283 29.87 151.354 30.7786C153.199 31.5831 154.906 32.6691 156.417 33.9981C157.805 35.2519 158.92 36.7778 159.693 38.4811ZM198.559 26.4807C199.527 28.3827 200.002 30.4967 199.943 32.6298V59.6809H189.392V54.1195H189.086C188.438 55.373 187.558 56.4926 186.494 57.4192C185.354 58.4043 184.034 59.1589 182.607 59.6406C180.915 60.2022 179.141 60.4745 177.359 60.4456C175.009 60.4869 172.677 60.0286 170.518 59.1014C168.578 58.2528 166.929 56.8537 165.777 55.0772C164.558 53.0886 163.953 50.7843 164.039 48.4531C163.97 46.5018 164.393 44.5641 165.27 42.8192C166.055 41.3372 167.204 40.0795 168.61 39.1652C170.094 38.2065 171.725 37.4993 173.44 37.0726C175.289 36.5968 177.172 36.2656 179.073 36.0826C181.408 35.833 183.291 35.6078 184.707 35.3904C185.8 35.2828 186.858 34.9484 187.814 34.4085C188.129 34.1979 188.384 33.9093 188.553 33.5707C188.722 33.232 188.801 32.855 188.78 32.4769V32.3722C188.822 31.6572 188.704 30.9417 188.436 30.2777C188.167 29.6137 187.754 29.0177 187.227 28.5331C185.977 27.5521 184.409 27.0677 182.824 27.1729C181.132 27.0862 179.458 27.5493 178.051 28.4928C176.919 29.2967 176.091 30.4594 175.701 31.7927L165.407 30.9879C165.892 28.6428 166.967 26.4601 168.53 24.6456C170.142 22.8037 172.181 21.3859 174.47 20.5167C177.17 19.5032 180.037 19.0116 182.921 19.068C185.092 19.0637 187.256 19.3342 189.36 19.8729C191.303 20.3321 193.15 21.1304 194.816 22.2311C196.39 23.3233 197.674 24.7817 198.559 26.4807ZM188.901 41.0889C188.457 41.358 187.977 41.5637 187.476 41.7006C186.812 41.9027 186.138 42.0691 185.456 42.1994C184.707 42.3444 183.959 42.4812 183.21 42.594L181.166 42.8917C179.992 43.0503 178.842 43.3587 177.745 43.8092C176.862 44.1634 176.088 44.7435 175.5 45.4914C174.944 46.2502 174.66 47.1749 174.695 48.1151C174.662 48.7846 174.795 49.4515 175.085 50.056C175.375 50.6605 175.81 51.1828 176.353 51.576C177.599 52.4061 179.075 52.8204 180.57 52.759C182.072 52.7905 183.557 52.4564 184.901 51.7853C186.104 51.1789 187.124 50.262 187.854 49.1294C188.571 47.9987 188.943 46.6844 188.925 45.3464L188.901 41.0889ZM224.531 51.1334C224.013 51.2227 223.488 51.2686 222.962 51.2702C222.289 51.2832 221.62 51.1685 220.99 50.9322C220.425 50.7079 219.96 50.288 219.678 49.7489C219.322 48.9962 219.159 48.1661 219.203 47.3344V27.9294H226.753V19.5751H219.203V9.9651H208.08V19.5751H202.599V27.9294H208.08V48.7911C207.967 51.0801 208.527 53.3521 209.69 55.3265C210.815 57.0568 212.457 58.389 214.382 59.1336C216.624 59.9899 219.022 60.3549 221.417 60.2041C222.656 60.1791 223.891 60.0364 225.103 59.7774C226.109 59.544 226.89 59.3347 227.453 59.1576L225.699 50.8838L224.531 51.1334ZM253.257 36.3884L246.013 34.9237C244.589 34.7072 243.238 34.1554 242.069 33.3139C241.71 33.0224 241.42 32.6546 241.221 32.2368C241.022 31.8191 240.918 31.3621 240.918 30.8994C240.924 30.3014 241.092 29.7163 241.406 29.2071C241.719 28.6979 242.166 28.284 242.697 28.0099C244.024 27.2557 245.534 26.8825 247.06 26.9314C248.2 26.9009 249.334 27.1178 250.384 27.5673C251.258 27.9512 252.032 28.5324 252.645 29.2655C253.207 29.9512 253.594 30.7633 253.772 31.6318L263.953 31.004C263.766 29.2636 263.213 27.5825 262.331 26.0707C261.449 24.5588 260.257 23.2504 258.835 22.2311C255.915 20.0848 251.923 19.0116 246.858 19.0116C243.801 18.9479 240.759 19.4613 237.892 20.5248C235.553 21.381 233.499 22.8721 231.96 24.8307C230.541 26.7578 229.802 29.1021 229.86 31.4949C229.812 32.8557 230.04 34.2119 230.531 35.482C231.022 36.7521 231.766 37.9091 232.717 38.8835C234.627 40.8153 237.538 42.1728 241.45 42.956L248.396 44.3405C249.782 44.542 251.105 45.0539 252.267 45.8375C252.658 46.1271 252.976 46.5028 253.198 46.9353C253.42 47.3682 253.539 47.8463 253.546 48.3325C253.527 48.9386 253.349 49.5288 253.03 50.0446C252.711 50.5601 252.261 50.9829 251.727 51.2702C250.246 52.0473 248.596 52.448 246.923 52.4366C245.25 52.4256 243.605 52.0027 242.134 51.2058C241.501 50.7866 240.961 50.2429 240.546 49.6075C240.13 48.9724 239.849 48.2591 239.719 47.5116L228.781 48.0829C229.003 49.9019 229.61 51.6527 230.562 53.2182C231.514 54.7841 232.789 56.1283 234.303 57.1618C237.452 59.3776 241.678 60.4859 246.979 60.4859C250.136 60.5486 253.273 59.9851 256.211 58.8277C258.688 57.8687 260.867 56.2723 262.529 54.1997C264.067 52.2244 264.882 49.7817 264.839 47.2782C264.89 45.9733 264.659 44.6727 264.164 43.4647C263.668 42.2563 262.918 41.1689 261.965 40.2758C260.066 38.4811 257.152 37.1931 253.257 36.3884ZM306.466 28.2031C307.947 31.2615 308.687 35.0871 308.687 39.6804C308.802 43.5644 308.066 47.4267 306.53 50.9965C305.29 53.8357 303.259 56.2583 300.679 57.9746C298.211 59.547 295.339 60.3666 292.413 60.3328C290.523 60.3858 288.646 60.0176 286.916 59.2545C285.51 58.6191 284.252 57.6984 283.222 56.5501C282.331 55.5657 281.593 54.4536 281.032 53.2501H280.533V59.689H269.571V6.20645H280.694V26.3278H281.032C281.59 25.1401 282.304 24.0329 283.157 23.0359C284.168 21.8549 285.412 20.8958 286.811 20.219C288.576 19.409 290.505 19.0205 292.445 19.0841C295.303 19.0672 298.108 19.8597 300.534 21.3699C303.128 23.0291 305.187 25.4018 306.466 28.2031ZM297.323 39.6238C297.36 37.5467 297.034 35.4791 296.357 33.5151C295.812 31.9036 294.828 30.4763 293.516 29.3943C292.191 28.3796 290.556 27.8537 288.888 27.9053C287.243 27.8519 285.629 28.3568 284.308 29.3379C282.99 30.3981 281.999 31.8102 281.451 33.4105C280.745 35.4043 280.407 37.5094 280.453 39.6238C280.408 41.749 280.746 43.8644 281.451 45.8697C282.003 47.4901 282.999 48.9234 284.324 50.0066C285.656 50.9715 287.259 51.4909 288.904 51.4909C290.549 51.4909 292.151 50.9715 293.483 50.0066C294.804 48.9035 295.795 47.4586 296.349 45.8294C297.035 43.8342 297.364 41.7334 297.323 39.6238ZM345.833 26.4807C346.795 28.3841 347.269 30.4971 347.217 32.6298V59.6809H336.664V54.1195H336.349C335.709 55.3743 334.831 56.4946 333.765 57.4192C332.628 58.4043 331.305 59.1589 329.878 59.6406C328.185 60.2022 326.407 60.4742 324.623 60.4456C322.274 60.4859 319.942 60.028 317.782 59.1014C315.844 58.2528 314.198 56.8534 313.049 55.0772C311.83 53.0886 311.226 50.7843 311.311 48.4531C311.243 46.5028 311.664 44.5661 312.534 42.8192C313.322 41.3366 314.474 40.0791 315.882 39.1652C317.365 38.2055 318.997 37.4986 320.712 37.0726C322.577 36.5945 324.477 36.2636 326.394 36.0826C328.728 35.833 330.603 35.6078 332.027 35.3904C333.122 35.2828 334.178 34.9484 335.134 34.4085C335.449 34.1979 335.706 33.9093 335.875 33.5707C336.044 33.232 336.122 32.855 336.102 32.4769V32.3722C336.141 31.6572 336.024 30.9417 335.758 30.2777C335.488 29.6137 335.075 29.0177 334.549 28.5331C333.297 27.5521 331.731 27.0677 330.145 27.1729C328.452 27.085 326.775 27.5481 325.364 28.4928C324.233 29.2989 323.406 30.4608 323.014 31.7927L312.727 30.9879C313.199 28.6475 314.256 26.4652 315.802 24.6456C317.413 22.802 319.453 21.3838 321.742 20.5167C324.439 19.5032 327.304 19.0116 330.184 19.068C332.355 19.0637 334.519 19.3342 336.622 19.8729C338.572 20.3495 340.418 21.1669 342.082 22.2874C343.649 23.365 344.936 24.803 345.833 26.4807ZM336.174 41.0889C335.732 41.358 335.254 41.5641 334.757 41.7006C334.09 41.9027 333.411 42.0691 332.729 42.1994C331.981 42.3444 331.23 42.4812 330.483 42.594L328.445 42.8917C327.272 43.0493 326.121 43.3577 325.026 43.8092C324.146 44.1644 323.374 44.7445 322.788 45.4914C322.232 46.2502 321.948 47.1749 321.983 48.1151C321.95 48.7846 322.084 49.4515 322.373 50.056C322.663 50.6605 323.099 51.1828 323.641 51.576C324.887 52.4051 326.362 52.8191 327.86 52.759C329.362 52.7905 330.85 52.4564 332.196 51.7853C333.401 51.1808 334.419 50.2633 335.143 49.1294C335.862 48.0004 336.235 46.6851 336.213 45.3464L336.174 41.0889ZM367.055 29.1206C368.365 28.1773 369.948 27.6858 371.563 27.7202C372.47 27.6809 373.373 27.8237 374.225 28.1403C375.073 28.4569 375.853 28.9407 376.513 29.5633C377.806 30.8673 378.628 32.5673 378.846 34.3923H389.308C389.227 31.5128 388.352 28.7118 386.783 26.2956C385.226 23.977 383.065 22.1266 380.536 20.9433C377.657 19.6172 374.514 18.9648 371.345 19.0358C367.682 18.9447 364.068 19.8517 360.883 21.6596C357.962 23.3832 355.602 25.9122 354.081 28.9435C352.42 32.3063 351.592 36.0189 351.666 39.7688C351.592 43.4926 352.404 47.1804 354.032 50.5298C355.534 53.5709 357.893 56.1059 360.818 57.8215C363.864 59.4244 367.231 60.3172 370.669 60.4329C374.108 60.5486 377.527 59.8843 380.673 58.4897C383.185 57.2768 385.314 55.3941 386.822 53.0489C388.339 50.629 389.201 47.8548 389.318 45.0003H378.856C378.69 46.2883 378.238 47.5229 377.533 48.6143C376.899 49.5825 376.028 50.3699 374.998 50.9C373.939 51.4415 372.762 51.7177 371.569 51.7047C369.948 51.7268 368.362 51.2182 367.055 50.2562C365.687 49.2045 364.647 47.7829 364.062 46.1592C363.318 44.063 362.97 41.8475 363.032 39.6238C362.976 37.4291 363.337 35.2438 364.101 33.1852C364.679 31.5762 365.703 30.1659 367.055 29.1206ZM431.444 19.5751H418.646L405.769 34.795H405.165V6.20645H394.076V59.6809H405.197V46.948L408.216 43.5033L419.146 59.6809H432.175L416.536 36.9439L431.444 19.5751ZM441.207 47.8817C440.385 47.8678 439.569 48.0228 438.809 48.3371C438.048 48.6513 437.359 49.1184 436.787 49.7089C436.196 50.2734 435.724 50.9546 435.409 51.7093C435.091 52.4642 434.931 53.2764 434.944 54.0951C434.948 55.7545 435.611 57.3448 436.784 58.5183C437.957 59.6916 439.546 60.3526 441.207 60.3569C442.302 60.3673 443.381 60.0748 444.321 59.5119C445.253 58.9522 446.037 58.1729 446.599 57.2421C447.314 56.06 447.603 54.6697 447.424 53.3001C447.242 51.9309 446.599 50.6641 445.601 49.7089C445.026 49.121 444.337 48.6562 443.573 48.3423C442.813 48.028 441.997 47.8713 441.175 47.8817H441.207ZM463.148 26.4565C465.004 25.1946 467.204 24.5419 469.45 24.5893C471.803 24.4655 474.117 25.2231 475.943 26.7141C477.448 27.9705 478.533 29.6548 479.06 31.5432H485.225C484.923 29.1529 483.997 26.8846 482.534 24.9676C481.059 23.0802 479.135 21.5872 476.941 20.6214C474.546 19.5464 471.939 19.0107 469.313 19.0519C465.956 18.979 462.654 19.9003 459.823 21.6999C457.077 23.5151 454.89 26.0561 453.505 29.0401C451.942 32.42 451.168 36.1106 451.243 39.8331C451.175 43.5121 451.926 47.1606 453.44 50.5136C455.546 54.7181 459.202 57.9395 463.639 59.4969C468.075 61.0543 472.943 60.8262 477.217 58.8599C479.339 57.8485 481.182 56.3256 482.573 54.4279C483.964 52.5302 484.864 50.317 485.193 47.9864H479.027C478.686 49.3732 478.023 50.6605 477.094 51.745C476.193 52.7964 475.056 53.6232 473.779 54.1598C472.394 54.7243 470.909 54.9979 469.417 54.9645C467.152 55.0155 464.929 54.3479 463.067 53.057C461.195 51.7011 459.745 49.8464 458.881 47.7046C457.847 45.1332 457.347 42.3785 457.408 39.6079C457.347 36.8915 457.86 34.1927 458.913 31.6881C459.794 29.5848 461.25 27.7719 463.115 26.4565H463.148ZM523.156 28.8711C524.742 32.2947 525.522 36.0368 525.434 39.8091C525.522 43.5579 524.742 47.2763 523.156 50.6745C521.726 53.6778 519.474 56.2141 516.662 57.9899C513.848 59.7657 510.591 60.7082 507.263 60.7082C503.939 60.7082 500.679 59.7657 497.868 57.9899C495.056 56.2141 492.804 53.6778 491.374 50.6745C489.785 47.2769 489.002 43.5586 489.086 39.8091C489.002 36.0361 489.785 32.2941 491.374 28.8711C492.798 25.8628 495.05 23.321 497.861 21.5411C500.676 19.7611 503.935 18.8163 507.263 18.8163C510.595 18.8163 513.854 19.7611 516.669 21.5411C519.48 23.321 521.732 25.8628 523.156 28.8711ZM519.279 39.8091C519.298 37.2552 518.866 34.7179 517.998 32.3159C517.231 30.1088 515.866 28.1583 514.053 26.6819C512.064 25.288 509.694 24.5403 507.263 24.5403C504.836 24.5403 502.466 25.288 500.477 26.6819C498.664 28.1583 497.299 30.1088 496.532 32.3159C495.664 34.7179 495.232 37.2552 495.251 39.8091C495.229 42.3551 495.661 44.8849 496.532 47.2782C497.302 49.4635 498.667 51.3901 500.477 52.8396C502.473 54.2183 504.839 54.9567 507.263 54.9567C509.691 54.9567 512.057 54.2183 514.053 52.8396C515.863 51.3901 517.228 49.4635 517.998 47.2782C518.853 44.8908 519.275 42.3694 519.246 39.8331L519.279 39.8091ZM581.146 22.4082C579.979 21.287 578.598 20.4121 577.083 19.8355C575.572 19.2589 573.96 18.9924 572.341 19.0519C569.754 18.9771 567.2 19.6147 564.954 20.895C562.962 22.0546 561.356 23.7729 560.333 25.8368H559.913C559.026 23.8199 557.593 22.0895 555.776 20.8387C553.8 19.5892 551.489 18.9664 549.153 19.0519C546.793 18.9843 544.463 19.6051 542.448 20.8387C540.602 22.0244 539.188 23.7785 538.424 25.8368H537.901V19.5751H531.947V59.6809H538.112V34.6097C538.073 32.7937 538.509 30.999 539.373 29.4023C540.163 27.9558 541.314 26.7385 542.714 25.869C544.057 25.0277 545.613 24.584 547.196 24.5893C549.305 24.5055 551.359 25.2609 552.913 26.69C553.651 27.4005 554.232 28.2601 554.616 29.2119C554.999 30.1638 555.175 31.1861 555.133 32.2113V59.6809H561.402V33.5713C561.317 31.2068 562.149 28.9005 563.722 27.1326C565.276 25.4344 567.457 24.5893 570.281 24.5893C572.348 24.5483 574.366 25.2221 575.994 26.4968C577.606 27.7631 578.409 29.8772 578.409 32.8391V59.6809H584.574V32.8391C584.581 28.1226 583.437 24.6456 581.146 22.4082Z" fill="black"/>
</g>
<defs>
<clipPath id="clip0_79_134">
<rect width="585" height="65" fill="white" transform="translate(0 0.5)"/>
</clipPath>
</defs>
</svg>
