<svg width="301" height="100" viewBox="0 0 301 100" fill="none" xmlns="http://www.w3.org/2000/svg">
<g style="mix-blend-mode:luminosity" clip-path="url(#clip0_79_1140)">
<path d="M113.973 93.2986C124.308 93.2986 131.948 87.1571 131.948 78.6993C131.948 74.8721 130.33 71.4007 127.454 69.0864C125.208 67.3936 121.163 65.3493 116.221 63.5686C113.076 62.4114 111.818 61.3421 111.818 60.0971C111.818 58.85 112.986 57.9607 114.603 57.9607C115.681 57.9607 117.209 58.3164 118.467 58.85L119.635 59.2957L121.971 60.3629C123.231 60.8086 124.308 61.0764 125.206 61.1643C128.084 61.3421 130.87 58.4043 130.87 55.2007C130.87 50.0364 124.218 46.1214 115.591 46.1214C105.706 46.1214 98.427 52.2629 98.427 60.6307C98.427 64.4579 99.6849 67.5736 102.113 69.71C104.178 71.4029 108.402 73.3593 114.783 75.4957C117.569 76.475 118.647 77.3643 118.647 78.6993C118.647 80.3921 117.389 81.3693 115.141 81.3693C113.706 81.3693 111.906 80.9257 110.56 80.2121L108.402 79.145L107.234 78.5236C105.706 77.72 104.358 77.3664 103.098 77.3664C100.045 77.3664 97.1691 80.3021 97.1691 83.4179C97.1691 88.4021 105.436 93.2986 113.973 93.2986ZM147.766 92.7629C151.898 92.7629 154.506 89.915 154.506 85.3764V60.0971H157.741C162.503 60.0971 165.108 57.9607 165.108 53.8657C165.108 49.5929 162.683 47.5443 157.739 47.5443H154.503V39.2686C154.503 34.7279 151.898 31.88 147.764 31.88C143.543 31.88 141.025 34.73 141.025 39.2686V47.5464H140.035C135.183 47.5464 132.756 49.5929 132.756 53.8657C132.756 58.0486 135.183 60.0971 140.035 60.0971H141.025V85.3764C141.025 89.915 143.631 92.7629 147.764 92.7629H147.766ZM174.188 92.8529C178.229 92.8529 180.837 90.0029 180.837 85.4643V68.1971C180.837 66.8621 181.105 65.4371 181.645 64.28C182.275 62.7671 183.263 61.9657 185.868 61.0764C194.856 57.605 192.52 58.4943 193.058 58.3164C195.486 57.2471 196.473 55.5564 196.473 52.7986C196.473 49.3271 193.328 46.2993 189.822 46.2993C186.678 46.2993 183.801 47.8121 180.387 51.3736C178.949 47.8121 177.331 46.5671 174.186 46.5671C169.962 46.5671 167.356 49.3271 167.356 53.9557V85.4643C167.356 90.005 169.964 92.8529 174.188 92.8529ZM205.371 43.4514C210.042 43.4514 213.278 40.2479 213.278 35.7071C213.278 31.1686 209.954 27.875 205.461 27.875C200.875 27.875 197.553 31.1686 197.553 35.6193C197.553 40.1579 200.875 43.4514 205.371 43.4514ZM205.461 92.6729C209.504 92.6729 212.11 89.8271 212.11 85.2864V54.0436C212.11 49.505 209.504 46.655 205.461 46.655C201.237 46.655 198.629 49.415 198.629 54.0436V85.2864C198.629 89.915 201.147 92.6729 205.461 92.6729ZM250.836 92.7629C254.521 92.7629 257.395 90.005 257.395 86.4436C257.395 84.1293 256.857 83.15 252.901 78.3436L252.093 77.3643L243.376 66.4164L249.668 60.0093C253.981 55.4664 252.811 56.7136 253.261 56.18C254.519 54.755 254.789 54.0436 254.789 52.7086C254.789 49.3271 252.003 46.2114 248.858 46.2114C246.342 46.2114 244.454 47.2786 241.128 50.84L239.333 52.7986L230.793 61.6979V34.9957C230.793 30.455 228.188 27.6071 224.054 27.6071C221.538 27.6071 219.291 28.8543 218.123 30.8107C217.495 31.9679 217.315 32.7693 217.315 34.9957V85.3743C217.315 90.0029 219.831 92.7629 224.054 92.7629C228.278 92.7629 230.793 89.915 230.793 85.3764V71.4907L239.513 82.7064L241.128 84.8407C245.892 91.1621 247.78 92.7629 250.836 92.7629ZM279.7 93.2086C284.821 93.2086 289.765 91.9636 294.168 89.5593C297.764 87.5129 299.562 85.1986 299.562 82.6164C299.562 79.5007 297.044 76.7407 294.078 76.7407C293.178 76.7407 291.833 77.0986 290.575 77.72L289.585 78.1657L288.687 78.6114L287.699 79.145L286.529 79.6807C284.013 80.6579 282.576 81.0136 280.33 81.0136C275.386 81.0136 272.151 78.6114 270.983 74.1607H294.798C298.842 74.1607 300.37 72.5579 300.37 68.4629C300.37 64.37 299.202 60.185 297.134 56.6257C293.091 49.8607 286.709 46.2114 278.712 46.2114C265.319 46.2114 256.154 56.18 256.154 70.7771C256.154 84.0414 265.861 93.2086 279.7 93.2086ZM39.9913 6.28785L78.0227 20.1307C78.1749 20.1864 78.3227 20.2486 78.4663 20.3171C78.807 20.4243 79.1456 20.54 79.4863 20.6643C91.6042 25.0743 97.8934 38.3557 93.537 50.33C89.1784 62.3021 75.822 68.4329 63.7041 64.0229L24.2113 49.6486C21.7877 48.7657 20.5277 46.1086 21.3999 43.7129C22.272 41.3193 24.942 40.0936 27.3656 40.9764L49.3084 48.9629C48.2897 45.6949 48.0187 42.2397 48.5156 38.8529L3.462 22.4557C1.03843 21.5729 -0.219428 18.9157 0.652715 16.52C1.52271 14.1286 4.19486 12.9029 6.61843 13.7857L51.6699 30.1786C53.4663 27.2651 55.8947 24.7927 58.7756 22.9443L36.8349 14.96C34.4134 14.0793 33.1534 11.4221 34.0256 9.02643C34.8977 6.63285 37.5677 5.40714 39.9913 6.28785ZM278.892 57.1593C283.386 57.1593 286.171 59.7414 286.979 64.9036H270.265C271.613 59.8293 274.578 57.1593 278.892 57.1593ZM58.542 37.5843C55.9149 44.7993 59.6927 52.7964 66.9763 55.4471C74.262 58.0979 82.2934 54.3993 84.9206 47.1843C87.5456 39.9693 83.7699 31.9721 76.4863 29.3214C69.2006 26.6707 61.167 30.3693 58.542 37.5843Z" fill="black"/>
</g>
<defs>
<clipPath id="clip0_79_1140">
<rect width="300" height="100" fill="white" transform="translate(0.370117)"/>
</clipPath>
</defs>
</svg>
