<svg width="353" height="100" viewBox="0 0 353 100" fill="none" xmlns="http://www.w3.org/2000/svg">
<g style="mix-blend-mode:luminosity" clip-path="url(#clip0_79_511)">
<path d="M137.068 82.8039C152.151 82.8039 163.196 75.1176 163.196 62.2451C163.196 54.3627 159.357 48.5049 149.558 42.0686C142.156 37.2647 140.333 34.2843 140.333 30.9216C140.333 25.9216 145.039 22.3725 150.612 22.3725C152.441 22.3725 154.073 22.6569 155.612 23.1373L156.475 34.9559H165.887L167.333 21.4118C163.294 18.3333 155.803 16.3137 148.691 16.3137C134.666 16.3137 124.671 24.0049 124.671 36.3039C124.671 43.2157 127.553 49.848 138.029 56.9608C145.235 61.8627 146.578 65.2206 146.578 68.4902C146.578 74.0588 142.352 76.75 136.2 76.75C134.377 76.75 132.166 76.3676 129.955 75.8872L128.803 63.2059H119.485L118.137 77.7157C123.039 80.9804 129.764 82.8039 137.068 82.8039Z" fill="#00305E"/>
<path d="M208.245 81.8431L216.892 80.8823C226.308 70.9853 234.093 60.5147 238.897 52.0588C241.97 46.6764 242.833 43.6029 242.833 40.5294C242.833 36.9754 242.451 35.3431 241.103 33.5196C239.703 32.6003 238.071 32.0987 236.397 32.0735C231.21 32.0735 227.269 34.8627 227.269 40.6274C227.269 43.6029 228.71 46.8725 229.867 49.9411L231.112 53.4019C228.135 58.5714 224.929 63.6058 221.504 68.4902L216.603 35.0539H206.421C201.808 44.9509 197.103 54.8431 192.49 64.647L190.47 42.549C189.897 35.8235 187.397 32.5539 182.014 32.5539C177.019 32.5539 172.215 36.1078 166.357 43.3137L168.563 46.196C169.911 44.9509 171.353 44.0882 172.215 44.0882C173.274 44.0882 174.044 44.3725 174.328 46.6764C175.965 58.1127 177.691 69.4509 179.328 80.8823L180.48 81.8431L190.279 80.8823L202.96 54.9411C204.308 63.5882 205.75 72.2353 207.093 80.8823L208.245 81.8431Z" fill="#00305E"/>
<path d="M277.887 82.4216C285.382 82.4216 292.009 75.4069 295.279 69.1618L292.107 67.1421C289.318 70.7941 287.784 72.8137 286.245 72.8137C285.191 72.8137 284.71 72.1372 284.71 70.8921C284.71 69.9314 285 68.8725 285.382 67.3333L293.068 33.902L291.529 32.5539L283.941 35.7255C281.402 33.6273 278.199 32.5028 274.906 32.5539C260.014 32.5539 241.377 50.9069 241.377 68.201C241.377 78.8627 246.377 82.4167 251.852 82.4167C257.421 82.4167 263.666 78.3823 268.764 72.9069C268.764 79.1519 272.313 82.4167 277.887 82.4167V82.4216ZM262.897 71.2745C259.73 71.2745 257.808 68.9706 257.808 62.8186C257.808 56.6716 260.691 46.1029 265.112 42.2598C267.029 40.5294 268.568 39.9559 270.299 39.9559C271.833 39.9559 273.47 40.3382 275.004 41.0098L269.72 65.0294C269.524 66.0882 269.338 67.1421 269.142 68.1029C267.318 69.7353 265.014 71.2745 262.897 71.2745Z" fill="#00305E"/>
<path d="M333.117 82.4216C341.956 82.4216 348.779 75.9804 352.529 69.255L349.353 67.2402C346.47 71.0834 344.549 72.8138 343.206 72.8138C342.343 72.8138 341.863 72.1373 341.863 70.8922C341.863 69.9314 342.152 68.8726 342.534 67.3334L347.142 49.0785C347.835 46.4779 348.19 43.7991 348.201 41.1079C348.201 35.3432 344.647 32.554 340.421 32.554C334.269 32.554 327.735 36.0148 321.01 42.5491L322.647 34.0932L320.627 32.3628L299.681 38.0295L299.01 41.9706L304.583 43.0295L296.799 80.402L298.338 81.652L313.225 80.8824C314.568 73.8726 315.823 67.0491 317.358 60.1275L319.858 48.505C323.314 45.1422 326.485 43.701 328.98 43.701C330.23 43.701 331.191 44.5638 331.191 46.103C331.191 47.5442 330.809 49.9461 330.039 52.8285L326.681 66.1765C326.01 68.6765 325.049 72.4216 325.049 75.4951C325.049 79.9167 327.931 82.4167 333.117 82.4167V82.4216Z" fill="#00305E"/>
<mask id="mask0_79_511" style="mask-type:luminance" maskUnits="userSpaceOnUse" x="0" y="0" width="101" height="100">
<path d="M50.1367 100C77.751 100 100.137 77.6142 100.137 50C100.137 22.3858 77.751 0 50.1367 0C22.5225 0 0.136719 22.3858 0.136719 50C0.136719 77.6142 22.5225 100 50.1367 100Z" fill="white"/>
<path d="M71.3964 27.0097C70.1611 24.9313 68.367 23.3921 66.3327 22.147C58.9552 17.6274 50.9748 16.2352 42.4748 17.7352C37.4601 18.6175 32.9307 20.5587 29.269 24.196C23.1954 30.2303 22.8866 39.7646 29.5631 45.4852C31.8439 47.4396 34.3782 49.0769 37.0974 50.3528C42.318 52.7793 47.7248 54.8087 53.0386 57.0391C56.8817 58.6568 60.5827 60.5195 63.7101 63.3528C68.5141 67.7058 69.3964 74.3626 66.6366 79.1617C66.5533 79.3038 66.519 79.4754 66.4356 79.7254C66.6954 79.7744 66.8082 79.8234 66.8964 79.8038C67.0631 79.7548 67.2248 79.6666 67.3817 79.5783C70.818 77.5489 73.8131 75.0244 76.0582 71.7009C80.7248 64.7891 79.7346 56.9803 73.3327 51.6519C71.0901 49.7561 68.6121 48.158 65.9601 46.897C60.6366 44.4362 55.1415 42.3528 49.7199 40.1028C46.7101 38.8528 43.6807 37.6372 41.0925 35.5783C37.1072 32.4019 39.0925 28.0881 42.0435 26.6077C43.8278 25.7156 45.7199 25.4754 47.6905 25.6028C51.2248 25.8332 54.5043 26.9264 57.5827 28.6175C63.7199 31.9999 68.5876 36.7989 72.8425 42.2695C73.0876 42.5832 73.3817 42.8626 73.6464 43.1568L73.916 43.0195C73.8523 42.7009 73.818 42.3725 73.7199 42.0636C72.9846 39.7499 72.2199 37.446 71.5141 35.1225C71.3896 34.6996 71.4191 34.2462 71.5974 33.843C72.8327 31.5146 72.7248 29.245 71.4013 27.0146L71.3964 27.0097Z" fill="black"/>
<path d="M18.2687 41.1421L18.6216 41.1715C18.6951 41.5686 18.7834 41.9656 18.8422 42.3627C19.5873 47.245 22.2736 50.9117 26.0971 53.8529C30.0285 56.8823 34.5236 58.8431 39.0628 60.7352C43.6559 62.647 48.2638 64.5293 52.7981 66.5686C54.2525 67.2687 55.6035 68.166 56.8128 69.2352C61.4206 73.1176 60.401 79.9705 54.901 82.4656C52.0334 83.7646 48.9942 83.8578 45.9304 83.5637C31.8226 82.2009 18.6461 70.0833 17.004 54.3921C16.5469 50.2263 16.8626 46.0119 17.9353 41.9607C18.0089 41.6813 18.1559 41.4117 18.2687 41.1421V41.1421Z" fill="black"/>
</mask>
<g mask="url(#mask0_79_511)">
<path d="M50.1367 100C77.751 100 100.137 77.6142 100.137 50C100.137 22.3858 77.751 0 50.1367 0C22.5225 0 0.136719 22.3858 0.136719 50C0.136719 77.6142 22.5225 100 50.1367 100Z" fill="#00305E"/>
</g>
</g>
<defs>
<clipPath id="clip0_79_511">
<rect width="352.451" height="100" fill="white" transform="translate(0.136719)"/>
</clipPath>
</defs>
</svg>
