<svg width="286" height="80" viewBox="0 0 286 80" fill="none" xmlns="http://www.w3.org/2000/svg">
<g style="mix-blend-mode:luminosity" clip-path="url(#clip0_79_523)">
<mask id="mask0_79_523" style="mask-type:luminance" maskUnits="userSpaceOnUse" x="0" y="0" width="286" height="80">
<path d="M285.136 0H0.316406V80H285.136V0Z" fill="white"/>
</mask>
<g mask="url(#mask0_79_523)">
<path d="M3.52494 0L0.316406 17.957H12.508L1.70683 80H22.5613L33.4699 17.957H45.6606L48.8692 0H3.52494Z" fill="#FF008A"/>
<path d="M72.1412 27.419L76.9537 0H54.8164L40.8066 80H62.9441L68.2911 49.2472H77.2742L71.9272 80H94.0646L108.074 0H85.9369L81.1243 27.419H72.1412Z" fill="#FF008A"/>
<path d="M142.426 45.161C142.961 39.57 143.388 36.021 144.779 28.709L149.805 0H167.558L153.549 80H134.727L129.379 45.161C128.523 39.462 128.202 35.699 127.882 31.935C127.573 35.5512 126.771 40.4594 125.665 47.2303L125.529 48.064L119.968 80H102.001L116.01 0H136.972L140.821 30.43C141.57 36.559 142.106 40.968 142.426 45.161Z" fill="#FF008A"/>
<path fill-rule="evenodd" clip-rule="evenodd" d="M237.027 0L223.019 80H244.407L249.967 48.387H253.497C256.811 48.387 257.882 50.107 257.133 54.3012L253.604 74.0858C253.175 76.8819 253.497 78.8169 254.459 80H275.634L275.742 79.4622C275.207 78.0641 274.78 76.2361 275.314 72.9031L278.95 52.2578C280.553 43.656 277.559 39.462 272.961 36.989C278.095 35.376 282.372 32.042 283.763 23.978L284.618 19.247C287.185 5.80699 279.913 0 269.646 0H237.027ZM261.838 26.989C261.09 30.753 259.7 32.043 256.705 32.043H252.855L255.848 15.054H259.271C262.373 15.054 263.656 16.775 263.015 20.323L261.838 26.989Z" fill="#FF008A"/>
<path d="M195.282 50H183.883L192.652 0H175.495L161.485 80H195.282V50Z" fill="#FF008A"/>
<path d="M195.282 0H205.974C218.807 0 227.898 6.452 225.01 23.225L218.915 58.0641C216.431 73.0429 211.32 79.5508 197.92 79.96L206.681 30H195.282V0Z" fill="#FF008A"/>
</g>
</g>
<defs>
<clipPath id="clip0_79_523">
<rect width="284.819" height="80" fill="white" transform="translate(0.316406)"/>
</clipPath>
</defs>
</svg>
