<svg width="521" height="100" viewBox="0 0 521 100" fill="none" xmlns="http://www.w3.org/2000/svg">
<g style="mix-blend-mode:luminosity" clip-path="url(#clip0_79_536)">
<mask id="mask0_79_536" style="mask-type:luminance" maskUnits="userSpaceOnUse" x="0" y="0" width="521" height="100">
<path d="M520.744 0H0.640625V100H520.744V0Z" fill="white"/>
</mask>
<g mask="url(#mask0_79_536)">
<path d="M134.311 62.7556V34.2133C134.311 27.0999 133.718 24.1804 130.887 18.875V18.6972H147.608V18.875C145.295 23.2468 144.184 27.0999 144.184 34.2133V62.5041C144.184 76.4788 150.099 79.8134 159.275 79.8134C170.956 79.8134 174.958 72.018 174.958 61.7335V35.7545C174.958 28.0335 173.847 24.8621 168.792 18.8602V18.6824H185.602V18.8602C180.621 24.8621 179.435 28.0335 179.435 35.7545V61.6443C179.435 73.9 174.114 84.4515 157.733 84.4515C145.043 84.4515 134.326 78.1979 134.326 62.7556H134.311Z" fill="#002851"/>
<path d="M188.834 82.9995C190.465 78.1088 190.895 73.8263 190.895 65.9423V55.5686C190.895 49.6553 189.012 46.395 186.773 43.9942V43.8164L199.374 39.1038V47.6695L199.715 47.7584C203.569 42.9569 207.868 39.5336 214.123 39.5336C222.188 39.5336 226.65 44.587 226.65 52.3969V65.8531C226.65 73.9149 226.828 78.1088 228.711 82.9995V83.1773H215.769V82.9995C217.4 78.1088 217.74 73.3964 217.74 65.9423V54.5459C217.74 49.6553 215.517 45.5503 209.587 45.5503C205.807 45.5503 202.294 47.1805 199.73 50.4408V65.868C199.73 73.6629 199.907 78.1237 201.701 83.0144V83.1923H188.834V83.0144V82.9995Z" fill="#002851"/>
<path d="M270.707 73.3221C270.707 73.3221 270.766 73.4406 270.752 73.4999C268.157 79.7092 262.346 84.4515 253.556 84.4515C241.889 84.4515 234.092 75.886 234.092 62.7556C234.092 49.6256 244.899 39.5187 256.565 39.5187C262.598 39.5187 266.082 40.7487 268.157 41.7564C268.246 41.8009 268.32 41.8898 268.335 41.9935L269.58 51.9819C269.58 52.0561 269.536 52.1303 269.462 52.1597L268.676 52.3525C268.676 52.3525 268.543 52.3525 268.498 52.2783C266.067 48.2474 260.538 42.1714 255.186 42.1714C247.819 42.1714 243.016 48.692 243.016 59.1396C243.016 70.6252 249.108 76.8788 258.285 76.8788C262.524 76.8788 266.764 75.7082 269.758 72.6107C269.818 72.5515 269.906 72.5515 269.98 72.6107L270.737 73.2927L270.707 73.3221Z" fill="#002851"/>
<path d="M275.317 82.9994C276.948 78.1087 277.289 73.8262 277.289 65.9422V32.0941C277.289 26.27 275.406 22.9208 273.257 20.6089V20.357L286.124 15.8074V47.7584H286.213C290.067 42.9569 294.366 39.5335 300.622 39.5335C308.686 39.5335 313.222 44.587 313.222 52.3969V65.9422C313.222 73.9149 313.4 78.1087 315.194 82.9994V83.1773H302.253V82.9994C303.883 78.1087 304.313 73.3963 304.313 65.9422V54.5458C304.313 49.6553 302.001 45.5503 296.086 45.5503C292.232 45.5503 288.792 47.2693 286.139 50.5296V65.9566C286.139 73.6778 286.48 78.1237 288.288 83.0144V83.1922H275.347V83.0144L275.317 82.9994Z" fill="#002851"/>
<path d="M320.99 76.2267C320.99 66.6237 334.198 59.8958 343.893 58.2654V54.2051C343.893 48.1141 341.744 45.2835 335.577 45.2835C331.841 45.2835 327.349 46.2912 323.599 48.8995C323.54 48.944 323.451 48.9291 323.406 48.8847L322.739 48.2178C322.739 48.2178 322.68 48.0696 322.724 48.0103C326.43 43.0902 332.82 39.5483 340.306 39.5483C349.912 39.5483 352.832 45.2983 352.832 51.8932V74.7891C352.832 77.1901 353.692 78.82 356.256 78.82C357.843 78.82 359.192 78.2422 360.704 76.9381C360.763 76.8938 360.852 76.8788 360.911 76.9381L361.489 77.4566C361.489 77.4566 361.563 77.5752 361.519 77.6494C360.037 80.5541 357.131 84.2293 351.705 84.2293C346.991 84.2293 344.59 81.5767 344.071 78.1386C341.24 81.4876 336.526 84.4814 330.774 84.4814C325.022 84.4814 321.005 81.4876 321.005 76.2566L320.99 76.2267ZM335.918 79.1463C339.268 79.1463 342.352 77.6938 343.893 75.9747V60.4886C336.599 62.1185 329.321 67.6463 329.321 73.5742C329.321 76.9974 331.811 79.1463 335.918 79.1463Z" fill="#002851"/>
<path d="M366.53 82.9994C367.73 78.1087 368.59 73.737 368.59 65.9422V55.9092C368.59 50.2481 366.707 46.8247 364.469 44.5129V43.8312L377.41 39.1185V65.868C377.41 73.4999 377.588 78.1236 379.382 83.0144V83.1922H366.515V83.0144L366.53 82.9994ZM367.211 24.0322C367.211 20.9497 369.524 18.549 372.533 18.549C375.542 18.549 377.929 20.9497 377.929 24.0322C377.929 26.9517 375.527 29.3525 372.533 29.3525C369.539 29.3525 367.211 26.9517 367.211 24.0322Z" fill="#002851"/>
<path d="M387.002 82.9995C388.633 78.1088 389.063 73.8263 389.063 65.9423V55.5686C389.063 49.6553 387.18 46.395 384.941 43.9942V43.8164L397.542 39.1038V47.6695L397.883 47.7584C401.737 42.9569 406.036 39.5336 412.292 39.5336C420.356 39.5336 424.818 44.587 424.818 52.3969V65.8531C424.818 73.9149 424.996 78.1088 426.879 82.9995V83.1773H413.937V82.9995C415.568 78.1088 415.909 73.3964 415.909 65.9423V54.5459C415.909 49.6553 413.685 45.5503 407.756 45.5503C403.975 45.5503 400.462 47.1805 397.898 50.4408V65.868C397.898 73.6629 398.075 78.1237 399.869 83.0144V83.1923H387.002V83.0144V82.9995Z" fill="#002851"/>
<path d="M468.563 71.8552L469.378 72.4629C469.378 72.4629 469.452 72.5815 469.423 72.6552C466.739 79.1165 460.928 84.4516 451.975 84.4516C440.219 84.4516 432.259 75.6191 432.259 62.8449C432.259 48.529 442.458 39.5336 452.582 39.5336C462.707 39.5336 470.075 49.0477 469.215 57.7912H441.257V59.0804C441.257 70.9067 447.512 76.9088 456.599 76.9088C461.269 76.9088 465.257 75.3083 468.34 71.8701C468.4 71.8108 468.489 71.7959 468.548 71.8552H468.563ZM441.361 55.3907L458.809 54.9902V54.0273C458.809 46.4988 456.333 43.0606 451.441 43.0606C445.838 43.0606 442.161 48.1882 441.361 55.3758V55.3907Z" fill="#002851"/>
<path d="M507.803 41.0747V32.183C507.803 26.3589 505.92 22.9208 503.77 20.6978V20.52L516.713 15.8074V64.2231C516.713 76.3896 517.734 78.5386 520.744 81.1912V81.369L508.144 84.2V75.5453H507.891C505.312 80.0948 500.094 84.4664 492.623 84.4664C481.905 84.4664 475.561 75.8118 475.561 63.8969C475.561 51.0335 483.536 39.5484 498.804 39.5484C502.229 39.5484 505.327 40.1411 507.803 41.0896V41.0747ZM497.174 78.2865C501.799 78.2865 505.401 76.1381 507.803 72.8922V51.552C506.172 44.3499 501.71 42.201 497.604 42.201C489.969 42.201 485.078 49.9961 485.078 60.8886C485.078 71.7809 489.11 78.2865 497.174 78.2865Z" fill="#002851"/>
<mask id="mask1_79_536" style="mask-type:luminance" maskUnits="userSpaceOnUse" x="0" y="-1" width="101" height="101">
<path d="M100.641 -0.0601807H0.640625V99.9398H100.641V-0.0601807Z" fill="white"/>
</mask>
<g mask="url(#mask1_79_536)">
<path d="M50.6403 99.8781C77.9296 99.8781 100.052 77.6248 100.052 50.174C100.052 22.7231 77.9296 0.469849 50.6403 0.469849C23.3509 0.469849 1.22852 22.7231 1.22852 50.174C1.22852 77.6248 23.3509 99.8781 50.6403 99.8781Z" fill="white"/>
<path d="M37.0377 71.0319C31.9789 78.7391 28.0965 86.1798 25.1406 92.8515C32.5818 97.3633 41.3171 99.952 50.6406 99.952C77.9786 99.952 100.14 77.6592 100.14 50.1591C100.14 49.2567 100.111 48.3544 100.067 47.452H94.4786C76.2436 47.452 52.8023 46.9934 37.0377 71.0169V71.0319Z" fill="#0095D6"/>
<path d="M99.6114 42.9254H71.464C37.4494 42.9254 18.0083 58.0731 7.00829 73.7092C3.25827 66.6973 1.14062 58.6798 1.14062 50.1739C1.14062 22.6739 23.3024 0.380981 50.6406 0.380981C75.5227 0.380981 96.1258 18.8573 99.6114 42.9254Z" fill="#002851"/>
<path d="M51.0231 13.1177L51.9055 15.8544C52.8759 18.8277 55.1996 21.165 58.1553 22.1413L60.8759 23.0289C61.1703 23.1325 61.1703 23.5466 60.8759 23.6354L58.1553 24.523C55.1996 25.4993 52.8759 27.8366 51.9055 30.81L51.0231 33.5466C50.9202 33.8425 50.5085 33.8425 50.4202 33.5466L49.5379 30.81C48.5673 27.8366 46.2438 25.4993 43.2879 24.523L40.5673 23.6354C40.2731 23.5318 40.2731 23.1177 40.5673 23.0289L43.2879 22.1413C46.2438 21.165 48.5673 18.8277 49.5379 15.8544L50.4202 13.1177C50.5231 12.8218 50.935 12.8218 51.0231 13.1177Z" fill="white"/>
</g>
</g>
</g>
<defs>
<clipPath id="clip0_79_536">
<rect width="520.103" height="100" fill="white" transform="translate(0.640625)"/>
</clipPath>
</defs>
</svg>
