<svg width="268" height="80" viewBox="0 0 268 80" fill="none" xmlns="http://www.w3.org/2000/svg">
<g style="mix-blend-mode:luminosity">
<path d="M103.556 3.33325H87.5732V76.7739H103.556V3.33325Z" fill="black"/>
<path d="M7.66113 46.7049V3.33325H23.4326V41.3949C23.4326 44.5523 25.0574 47.5136 27.7912 49.3386L39.6988 57.2889C42.1178 58.9039 45.3621 58.8789 47.7528 57.2266L59.1565 49.3459C61.8101 47.5122 63.3778 44.5966 63.3778 41.4953V3.33325H79.3558V46.7122C79.3558 50.7479 77.3641 54.5539 73.9668 57.0106L49.8258 74.4669C46.1191 77.1472 40.9648 77.1492 37.2558 74.4722L13.0604 57.0103C9.657 54.5543 7.66113 50.7446 7.66113 46.7049Z" fill="black"/>
<path d="M261.313 33.4314V76.8027H245.541V38.7411C245.541 35.5837 243.917 32.6226 241.183 30.7973L229.275 22.8472C226.856 21.2321 223.612 21.2571 221.221 22.9093L209.817 30.79C207.164 32.6239 205.596 35.5394 205.596 38.6407V76.8027H189.618V33.4237C189.618 29.3882 191.61 25.5822 195.007 23.1255L219.148 5.66919C222.855 2.98894 228.009 2.98669 231.718 5.66369L255.913 23.1257C259.317 25.5819 261.313 29.3914 261.313 33.4314Z" fill="black"/>
<path fill-rule="evenodd" clip-rule="evenodd" d="M111.587 76.7383V3.39819H164.549C174.058 3.39819 181.767 10.6627 181.767 19.6239V60.5126C181.767 69.474 174.058 76.7383 164.549 76.7383H111.587ZM127.358 61.681V18.3907H158.97C162.774 18.3907 165.857 21.2965 165.857 24.881V55.1906C165.857 58.775 162.774 61.681 158.97 61.681H127.358Z" fill="black"/>
</g>
</svg>
