<svg width="133" height="110" viewBox="0 0 133 110" fill="none" xmlns="http://www.w3.org/2000/svg">
<g style="mix-blend-mode:luminosity" clip-path="url(#clip0_79_534)">
<path d="M93.0378 33.8046C93.3739 33.7944 93.7507 33.7843 94.1276 33.713H130.906C131.375 33.7843 131.854 33.7333 132.322 33.8352C132.434 33.8556 132.556 34.0694 132.505 34.1713C132.495 34.212 132.495 34.263 132.465 34.3037C132.241 34.5481 132.016 34.8028 131.792 35.037C129.99 36.85 128.187 38.6528 126.384 40.4759C125.987 40.8731 125.6 41.3009 125.213 41.7083C125.05 41.8815 124.887 42.0546 124.724 42.2176C123.685 43.2565 122.656 44.3056 121.617 45.3343C114.926 52.0259 108.234 58.7176 101.542 65.4194C97.2239 69.738 92.9156 74.0565 88.6072 78.3852C81.6406 85.3518 74.6841 92.3083 67.7276 99.275C65.7517 101.251 63.7859 103.227 61.81 105.203C61.3109 105.702 60.8017 106.191 60.2517 106.649C58.6628 107.983 56.8498 108.849 54.8433 109.338C53.8757 109.572 52.8878 109.674 51.8998 109.776C51.6146 109.806 51.3294 109.806 51.0544 109.786C44.4035 109.582 40.0443 105.356 38.2822 101.108C37.5998 99.4787 37.2128 97.7778 37.1924 96.0055C37.1822 95.6287 37.1822 95.2518 37.1822 94.8648C37.1822 75.1259 37.1822 55.3972 37.1924 35.6685C37.1924 35.2 37.2026 34.7213 37.223 34.2528C37.2331 34.0389 37.4674 33.825 37.6915 33.8148C37.8341 33.8046 37.9767 33.7944 38.1091 33.8148H60.9646C62.197 33.7843 63.4294 33.7843 64.6517 33.7944C64.835 33.7944 65.0285 33.8352 65.2118 33.8657C65.3035 33.8759 65.4665 34.0593 65.4868 34.1611C65.5072 34.3037 65.548 34.4463 65.548 34.5787C65.5581 35.0981 65.5581 35.6176 65.5581 36.137V58.9926C65.5581 59.3694 65.548 59.7463 65.5581 60.1333C65.5683 60.3574 65.497 60.6018 65.6804 60.7954C65.8026 60.9176 65.9248 60.8463 66.3628 60.4185L67.1674 59.6139L77.9128 48.8685C80.1535 46.6278 82.3943 44.3768 84.6248 42.1361C84.9304 41.8306 85.2054 41.5148 85.5007 41.2093C85.735 40.9648 85.9489 40.7306 86.1933 40.4963L91.9174 34.7722C92.2739 34.4157 92.5794 34.0491 93.0378 33.8046ZM1.40166 47.9722V1.69074C1.34055 1.35463 1.30999 1.0287 1.39147 0.702774C1.43221 0.549997 1.62573 0.356478 1.77851 0.336108C1.93129 0.325923 2.06369 0.305552 2.20629 0.305552C2.49147 0.295367 3.05166 0.305552 3.05166 0.305552H27.4248C27.8424 0.305552 28.2702 0.315737 28.698 0.346293C28.9118 0.356478 29.1461 0.590737 29.1665 0.804626C29.1767 0.896293 29.197 0.98796 29.197 1.08981C29.2072 1.32407 29.2072 1.55833 29.2072 1.80277V84.812C29.2072 87.6537 29.197 90.4954 29.2174 93.3268C29.2276 94.6102 29.1054 95.8731 28.8915 97.1361C28.6063 98.7657 28.1276 100.355 27.4146 101.862C27.3128 102.076 27.2109 102.28 27.0887 102.494C25.347 105.712 22.6683 107.739 19.1442 108.645C18.4109 108.839 17.6674 108.961 16.9035 109.002C16.0072 109.043 15.1109 109.073 14.2044 109.012C11.7905 108.869 9.55999 108.177 7.53314 106.853C6.20906 105.997 5.09888 104.897 4.20258 103.604C3.14332 102.076 2.42018 100.385 1.98221 98.5722C1.62573 97.1055 1.38129 95.6083 1.35073 94.0806C1.34055 93.1639 1.2998 92.2676 1.2998 91.3713V63.2704C1.2998 63.2704 1.34055 53.0546 1.34055 47.9722H1.40166Z" fill="black"/>
</g>
<defs>
<clipPath id="clip0_79_534">
<rect width="132.407" height="110" fill="white" transform="translate(0.586914)"/>
</clipPath>
</defs>
</svg>
