<svg width="318" height="95" viewBox="0 0 318 95" fill="none" xmlns="http://www.w3.org/2000/svg">
<path d="M94.725 26.0285C92.1515 24.3191 89.264 23.138 86.2302 22.5541C82.7884 21.8709 79.2865 21.5357 75.7775 21.5529C64.3825 21.5529 58.6899 24.3453 58.6997 29.9299C58.6867 30.7873 58.8471 31.6386 59.1708 32.4327C59.4703 33.1509 59.8247 33.8448 60.2308 34.5085C60.5596 35.0391 60.9447 35.5326 61.3791 35.9807L62.1447 36.7463C62.5769 36.4585 63.0296 36.2025 63.4991 35.9807C64.313 35.5871 65.1606 35.2668 66.0313 35.0238C67.29 34.6543 68.5744 34.3787 69.8739 34.1993C71.6007 33.9612 73.3424 33.8482 75.0855 33.8607C79.3157 33.8607 82.3387 34.5036 84.1544 35.7893C85.0215 36.371 85.7256 37.1644 86.1996 38.0946C86.6739 39.0249 86.9022 40.0609 86.8633 41.1041C85.9652 40.9716 84.8316 40.8832 83.4477 40.8096C82.0639 40.736 80.3708 40.7213 78.3244 40.7213C70.1389 40.7213 64.1567 41.9874 60.378 44.5196C56.5993 47.0518 54.71 51.2722 54.71 57.1807C54.7266 59.3111 55.1461 61.4191 55.9466 63.3935C56.7852 65.4491 58.1762 67.2327 59.9658 68.5463C62.2638 70.2232 64.863 71.4428 67.6214 72.1385C71.5775 73.0905 75.6402 73.5261 79.7083 73.4341C82.6527 73.4341 85.3175 73.4341 87.9086 73.2427C90.4997 73.0513 92.8111 72.9629 94.828 72.7568C96.845 72.5507 98.5233 72.3888 99.863 72.2268C100.738 72.1599 101.605 72.017 102.454 71.7999V42.6941C102.568 39.2078 101.862 35.7436 100.393 32.5799C99.0931 29.9485 97.142 27.6933 94.725 26.0285ZM86.9958 61.9066C86.0795 62.0972 85.1486 62.2104 84.2133 62.2452C82.7411 62.3335 81.2689 62.3777 79.62 62.3777C77.9055 62.4181 76.1932 62.235 74.5261 61.8329C73.49 61.6037 72.5127 61.1626 71.6552 60.5374C71.0809 60.1271 70.6445 59.552 70.4039 58.8885C70.2174 58.2976 70.1184 57.6826 70.1094 57.0629C70.1096 56.3103 70.239 55.5634 70.4922 54.8546C70.78 54.1118 71.2632 53.4607 71.8908 52.9702C72.7345 52.3495 73.6965 51.9086 74.7175 51.6746C76.2562 51.3156 77.8341 51.1523 79.4139 51.1888C81.6664 51.1888 83.3447 51.1888 84.4636 51.336C85.3145 51.39 86.1606 51.503 86.9958 51.6746V61.9066Z" fill="#3FD092"/>
<path d="M215.151 2.94489C214.018 2.91791 212.889 3.1264 211.841 3.55719C210.791 3.98798 209.843 4.6317 209.056 5.44766C208.255 6.2588 207.625 7.22312 207.205 8.28301C206.787 9.34291 206.584 10.4766 206.612 11.6163C206.586 12.7461 206.789 13.8695 207.209 14.9189C207.629 15.9683 208.255 16.922 209.054 17.7225C209.851 18.5229 210.803 19.1538 211.851 19.5769C212.899 20.0001 214.02 20.2068 215.151 20.1846C216.291 20.2026 217.424 19.9889 218.478 19.556C219.534 19.1233 220.49 18.4807 221.291 17.6671C222.098 16.8827 222.734 15.9409 223.164 14.9001C223.59 13.8592 223.8 12.7415 223.778 11.6163C223.802 10.4719 223.593 9.33474 223.164 8.27415C222.732 7.21356 222.09 6.25181 221.275 5.44766C220.478 4.63513 219.524 3.99399 218.472 3.56359C217.418 3.13321 216.289 2.92266 215.151 2.94489Z" fill="#3FD092"/>
<path d="M215.535 22.8934C213.46 22.7809 211.399 23.3215 209.646 24.4393C208.867 25.069 208.254 25.8834 207.87 26.8091C207.483 27.7347 207.336 28.7419 207.438 29.7393V70.0929C208.423 70.5416 209.436 70.9252 210.47 71.2412C212.082 71.769 213.766 72.0327 215.462 72.0215C216.463 72.0976 217.472 71.9744 218.428 71.6585C219.384 71.3427 220.268 70.8406 221.027 70.1812C222.264 68.9593 222.882 66.9129 222.882 64.0273V24.2773L220.246 23.5559C218.717 23.1056 217.129 22.8824 215.535 22.8934Z" fill="#3FD092"/>
<path d="M300.612 52.8536C303.678 52.3648 306.632 51.338 309.341 49.8208C311.275 48.7086 312.815 47.0275 313.758 45.0066C314.619 42.9834 315.045 40.8014 315.01 38.6025C315.006 36.3982 314.504 34.2235 313.538 32.2425C312.505 30.1272 311.035 28.2553 309.223 26.7511C307.164 25.0553 304.801 23.7662 302.261 22.9527C299.257 21.9762 296.113 21.5037 292.956 21.5541C289.435 21.5278 285.939 22.1621 282.651 23.4239C279.551 24.6148 276.715 26.4003 274.302 28.6797C271.89 30.9671 269.984 33.7357 268.708 36.8064C267.338 40.1652 266.65 43.7641 266.692 47.3916C266.627 51.1501 267.312 54.8841 268.708 58.3744C269.925 61.4298 271.778 64.1911 274.143 66.4756C276.508 68.76 279.333 70.5151 282.429 71.6244C285.654 72.8006 289.066 73.3891 292.499 73.3616C297.316 73.4023 302.109 72.6868 306.707 71.2416C308.214 70.7795 309.688 70.2189 311.123 69.5633C311.565 69.3803 311.989 69.1534 312.389 68.8861C312.36 68.0021 312.266 67.1214 312.109 66.2508C311.911 64.8759 311.488 63.5429 310.858 62.3052C310.224 60.7759 309.013 59.5589 307.486 58.9191C306.518 58.6541 305.494 58.6796 304.542 58.9927C303.452 59.3166 302.143 59.67 300.671 59.9644C299.1 60.2467 297.508 60.3798 295.914 60.3619C294.044 60.3933 292.175 60.2007 290.349 59.7877C289.016 59.509 287.739 59.0116 286.567 58.3155C285.676 57.7765 284.894 57.072 284.27 56.2397C283.758 55.5791 283.41 54.8073 283.253 53.9872H286.61C291.301 54.0382 295.989 53.6588 300.612 52.8536ZM282.429 43.8877C282.497 42.591 282.755 41.3112 283.194 40.0894C283.632 38.8769 284.301 37.7615 285.167 36.8064C286.072 35.8168 287.161 35.0163 288.377 34.4508C289.794 33.8166 291.331 33.5046 292.882 33.538C294.823 33.3939 296.753 33.9131 298.358 35.0102C298.916 35.4138 299.371 35.9423 299.687 36.5533C300.005 37.164 300.176 37.8406 300.184 38.5288C300.178 39.19 300.048 39.844 299.801 40.4575C299.334 41.2792 298.58 41.8983 297.681 42.1947C295.989 42.8436 294.216 43.2645 292.41 43.4461C289.097 43.8039 285.762 43.9515 282.429 43.8877Z" fill="#3FD092"/>
<path d="M200.813 25.4993C199.456 24.2997 197.874 23.3836 196.16 22.8051C193.265 21.8552 190.224 21.4312 187.179 21.5537C184.252 21.5197 181.339 21.9571 178.552 22.8493C176.074 23.6362 173.789 24.9298 171.839 26.6476C169.932 28.3556 168.425 30.4614 167.422 32.8162C166.333 35.4819 165.807 38.3439 165.876 41.2226V70.0929C166.867 70.5381 167.886 70.9214 168.924 71.2412C170.534 71.769 172.22 72.0327 173.915 72.0215C174.917 72.0978 175.926 71.9744 176.881 71.6585C177.837 71.3427 178.72 70.8406 179.48 70.1812C180.716 68.9593 181.335 66.9129 181.335 64.0273V44.5645C181.335 41.2962 182.174 38.9554 183.881 37.542C185.62 36.1132 187.815 35.3602 190.065 35.422C191.781 35.4008 193.492 35.6289 195.144 36.0993C196.496 36.4824 197.815 36.9747 199.089 37.5715C199.282 37.3801 199.56 37.0562 199.943 36.5998C200.381 36.0816 200.783 35.5357 201.15 34.9656C201.59 34.2755 201.94 33.5339 202.197 32.7573C202.497 31.8862 202.644 30.97 202.638 30.0484C202.656 29.189 202.491 28.3353 202.152 27.5456C201.81 26.8001 201.36 26.1099 200.813 25.4993Z" fill="#3FD092"/>
<path d="M153.465 28.6793C151.037 26.3893 148.181 24.603 145.058 23.4234C141.706 22.1518 138.146 21.5178 134.561 21.5537C130.241 21.4903 125.956 22.3432 121.989 24.0565C118.3 25.66 115.093 28.1972 112.684 31.4176C111.032 33.7103 109.824 36.2918 109.121 39.029C108.24 42.5217 107.824 46.1155 107.885 49.7173V89.3495C108.837 89.8067 109.821 90.1956 110.829 90.5126C112.454 91.0446 114.155 91.3033 115.864 91.2781C116.859 91.3529 117.86 91.2301 118.807 90.9168C119.754 90.6035 120.631 90.1059 121.385 89.4526C122.622 88.2307 123.24 86.1695 123.24 83.284V68.0612C124.781 69.4845 126.547 70.6437 128.466 71.4915C131.25 72.6979 134.267 73.2711 137.3 73.1698C140.459 73.192 143.59 72.5709 146.501 71.3443C149.344 70.1467 151.908 68.3776 154.039 66.1473C156.241 63.8028 157.965 61.0526 159.118 58.0501C160.41 54.6679 161.045 51.0702 160.988 47.4501C161.045 43.8047 160.369 40.1852 159 36.8059C157.731 33.7463 155.848 30.9801 153.465 28.6793ZM142.084 55.9448C140.518 57.5505 138.5 58.6406 136.298 59.0695C134.096 59.4982 131.816 59.2453 129.762 58.3445C128.436 57.757 127.244 56.9055 126.258 55.8418C125.244 54.7574 124.458 53.4809 123.947 52.0876C123.396 50.594 123.121 49.0126 123.137 47.4207C123.052 45.8691 123.286 44.3166 123.822 42.8585C124.359 41.4002 125.188 40.067 126.258 38.9407C127.302 37.9191 128.542 37.1198 129.903 36.591C131.264 36.0622 132.719 35.8146 134.179 35.8637C135.645 35.818 137.104 36.0769 138.465 36.6242C139.826 37.1716 141.058 37.9955 142.084 39.0437C143.14 40.1595 143.96 41.476 144.496 42.9151C145.032 44.3541 145.273 45.8864 145.206 47.4207C145.322 50.5612 144.201 53.6218 142.084 55.9448Z" fill="#3FD092"/>
<path d="M265.519 65.4845C265.346 64.2407 264.991 63.03 264.459 61.8922C263.883 60.3774 262.855 59.0768 261.514 58.1675C260.815 57.803 260.036 57.6214 259.249 57.6393C258.46 57.6575 257.69 57.8746 257.009 58.2708L256.715 58.4031C255.121 59.0071 253.429 59.3115 251.723 59.3011C250.834 59.3045 249.948 59.2257 249.073 59.0656C248.239 58.9121 247.453 58.564 246.776 58.0497C246.052 57.4903 245.467 56.7695 245.068 55.9445C244.574 54.8456 244.34 53.6454 244.391 52.4406V37.3503H261.485C261.928 36.4291 262.311 35.48 262.633 34.5089C263.147 33.0021 263.406 31.4196 263.399 29.8272C263.471 28.8819 263.348 27.9314 263.033 27.0367C262.717 26.142 262.221 25.3224 261.573 24.6303C259.814 23.3067 257.624 22.6871 255.433 22.8931H244.391V9.89346C244.008 9.76096 243.111 9.49596 241.712 9.08374C240.192 8.64502 238.614 8.43172 237.03 8.45068C234.963 8.32012 232.906 8.83452 231.141 9.9229C230.358 10.55 229.746 11.3641 229.359 12.2904C228.974 13.2166 228.827 14.2251 228.933 15.2229V55.8414C228.835 58.2111 229.245 60.5743 230.132 62.773C231.021 64.9717 232.368 66.9553 234.086 68.5908C237.491 71.7708 242.199 73.361 248.205 73.361C250.233 73.3693 252.257 73.1618 254.241 72.7425C256.002 72.3803 257.735 71.8884 259.424 71.2703C260.786 70.7782 262.099 70.1673 263.353 69.4447C264.241 68.9442 265.079 68.3625 265.856 67.7075C265.768 67.3542 265.666 66.6181 265.519 65.4845Z" fill="#3FD092"/>
<path d="M49.5291 34.6408C50.2199 33.304 50.5689 31.8169 50.545 30.3125C50.6182 29.287 50.4619 28.258 50.0876 27.3005C49.7132 26.343 49.1303 25.4808 48.3808 24.7769C46.8373 23.487 44.87 22.8157 42.86 22.8925H4.862C4.41839 23.8139 4.03481 24.763 3.71367 25.7338C3.19061 27.2387 2.93162 28.8224 2.94811 30.4155C2.86372 31.3395 2.9835 32.2709 3.29897 33.1436C3.61444 34.0162 4.11788 34.8088 4.77367 35.4652C5.98089 36.5252 8.02728 37.0552 10.9128 37.0552H28.8591L7.36478 55.9438C6.00427 57.1179 4.84981 58.5112 3.94922 60.0661C3.26028 61.4346 2.91658 62.9508 2.94811 64.4827C2.87701 65.508 3.03426 66.5364 3.40848 67.4935C3.78272 68.4509 4.36462 69.3132 5.11228 70.0183C6.64928 71.3095 8.61248 71.9815 10.6184 71.9027H48.5869C49.0441 70.9856 49.4327 70.0358 49.75 69.0613C50.265 67.5546 50.5238 65.972 50.5155 64.3797C50.5999 63.4555 50.4802 62.5243 50.1647 61.6517C49.8493 60.779 49.3458 59.9864 48.69 59.33C46.8909 58.1019 44.7199 57.5397 42.5508 57.74H24.6338L46.1283 38.8661C47.4935 37.6608 48.6434 36.232 49.5291 34.6408Z" fill="#3FD092"/>
</svg>
